G04 Output from Chad's Board Thing.*
%FSLAX26Y26*%
%MOIN*%
%LPC*%
%ADD10C,0.026*%
D10*
X0215000Y-0163000D02*
Y-0164000D01*
X0208000D01*
Y-0165000D01*
X0204000D01*
Y-0166000D01*
X0200000D01*
Y-0167000D01*
X0197000D01*
Y-0168000D01*
X0194000D01*
Y-0169000D01*
X0192000D01*
Y-0170000D01*
X0189000D01*
Y-0171000D01*
X0187000D01*
Y-0172000D01*
X0185000D01*
Y-0173000D01*
X0183000D01*
Y-0174000D01*
X0182000D01*
Y-0175000D01*
X0180000D01*
Y-0176000D01*
X0178000D01*
Y-0177000D01*
X0177000D01*
Y-0178000D01*
X0175000D01*
Y-0179000D01*
X0174000D01*
Y-0180000D01*
X0173000D01*
Y-0181000D01*
X0171000D01*
Y-0182000D01*
X0170000D01*
Y-0183000D01*
X0169000D01*
Y-0184000D01*
X0168000D01*
Y-0185000D01*
X0167000D01*
Y-0186000D01*
X0166000D01*
Y-0187000D01*
X0165000D01*
Y-0188000D01*
X0164000D01*
Y-0189000D01*
X0163000D01*
Y-0190000D01*
X0162000D01*
Y-0191000D01*
X0161000D01*
Y-0192000D01*
X0160000D01*
Y-0193000D01*
X0159000D01*
Y-0194000D01*
X0158000D01*
Y-0196000D01*
X0157000D01*
Y-0197000D01*
X0156000D01*
Y-0198000D01*
X0155000D01*
Y-0200000D01*
X0154000D01*
Y-0201000D01*
X0153000D01*
Y-0203000D01*
X0152000D01*
Y-0205000D01*
X0151000D01*
Y-0206000D01*
X0150000D01*
Y-0208000D01*
X0149000D01*
Y-0210000D01*
X0148000D01*
Y-0212000D01*
X0147000D01*
Y-0215000D01*
X0146000D01*
Y-0217000D01*
X0145000D01*
Y-0220000D01*
X0144000D01*
Y-0223000D01*
X0143000D01*
Y-0227000D01*
X0142000D01*
Y-0231000D01*
X0141000D01*
Y-0238000D01*
X0140000D01*
Y-1199999D01*
X0141000D01*
Y-1207000D01*
X0142000D01*
Y-1211000D01*
X0143000D01*
Y-1215000D01*
X0144000D01*
Y-1217999D01*
X0145000D01*
Y-1221000D01*
X0146000D01*
Y-1223000D01*
X0147000D01*
Y-1225999D01*
X0148000D01*
Y-1227999D01*
X0149000D01*
Y-1229999D01*
X0150000D01*
Y-1231999D01*
X0151000D01*
Y-1233000D01*
X0152000D01*
Y-1235000D01*
X0153000D01*
Y-1237000D01*
X0154000D01*
Y-1238000D01*
X0155000D01*
Y-1240000D01*
X0156000D01*
Y-1241000D01*
X0157000D01*
Y-1242000D01*
X0158000D01*
Y-1244000D01*
X0159000D01*
Y-1245000D01*
X0160000D01*
Y-1246000D01*
X0161000D01*
Y-1247000D01*
X0162000D01*
Y-1248000D01*
X0163000D01*
Y-1249000D01*
X0164000D01*
Y-1250000D01*
X0165000D01*
Y-1251000D01*
X0166000D01*
Y-1252000D01*
X0167000D01*
Y-1253000D01*
X0168000D01*
Y-1254000D01*
X0169000D01*
Y-1255000D01*
X0170000D01*
Y-1256000D01*
X0171000D01*
Y-1257000D01*
X0173000D01*
Y-1258000D01*
X0174000D01*
Y-1259000D01*
X0175000D01*
Y-1260000D01*
X0177000D01*
Y-1261000D01*
X0178000D01*
Y-1262000D01*
X0180000D01*
Y-1263000D01*
X0182000D01*
Y-1264000D01*
X0183000D01*
Y-1265000D01*
X0185000D01*
Y-1266000D01*
X0187000D01*
Y-1267000D01*
X0189000D01*
Y-1268000D01*
X0192000D01*
Y-1269000D01*
X0194000D01*
Y-1270000D01*
X0197000D01*
Y-1271000D01*
X0200000D01*
Y-1272000D01*
X0204000D01*
Y-1273000D01*
X0208000D01*
Y-1274000D01*
X0215000D01*
Y-1275000D01*
X1138000D01*
Y-1274000D01*
X1145000D01*
Y-1273000D01*
X1149000D01*
Y-1272000D01*
X1153000D01*
Y-1271000D01*
X1155999D01*
Y-1270000D01*
X1159000D01*
Y-1269000D01*
X1161000D01*
Y-1268000D01*
X1163999D01*
Y-1267000D01*
X1165999D01*
Y-1266000D01*
X1167999D01*
Y-1265000D01*
X1169999D01*
Y-1264000D01*
X1171000D01*
Y-1263000D01*
X1173000D01*
Y-1262000D01*
X1175000D01*
Y-1261000D01*
X1175999D01*
Y-1260000D01*
X1177999D01*
Y-1259000D01*
X1179000D01*
Y-1258000D01*
X1179999D01*
Y-1257000D01*
X1181999D01*
Y-1256000D01*
X1183000D01*
Y-1255000D01*
X1183999D01*
Y-1254000D01*
X1185000D01*
Y-1253000D01*
X1185999D01*
Y-1252000D01*
X1187000D01*
Y-1251000D01*
X1187999D01*
Y-1250000D01*
X1189000D01*
Y-1249000D01*
X1189999D01*
Y-1248000D01*
X1191000D01*
Y-1247000D01*
X1191999D01*
Y-1246000D01*
X1193000D01*
Y-1245000D01*
X1193999D01*
Y-1244000D01*
X1195000D01*
Y-1242000D01*
X1195999D01*
Y-1241000D01*
X1197000D01*
Y-1240000D01*
X1197999D01*
Y-1238000D01*
X1199000D01*
Y-1237000D01*
X1199999D01*
Y-1235000D01*
X1201000D01*
Y-1233000D01*
X1201999D01*
Y-1231999D01*
X1203000D01*
Y-1229999D01*
X1203999D01*
Y-1227999D01*
X1205000D01*
Y-1225999D01*
X1205999D01*
Y-1223000D01*
X1207000D01*
Y-1221000D01*
X1207999D01*
Y-1217999D01*
X1209000D01*
Y-1215000D01*
X1209999D01*
Y-1211000D01*
X1211000D01*
Y-1207000D01*
X1211999D01*
Y-1199999D01*
X1213000D01*
Y-0238000D01*
X1211999D01*
Y-0231000D01*
X1211000D01*
Y-0227000D01*
X1209999D01*
Y-0223000D01*
X1209000D01*
Y-0220000D01*
X1207999D01*
Y-0217000D01*
X1207000D01*
Y-0215000D01*
X1205999D01*
Y-0212000D01*
X1205000D01*
Y-0210000D01*
X1203999D01*
Y-0208000D01*
X1203000D01*
Y-0206000D01*
X1201999D01*
Y-0205000D01*
X1201000D01*
Y-0203000D01*
X1199999D01*
Y-0201000D01*
X1199000D01*
Y-0200000D01*
X1197999D01*
Y-0198000D01*
X1197000D01*
Y-0197000D01*
X1195999D01*
Y-0196000D01*
X1195000D01*
Y-0194000D01*
X1193999D01*
Y-0193000D01*
X1193000D01*
Y-0192000D01*
X1191999D01*
Y-0191000D01*
X1191000D01*
Y-0190000D01*
X1189999D01*
Y-0189000D01*
X1189000D01*
Y-0188000D01*
X1187999D01*
Y-0187000D01*
X1187000D01*
Y-0186000D01*
X1185999D01*
Y-0185000D01*
X1185000D01*
Y-0184000D01*
X1183999D01*
Y-0183000D01*
X1183000D01*
Y-0182000D01*
X1181999D01*
Y-0181000D01*
X1179999D01*
Y-0180000D01*
X1179000D01*
Y-0179000D01*
X1177999D01*
Y-0178000D01*
X1175999D01*
Y-0177000D01*
X1175000D01*
Y-0176000D01*
X1173000D01*
Y-0175000D01*
X1171000D01*
Y-0174000D01*
X1169999D01*
Y-0173000D01*
X1167999D01*
Y-0172000D01*
X1165999D01*
Y-0171000D01*
X1163999D01*
Y-0170000D01*
X1161000D01*
Y-0169000D01*
X1159000D01*
Y-0168000D01*
X1155999D01*
Y-0167000D01*
X1153000D01*
Y-0166000D01*
X1149000D01*
Y-0165000D01*
X1145000D01*
Y-0164000D01*
X1138000D01*
Y-0163000D01*
X0215000D01*
%LPD*%
%ADD11C,0.006*%
D11*
D02*
Y-0164000D01*
X0208000D01*
Y-0165000D01*
X0204000D01*
Y-0166000D01*
X0200000D01*
Y-0167000D01*
X0197000D01*
Y-0168000D01*
X0194000D01*
Y-0169000D01*
X0192000D01*
Y-0170000D01*
X0189000D01*
Y-0171000D01*
X0187000D01*
Y-0172000D01*
X0185000D01*
Y-0173000D01*
X0183000D01*
Y-0174000D01*
X0182000D01*
Y-0175000D01*
X0180000D01*
Y-0176000D01*
X0178000D01*
Y-0177000D01*
X0177000D01*
Y-0178000D01*
X0175000D01*
Y-0179000D01*
X0174000D01*
Y-0180000D01*
X0173000D01*
Y-0181000D01*
X0171000D01*
Y-0182000D01*
X0170000D01*
Y-0183000D01*
X0169000D01*
Y-0184000D01*
X0168000D01*
Y-0185000D01*
X0167000D01*
Y-0186000D01*
X0166000D01*
Y-0187000D01*
X0165000D01*
Y-0188000D01*
X0164000D01*
Y-0189000D01*
X0163000D01*
Y-0190000D01*
X0162000D01*
Y-0191000D01*
X0161000D01*
Y-0192000D01*
X0160000D01*
Y-0193000D01*
X0159000D01*
Y-0194000D01*
X0158000D01*
Y-0196000D01*
X0157000D01*
Y-0197000D01*
X0156000D01*
Y-0198000D01*
X0155000D01*
Y-0200000D01*
X0154000D01*
Y-0201000D01*
X0153000D01*
Y-0203000D01*
X0152000D01*
Y-0205000D01*
X0151000D01*
Y-0206000D01*
X0150000D01*
Y-0208000D01*
X0149000D01*
Y-0210000D01*
X0148000D01*
Y-0212000D01*
X0147000D01*
Y-0215000D01*
X0146000D01*
Y-0217000D01*
X0145000D01*
Y-0220000D01*
X0144000D01*
Y-0223000D01*
X0143000D01*
Y-0227000D01*
X0142000D01*
Y-0231000D01*
X0141000D01*
Y-0238000D01*
X0140000D01*
Y-1199999D01*
X0141000D01*
Y-1207000D01*
X0142000D01*
Y-1211000D01*
X0143000D01*
Y-1215000D01*
X0144000D01*
Y-1217999D01*
X0145000D01*
Y-1221000D01*
X0146000D01*
Y-1223000D01*
X0147000D01*
Y-1225999D01*
X0148000D01*
Y-1227999D01*
X0149000D01*
Y-1229999D01*
X0150000D01*
Y-1231999D01*
X0151000D01*
Y-1233000D01*
X0152000D01*
Y-1235000D01*
X0153000D01*
Y-1237000D01*
X0154000D01*
Y-1238000D01*
X0155000D01*
Y-1240000D01*
X0156000D01*
Y-1241000D01*
X0157000D01*
Y-1242000D01*
X0158000D01*
Y-1244000D01*
X0159000D01*
Y-1245000D01*
X0160000D01*
Y-1246000D01*
X0161000D01*
Y-1247000D01*
X0162000D01*
Y-1248000D01*
X0163000D01*
Y-1249000D01*
X0164000D01*
Y-1250000D01*
X0165000D01*
Y-1251000D01*
X0166000D01*
Y-1252000D01*
X0167000D01*
Y-1253000D01*
X0168000D01*
Y-1254000D01*
X0169000D01*
Y-1255000D01*
X0170000D01*
Y-1256000D01*
X0171000D01*
Y-1257000D01*
X0173000D01*
Y-1258000D01*
X0174000D01*
Y-1259000D01*
X0175000D01*
Y-1260000D01*
X0177000D01*
Y-1261000D01*
X0178000D01*
Y-1262000D01*
X0180000D01*
Y-1263000D01*
X0182000D01*
Y-1264000D01*
X0183000D01*
Y-1265000D01*
X0185000D01*
Y-1266000D01*
X0187000D01*
Y-1267000D01*
X0189000D01*
Y-1268000D01*
X0192000D01*
Y-1269000D01*
X0194000D01*
Y-1270000D01*
X0197000D01*
Y-1271000D01*
X0200000D01*
Y-1272000D01*
X0204000D01*
Y-1273000D01*
X0208000D01*
Y-1274000D01*
X0215000D01*
Y-1275000D01*
X1138000D01*
Y-1274000D01*
X1145000D01*
Y-1273000D01*
X1149000D01*
Y-1272000D01*
X1153000D01*
Y-1271000D01*
X1155999D01*
Y-1270000D01*
X1159000D01*
Y-1269000D01*
X1161000D01*
Y-1268000D01*
X1163999D01*
Y-1267000D01*
X1165999D01*
Y-1266000D01*
X1167999D01*
Y-1265000D01*
X1169999D01*
Y-1264000D01*
X1171000D01*
Y-1263000D01*
X1173000D01*
Y-1262000D01*
X1175000D01*
Y-1261000D01*
X1175999D01*
Y-1260000D01*
X1177999D01*
Y-1259000D01*
X1179000D01*
Y-1258000D01*
X1179999D01*
Y-1257000D01*
X1181999D01*
Y-1256000D01*
X1183000D01*
Y-1255000D01*
X1183999D01*
Y-1254000D01*
X1185000D01*
Y-1253000D01*
X1185999D01*
Y-1252000D01*
X1187000D01*
Y-1251000D01*
X1187999D01*
Y-1250000D01*
X1189000D01*
Y-1249000D01*
X1189999D01*
Y-1248000D01*
X1191000D01*
Y-1247000D01*
X1191999D01*
Y-1246000D01*
X1193000D01*
Y-1245000D01*
X1193999D01*
Y-1244000D01*
X1195000D01*
Y-1242000D01*
X1195999D01*
Y-1241000D01*
X1197000D01*
Y-1240000D01*
X1197999D01*
Y-1238000D01*
X1199000D01*
Y-1237000D01*
X1199999D01*
Y-1235000D01*
X1201000D01*
Y-1233000D01*
X1201999D01*
Y-1231999D01*
X1203000D01*
Y-1229999D01*
X1203999D01*
Y-1227999D01*
X1205000D01*
Y-1225999D01*
X1205999D01*
Y-1223000D01*
X1207000D01*
Y-1221000D01*
X1207999D01*
Y-1217999D01*
X1209000D01*
Y-1215000D01*
X1209999D01*
Y-1211000D01*
X1211000D01*
Y-1207000D01*
X1211999D01*
Y-1199999D01*
X1213000D01*
Y-0238000D01*
X1211999D01*
Y-0231000D01*
X1211000D01*
Y-0227000D01*
X1209999D01*
Y-0223000D01*
X1209000D01*
Y-0220000D01*
X1207999D01*
Y-0217000D01*
X1207000D01*
Y-0215000D01*
X1205999D01*
Y-0212000D01*
X1205000D01*
Y-0210000D01*
X1203999D01*
Y-0208000D01*
X1203000D01*
Y-0206000D01*
X1201999D01*
Y-0205000D01*
X1201000D01*
Y-0203000D01*
X1199999D01*
Y-0201000D01*
X1199000D01*
Y-0200000D01*
X1197999D01*
Y-0198000D01*
X1197000D01*
Y-0197000D01*
X1195999D01*
Y-0196000D01*
X1195000D01*
Y-0194000D01*
X1193999D01*
Y-0193000D01*
X1193000D01*
Y-0192000D01*
X1191999D01*
Y-0191000D01*
X1191000D01*
Y-0190000D01*
X1189999D01*
Y-0189000D01*
X1189000D01*
Y-0188000D01*
X1187999D01*
Y-0187000D01*
X1187000D01*
Y-0186000D01*
X1185999D01*
Y-0185000D01*
X1185000D01*
Y-0184000D01*
X1183999D01*
Y-0183000D01*
X1183000D01*
Y-0182000D01*
X1181999D01*
Y-0181000D01*
X1179999D01*
Y-0180000D01*
X1179000D01*
Y-0179000D01*
X1177999D01*
Y-0178000D01*
X1175999D01*
Y-0177000D01*
X1175000D01*
Y-0176000D01*
X1173000D01*
Y-0175000D01*
X1171000D01*
Y-0174000D01*
X1169999D01*
Y-0173000D01*
X1167999D01*
Y-0172000D01*
X1165999D01*
Y-0171000D01*
X1163999D01*
Y-0170000D01*
X1161000D01*
Y-0169000D01*
X1159000D01*
Y-0168000D01*
X1155999D01*
Y-0167000D01*
X1153000D01*
Y-0166000D01*
X1149000D01*
Y-0165000D01*
X1145000D01*
Y-0164000D01*
X1138000D01*
Y-0163000D01*
X0215000D01*
M02*
