G04 Output from Chad's Board Thing.*
%FSLAX26Y26*%
%MOIN*%
G36*
%ADD10C,0.01*%
D10*
X0520000Y-0181000D02*
Y-0182000D01*
X0516000D01*
Y-0183000D01*
X0513000D01*
Y-0184000D01*
X0216000D01*
Y-0185000D01*
X0210000D01*
Y-0186000D01*
X0207000D01*
Y-0187000D01*
X0204000D01*
Y-0188000D01*
X0201000D01*
Y-0189000D01*
X0199000D01*
Y-0190000D01*
X0196000D01*
Y-0191000D01*
X0195000D01*
Y-0192000D01*
X0193000D01*
Y-0193000D01*
X0191000D01*
Y-0194000D01*
X0190000D01*
Y-0195000D01*
X0188000D01*
Y-0196000D01*
X0187000D01*
Y-0197000D01*
X0186000D01*
Y-0198000D01*
X0184000D01*
Y-0199000D01*
X0183000D01*
Y-0200000D01*
X0182000D01*
Y-0201000D01*
X0181000D01*
Y-0202000D01*
X0180000D01*
Y-0203000D01*
X0179000D01*
Y-0204000D01*
X0178000D01*
Y-0205000D01*
X0177000D01*
Y-0206000D01*
X0176000D01*
Y-0208000D01*
X0175000D01*
Y-0209000D01*
X0174000D01*
Y-0210000D01*
X0173000D01*
Y-0212000D01*
X0172000D01*
Y-0213000D01*
X0171000D01*
Y-0215000D01*
X0170000D01*
Y-0217000D01*
X0169000D01*
Y-0219000D01*
X0168000D01*
Y-0221000D01*
X0167000D01*
Y-0223000D01*
X0166000D01*
Y-0226000D01*
X0165000D01*
Y-0229000D01*
X0164000D01*
Y-0233000D01*
X0163000D01*
Y-0239000D01*
X0162000D01*
Y-1125000D01*
X0163000D01*
X0164000D01*
X0165000D01*
X0166000D01*
X0167000D01*
X0168000D01*
X0169000D01*
X0170000D01*
X0171000D01*
X0172000D01*
X0173000D01*
X0174000D01*
X0175000D01*
X0176000D01*
X0177000D01*
X0178000D01*
X0179000D01*
X0180000D01*
X0181000D01*
X0182000D01*
X0183000D01*
X0184000D01*
X0185000D01*
X0186000D01*
X0187000D01*
X0188000D01*
X0189000D01*
X0190000D01*
X0191000D01*
X0192000D01*
X0193000D01*
X0194000D01*
X0195000D01*
X0196000D01*
X0197000D01*
X0198000D01*
X0199000D01*
X0200000D01*
X0201000D01*
X0202000D01*
X0203000D01*
X0204000D01*
X0205000D01*
X0206000D01*
X0207000D01*
X0208000D01*
X0209000D01*
X0210000D01*
X0211000D01*
X0212000D01*
X0213000D01*
X0214000D01*
X0215000D01*
X0216000D01*
X0217000D01*
X0218000D01*
X0219000D01*
X0220000D01*
X0221000D01*
X0222000D01*
X0223000D01*
X0224000D01*
X0225000D01*
X0226000D01*
X0227000D01*
X0228000D01*
X0229000D01*
X0230000D01*
X0231000D01*
X0232000D01*
X0233000D01*
X0234000D01*
X0235000D01*
X0236000D01*
X0237000D01*
X0238000D01*
X0239000D01*
X0240000D01*
X0241000D01*
X0242000D01*
X0243000D01*
X0244000D01*
X0245000D01*
X0246000D01*
X0247000D01*
X0248000D01*
X0249000D01*
X0250000D01*
X0251000D01*
X0252000D01*
X0253000D01*
X0254000D01*
X0255000D01*
X0256000D01*
X0257000D01*
X0258000D01*
X0259000D01*
X0260000D01*
X0261000D01*
X0262000D01*
X0263000D01*
X0264000D01*
X0265000D01*
X0266000D01*
X0267000D01*
X0268000D01*
X0269000D01*
X0270000D01*
X0271000D01*
X0272000D01*
X0273000D01*
X0274000D01*
X0275000D01*
X0276000D01*
X0277000D01*
X0278000D01*
X0279000D01*
X0280000D01*
X0281000D01*
X0282000D01*
X0283000D01*
X0284000D01*
X0285000D01*
X0286000D01*
X0287000D01*
X0288000D01*
X0289000D01*
X0290000D01*
X0291000D01*
X0292000D01*
X0293000D01*
X0294000D01*
X0295000D01*
X0296000D01*
X0297000D01*
X0298000D01*
X0299000D01*
X0300000D01*
X0301000D01*
X0302000D01*
X0303000D01*
X0304000D01*
X0305000D01*
X0306000D01*
X0307000D01*
X0308000D01*
X0309000D01*
X0310000D01*
X0311000D01*
X0312000D01*
X0313000D01*
X0314000D01*
X0315000D01*
X0316000D01*
X0317000D01*
X0318000D01*
X0319000D01*
X0320000D01*
X0321000D01*
X0322000D01*
X0323000D01*
X0324000D01*
X0325000D01*
X0326000D01*
X0327000D01*
X0328000D01*
X0329000D01*
X0330000D01*
X0331000D01*
X0332000D01*
X0333000D01*
X0334000D01*
X0335000D01*
X0336000D01*
X0337000D01*
X0338000D01*
X0339000D01*
X0340000D01*
X0341000D01*
X0342000D01*
X0343000D01*
X0344000D01*
X0345000D01*
X0346000D01*
X0347000D01*
X0348000D01*
X0349000D01*
X0350000D01*
X0351000D01*
X0352000D01*
X0353000D01*
X0354000D01*
X0355000D01*
X0356000D01*
X0357000D01*
X0358000D01*
X0359000D01*
X0360000D01*
X0361000D01*
X0362000D01*
X0363000D01*
X0364000D01*
X0365000D01*
X0366000D01*
X0367000D01*
X0368000D01*
X0369000D01*
X0370000D01*
X0371000D01*
X0372000D01*
X0373000D01*
X0374000D01*
X0375000D01*
X0376000D01*
X0377000D01*
X0378000D01*
X0379000D01*
X0380000D01*
X0381000D01*
X0382000D01*
X0383000D01*
X0384000D01*
X0385000D01*
X0386000D01*
X0387000D01*
X0388000D01*
X0389000D01*
X0390000D01*
X0391000D01*
X0392000D01*
X0393000D01*
X0394000D01*
X0395000D01*
X0396000D01*
X0397000D01*
X0398000D01*
X0399000D01*
X0400000D01*
X0401000D01*
X0402000D01*
X0403000D01*
X0404000D01*
X0405000D01*
X0406000D01*
X0407000D01*
X0408000D01*
X0409000D01*
X0410000D01*
X0411000D01*
X0412000D01*
X0413000D01*
X0414000D01*
X0415000D01*
X0416000D01*
X0417000D01*
X0418000D01*
X0419000D01*
X0420000D01*
X0421000D01*
X0422000D01*
X0423000D01*
X0424000D01*
X0425000D01*
X0426000D01*
X0427000D01*
X0428000D01*
X0429000D01*
X0430000D01*
X0431000D01*
X0432000D01*
X0433000D01*
X0434000D01*
X0435000D01*
X0436000D01*
X0437000D01*
X0438000D01*
X0439000D01*
X0440000D01*
X0441000D01*
X0442000D01*
X0443000D01*
X0444000D01*
X0445000D01*
X0446000D01*
X0447000D01*
X0448000D01*
X0449000D01*
X0450000D01*
X0451000D01*
X0452000D01*
X0453000D01*
X0454000D01*
X0455000D01*
X0456000D01*
X0457000D01*
X0458000D01*
X0459000D01*
X0460000D01*
X0461000D01*
X0462000D01*
X0463000D01*
X0464000D01*
X0465000D01*
X0466000D01*
X0467000D01*
X0468000D01*
X0469000D01*
X0470000D01*
X0471000D01*
X0472000D01*
X0473000D01*
X0474000D01*
X0475000D01*
X0476000D01*
X0477000D01*
X0478000D01*
X0479000D01*
X0480000D01*
X0481000D01*
X0482000D01*
X0483000D01*
X0484000D01*
X0485000D01*
X0486000D01*
X0487000D01*
X0488000D01*
X0489000D01*
X0490000D01*
X0491000D01*
X0492000D01*
X0493000D01*
X0494000D01*
X0495000D01*
X0496000D01*
X0497000D01*
X0498000D01*
X0499000D01*
X0500000D01*
X0501000D01*
X0502000D01*
X0503000D01*
X0504000D01*
X0505000D01*
X0506000D01*
X0507000D01*
X0508000D01*
X0509000D01*
X0510000D01*
X0511000D01*
X0512000D01*
X0513000D01*
X0514000D01*
X0515000D01*
X0516000D01*
X0517000D01*
X0518000D01*
X0519000D01*
X0520000D01*
X0521000D01*
X0522000D01*
X0523000D01*
X0524000D01*
X0525000D01*
X0526000D01*
X0527000D01*
X0528000D01*
X0529000D01*
X0530000D01*
X0531000D01*
X0532000D01*
X0533000D01*
X0534000D01*
X0535000D01*
X0536000D01*
X0537000D01*
X0538000D01*
X0539000D01*
X0540000D01*
X0541000D01*
X0542000D01*
X0543000D01*
X0544000D01*
X0545000D01*
X0546000D01*
X0547000D01*
X0548000D01*
X0549000D01*
X0550000D01*
X0551000D01*
X0552000D01*
X0553000D01*
X0554000D01*
X0555000D01*
X0556000D01*
X0557000D01*
X0558000D01*
X0559000D01*
X0560000D01*
X0561000D01*
X0562000D01*
X0563000D01*
X0564000D01*
X0565000D01*
X0566000D01*
X0567000D01*
X0568000D01*
X0569000D01*
X0570000D01*
X0571000D01*
X0572000D01*
X0573000D01*
X0574000D01*
X0575000D01*
X0576000D01*
X0577000D01*
X0578000D01*
X0579000D01*
X0580000D01*
X0581000D01*
X0582000D01*
X0583000D01*
X0584000D01*
X0585000D01*
X0586000D01*
X0587000D01*
X0588000D01*
X0589000D01*
X0590000D01*
X0591000D01*
X0592000D01*
X0593000D01*
X0594000D01*
X0595000D01*
X0596000D01*
X0597000D01*
X0598000D01*
X0599000D01*
X0600000D01*
X0601000D01*
X0602000D01*
X0603000D01*
X0604000D01*
X0605000D01*
X0606000D01*
X0607000D01*
X0608000D01*
X0609000D01*
X0610000D01*
X0611000D01*
X0612000D01*
X0613000D01*
X0614000D01*
X0615000D01*
X0616000D01*
X0617000D01*
X0618000D01*
X0619000D01*
X0620000D01*
X0621000D01*
X0622000D01*
X0623000D01*
X0624000D01*
X0625000D01*
X0626000D01*
X0627000D01*
X0628000D01*
X0629000D01*
X0630000D01*
X0631000D01*
X0632000D01*
X0633000D01*
X0634000D01*
X0635000D01*
X0636000D01*
X0637000D01*
X0638000D01*
X0639000D01*
X0640000D01*
X0641000D01*
X0642000D01*
X0643000D01*
X0644000D01*
X0645000D01*
X0646000D01*
X0647000D01*
X0648000D01*
X0649000D01*
X0650000D01*
X0651000D01*
X0652000D01*
X0653000D01*
X0654000D01*
X0655000D01*
X0656000D01*
X0657000D01*
X0658000D01*
X0659000D01*
X0660000D01*
X0661000D01*
X0662000D01*
X0663000D01*
X0664000D01*
X0665000D01*
X0666000D01*
X0667000D01*
X0668000D01*
X0669000D01*
X0670000D01*
X0671000D01*
X0672000D01*
X0673000D01*
X0674000D01*
X0675000D01*
X0676000D01*
X0677000D01*
X0678000D01*
X0679000D01*
X0680000D01*
X0681000D01*
X0682000D01*
X0683000D01*
X0684000D01*
X0685000D01*
X0686000D01*
X0687000D01*
X0688000D01*
X0689000D01*
X0690000D01*
X0691000D01*
X0692000D01*
X0693000D01*
X0694000D01*
X0695000D01*
X0696000D01*
X0697000D01*
X0698000D01*
X0699000D01*
X0700000D01*
X0701000D01*
X0702000D01*
X0703000D01*
X0704000D01*
X0705000D01*
X0706000D01*
X0707000D01*
X0708000D01*
X0709000D01*
X0710000D01*
X0711000D01*
X0712000D01*
X0713000D01*
X0714000D01*
X0715000D01*
X0716000D01*
X0717000D01*
X0718000D01*
X0719000D01*
X0720000D01*
X0721000D01*
X0722000D01*
X0723000D01*
X0724000D01*
X0725000D01*
X0726000D01*
X0727000D01*
X0728000D01*
X0729000D01*
X0730000D01*
X0731000D01*
X0732000D01*
X0733000D01*
X0734000D01*
X0735000D01*
X0736000D01*
X0737000D01*
X0738000D01*
X0739000D01*
X0740000D01*
X0741000D01*
X0742000D01*
X0743000D01*
X0744000D01*
X0745000D01*
X0746000D01*
X0747000D01*
X0748000D01*
X0749000D01*
X0750000D01*
X0751000D01*
X0752000D01*
X0753000D01*
X0754000D01*
X0755000D01*
X0756000D01*
X0757000D01*
X0758000D01*
X0772000D01*
Y-1126000D01*
X0776000D01*
Y-1127000D01*
X0779000D01*
Y-1128000D01*
X0781000D01*
Y-1129000D01*
X0783000D01*
Y-1130000D01*
X0786000D01*
Y-1131000D01*
X0788000D01*
Y-1132000D01*
X0790000D01*
Y-1133000D01*
X0792000D01*
Y-1134000D01*
X0793000D01*
Y-1135000D01*
X0794000D01*
Y-1136000D01*
X0795000D01*
Y-1137000D01*
X0797000D01*
Y-1138000D01*
X0798000D01*
Y-1139000D01*
X0799000D01*
Y-1141000D01*
X0800000D01*
Y-1142000D01*
X0801000D01*
Y-1143000D01*
X0802000D01*
Y-1144000D01*
X0803000D01*
Y-1146000D01*
X0804000D01*
Y-1148000D01*
X0805000D01*
Y-1150000D01*
X0806000D01*
Y-1153000D01*
X0807000D01*
Y-1155000D01*
X0808000D01*
Y-1157000D01*
X0809000D01*
Y-1159999D01*
X0810000D01*
Y-1163999D01*
X0811000D01*
Y-1177000D01*
X0810000D01*
Y-1181000D01*
X0809000D01*
Y-1183999D01*
X0808000D01*
Y-1185999D01*
X0807000D01*
Y-1187999D01*
X0806000D01*
Y-1191000D01*
X0805000D01*
Y-1193000D01*
X0804000D01*
Y-1195000D01*
X0803000D01*
Y-1197000D01*
X0802000D01*
Y-1197999D01*
X0801000D01*
Y-1199000D01*
X0800000D01*
Y-1199999D01*
X0799000D01*
Y-1201999D01*
X0798000D01*
Y-1203000D01*
X0797000D01*
Y-1203999D01*
X0795000D01*
Y-1205000D01*
X0794000D01*
Y-1205999D01*
X0793000D01*
Y-1207000D01*
X0792000D01*
Y-1207999D01*
X0790000D01*
Y-1209000D01*
X0788000D01*
Y-1209999D01*
X0786000D01*
Y-1211000D01*
X0783000D01*
Y-1211999D01*
X0781000D01*
Y-1213000D01*
X0779000D01*
Y-1213999D01*
X0776000D01*
Y-1215000D01*
X0772000D01*
Y-1215999D01*
X0759000D01*
Y-1215000D01*
X0755000D01*
Y-1213999D01*
X0752000D01*
Y-1213000D01*
X0750000D01*
Y-1211999D01*
X0748000D01*
Y-1211000D01*
X0745000D01*
Y-1209999D01*
X0743000D01*
Y-1209000D01*
X0741000D01*
Y-1207999D01*
X0739000D01*
Y-1207000D01*
X0738000D01*
Y-1205999D01*
X0737000D01*
Y-1205000D01*
X0736000D01*
Y-1203999D01*
X0734000D01*
Y-1203000D01*
X0733000D01*
Y-1201999D01*
X0732000D01*
Y-1199999D01*
X0731000D01*
Y-1199000D01*
X0730000D01*
Y-1197999D01*
X0729000D01*
Y-1197000D01*
X0728000D01*
Y-1195000D01*
X0727000D01*
Y-1193000D01*
X0726000D01*
Y-1191000D01*
X0725000D01*
Y-1187999D01*
X0724000D01*
Y-1185999D01*
X0723000D01*
Y-1183999D01*
X0722000D01*
Y-1181000D01*
X0721000D01*
Y-1177000D01*
X0720000D01*
Y-1163999D01*
X0721000D01*
Y-1159999D01*
X0722000D01*
Y-1157000D01*
X0723000D01*
Y-1155000D01*
X0724000D01*
Y-1153000D01*
X0725000D01*
Y-1150000D01*
X0726000D01*
Y-1148000D01*
X0727000D01*
Y-1146000D01*
X0728000D01*
Y-1144000D01*
X0729000D01*
Y-1143000D01*
X0730000D01*
Y-1142000D01*
X0731000D01*
Y-1141000D01*
X0732000D01*
Y-1139000D01*
X0733000D01*
Y-1138000D01*
X0734000D01*
Y-1137000D01*
X0736000D01*
Y-1136000D01*
X0737000D01*
Y-1135000D01*
X0738000D01*
Y-1134000D01*
X0739000D01*
Y-1133000D01*
X0741000D01*
Y-1132000D01*
X0743000D01*
Y-1131000D01*
X0745000D01*
Y-1130000D01*
X0748000D01*
Y-1129000D01*
X0750000D01*
Y-1128000D01*
X0752000D01*
Y-1127000D01*
X0755000D01*
Y-1126000D01*
X0759000D01*
Y-1125000D01*
X0758000D01*
X0757000D01*
X0756000D01*
X0755000D01*
X0754000D01*
X0753000D01*
X0752000D01*
X0751000D01*
X0750000D01*
X0749000D01*
X0748000D01*
X0747000D01*
X0746000D01*
X0745000D01*
X0744000D01*
X0743000D01*
X0742000D01*
X0741000D01*
X0740000D01*
X0739000D01*
X0738000D01*
X0737000D01*
X0736000D01*
X0735000D01*
X0734000D01*
X0733000D01*
X0732000D01*
X0731000D01*
X0730000D01*
X0729000D01*
X0728000D01*
X0727000D01*
X0726000D01*
X0725000D01*
X0724000D01*
X0723000D01*
X0722000D01*
X0721000D01*
X0720000D01*
X0719000D01*
X0718000D01*
X0717000D01*
X0716000D01*
X0715000D01*
X0714000D01*
X0713000D01*
X0712000D01*
X0711000D01*
X0710000D01*
X0709000D01*
X0708000D01*
X0707000D01*
X0706000D01*
X0705000D01*
X0704000D01*
X0703000D01*
X0702000D01*
X0701000D01*
X0700000D01*
X0699000D01*
X0698000D01*
X0697000D01*
X0696000D01*
X0695000D01*
X0694000D01*
X0693000D01*
X0692000D01*
X0691000D01*
X0690000D01*
X0689000D01*
X0688000D01*
X0687000D01*
X0686000D01*
X0685000D01*
X0684000D01*
X0683000D01*
X0682000D01*
X0681000D01*
X0680000D01*
X0679000D01*
X0678000D01*
X0677000D01*
X0676000D01*
X0675000D01*
X0674000D01*
X0673000D01*
X0672000D01*
X0671000D01*
X0670000D01*
X0669000D01*
X0668000D01*
X0667000D01*
X0666000D01*
X0665000D01*
X0664000D01*
X0663000D01*
X0662000D01*
X0661000D01*
X0660000D01*
X0659000D01*
X0658000D01*
X0657000D01*
X0656000D01*
X0655000D01*
X0654000D01*
X0653000D01*
X0652000D01*
X0651000D01*
X0650000D01*
X0649000D01*
X0648000D01*
X0647000D01*
X0646000D01*
X0645000D01*
X0644000D01*
X0643000D01*
X0642000D01*
X0641000D01*
X0640000D01*
X0639000D01*
X0638000D01*
X0637000D01*
X0636000D01*
X0635000D01*
X0634000D01*
X0633000D01*
X0632000D01*
X0631000D01*
X0630000D01*
X0629000D01*
X0628000D01*
X0627000D01*
X0626000D01*
X0625000D01*
X0624000D01*
X0623000D01*
X0622000D01*
X0621000D01*
X0620000D01*
X0619000D01*
X0618000D01*
X0617000D01*
X0616000D01*
X0615000D01*
X0614000D01*
X0613000D01*
X0612000D01*
X0611000D01*
X0610000D01*
X0609000D01*
X0608000D01*
X0607000D01*
X0606000D01*
X0605000D01*
X0604000D01*
X0603000D01*
X0602000D01*
X0601000D01*
X0600000D01*
X0599000D01*
X0598000D01*
X0597000D01*
X0596000D01*
X0595000D01*
X0594000D01*
X0593000D01*
X0592000D01*
X0591000D01*
X0590000D01*
X0589000D01*
X0588000D01*
X0587000D01*
X0586000D01*
X0585000D01*
X0584000D01*
X0583000D01*
X0582000D01*
X0581000D01*
X0580000D01*
X0579000D01*
X0578000D01*
X0577000D01*
X0576000D01*
X0575000D01*
X0574000D01*
X0573000D01*
X0572000D01*
X0571000D01*
X0570000D01*
X0569000D01*
X0568000D01*
X0567000D01*
X0566000D01*
X0565000D01*
X0564000D01*
X0563000D01*
X0562000D01*
X0561000D01*
X0560000D01*
X0559000D01*
X0558000D01*
X0557000D01*
X0556000D01*
X0555000D01*
X0554000D01*
X0553000D01*
X0552000D01*
X0551000D01*
X0550000D01*
X0549000D01*
X0548000D01*
X0547000D01*
X0546000D01*
X0545000D01*
X0544000D01*
X0543000D01*
X0542000D01*
X0541000D01*
X0540000D01*
X0539000D01*
X0538000D01*
X0537000D01*
X0536000D01*
X0535000D01*
X0534000D01*
X0533000D01*
X0532000D01*
X0531000D01*
X0530000D01*
X0529000D01*
X0528000D01*
X0527000D01*
X0526000D01*
X0525000D01*
X0524000D01*
X0523000D01*
X0522000D01*
X0521000D01*
X0520000D01*
X0519000D01*
X0518000D01*
X0517000D01*
X0516000D01*
X0515000D01*
X0514000D01*
X0513000D01*
X0512000D01*
X0511000D01*
X0510000D01*
X0509000D01*
X0508000D01*
X0507000D01*
X0506000D01*
X0505000D01*
X0504000D01*
X0503000D01*
X0502000D01*
X0501000D01*
X0500000D01*
X0499000D01*
X0498000D01*
X0497000D01*
X0496000D01*
X0495000D01*
X0494000D01*
X0493000D01*
X0492000D01*
X0491000D01*
X0490000D01*
X0489000D01*
X0488000D01*
X0487000D01*
X0486000D01*
X0485000D01*
X0484000D01*
X0483000D01*
X0482000D01*
X0481000D01*
X0480000D01*
X0479000D01*
X0478000D01*
X0477000D01*
X0476000D01*
X0475000D01*
X0474000D01*
X0473000D01*
X0472000D01*
X0471000D01*
X0470000D01*
X0469000D01*
X0468000D01*
X0467000D01*
X0466000D01*
X0465000D01*
X0464000D01*
X0463000D01*
X0462000D01*
X0461000D01*
X0460000D01*
X0459000D01*
X0458000D01*
X0457000D01*
X0456000D01*
X0455000D01*
X0454000D01*
X0453000D01*
X0452000D01*
X0451000D01*
X0450000D01*
X0449000D01*
X0448000D01*
X0447000D01*
X0446000D01*
X0445000D01*
X0444000D01*
X0443000D01*
X0442000D01*
X0441000D01*
X0440000D01*
X0439000D01*
X0438000D01*
X0437000D01*
X0436000D01*
X0435000D01*
X0434000D01*
X0433000D01*
X0432000D01*
X0431000D01*
X0430000D01*
X0429000D01*
X0428000D01*
X0427000D01*
X0426000D01*
X0425000D01*
X0424000D01*
X0423000D01*
X0422000D01*
X0421000D01*
X0420000D01*
X0419000D01*
X0418000D01*
X0417000D01*
X0416000D01*
X0415000D01*
X0414000D01*
X0413000D01*
X0412000D01*
X0411000D01*
X0410000D01*
X0409000D01*
X0408000D01*
X0407000D01*
X0406000D01*
X0405000D01*
X0404000D01*
X0403000D01*
X0402000D01*
X0401000D01*
X0400000D01*
X0399000D01*
X0398000D01*
X0397000D01*
X0396000D01*
X0395000D01*
X0394000D01*
X0393000D01*
X0392000D01*
X0391000D01*
X0390000D01*
X0389000D01*
X0388000D01*
X0387000D01*
X0386000D01*
X0385000D01*
X0384000D01*
X0383000D01*
X0382000D01*
X0381000D01*
X0380000D01*
X0379000D01*
X0378000D01*
X0377000D01*
X0376000D01*
X0375000D01*
X0374000D01*
X0373000D01*
X0372000D01*
X0371000D01*
X0370000D01*
X0369000D01*
X0368000D01*
X0367000D01*
X0366000D01*
X0365000D01*
X0364000D01*
X0363000D01*
X0362000D01*
X0361000D01*
X0360000D01*
X0359000D01*
X0358000D01*
X0357000D01*
X0356000D01*
X0355000D01*
X0354000D01*
X0353000D01*
X0352000D01*
X0351000D01*
X0350000D01*
X0349000D01*
X0348000D01*
X0347000D01*
X0346000D01*
X0345000D01*
X0344000D01*
X0343000D01*
X0342000D01*
X0341000D01*
X0340000D01*
X0339000D01*
X0338000D01*
X0337000D01*
X0336000D01*
X0335000D01*
X0334000D01*
X0333000D01*
X0332000D01*
X0331000D01*
X0330000D01*
X0329000D01*
X0328000D01*
X0327000D01*
X0326000D01*
X0325000D01*
X0324000D01*
X0323000D01*
X0322000D01*
X0321000D01*
X0320000D01*
X0319000D01*
X0318000D01*
X0317000D01*
X0316000D01*
X0315000D01*
X0314000D01*
X0313000D01*
X0312000D01*
X0311000D01*
X0310000D01*
X0309000D01*
X0308000D01*
X0307000D01*
X0306000D01*
X0305000D01*
X0304000D01*
X0303000D01*
X0302000D01*
X0301000D01*
X0300000D01*
X0299000D01*
X0298000D01*
X0297000D01*
X0296000D01*
X0295000D01*
X0294000D01*
X0293000D01*
X0292000D01*
X0291000D01*
X0290000D01*
X0289000D01*
X0288000D01*
X0287000D01*
X0286000D01*
X0285000D01*
X0284000D01*
X0283000D01*
X0282000D01*
X0281000D01*
X0280000D01*
X0279000D01*
X0278000D01*
X0277000D01*
X0276000D01*
X0275000D01*
X0274000D01*
X0273000D01*
X0272000D01*
X0271000D01*
X0270000D01*
X0269000D01*
X0268000D01*
X0267000D01*
X0266000D01*
X0265000D01*
X0264000D01*
X0263000D01*
X0262000D01*
X0261000D01*
X0260000D01*
X0259000D01*
X0258000D01*
X0257000D01*
X0256000D01*
X0255000D01*
X0254000D01*
X0253000D01*
X0252000D01*
X0251000D01*
X0250000D01*
X0249000D01*
X0248000D01*
X0247000D01*
X0246000D01*
X0245000D01*
X0244000D01*
X0243000D01*
X0242000D01*
X0241000D01*
X0240000D01*
X0239000D01*
X0238000D01*
X0237000D01*
X0236000D01*
X0235000D01*
X0234000D01*
X0233000D01*
X0232000D01*
X0231000D01*
X0230000D01*
X0229000D01*
X0228000D01*
X0227000D01*
X0226000D01*
X0225000D01*
X0224000D01*
X0223000D01*
X0222000D01*
X0221000D01*
X0220000D01*
X0219000D01*
X0218000D01*
X0217000D01*
X0216000D01*
X0215000D01*
X0214000D01*
X0213000D01*
X0212000D01*
X0211000D01*
X0210000D01*
X0209000D01*
X0208000D01*
X0207000D01*
X0206000D01*
X0205000D01*
X0204000D01*
X0203000D01*
X0202000D01*
X0201000D01*
X0200000D01*
X0199000D01*
X0198000D01*
X0197000D01*
X0196000D01*
X0195000D01*
X0194000D01*
X0193000D01*
X0192000D01*
X0191000D01*
X0190000D01*
X0189000D01*
X0188000D01*
X0187000D01*
X0186000D01*
X0185000D01*
X0184000D01*
X0183000D01*
X0182000D01*
X0181000D01*
X0180000D01*
X0179000D01*
X0178000D01*
X0177000D01*
X0176000D01*
X0175000D01*
X0174000D01*
X0173000D01*
X0172000D01*
X0171000D01*
X0170000D01*
X0169000D01*
X0168000D01*
X0167000D01*
X0166000D01*
X0165000D01*
X0164000D01*
X0163000D01*
X0162000D01*
Y-1199000D01*
X0163000D01*
Y-1205000D01*
X0164000D01*
Y-1209000D01*
X0165000D01*
Y-1211999D01*
X0166000D01*
Y-1215000D01*
X0167000D01*
Y-1217000D01*
X0168000D01*
Y-1219000D01*
X0169000D01*
Y-1221000D01*
X0170000D01*
Y-1223000D01*
X0171000D01*
Y-1225000D01*
X0172000D01*
Y-1225999D01*
X0173000D01*
Y-1227999D01*
X0174000D01*
Y-1229000D01*
X0175000D01*
Y-1229999D01*
X0176000D01*
Y-1231999D01*
X0177000D01*
Y-1233000D01*
X0178000D01*
Y-1234000D01*
X0179000D01*
Y-1235000D01*
X0180000D01*
Y-1236000D01*
X0181000D01*
Y-1237000D01*
X0182000D01*
Y-1238000D01*
X0183000D01*
Y-1239000D01*
X0184000D01*
Y-1240000D01*
X0186000D01*
Y-1241000D01*
X0187000D01*
Y-1242000D01*
X0188000D01*
Y-1243000D01*
X0190000D01*
Y-1244000D01*
X0191000D01*
Y-1245000D01*
X0193000D01*
Y-1246000D01*
X0195000D01*
Y-1247000D01*
X0196000D01*
Y-1248000D01*
X0199000D01*
Y-1249000D01*
X0201000D01*
Y-1250000D01*
X0204000D01*
Y-1251000D01*
X0207000D01*
Y-1252000D01*
X0210000D01*
Y-1253000D01*
X0216000D01*
Y-1254000D01*
X1137000D01*
Y-1253000D01*
X1143000D01*
Y-1252000D01*
X1146000D01*
Y-1251000D01*
X1149000D01*
Y-1250000D01*
X1152000D01*
Y-1249000D01*
X1153999D01*
Y-1248000D01*
X1157000D01*
Y-1247000D01*
X1157999D01*
Y-1246000D01*
X1159999D01*
Y-1245000D01*
X1161999D01*
Y-1244000D01*
X1163000D01*
Y-1243000D01*
X1165000D01*
Y-1242000D01*
X1165999D01*
Y-1241000D01*
X1167000D01*
Y-1240000D01*
X1169000D01*
Y-1239000D01*
X1169999D01*
Y-1238000D01*
X1171000D01*
Y-1237000D01*
X1171999D01*
Y-1236000D01*
X1173000D01*
Y-1235000D01*
X1173999D01*
Y-1234000D01*
X1175000D01*
Y-1233000D01*
X1175999D01*
Y-1231999D01*
X1177000D01*
Y-1229999D01*
X1177999D01*
Y-1229000D01*
X1179000D01*
Y-1227999D01*
X1179999D01*
Y-1225999D01*
X1181000D01*
Y-1225000D01*
X1181999D01*
Y-1223000D01*
X1183000D01*
Y-1221000D01*
X1183999D01*
Y-1219000D01*
X1185000D01*
Y-1217000D01*
X1185999D01*
Y-1215000D01*
X1187000D01*
Y-1211999D01*
X1187999D01*
Y-1209000D01*
X1189000D01*
Y-1205000D01*
X1189999D01*
Y-1199000D01*
X1191000D01*
Y-0240000D01*
X1189999D01*
Y-0234000D01*
X1189000D01*
Y-0230000D01*
X1187999D01*
Y-0227000D01*
X1187000D01*
Y-0224000D01*
X1185999D01*
Y-0222000D01*
X1185000D01*
Y-0220000D01*
X1183999D01*
Y-0218000D01*
X1183000D01*
Y-0216000D01*
X1181999D01*
Y-0214000D01*
X1181000D01*
Y-0213000D01*
X1179999D01*
Y-0211000D01*
X1179000D01*
Y-0210000D01*
X1177999D01*
Y-0209000D01*
X1177000D01*
Y-0207000D01*
X1175999D01*
Y-0206000D01*
X1175000D01*
Y-0205000D01*
X1173999D01*
Y-0204000D01*
X1173000D01*
Y-0203000D01*
X1171999D01*
Y-0202000D01*
X1171000D01*
Y-0201000D01*
X1169999D01*
Y-0200000D01*
X1169000D01*
Y-0199000D01*
X1167000D01*
Y-0198000D01*
X1165999D01*
Y-0197000D01*
X1165000D01*
Y-0196000D01*
X1163000D01*
Y-0195000D01*
X1161999D01*
Y-0194000D01*
X1159999D01*
Y-0193000D01*
X1157999D01*
Y-0192000D01*
X1157000D01*
Y-0191000D01*
X1153999D01*
Y-0190000D01*
X1152000D01*
Y-0189000D01*
X1149000D01*
Y-0188000D01*
X1146000D01*
Y-0187000D01*
X1143000D01*
Y-0186000D01*
X1137000D01*
Y-0185000D01*
X0872000D01*
Y-0186000D01*
X0870000D01*
Y-0187000D01*
X0869000D01*
Y-0188000D01*
X0868000D01*
Y-0190000D01*
X0867000D01*
Y-0194000D01*
X0866000D01*
Y-0200000D01*
X0867000D01*
Y-0202000D01*
X0868000D01*
Y-0204000D01*
X0869000D01*
Y-0207000D01*
X0870000D01*
Y-0211000D01*
X0871000D01*
Y-0224000D01*
X0870000D01*
Y-0228000D01*
X0869000D01*
Y-0231000D01*
X0868000D01*
Y-0233000D01*
X0867000D01*
Y-0235000D01*
X0866000D01*
Y-0238000D01*
X0865000D01*
Y-0240000D01*
X0864000D01*
Y-0242000D01*
X0863000D01*
Y-0243000D01*
X0862000D01*
Y-0245000D01*
X0861000D01*
Y-0246000D01*
X0860000D01*
Y-0247000D01*
X0859000D01*
Y-0248000D01*
X0858000D01*
Y-0249000D01*
X0857000D01*
Y-0250000D01*
X0856000D01*
Y-0251000D01*
X0855000D01*
Y-0252000D01*
X0854000D01*
Y-0253000D01*
X0852000D01*
Y-0254000D01*
X0851000D01*
Y-0255000D01*
X0849000D01*
Y-0256000D01*
X0847000D01*
Y-0257000D01*
X0844000D01*
Y-0258000D01*
X0842000D01*
Y-0259000D01*
X0841000D01*
Y-0260000D01*
X0840000D01*
Y-0262000D01*
X0839000D01*
Y-0369000D01*
X0838000D01*
Y-0371000D01*
X0837000D01*
Y-0373000D01*
X0836000D01*
Y-0374000D01*
X0835000D01*
Y-0375000D01*
X0833000D01*
Y-0376000D01*
X0831000D01*
Y-0377000D01*
X0576000D01*
Y-0378000D01*
X0574000D01*
Y-0379000D01*
X0573000D01*
Y-0381000D01*
X0572000D01*
Y-0384000D01*
X0573000D01*
Y-0386000D01*
X0574000D01*
X0575000D01*
X0576000D01*
X0577000D01*
X0578000D01*
X0579000D01*
X0580000D01*
X0581000D01*
X0582000D01*
X0583000D01*
X0584000D01*
X0585000D01*
X0586000D01*
X0587000D01*
X0588000D01*
X0589000D01*
X0590000D01*
X0591000D01*
X0592000D01*
X0593000D01*
X0594000D01*
X0595000D01*
X0596000D01*
X0597000D01*
X0598000D01*
X0599000D01*
X0600000D01*
X0601000D01*
X0602000D01*
X0603000D01*
X0604000D01*
X0605000D01*
X0606000D01*
X0607000D01*
X0608000D01*
X0609000D01*
X0610000D01*
X0611000D01*
X0612000D01*
X0613000D01*
X0614000D01*
X0615000D01*
X0616000D01*
X0617000D01*
X0618000D01*
X0619000D01*
X0620000D01*
X0621000D01*
X0622000D01*
X0623000D01*
X0624000D01*
X0625000D01*
X0626000D01*
X0627000D01*
X0628000D01*
X0629000D01*
X0630000D01*
X0631000D01*
X0632000D01*
X0633000D01*
X0634000D01*
X0635000D01*
X0636000D01*
X0637000D01*
X0638000D01*
X0639000D01*
X0640000D01*
X0641000D01*
X0642000D01*
X0643000D01*
X0669000D01*
Y-0387000D01*
X0671000D01*
Y-0388000D01*
X0672000D01*
Y-0389000D01*
X0673000D01*
Y-0390000D01*
X0674000D01*
Y-0391000D01*
X0675000D01*
Y-0392000D01*
X0676000D01*
Y-0393000D01*
X0678000D01*
Y-0394000D01*
X0928000D01*
Y-0395000D01*
X0930000D01*
Y-0396000D01*
X0932000D01*
Y-0397000D01*
X0933000D01*
Y-0398000D01*
X0934000D01*
Y-0400000D01*
X0935000D01*
Y-0402000D01*
X0936000D01*
Y-0556000D01*
X0937000D01*
X0938000D01*
X0939000D01*
X0940000D01*
X0941000D01*
X0942000D01*
X0943000D01*
X0944000D01*
X0945000D01*
X0946000D01*
X0947000D01*
X0948000D01*
X0949000D01*
X0950000D01*
X0951000D01*
X0952000D01*
X0953000D01*
X0954000D01*
X0955000D01*
X0956000D01*
X0957000D01*
X0958000D01*
X0959000D01*
X0960000D01*
X0961000D01*
X0962000D01*
X0963000D01*
X0964000D01*
X0965000D01*
X0966000D01*
X0967000D01*
X0968000D01*
X0969000D01*
X0970000D01*
X0971000D01*
X0972000D01*
X0973000D01*
X0974000D01*
X0975000D01*
X0976000D01*
X0977000D01*
X0978000D01*
X0979000D01*
X0980000D01*
X0981000D01*
X0982000D01*
X0983000D01*
X0984000D01*
X0985000D01*
X0986000D01*
X0987000D01*
X0988000D01*
X0989000D01*
X0990000D01*
X0991000D01*
X0992000D01*
X0993000D01*
X0994000D01*
X0995000D01*
X0996000D01*
X0997000D01*
X0998000D01*
X0999000D01*
X1000000D01*
X1001000D01*
X1002000D01*
X1003000D01*
X1004000D01*
X1005000D01*
X1006000D01*
X1007000D01*
X1008000D01*
X1009000D01*
X1010000D01*
X1011000D01*
X1012000D01*
X1013000D01*
X1014000D01*
X1015000D01*
X1016000D01*
X1017000D01*
X1018000D01*
X1019000D01*
X1020000D01*
X1021000D01*
X1022000D01*
X1023000D01*
X1024000D01*
X1024999D01*
X1026000D01*
X1026999D01*
X1028000D01*
X1028999D01*
X1030000D01*
X1030999D01*
X1032000D01*
X1032999D01*
X1034000D01*
X1034999D01*
X1036000D01*
X1036999D01*
X1038000D01*
X1038999D01*
X1040000D01*
X1040999D01*
X1042000D01*
X1042999D01*
X1044000D01*
X1044999D01*
X1046000D01*
X1046999D01*
X1048000D01*
X1048999D01*
X1050000D01*
X1050999D01*
X1052000D01*
X1052999D01*
X1054000D01*
X1054999D01*
X1056000D01*
X1056999D01*
X1058000D01*
X1058999D01*
X1060000D01*
X1060999D01*
X1062000D01*
X1062999D01*
X1064000D01*
X1064999D01*
X1066000D01*
X1066999D01*
X1068000D01*
X1068999D01*
X1070000D01*
X1070999D01*
X1072000D01*
X1072999D01*
X1074000D01*
X1074999D01*
X1076000D01*
X1076999D01*
X1078000D01*
X1078999D01*
X1080000D01*
X1080999D01*
X1082000D01*
X1082999D01*
X1084000D01*
X1084999D01*
X1086000D01*
X1086999D01*
X1088000D01*
X1088999D01*
X1090000D01*
X1090999D01*
X1092000D01*
X1092999D01*
X1094000D01*
X1094999D01*
X1096000D01*
X1096999D01*
X1098000D01*
X1098999D01*
X1112999D01*
Y-0557000D01*
X1118000D01*
Y-0558000D01*
X1121000D01*
Y-0559000D01*
X1124000D01*
Y-0560000D01*
X1126000D01*
Y-0561000D01*
X1128000D01*
Y-0562000D01*
X1131000D01*
Y-0563000D01*
X1133000D01*
Y-0564000D01*
X1135000D01*
Y-0565000D01*
X1137000D01*
Y-0566000D01*
X1138000D01*
Y-0567000D01*
X1139000D01*
Y-0568000D01*
X1141000D01*
Y-0569000D01*
X1142000D01*
Y-0570000D01*
X1143000D01*
Y-0571000D01*
X1144000D01*
Y-0572000D01*
X1145000D01*
Y-0573000D01*
X1146000D01*
Y-0574000D01*
X1147000D01*
Y-0575000D01*
X1148000D01*
Y-0577000D01*
X1149000D01*
Y-0578000D01*
X1150000D01*
Y-0579000D01*
X1151000D01*
Y-0581000D01*
X1152000D01*
Y-0583000D01*
X1153000D01*
Y-0585000D01*
X1153999D01*
Y-0588000D01*
X1155000D01*
Y-0590000D01*
X1155999D01*
Y-0592000D01*
X1157000D01*
Y-0595000D01*
X1157999D01*
Y-0598000D01*
X1159000D01*
Y-0603000D01*
X1159999D01*
Y-0616000D01*
X1159000D01*
Y-0621000D01*
X1157999D01*
Y-0624000D01*
X1157000D01*
Y-0627000D01*
X1155999D01*
Y-0629000D01*
X1155000D01*
Y-0631000D01*
X1153999D01*
Y-0634000D01*
X1153000D01*
Y-0636000D01*
X1152000D01*
Y-0638000D01*
X1151000D01*
Y-0640000D01*
X1150000D01*
Y-0641000D01*
X1149000D01*
Y-0642000D01*
X1148000D01*
Y-0644000D01*
X1147000D01*
Y-0645000D01*
X1146000D01*
Y-0646000D01*
X1145000D01*
Y-0647000D01*
X1144000D01*
Y-0648000D01*
X1143000D01*
Y-0649000D01*
X1142000D01*
Y-0650000D01*
X1141000D01*
Y-0651000D01*
X1139000D01*
Y-0652000D01*
X1138000D01*
Y-0653000D01*
X1137000D01*
Y-0654000D01*
X1135000D01*
Y-0655000D01*
X1133000D01*
Y-0656000D01*
X1131000D01*
Y-0657000D01*
X1128000D01*
Y-0658000D01*
X1126000D01*
Y-0659000D01*
X1124000D01*
Y-0660000D01*
X1121000D01*
Y-0661000D01*
X1118000D01*
Y-0662000D01*
X1112999D01*
Y-0663000D01*
X1100000D01*
Y-0662000D01*
X1094999D01*
Y-0661000D01*
X1092000D01*
Y-0660000D01*
X1088999D01*
Y-0659000D01*
X1086999D01*
Y-0658000D01*
X1084999D01*
Y-0657000D01*
X1082000D01*
Y-0656000D01*
X1080000D01*
Y-0655000D01*
X1078000D01*
Y-0654000D01*
X1076000D01*
Y-0653000D01*
X1074999D01*
Y-0652000D01*
X1074000D01*
Y-0651000D01*
X1072000D01*
Y-0650000D01*
X1070999D01*
Y-0649000D01*
X1070000D01*
Y-0648000D01*
X1068999D01*
Y-0647000D01*
X1068000D01*
Y-0646000D01*
X1066999D01*
Y-0645000D01*
X1066000D01*
Y-0644000D01*
X1064999D01*
Y-0642000D01*
X1064000D01*
Y-0641000D01*
X1062999D01*
Y-0640000D01*
X1062000D01*
Y-0638000D01*
X1060999D01*
Y-0636000D01*
X1060000D01*
Y-0634000D01*
X1058999D01*
Y-0631000D01*
X1058000D01*
Y-0629000D01*
X1056999D01*
Y-0627000D01*
X1056000D01*
Y-0624000D01*
X1054999D01*
Y-0621000D01*
X1054000D01*
Y-0616000D01*
X1052999D01*
Y-0603000D01*
X1054000D01*
Y-0598000D01*
X1054999D01*
Y-0595000D01*
X1056000D01*
Y-0592000D01*
X1056999D01*
Y-0590000D01*
X1058000D01*
Y-0588000D01*
X1058999D01*
Y-0585000D01*
X1060000D01*
Y-0583000D01*
X1060999D01*
Y-0581000D01*
X1062000D01*
Y-0579000D01*
X1062999D01*
Y-0578000D01*
X1064000D01*
Y-0577000D01*
X1064999D01*
Y-0575000D01*
X1066000D01*
Y-0574000D01*
X1066999D01*
Y-0573000D01*
X1068000D01*
Y-0572000D01*
X1068999D01*
Y-0571000D01*
X1070000D01*
Y-0570000D01*
X1070999D01*
Y-0569000D01*
X1072000D01*
Y-0568000D01*
X1074000D01*
Y-0567000D01*
X1074999D01*
Y-0566000D01*
X1076000D01*
Y-0565000D01*
X1078000D01*
Y-0564000D01*
X1080000D01*
Y-0563000D01*
X1082000D01*
Y-0562000D01*
X1084999D01*
Y-0561000D01*
X1086999D01*
Y-0560000D01*
X1088999D01*
Y-0559000D01*
X1092000D01*
Y-0558000D01*
X1094999D01*
Y-0557000D01*
X1100000D01*
Y-0556000D01*
X1098999D01*
X1098000D01*
X1096999D01*
X1096000D01*
X1094999D01*
X1094000D01*
X1092999D01*
X1092000D01*
X1090999D01*
X1090000D01*
X1088999D01*
X1088000D01*
X1086999D01*
X1086000D01*
X1084999D01*
X1084000D01*
X1082999D01*
X1082000D01*
X1080999D01*
X1080000D01*
X1078999D01*
X1078000D01*
X1076999D01*
X1076000D01*
X1074999D01*
X1074000D01*
X1072999D01*
X1072000D01*
X1070999D01*
X1070000D01*
X1068999D01*
X1068000D01*
X1066999D01*
X1066000D01*
X1064999D01*
X1064000D01*
X1062999D01*
X1062000D01*
X1060999D01*
X1060000D01*
X1058999D01*
X1058000D01*
X1056999D01*
X1056000D01*
X1054999D01*
X1054000D01*
X1052999D01*
X1052000D01*
X1050999D01*
X1050000D01*
X1048999D01*
X1048000D01*
X1046999D01*
X1046000D01*
X1044999D01*
X1044000D01*
X1042999D01*
X1042000D01*
X1040999D01*
X1040000D01*
X1038999D01*
X1038000D01*
X1036999D01*
X1036000D01*
X1034999D01*
X1034000D01*
X1032999D01*
X1032000D01*
X1030999D01*
X1030000D01*
X1028999D01*
X1028000D01*
X1026999D01*
X1026000D01*
X1024999D01*
X1024000D01*
X1023000D01*
X1022000D01*
X1021000D01*
X1020000D01*
X1019000D01*
X1018000D01*
X1017000D01*
X1016000D01*
X1015000D01*
X1014000D01*
X1013000D01*
X1012000D01*
X1011000D01*
X1010000D01*
X1009000D01*
X1008000D01*
X1007000D01*
X1006000D01*
X1005000D01*
X1004000D01*
X1003000D01*
X1002000D01*
X1001000D01*
X1000000D01*
X0999000D01*
X0998000D01*
X0997000D01*
X0996000D01*
X0995000D01*
X0994000D01*
X0993000D01*
X0992000D01*
X0991000D01*
X0990000D01*
X0989000D01*
X0988000D01*
X0987000D01*
X0986000D01*
X0985000D01*
X0984000D01*
X0983000D01*
X0982000D01*
X0981000D01*
X0980000D01*
X0979000D01*
X0978000D01*
X0977000D01*
X0976000D01*
X0975000D01*
X0974000D01*
X0973000D01*
X0972000D01*
X0971000D01*
X0970000D01*
X0969000D01*
X0968000D01*
X0967000D01*
X0966000D01*
X0965000D01*
X0964000D01*
X0963000D01*
X0962000D01*
X0961000D01*
X0960000D01*
X0959000D01*
X0958000D01*
X0957000D01*
X0956000D01*
X0955000D01*
X0954000D01*
X0953000D01*
X0952000D01*
X0951000D01*
X0950000D01*
X0949000D01*
X0948000D01*
X0947000D01*
X0946000D01*
X0945000D01*
X0944000D01*
X0943000D01*
X0942000D01*
X0941000D01*
X0940000D01*
X0939000D01*
X0938000D01*
X0937000D01*
X0936000D01*
Y-1034999D01*
X0937000D01*
Y-1036999D01*
X0938000D01*
Y-1038000D01*
X0939000D01*
Y-1038999D01*
X0940000D01*
Y-1040000D01*
X0941000D01*
Y-1040999D01*
X0942000D01*
Y-1042000D01*
X0943000D01*
Y-1044000D01*
X0944000D01*
Y-1046999D01*
X0945000D01*
Y-1048999D01*
X0946000D01*
Y-1050999D01*
X0947000D01*
Y-1054999D01*
X0948000D01*
Y-1058000D01*
X0947000D01*
Y-1062000D01*
X0946000D01*
Y-1064000D01*
X0945000D01*
Y-1066000D01*
X0944000D01*
Y-1068999D01*
X0943000D01*
Y-1070999D01*
X0942000D01*
Y-1072000D01*
X0941000D01*
Y-1072999D01*
X0940000D01*
Y-1074000D01*
X0939000D01*
Y-1074999D01*
X0937000D01*
Y-1076000D01*
X0934000D01*
Y-1076999D01*
X0932000D01*
Y-1078000D01*
X0930000D01*
Y-1078999D01*
X0926000D01*
Y-1080000D01*
X0923000D01*
Y-1078999D01*
X0919000D01*
Y-1078000D01*
X0917000D01*
Y-1076999D01*
X0915000D01*
Y-1076000D01*
X0912000D01*
Y-1074999D01*
X0910000D01*
Y-1074000D01*
X0909000D01*
Y-1072999D01*
X0908000D01*
Y-1072000D01*
X0907000D01*
Y-1070999D01*
X0906000D01*
Y-1068999D01*
X0905000D01*
Y-1066000D01*
X0904000D01*
Y-1064000D01*
X0903000D01*
Y-1062000D01*
X0902000D01*
Y-1058000D01*
X0901000D01*
Y-1054999D01*
X0902000D01*
Y-1050999D01*
X0903000D01*
Y-1048999D01*
X0904000D01*
Y-1046999D01*
X0905000D01*
Y-1044000D01*
X0906000D01*
Y-1042000D01*
X0907000D01*
Y-1040999D01*
X0908000D01*
Y-1040000D01*
X0909000D01*
Y-1038999D01*
X0910000D01*
Y-1038000D01*
X0911000D01*
Y-1036999D01*
X0912000D01*
Y-1034999D01*
X0913000D01*
Y-0421000D01*
X0912000D01*
Y-0419000D01*
X0911000D01*
Y-0418000D01*
X0909000D01*
Y-0417000D01*
X0678000D01*
Y-0418000D01*
X0676000D01*
Y-0419000D01*
X0675000D01*
Y-0420000D01*
X0674000D01*
Y-0421000D01*
X0673000D01*
Y-0422000D01*
X0672000D01*
Y-0423000D01*
X0671000D01*
Y-0424000D01*
X0669000D01*
Y-0425000D01*
X0666000D01*
Y-0426000D01*
X0664000D01*
Y-0427000D01*
X0662000D01*
Y-0428000D01*
X0658000D01*
Y-0429000D01*
X0655000D01*
Y-0428000D01*
X0651000D01*
Y-0427000D01*
X0649000D01*
Y-0426000D01*
X0647000D01*
Y-0425000D01*
X0644000D01*
Y-0424000D01*
X0642000D01*
Y-0423000D01*
X0641000D01*
Y-0422000D01*
X0640000D01*
Y-0421000D01*
X0639000D01*
Y-0420000D01*
X0638000D01*
Y-0418000D01*
X0637000D01*
Y-0415000D01*
X0636000D01*
Y-0413000D01*
X0635000D01*
Y-0411000D01*
X0634000D01*
Y-0407000D01*
X0633000D01*
Y-0404000D01*
X0634000D01*
Y-0400000D01*
X0635000D01*
Y-0398000D01*
X0636000D01*
Y-0396000D01*
X0637000D01*
Y-0393000D01*
X0638000D01*
Y-0391000D01*
X0639000D01*
Y-0390000D01*
X0640000D01*
Y-0389000D01*
X0641000D01*
Y-0388000D01*
X0642000D01*
Y-0387000D01*
X0644000D01*
Y-0386000D01*
X0643000D01*
X0642000D01*
X0641000D01*
X0640000D01*
X0639000D01*
X0638000D01*
X0637000D01*
X0636000D01*
X0635000D01*
X0634000D01*
X0633000D01*
X0632000D01*
X0631000D01*
X0630000D01*
X0629000D01*
X0628000D01*
X0627000D01*
X0626000D01*
X0625000D01*
X0624000D01*
X0623000D01*
X0622000D01*
X0621000D01*
X0620000D01*
X0619000D01*
X0618000D01*
X0617000D01*
X0616000D01*
X0615000D01*
X0614000D01*
X0613000D01*
X0612000D01*
X0611000D01*
X0610000D01*
X0609000D01*
X0608000D01*
X0607000D01*
X0606000D01*
X0605000D01*
X0604000D01*
X0603000D01*
X0602000D01*
X0601000D01*
X0600000D01*
X0599000D01*
X0598000D01*
X0597000D01*
X0596000D01*
X0595000D01*
X0594000D01*
X0593000D01*
X0592000D01*
X0591000D01*
X0590000D01*
X0589000D01*
X0588000D01*
X0587000D01*
X0586000D01*
X0585000D01*
X0584000D01*
X0583000D01*
X0582000D01*
X0581000D01*
X0580000D01*
X0579000D01*
X0578000D01*
X0577000D01*
X0576000D01*
X0575000D01*
X0574000D01*
Y-0388000D01*
X0575000D01*
Y-0539000D01*
X0576000D01*
Y-0541000D01*
X0577000D01*
Y-0542000D01*
X0579000D01*
Y-0543000D01*
X0765000D01*
Y-0542000D01*
X0767000D01*
Y-0541000D01*
X0768000D01*
Y-0540000D01*
X0769000D01*
Y-0539000D01*
X0770000D01*
Y-0538000D01*
X0771000D01*
Y-0537000D01*
X0772000D01*
Y-0536000D01*
X0774000D01*
Y-0535000D01*
X0777000D01*
Y-0534000D01*
X0779000D01*
Y-0533000D01*
X0781000D01*
Y-0532000D01*
X0785000D01*
Y-0531000D01*
X0788000D01*
Y-0532000D01*
X0792000D01*
Y-0533000D01*
X0794000D01*
Y-0534000D01*
X0796000D01*
Y-0535000D01*
X0799000D01*
Y-0536000D01*
X0801000D01*
Y-0537000D01*
X0802000D01*
Y-0538000D01*
X0803000D01*
Y-0539000D01*
X0804000D01*
Y-0540000D01*
X0805000D01*
Y-0542000D01*
X0806000D01*
Y-0545000D01*
X0807000D01*
Y-0547000D01*
X0808000D01*
Y-0549000D01*
X0809000D01*
Y-0553000D01*
X0810000D01*
Y-0556000D01*
X0809000D01*
Y-0560000D01*
X0808000D01*
Y-0562000D01*
X0807000D01*
Y-0564000D01*
X0806000D01*
Y-0567000D01*
X0805000D01*
Y-0569000D01*
X0804000D01*
Y-0570000D01*
X0803000D01*
Y-0571000D01*
X0802000D01*
Y-0572000D01*
X0801000D01*
Y-0573000D01*
X0799000D01*
Y-0574000D01*
X0796000D01*
Y-0575000D01*
X0794000D01*
Y-0576000D01*
X0792000D01*
Y-0577000D01*
X0788000D01*
Y-0578000D01*
X0785000D01*
Y-0577000D01*
X0781000D01*
Y-0576000D01*
X0779000D01*
Y-0575000D01*
X0777000D01*
Y-0574000D01*
X0774000D01*
Y-0573000D01*
X0772000D01*
Y-0572000D01*
X0771000D01*
Y-0571000D01*
X0770000D01*
Y-0570000D01*
X0769000D01*
Y-0569000D01*
X0768000D01*
Y-0568000D01*
X0767000D01*
Y-0567000D01*
X0765000D01*
Y-0566000D01*
X0562000D01*
Y-0567000D01*
X0558000D01*
Y-0831000D01*
X0559000D01*
Y-0833000D01*
X0560000D01*
Y-0834000D01*
X0562000D01*
Y-0835000D01*
X0633000D01*
Y-0836000D01*
X0635000D01*
Y-0837000D01*
X0637000D01*
Y-0838000D01*
X0638000D01*
Y-0839000D01*
X0639000D01*
Y-0841000D01*
X0640000D01*
Y-0843000D01*
X0641000D01*
Y-0866000D01*
X0642000D01*
Y-0868000D01*
X0643000D01*
Y-0869000D01*
X0645000D01*
Y-0870000D01*
X0647000D01*
Y-0871000D01*
X0650000D01*
Y-0872000D01*
X0652000D01*
Y-0873000D01*
X0654000D01*
Y-0874000D01*
X0655000D01*
Y-0875000D01*
X0657000D01*
Y-0876000D01*
X0658000D01*
Y-0877000D01*
X0659000D01*
Y-0878000D01*
X0660000D01*
Y-0879000D01*
X0661000D01*
Y-0880000D01*
X0662000D01*
Y-0881000D01*
X0663000D01*
Y-0882000D01*
X0664000D01*
Y-0883000D01*
X0665000D01*
Y-0885000D01*
X0666000D01*
Y-0886000D01*
X0667000D01*
Y-0888000D01*
X0668000D01*
Y-0890000D01*
X0669000D01*
Y-0893000D01*
X0670000D01*
Y-0895000D01*
X0671000D01*
Y-0897000D01*
X0672000D01*
Y-0900000D01*
X0673000D01*
Y-0904000D01*
X0674000D01*
Y-0917000D01*
X0673000D01*
Y-0921000D01*
X0672000D01*
Y-0924000D01*
X0671000D01*
Y-0926000D01*
X0670000D01*
Y-0928000D01*
X0669000D01*
Y-0931000D01*
X0668000D01*
Y-0933000D01*
X0667000D01*
Y-0935000D01*
X0666000D01*
Y-0936000D01*
X0665000D01*
Y-0938000D01*
X0664000D01*
Y-0939000D01*
X0663000D01*
Y-0940000D01*
X0662000D01*
Y-0941000D01*
X0661000D01*
Y-0942000D01*
X0660000D01*
Y-0943000D01*
X0659000D01*
Y-0944000D01*
X0658000D01*
Y-0945000D01*
X0657000D01*
Y-0946000D01*
X0655000D01*
Y-0947000D01*
X0654000D01*
Y-0948000D01*
X0652000D01*
Y-0949000D01*
X0650000D01*
Y-0950000D01*
X0647000D01*
Y-0951000D01*
X0645000D01*
Y-0952000D01*
X0643000D01*
Y-0953000D01*
X0640000D01*
Y-0954000D01*
X0636000D01*
Y-0955000D01*
X0623000D01*
Y-0954000D01*
X0619000D01*
Y-0953000D01*
X0616000D01*
Y-0952000D01*
X0614000D01*
Y-0951000D01*
X0612000D01*
Y-0950000D01*
X0609000D01*
Y-0949000D01*
X0607000D01*
Y-0948000D01*
X0605000D01*
Y-0947000D01*
X0604000D01*
Y-0946000D01*
X0602000D01*
Y-0945000D01*
X0601000D01*
Y-0944000D01*
X0600000D01*
Y-0943000D01*
X0599000D01*
Y-0942000D01*
X0598000D01*
Y-0941000D01*
X0597000D01*
Y-0940000D01*
X0596000D01*
Y-0939000D01*
X0595000D01*
Y-0938000D01*
X0594000D01*
Y-0936000D01*
X0593000D01*
Y-0935000D01*
X0592000D01*
Y-0933000D01*
X0591000D01*
Y-0931000D01*
X0590000D01*
Y-0928000D01*
X0589000D01*
Y-0926000D01*
X0588000D01*
Y-0924000D01*
X0587000D01*
Y-0921000D01*
X0586000D01*
Y-0917000D01*
X0585000D01*
Y-0904000D01*
X0586000D01*
Y-0900000D01*
X0587000D01*
Y-0897000D01*
X0588000D01*
Y-0895000D01*
X0589000D01*
Y-0893000D01*
X0590000D01*
Y-0890000D01*
X0591000D01*
Y-0888000D01*
X0592000D01*
Y-0886000D01*
X0593000D01*
Y-0885000D01*
X0594000D01*
Y-0883000D01*
X0595000D01*
Y-0882000D01*
X0596000D01*
Y-0881000D01*
X0597000D01*
Y-0880000D01*
X0598000D01*
Y-0879000D01*
X0599000D01*
Y-0878000D01*
X0600000D01*
Y-0877000D01*
X0601000D01*
Y-0876000D01*
X0602000D01*
Y-0875000D01*
X0604000D01*
Y-0874000D01*
X0605000D01*
Y-0873000D01*
X0607000D01*
Y-0872000D01*
X0609000D01*
Y-0871000D01*
X0612000D01*
Y-0870000D01*
X0614000D01*
Y-0869000D01*
X0616000D01*
Y-0868000D01*
X0617000D01*
Y-0866000D01*
X0618000D01*
Y-0862000D01*
X0617000D01*
Y-0860000D01*
X0616000D01*
Y-0859000D01*
X0614000D01*
Y-0858000D01*
X0545000D01*
Y-0859000D01*
X0543000D01*
Y-0860000D01*
X0542000D01*
Y-0862000D01*
X0541000D01*
Y-0866000D01*
X0542000D01*
Y-0868000D01*
X0543000D01*
Y-0869000D01*
X0545000D01*
Y-0870000D01*
X0547000D01*
Y-0871000D01*
X0550000D01*
Y-0872000D01*
X0552000D01*
Y-0873000D01*
X0554000D01*
Y-0874000D01*
X0555000D01*
Y-0875000D01*
X0557000D01*
Y-0876000D01*
X0558000D01*
Y-0877000D01*
X0559000D01*
Y-0878000D01*
X0560000D01*
Y-0879000D01*
X0561000D01*
Y-0880000D01*
X0562000D01*
Y-0881000D01*
X0563000D01*
Y-0882000D01*
X0564000D01*
Y-0883000D01*
X0565000D01*
Y-0884000D01*
X0566000D01*
Y-0886000D01*
X0567000D01*
Y-0887000D01*
X0568000D01*
Y-0888000D01*
X0569000D01*
Y-0890000D01*
X0570000D01*
Y-0892000D01*
X0571000D01*
Y-0895000D01*
X0572000D01*
Y-0897000D01*
X0573000D01*
Y-0899000D01*
X0574000D01*
Y-0902000D01*
X0575000D01*
Y-0918000D01*
X0574000D01*
Y-0921000D01*
X0573000D01*
Y-0924000D01*
X0572000D01*
Y-0926000D01*
X0571000D01*
Y-0928000D01*
X0570000D01*
Y-0931000D01*
X0569000D01*
Y-0932000D01*
X0568000D01*
Y-0934000D01*
X0567000D01*
Y-0935000D01*
X0566000D01*
Y-0936000D01*
X0565000D01*
Y-0938000D01*
X0564000D01*
Y-0939000D01*
X0563000D01*
Y-0940000D01*
X0562000D01*
Y-0941000D01*
X0561000D01*
Y-0942000D01*
X0560000D01*
Y-0943000D01*
X0559000D01*
Y-0944000D01*
X0558000D01*
Y-0945000D01*
X0557000D01*
Y-0946000D01*
X0555000D01*
Y-0947000D01*
X0554000D01*
Y-0948000D01*
X0552000D01*
Y-0949000D01*
X0550000D01*
Y-0950000D01*
X0547000D01*
Y-0951000D01*
X0545000D01*
Y-0952000D01*
X0543000D01*
Y-0953000D01*
X0540000D01*
Y-0954000D01*
X0536000D01*
Y-0955000D01*
X0523000D01*
Y-0954000D01*
X0519000D01*
Y-0953000D01*
X0516000D01*
Y-0952000D01*
X0514000D01*
Y-0951000D01*
X0512000D01*
Y-0950000D01*
X0509000D01*
Y-0949000D01*
X0507000D01*
Y-0948000D01*
X0505000D01*
Y-0947000D01*
X0504000D01*
Y-0946000D01*
X0502000D01*
Y-0945000D01*
X0501000D01*
Y-0944000D01*
X0500000D01*
Y-0943000D01*
X0499000D01*
Y-0942000D01*
X0498000D01*
Y-0941000D01*
X0497000D01*
Y-0940000D01*
X0496000D01*
Y-0939000D01*
X0495000D01*
Y-0938000D01*
X0494000D01*
Y-0936000D01*
X0493000D01*
Y-0935000D01*
X0492000D01*
Y-0933000D01*
X0491000D01*
Y-0931000D01*
X0490000D01*
Y-0928000D01*
X0489000D01*
Y-0926000D01*
X0488000D01*
Y-0924000D01*
X0487000D01*
Y-0921000D01*
X0486000D01*
Y-0917000D01*
X0485000D01*
Y-0904000D01*
X0486000D01*
Y-0900000D01*
X0487000D01*
Y-0897000D01*
X0488000D01*
Y-0895000D01*
X0489000D01*
Y-0893000D01*
X0490000D01*
Y-0890000D01*
X0491000D01*
Y-0888000D01*
X0492000D01*
Y-0886000D01*
X0493000D01*
Y-0885000D01*
X0494000D01*
Y-0883000D01*
X0495000D01*
Y-0882000D01*
X0496000D01*
Y-0881000D01*
X0497000D01*
Y-0880000D01*
X0498000D01*
Y-0879000D01*
X0499000D01*
Y-0878000D01*
X0500000D01*
Y-0877000D01*
X0501000D01*
Y-0876000D01*
X0502000D01*
Y-0875000D01*
X0504000D01*
Y-0874000D01*
X0505000D01*
Y-0873000D01*
X0507000D01*
Y-0872000D01*
X0509000D01*
Y-0871000D01*
X0512000D01*
Y-0870000D01*
X0514000D01*
Y-0869000D01*
X0516000D01*
Y-0868000D01*
X0517000D01*
Y-0866000D01*
X0518000D01*
Y-0774000D01*
X0517000D01*
Y-0772000D01*
X0516000D01*
Y-0771000D01*
X0514000D01*
Y-0770000D01*
X0318000D01*
Y-0769000D01*
X0316000D01*
Y-0768000D01*
X0314000D01*
Y-0767000D01*
X0313000D01*
Y-0766000D01*
X0312000D01*
Y-0764000D01*
X0311000D01*
Y-0762000D01*
X0310000D01*
Y-0711000D01*
X0309000D01*
Y-0709000D01*
X0308000D01*
Y-0708000D01*
X0307000D01*
Y-0707000D01*
X0306000D01*
Y-0706000D01*
X0305000D01*
Y-0705000D01*
X0304000D01*
Y-0704000D01*
X0303000D01*
Y-0702000D01*
X0302000D01*
Y-0699000D01*
X0301000D01*
Y-0697000D01*
X0300000D01*
Y-0695000D01*
X0299000D01*
Y-0691000D01*
X0298000D01*
Y-0688000D01*
X0299000D01*
Y-0684000D01*
X0300000D01*
Y-0682000D01*
X0301000D01*
Y-0680000D01*
X0302000D01*
Y-0677000D01*
X0303000D01*
Y-0675000D01*
X0304000D01*
Y-0674000D01*
X0305000D01*
Y-0673000D01*
X0306000D01*
Y-0672000D01*
X0307000D01*
Y-0671000D01*
X0309000D01*
Y-0670000D01*
X0312000D01*
Y-0669000D01*
X0314000D01*
Y-0668000D01*
X0316000D01*
Y-0667000D01*
X0320000D01*
Y-0666000D01*
X0323000D01*
Y-0667000D01*
X0327000D01*
Y-0668000D01*
X0329000D01*
Y-0669000D01*
X0331000D01*
Y-0670000D01*
X0334000D01*
Y-0671000D01*
X0336000D01*
Y-0672000D01*
X0337000D01*
Y-0673000D01*
X0338000D01*
Y-0674000D01*
X0339000D01*
Y-0675000D01*
X0340000D01*
Y-0677000D01*
X0341000D01*
Y-0680000D01*
X0342000D01*
Y-0682000D01*
X0343000D01*
Y-0684000D01*
X0344000D01*
Y-0688000D01*
X0345000D01*
Y-0691000D01*
X0344000D01*
Y-0695000D01*
X0343000D01*
Y-0697000D01*
X0342000D01*
Y-0699000D01*
X0341000D01*
Y-0702000D01*
X0340000D01*
Y-0704000D01*
X0339000D01*
Y-0705000D01*
X0338000D01*
Y-0706000D01*
X0337000D01*
Y-0707000D01*
X0336000D01*
Y-0708000D01*
X0335000D01*
Y-0709000D01*
X0334000D01*
Y-0711000D01*
X0333000D01*
Y-0731000D01*
X0334000D01*
Y-0733000D01*
X0335000D01*
Y-0734000D01*
X0337000D01*
Y-0735000D01*
X0338000D01*
Y-0734000D01*
X0340000D01*
Y-0733000D01*
X0341000D01*
Y-0731000D01*
X0342000D01*
Y-0727000D01*
X0343000D01*
Y-0725000D01*
X0344000D01*
Y-0723000D01*
X0345000D01*
Y-0720000D01*
X0346000D01*
Y-0718000D01*
X0347000D01*
Y-0717000D01*
X0348000D01*
Y-0716000D01*
X0349000D01*
Y-0715000D01*
X0350000D01*
Y-0714000D01*
X0352000D01*
Y-0713000D01*
X0355000D01*
Y-0712000D01*
X0357000D01*
Y-0711000D01*
X0359000D01*
Y-0710000D01*
X0363000D01*
Y-0709000D01*
X0366000D01*
Y-0710000D01*
X0370000D01*
Y-0711000D01*
X0372000D01*
Y-0712000D01*
X0374000D01*
Y-0713000D01*
X0377000D01*
Y-0714000D01*
X0379000D01*
Y-0715000D01*
X0380000D01*
Y-0716000D01*
X0381000D01*
Y-0717000D01*
X0382000D01*
Y-0718000D01*
X0383000D01*
Y-0719000D01*
X0384000D01*
Y-0720000D01*
X0386000D01*
Y-0721000D01*
X0480000D01*
Y-0720000D01*
X0482000D01*
Y-0719000D01*
X0483000D01*
Y-0717000D01*
X0484000D01*
Y-0517000D01*
X0483000D01*
Y-0515000D01*
X0482000D01*
Y-0514000D01*
X0480000D01*
Y-0513000D01*
X0443000D01*
Y-0512000D01*
X0441000D01*
Y-0511000D01*
X0439000D01*
Y-0510000D01*
X0438000D01*
Y-0509000D01*
X0437000D01*
Y-0507000D01*
X0436000D01*
Y-0505000D01*
X0435000D01*
Y-0345000D01*
X0436000D01*
Y-0344000D01*
X0435000D01*
Y-0342000D01*
X0434000D01*
Y-0341000D01*
X0432000D01*
Y-0340000D01*
X0282000D01*
Y-0341000D01*
X0280000D01*
Y-0342000D01*
X0279000D01*
Y-0343000D01*
X0278000D01*
Y-0344000D01*
X0277000D01*
Y-0345000D01*
X0276000D01*
Y-0346000D01*
X0275000D01*
Y-0347000D01*
X0274000D01*
Y-0348000D01*
X0273000D01*
Y-0349000D01*
X0272000D01*
Y-0350000D01*
X0271000D01*
Y-0351000D01*
X0270000D01*
Y-0352000D01*
X0269000D01*
Y-0353000D01*
X0268000D01*
Y-0354000D01*
X0267000D01*
Y-0355000D01*
X0266000D01*
Y-0356000D01*
X0265000D01*
Y-0357000D01*
X0264000D01*
Y-0358000D01*
X0263000D01*
Y-0359000D01*
X0262000D01*
Y-0360000D01*
X0261000D01*
Y-0361000D01*
X0260000D01*
Y-0362000D01*
X0259000D01*
Y-0363000D01*
X0258000D01*
Y-0364000D01*
X0257000D01*
Y-0365000D01*
X0256000D01*
Y-0366000D01*
X0255000D01*
Y-0367000D01*
X0254000D01*
Y-0368000D01*
X0253000D01*
Y-0369000D01*
X0252000D01*
Y-0370000D01*
X0251000D01*
Y-0371000D01*
X0250000D01*
Y-0372000D01*
X0249000D01*
Y-0373000D01*
X0248000D01*
Y-0374000D01*
X0247000D01*
Y-0375000D01*
X0246000D01*
Y-0376000D01*
X0245000D01*
Y-0378000D01*
X0244000D01*
Y-0786000D01*
X0245000D01*
X0246000D01*
X0247000D01*
X0248000D01*
X0249000D01*
X0250000D01*
X0251000D01*
X0252000D01*
X0253000D01*
X0254000D01*
X0255000D01*
X0256000D01*
X0257000D01*
X0258000D01*
X0259000D01*
X0260000D01*
X0261000D01*
X0262000D01*
X0263000D01*
X0264000D01*
X0265000D01*
X0266000D01*
X0267000D01*
X0268000D01*
X0269000D01*
X0270000D01*
X0271000D01*
X0272000D01*
X0273000D01*
X0274000D01*
X0275000D01*
X0276000D01*
X0277000D01*
X0278000D01*
X0279000D01*
X0280000D01*
X0281000D01*
X0282000D01*
X0283000D01*
X0284000D01*
X0285000D01*
X0286000D01*
X0287000D01*
X0288000D01*
X0289000D01*
X0290000D01*
X0291000D01*
X0292000D01*
X0293000D01*
X0294000D01*
X0295000D01*
X0296000D01*
X0297000D01*
X0298000D01*
X0299000D01*
X0300000D01*
X0301000D01*
X0302000D01*
X0303000D01*
X0304000D01*
X0305000D01*
X0306000D01*
X0307000D01*
X0308000D01*
X0309000D01*
X0310000D01*
X0311000D01*
X0312000D01*
X0313000D01*
X0314000D01*
X0315000D01*
X0316000D01*
X0317000D01*
X0318000D01*
X0319000D01*
X0320000D01*
X0321000D01*
X0322000D01*
X0323000D01*
X0324000D01*
X0325000D01*
X0326000D01*
X0327000D01*
X0328000D01*
X0329000D01*
X0330000D01*
X0331000D01*
X0332000D01*
X0333000D01*
X0334000D01*
X0335000D01*
X0336000D01*
X0337000D01*
X0338000D01*
X0339000D01*
X0340000D01*
X0341000D01*
X0342000D01*
X0343000D01*
X0344000D01*
X0345000D01*
X0346000D01*
X0347000D01*
X0348000D01*
X0349000D01*
X0350000D01*
X0351000D01*
X0352000D01*
X0353000D01*
X0354000D01*
X0355000D01*
X0356000D01*
X0357000D01*
X0358000D01*
X0359000D01*
X0360000D01*
X0361000D01*
X0362000D01*
X0363000D01*
X0364000D01*
X0365000D01*
X0366000D01*
X0367000D01*
X0368000D01*
X0369000D01*
X0370000D01*
X0371000D01*
X0372000D01*
X0373000D01*
X0374000D01*
X0375000D01*
X0376000D01*
X0377000D01*
X0378000D01*
X0379000D01*
X0380000D01*
X0381000D01*
X0382000D01*
X0383000D01*
X0384000D01*
X0385000D01*
X0386000D01*
X0387000D01*
X0388000D01*
X0389000D01*
X0390000D01*
X0391000D01*
X0392000D01*
X0393000D01*
X0394000D01*
X0395000D01*
X0396000D01*
X0397000D01*
X0398000D01*
X0399000D01*
X0400000D01*
X0401000D01*
X0402000D01*
X0403000D01*
X0404000D01*
X0405000D01*
X0406000D01*
X0407000D01*
X0408000D01*
X0409000D01*
X0410000D01*
X0411000D01*
X0412000D01*
X0413000D01*
X0414000D01*
X0415000D01*
X0416000D01*
X0417000D01*
X0418000D01*
X0419000D01*
X0420000D01*
X0421000D01*
X0422000D01*
X0423000D01*
X0424000D01*
X0425000D01*
X0426000D01*
X0427000D01*
X0428000D01*
X0429000D01*
X0430000D01*
X0431000D01*
X0432000D01*
X0433000D01*
X0434000D01*
X0435000D01*
X0436000D01*
X0437000D01*
X0438000D01*
X0439000D01*
X0440000D01*
X0441000D01*
X0442000D01*
X0443000D01*
X0444000D01*
X0445000D01*
X0446000D01*
X0447000D01*
X0448000D01*
X0449000D01*
X0450000D01*
X0451000D01*
X0452000D01*
X0453000D01*
X0454000D01*
X0455000D01*
X0456000D01*
X0457000D01*
X0458000D01*
X0459000D01*
X0460000D01*
X0461000D01*
X0462000D01*
X0463000D01*
X0464000D01*
X0465000D01*
X0466000D01*
X0467000D01*
X0468000D01*
X0469000D01*
X0470000D01*
X0471000D01*
X0472000D01*
X0473000D01*
X0474000D01*
X0475000D01*
X0476000D01*
X0477000D01*
X0478000D01*
X0482000D01*
Y-0787000D01*
X0486000D01*
Y-0788000D01*
X0488000D01*
Y-0789000D01*
X0490000D01*
Y-0790000D01*
X0493000D01*
Y-0791000D01*
X0495000D01*
Y-0792000D01*
X0496000D01*
Y-0793000D01*
X0497000D01*
Y-0794000D01*
X0498000D01*
Y-0795000D01*
X0499000D01*
Y-0797000D01*
X0500000D01*
Y-0800000D01*
X0501000D01*
Y-0802000D01*
X0502000D01*
Y-0804000D01*
X0503000D01*
Y-0808000D01*
X0504000D01*
Y-0811000D01*
X0503000D01*
Y-0815000D01*
X0502000D01*
Y-0817000D01*
X0501000D01*
Y-0819000D01*
X0500000D01*
Y-0822000D01*
X0499000D01*
Y-0824000D01*
X0498000D01*
Y-0825000D01*
X0497000D01*
Y-0826000D01*
X0496000D01*
Y-0827000D01*
X0495000D01*
Y-0828000D01*
X0493000D01*
Y-0829000D01*
X0490000D01*
Y-0830000D01*
X0488000D01*
Y-0831000D01*
X0486000D01*
Y-0832000D01*
X0482000D01*
Y-0833000D01*
X0479000D01*
Y-0832000D01*
X0475000D01*
Y-0831000D01*
X0473000D01*
Y-0830000D01*
X0471000D01*
Y-0829000D01*
X0468000D01*
Y-0828000D01*
X0466000D01*
Y-0827000D01*
X0465000D01*
Y-0826000D01*
X0464000D01*
Y-0825000D01*
X0463000D01*
Y-0824000D01*
X0461000D01*
Y-0823000D01*
X0347000D01*
Y-0824000D01*
X0345000D01*
Y-0825000D01*
X0344000D01*
Y-0827000D01*
X0343000D01*
Y-0866000D01*
X0344000D01*
X0345000D01*
X0346000D01*
X0347000D01*
X0348000D01*
X0349000D01*
X0350000D01*
X0351000D01*
X0352000D01*
X0353000D01*
X0354000D01*
X0355000D01*
X0356000D01*
X0357000D01*
X0358000D01*
X0359000D01*
X0360000D01*
X0361000D01*
X0362000D01*
X0363000D01*
X0364000D01*
X0365000D01*
X0366000D01*
X0367000D01*
X0368000D01*
X0369000D01*
X0370000D01*
X0371000D01*
X0372000D01*
X0373000D01*
X0374000D01*
X0375000D01*
X0376000D01*
X0377000D01*
X0378000D01*
X0379000D01*
X0380000D01*
X0381000D01*
X0382000D01*
X0383000D01*
X0384000D01*
X0385000D01*
X0386000D01*
X0387000D01*
X0388000D01*
X0389000D01*
X0390000D01*
X0391000D01*
X0392000D01*
X0393000D01*
X0394000D01*
X0395000D01*
X0396000D01*
X0397000D01*
X0398000D01*
X0399000D01*
X0400000D01*
X0401000D01*
X0402000D01*
X0403000D01*
X0404000D01*
X0405000D01*
X0406000D01*
X0407000D01*
X0408000D01*
X0409000D01*
X0410000D01*
X0411000D01*
X0412000D01*
X0413000D01*
X0414000D01*
X0415000D01*
X0416000D01*
X0417000D01*
X0418000D01*
X0419000D01*
X0420000D01*
X0421000D01*
X0422000D01*
X0436000D01*
Y-0867000D01*
X0440000D01*
Y-0868000D01*
X0443000D01*
Y-0869000D01*
X0445000D01*
Y-0870000D01*
X0447000D01*
Y-0871000D01*
X0450000D01*
Y-0872000D01*
X0452000D01*
Y-0873000D01*
X0454000D01*
Y-0874000D01*
X0455000D01*
Y-0875000D01*
X0457000D01*
Y-0876000D01*
X0458000D01*
Y-0877000D01*
X0459000D01*
Y-0878000D01*
X0460000D01*
Y-0879000D01*
X0461000D01*
Y-0880000D01*
X0462000D01*
Y-0881000D01*
X0463000D01*
Y-0882000D01*
X0464000D01*
Y-0883000D01*
X0465000D01*
Y-0884000D01*
X0466000D01*
Y-0886000D01*
X0467000D01*
Y-0887000D01*
X0468000D01*
Y-0888000D01*
X0469000D01*
Y-0890000D01*
X0470000D01*
Y-0892000D01*
X0471000D01*
Y-0895000D01*
X0472000D01*
Y-0897000D01*
X0473000D01*
Y-0899000D01*
X0474000D01*
Y-0902000D01*
X0475000D01*
Y-0918000D01*
X0474000D01*
Y-0921000D01*
X0473000D01*
Y-0924000D01*
X0472000D01*
Y-0926000D01*
X0471000D01*
Y-0928000D01*
X0470000D01*
Y-0931000D01*
X0469000D01*
Y-0932000D01*
X0468000D01*
Y-0934000D01*
X0467000D01*
Y-0935000D01*
X0466000D01*
Y-0936000D01*
X0465000D01*
Y-0938000D01*
X0464000D01*
Y-0939000D01*
X0463000D01*
Y-0940000D01*
X0462000D01*
Y-0941000D01*
X0461000D01*
Y-0942000D01*
X0460000D01*
Y-0943000D01*
X0459000D01*
Y-0944000D01*
X0458000D01*
Y-0945000D01*
X0457000D01*
Y-0946000D01*
X0455000D01*
Y-0947000D01*
X0454000D01*
Y-0948000D01*
X0452000D01*
Y-0949000D01*
X0450000D01*
Y-0950000D01*
X0447000D01*
Y-0951000D01*
X0445000D01*
Y-0952000D01*
X0443000D01*
Y-0953000D01*
X0440000D01*
Y-0954000D01*
X0436000D01*
Y-0955000D01*
X0423000D01*
Y-0954000D01*
X0419000D01*
Y-0953000D01*
X0416000D01*
Y-0952000D01*
X0414000D01*
Y-0951000D01*
X0412000D01*
Y-0950000D01*
X0409000D01*
Y-0949000D01*
X0407000D01*
Y-0948000D01*
X0405000D01*
Y-0947000D01*
X0404000D01*
Y-0946000D01*
X0402000D01*
Y-0945000D01*
X0401000D01*
Y-0944000D01*
X0400000D01*
Y-0943000D01*
X0399000D01*
Y-0942000D01*
X0398000D01*
Y-0941000D01*
X0397000D01*
Y-0940000D01*
X0396000D01*
Y-0939000D01*
X0395000D01*
Y-0938000D01*
X0394000D01*
Y-0936000D01*
X0393000D01*
Y-0935000D01*
X0392000D01*
Y-0933000D01*
X0391000D01*
Y-0931000D01*
X0390000D01*
Y-0928000D01*
X0389000D01*
Y-0926000D01*
X0388000D01*
Y-0924000D01*
X0387000D01*
Y-0921000D01*
X0386000D01*
Y-0917000D01*
X0385000D01*
Y-0904000D01*
X0386000D01*
Y-0900000D01*
X0387000D01*
Y-0897000D01*
X0388000D01*
Y-0895000D01*
X0389000D01*
Y-0893000D01*
X0390000D01*
Y-0890000D01*
X0391000D01*
Y-0888000D01*
X0392000D01*
Y-0886000D01*
X0393000D01*
Y-0885000D01*
X0394000D01*
Y-0883000D01*
X0395000D01*
Y-0882000D01*
X0396000D01*
Y-0881000D01*
X0397000D01*
Y-0880000D01*
X0398000D01*
Y-0879000D01*
X0399000D01*
Y-0878000D01*
X0400000D01*
Y-0877000D01*
X0401000D01*
Y-0876000D01*
X0402000D01*
Y-0875000D01*
X0404000D01*
Y-0874000D01*
X0405000D01*
Y-0873000D01*
X0407000D01*
Y-0872000D01*
X0409000D01*
Y-0871000D01*
X0412000D01*
Y-0870000D01*
X0414000D01*
Y-0869000D01*
X0416000D01*
Y-0868000D01*
X0419000D01*
Y-0867000D01*
X0423000D01*
Y-0866000D01*
X0422000D01*
X0421000D01*
X0420000D01*
X0419000D01*
X0418000D01*
X0417000D01*
X0416000D01*
X0415000D01*
X0414000D01*
X0413000D01*
X0412000D01*
X0411000D01*
X0410000D01*
X0409000D01*
X0408000D01*
X0407000D01*
X0406000D01*
X0405000D01*
X0404000D01*
X0403000D01*
X0402000D01*
X0401000D01*
X0400000D01*
X0399000D01*
X0398000D01*
X0397000D01*
X0396000D01*
X0395000D01*
X0394000D01*
X0393000D01*
X0392000D01*
X0391000D01*
X0390000D01*
X0389000D01*
X0388000D01*
X0387000D01*
X0386000D01*
X0385000D01*
X0384000D01*
X0383000D01*
X0382000D01*
X0381000D01*
X0380000D01*
X0379000D01*
X0378000D01*
X0377000D01*
X0376000D01*
X0375000D01*
X0374000D01*
X0373000D01*
X0372000D01*
X0371000D01*
X0370000D01*
X0369000D01*
X0368000D01*
X0367000D01*
X0366000D01*
X0365000D01*
X0364000D01*
X0363000D01*
X0362000D01*
X0361000D01*
X0360000D01*
X0359000D01*
X0358000D01*
X0357000D01*
X0356000D01*
X0355000D01*
X0354000D01*
X0353000D01*
X0352000D01*
X0351000D01*
X0350000D01*
X0349000D01*
X0348000D01*
X0347000D01*
X0346000D01*
X0345000D01*
X0344000D01*
X0343000D01*
Y-0867000D01*
X0344000D01*
Y-0869000D01*
X0345000D01*
Y-0870000D01*
X0347000D01*
Y-0871000D01*
X0350000D01*
Y-0872000D01*
X0352000D01*
Y-0873000D01*
X0354000D01*
Y-0874000D01*
X0355000D01*
Y-0875000D01*
X0357000D01*
Y-0876000D01*
X0358000D01*
Y-0877000D01*
X0359000D01*
Y-0878000D01*
X0360000D01*
Y-0879000D01*
X0361000D01*
Y-0880000D01*
X0362000D01*
Y-0881000D01*
X0363000D01*
Y-0882000D01*
X0364000D01*
Y-0883000D01*
X0365000D01*
Y-0885000D01*
X0366000D01*
Y-0886000D01*
X0367000D01*
Y-0888000D01*
X0368000D01*
Y-0890000D01*
X0369000D01*
Y-0893000D01*
X0370000D01*
Y-0895000D01*
X0371000D01*
Y-0897000D01*
X0372000D01*
Y-0900000D01*
X0373000D01*
Y-0904000D01*
X0374000D01*
Y-0917000D01*
X0373000D01*
Y-0921000D01*
X0372000D01*
Y-0924000D01*
X0371000D01*
Y-0926000D01*
X0370000D01*
Y-0928000D01*
X0369000D01*
Y-0931000D01*
X0368000D01*
Y-0933000D01*
X0367000D01*
Y-0935000D01*
X0366000D01*
Y-0936000D01*
X0365000D01*
Y-0938000D01*
X0364000D01*
Y-0939000D01*
X0363000D01*
Y-0940000D01*
X0362000D01*
Y-0941000D01*
X0361000D01*
Y-0942000D01*
X0360000D01*
Y-0943000D01*
X0359000D01*
Y-0944000D01*
X0358000D01*
Y-0945000D01*
X0357000D01*
Y-0946000D01*
X0355000D01*
Y-0947000D01*
X0354000D01*
Y-0948000D01*
X0352000D01*
Y-0949000D01*
X0350000D01*
Y-0950000D01*
X0347000D01*
Y-0951000D01*
X0345000D01*
Y-0952000D01*
X0343000D01*
Y-0953000D01*
X0340000D01*
Y-0954000D01*
X0336000D01*
Y-0955000D01*
X0323000D01*
Y-0954000D01*
X0319000D01*
Y-0953000D01*
X0316000D01*
Y-0952000D01*
X0314000D01*
Y-0951000D01*
X0312000D01*
Y-0950000D01*
X0309000D01*
Y-0949000D01*
X0307000D01*
Y-0948000D01*
X0305000D01*
Y-0947000D01*
X0304000D01*
Y-0946000D01*
X0302000D01*
Y-0945000D01*
X0301000D01*
Y-0944000D01*
X0300000D01*
Y-0943000D01*
X0299000D01*
Y-0942000D01*
X0298000D01*
Y-0941000D01*
X0297000D01*
Y-0940000D01*
X0296000D01*
Y-0939000D01*
X0295000D01*
Y-0938000D01*
X0294000D01*
Y-0936000D01*
X0293000D01*
Y-0935000D01*
X0292000D01*
Y-0933000D01*
X0291000D01*
Y-0931000D01*
X0290000D01*
Y-0928000D01*
X0289000D01*
Y-0926000D01*
X0288000D01*
Y-0924000D01*
X0287000D01*
Y-0921000D01*
X0286000D01*
Y-0917000D01*
X0285000D01*
Y-0904000D01*
X0286000D01*
Y-0900000D01*
X0287000D01*
Y-0897000D01*
X0288000D01*
Y-0895000D01*
X0289000D01*
Y-0893000D01*
X0290000D01*
Y-0890000D01*
X0291000D01*
Y-0888000D01*
X0292000D01*
Y-0886000D01*
X0293000D01*
Y-0885000D01*
X0294000D01*
Y-0883000D01*
X0295000D01*
Y-0882000D01*
X0296000D01*
Y-0881000D01*
X0297000D01*
Y-0880000D01*
X0298000D01*
Y-0879000D01*
X0299000D01*
Y-0878000D01*
X0300000D01*
Y-0877000D01*
X0301000D01*
Y-0876000D01*
X0302000D01*
Y-0875000D01*
X0304000D01*
Y-0874000D01*
X0305000D01*
Y-0873000D01*
X0307000D01*
Y-0872000D01*
X0309000D01*
Y-0871000D01*
X0312000D01*
Y-0870000D01*
X0314000D01*
Y-0869000D01*
X0315000D01*
Y-0867000D01*
X0316000D01*
Y-0804000D01*
X0317000D01*
Y-0802000D01*
X0318000D01*
Y-0800000D01*
X0319000D01*
Y-0799000D01*
X0320000D01*
Y-0798000D01*
X0322000D01*
Y-0797000D01*
X0324000D01*
Y-0796000D01*
X0461000D01*
Y-0795000D01*
X0463000D01*
Y-0794000D01*
X0464000D01*
Y-0793000D01*
X0465000D01*
Y-0792000D01*
X0466000D01*
Y-0791000D01*
X0468000D01*
Y-0790000D01*
X0471000D01*
Y-0789000D01*
X0473000D01*
Y-0788000D01*
X0475000D01*
Y-0787000D01*
X0479000D01*
Y-0786000D01*
X0478000D01*
X0477000D01*
X0476000D01*
X0475000D01*
X0474000D01*
X0473000D01*
X0472000D01*
X0471000D01*
X0470000D01*
X0469000D01*
X0468000D01*
X0467000D01*
X0466000D01*
X0465000D01*
X0464000D01*
X0463000D01*
X0462000D01*
X0461000D01*
X0460000D01*
X0459000D01*
X0458000D01*
X0457000D01*
X0456000D01*
X0455000D01*
X0454000D01*
X0453000D01*
X0452000D01*
X0451000D01*
X0450000D01*
X0449000D01*
X0448000D01*
X0447000D01*
X0446000D01*
X0445000D01*
X0444000D01*
X0443000D01*
X0442000D01*
X0441000D01*
X0440000D01*
X0439000D01*
X0438000D01*
X0437000D01*
X0436000D01*
X0435000D01*
X0434000D01*
X0433000D01*
X0432000D01*
X0431000D01*
X0430000D01*
X0429000D01*
X0428000D01*
X0427000D01*
X0426000D01*
X0425000D01*
X0424000D01*
X0423000D01*
X0422000D01*
X0421000D01*
X0420000D01*
X0419000D01*
X0418000D01*
X0417000D01*
X0416000D01*
X0415000D01*
X0414000D01*
X0413000D01*
X0412000D01*
X0411000D01*
X0410000D01*
X0409000D01*
X0408000D01*
X0407000D01*
X0406000D01*
X0405000D01*
X0404000D01*
X0403000D01*
X0402000D01*
X0401000D01*
X0400000D01*
X0399000D01*
X0398000D01*
X0397000D01*
X0396000D01*
X0395000D01*
X0394000D01*
X0393000D01*
X0392000D01*
X0391000D01*
X0390000D01*
X0389000D01*
X0388000D01*
X0387000D01*
X0386000D01*
X0385000D01*
X0384000D01*
X0383000D01*
X0382000D01*
X0381000D01*
X0380000D01*
X0379000D01*
X0378000D01*
X0377000D01*
X0376000D01*
X0375000D01*
X0374000D01*
X0373000D01*
X0372000D01*
X0371000D01*
X0370000D01*
X0369000D01*
X0368000D01*
X0367000D01*
X0366000D01*
X0365000D01*
X0364000D01*
X0363000D01*
X0362000D01*
X0361000D01*
X0360000D01*
X0359000D01*
X0358000D01*
X0357000D01*
X0356000D01*
X0355000D01*
X0354000D01*
X0353000D01*
X0352000D01*
X0351000D01*
X0350000D01*
X0349000D01*
X0348000D01*
X0347000D01*
X0346000D01*
X0345000D01*
X0344000D01*
X0343000D01*
X0342000D01*
X0341000D01*
X0340000D01*
X0339000D01*
X0338000D01*
X0337000D01*
X0336000D01*
X0335000D01*
X0334000D01*
X0333000D01*
X0332000D01*
X0331000D01*
X0330000D01*
X0329000D01*
X0328000D01*
X0327000D01*
X0326000D01*
X0325000D01*
X0324000D01*
X0323000D01*
X0322000D01*
X0321000D01*
X0320000D01*
X0319000D01*
X0318000D01*
X0317000D01*
X0316000D01*
X0315000D01*
X0314000D01*
X0313000D01*
X0312000D01*
X0311000D01*
X0310000D01*
X0309000D01*
X0308000D01*
X0307000D01*
X0306000D01*
X0305000D01*
X0304000D01*
X0303000D01*
X0302000D01*
X0301000D01*
X0300000D01*
X0299000D01*
X0298000D01*
X0297000D01*
X0296000D01*
X0295000D01*
X0294000D01*
X0293000D01*
X0292000D01*
X0291000D01*
X0290000D01*
X0289000D01*
X0288000D01*
X0287000D01*
X0286000D01*
X0285000D01*
X0284000D01*
X0283000D01*
X0282000D01*
X0281000D01*
X0280000D01*
X0279000D01*
X0278000D01*
X0277000D01*
X0276000D01*
X0275000D01*
X0274000D01*
X0273000D01*
X0272000D01*
X0271000D01*
X0270000D01*
X0269000D01*
X0268000D01*
X0267000D01*
X0266000D01*
X0265000D01*
X0264000D01*
X0263000D01*
X0262000D01*
X0261000D01*
X0260000D01*
X0259000D01*
X0258000D01*
X0257000D01*
X0256000D01*
X0255000D01*
X0254000D01*
X0253000D01*
X0252000D01*
X0251000D01*
X0250000D01*
X0249000D01*
X0248000D01*
X0247000D01*
X0246000D01*
X0245000D01*
X0244000D01*
Y-0867000D01*
X0245000D01*
Y-0869000D01*
X0246000D01*
Y-0870000D01*
X0248000D01*
Y-0871000D01*
X0250000D01*
Y-0872000D01*
X0252000D01*
Y-0873000D01*
X0254000D01*
Y-0874000D01*
X0255000D01*
Y-0875000D01*
X0257000D01*
Y-0876000D01*
X0258000D01*
Y-0877000D01*
X0259000D01*
Y-0878000D01*
X0260000D01*
Y-0879000D01*
X0261000D01*
Y-0880000D01*
X0262000D01*
Y-0881000D01*
X0263000D01*
Y-0882000D01*
X0264000D01*
Y-0883000D01*
X0265000D01*
Y-0885000D01*
X0266000D01*
Y-0886000D01*
X0267000D01*
Y-0888000D01*
X0268000D01*
Y-0890000D01*
X0269000D01*
Y-0893000D01*
X0270000D01*
Y-0895000D01*
X0271000D01*
Y-0897000D01*
X0272000D01*
Y-0900000D01*
X0273000D01*
Y-0904000D01*
X0274000D01*
Y-0917000D01*
X0273000D01*
Y-0921000D01*
X0272000D01*
Y-0924000D01*
X0271000D01*
Y-0926000D01*
X0270000D01*
Y-0928000D01*
X0269000D01*
Y-0931000D01*
X0268000D01*
Y-0933000D01*
X0267000D01*
Y-0935000D01*
X0266000D01*
Y-0936000D01*
X0265000D01*
Y-0938000D01*
X0264000D01*
Y-0939000D01*
X0263000D01*
Y-0940000D01*
X0262000D01*
Y-0941000D01*
X0261000D01*
Y-0942000D01*
X0260000D01*
Y-0943000D01*
X0259000D01*
Y-0944000D01*
X0258000D01*
Y-0945000D01*
X0257000D01*
Y-0946000D01*
X0255000D01*
Y-0947000D01*
X0254000D01*
Y-0948000D01*
X0252000D01*
Y-0949000D01*
X0250000D01*
Y-0950000D01*
X0247000D01*
Y-0951000D01*
X0245000D01*
Y-0952000D01*
X0243000D01*
Y-0953000D01*
X0240000D01*
Y-0954000D01*
X0236000D01*
Y-0955000D01*
X0223000D01*
Y-0954000D01*
X0219000D01*
Y-0953000D01*
X0216000D01*
Y-0952000D01*
X0214000D01*
Y-0951000D01*
X0212000D01*
Y-0950000D01*
X0209000D01*
Y-0949000D01*
X0207000D01*
Y-0948000D01*
X0205000D01*
Y-0947000D01*
X0204000D01*
Y-0946000D01*
X0202000D01*
Y-0945000D01*
X0201000D01*
Y-0944000D01*
X0200000D01*
Y-0943000D01*
X0199000D01*
Y-0942000D01*
X0198000D01*
Y-0941000D01*
X0197000D01*
Y-0940000D01*
X0196000D01*
Y-0939000D01*
X0195000D01*
Y-0938000D01*
X0194000D01*
Y-0936000D01*
X0193000D01*
Y-0935000D01*
X0192000D01*
Y-0933000D01*
X0191000D01*
Y-0931000D01*
X0190000D01*
Y-0928000D01*
X0189000D01*
Y-0926000D01*
X0188000D01*
Y-0924000D01*
X0187000D01*
Y-0921000D01*
X0186000D01*
Y-0917000D01*
X0185000D01*
Y-0904000D01*
X0186000D01*
Y-0900000D01*
X0187000D01*
Y-0897000D01*
X0188000D01*
Y-0895000D01*
X0189000D01*
Y-0893000D01*
X0190000D01*
Y-0890000D01*
X0191000D01*
Y-0888000D01*
X0192000D01*
Y-0886000D01*
X0193000D01*
Y-0885000D01*
X0194000D01*
Y-0883000D01*
X0195000D01*
Y-0882000D01*
X0196000D01*
Y-0881000D01*
X0197000D01*
Y-0880000D01*
X0198000D01*
Y-0879000D01*
X0199000D01*
Y-0878000D01*
X0200000D01*
Y-0877000D01*
X0201000D01*
Y-0876000D01*
X0202000D01*
Y-0875000D01*
X0204000D01*
Y-0874000D01*
X0205000D01*
Y-0873000D01*
X0207000D01*
Y-0872000D01*
X0209000D01*
Y-0871000D01*
X0211000D01*
Y-0870000D01*
X0213000D01*
Y-0869000D01*
X0214000D01*
Y-0867000D01*
X0215000D01*
Y-0368000D01*
X0216000D01*
Y-0366000D01*
X0217000D01*
Y-0364000D01*
X0218000D01*
Y-0362000D01*
X0219000D01*
Y-0361000D01*
X0220000D01*
Y-0360000D01*
X0221000D01*
Y-0359000D01*
X0222000D01*
Y-0358000D01*
X0223000D01*
Y-0357000D01*
X0224000D01*
Y-0356000D01*
X0225000D01*
Y-0355000D01*
X0226000D01*
Y-0354000D01*
X0227000D01*
Y-0353000D01*
X0228000D01*
Y-0352000D01*
X0229000D01*
Y-0351000D01*
X0230000D01*
Y-0350000D01*
X0231000D01*
Y-0349000D01*
X0232000D01*
Y-0348000D01*
X0233000D01*
Y-0347000D01*
X0234000D01*
Y-0346000D01*
X0235000D01*
Y-0345000D01*
X0236000D01*
Y-0344000D01*
X0237000D01*
Y-0343000D01*
X0238000D01*
Y-0342000D01*
X0239000D01*
Y-0341000D01*
X0240000D01*
Y-0340000D01*
X0241000D01*
Y-0339000D01*
X0242000D01*
Y-0338000D01*
X0243000D01*
Y-0337000D01*
X0244000D01*
Y-0336000D01*
X0245000D01*
Y-0335000D01*
X0246000D01*
Y-0334000D01*
X0247000D01*
Y-0333000D01*
X0248000D01*
Y-0332000D01*
X0249000D01*
Y-0331000D01*
X0250000D01*
Y-0330000D01*
X0251000D01*
Y-0329000D01*
X0252000D01*
Y-0328000D01*
X0253000D01*
Y-0327000D01*
X0254000D01*
Y-0326000D01*
X0255000D01*
Y-0325000D01*
X0256000D01*
Y-0324000D01*
X0257000D01*
Y-0323000D01*
X0258000D01*
Y-0322000D01*
X0259000D01*
Y-0321000D01*
X0260000D01*
Y-0320000D01*
X0261000D01*
Y-0319000D01*
X0262000D01*
Y-0318000D01*
X0263000D01*
Y-0317000D01*
X0264000D01*
Y-0316000D01*
X0265000D01*
Y-0315000D01*
X0266000D01*
Y-0314000D01*
X0268000D01*
Y-0313000D01*
X0270000D01*
Y-0312000D01*
X0272000D01*
Y-0311000D01*
X0574000D01*
Y-0310000D01*
X0576000D01*
Y-0309000D01*
X0577000D01*
Y-0308000D01*
X0578000D01*
Y-0307000D01*
X0579000D01*
Y-0306000D01*
X0580000D01*
Y-0305000D01*
X0581000D01*
Y-0304000D01*
X0582000D01*
Y-0303000D01*
X0583000D01*
Y-0302000D01*
X0584000D01*
Y-0301000D01*
X0585000D01*
Y-0300000D01*
X0586000D01*
Y-0299000D01*
X0587000D01*
Y-0298000D01*
X0588000D01*
Y-0297000D01*
X0589000D01*
Y-0296000D01*
X0590000D01*
Y-0295000D01*
X0591000D01*
Y-0294000D01*
X0592000D01*
Y-0293000D01*
X0593000D01*
Y-0292000D01*
X0594000D01*
Y-0291000D01*
X0595000D01*
Y-0290000D01*
X0596000D01*
Y-0289000D01*
X0597000D01*
Y-0288000D01*
X0598000D01*
Y-0287000D01*
X0599000D01*
Y-0286000D01*
X0600000D01*
Y-0285000D01*
X0601000D01*
Y-0284000D01*
X0602000D01*
Y-0283000D01*
X0603000D01*
Y-0282000D01*
X0604000D01*
Y-0281000D01*
X0605000D01*
Y-0280000D01*
X0606000D01*
Y-0279000D01*
X0607000D01*
Y-0278000D01*
X0608000D01*
Y-0277000D01*
X0609000D01*
Y-0276000D01*
X0610000D01*
Y-0275000D01*
X0611000D01*
Y-0273000D01*
X0612000D01*
Y-0261000D01*
X0611000D01*
Y-0259000D01*
X0610000D01*
Y-0258000D01*
X0608000D01*
Y-0257000D01*
X0606000D01*
Y-0256000D01*
X0604000D01*
Y-0255000D01*
X0602000D01*
Y-0254000D01*
X0601000D01*
Y-0253000D01*
X0599000D01*
Y-0252000D01*
X0598000D01*
Y-0251000D01*
X0597000D01*
Y-0250000D01*
X0596000D01*
Y-0249000D01*
X0595000D01*
Y-0248000D01*
X0594000D01*
Y-0247000D01*
X0593000D01*
Y-0246000D01*
X0592000D01*
Y-0245000D01*
X0591000D01*
Y-0243000D01*
X0590000D01*
Y-0242000D01*
X0589000D01*
Y-0240000D01*
X0588000D01*
Y-0238000D01*
X0587000D01*
Y-0235000D01*
X0586000D01*
Y-0233000D01*
X0585000D01*
Y-0231000D01*
X0584000D01*
Y-0228000D01*
X0583000D01*
Y-0224000D01*
X0582000D01*
Y-0211000D01*
X0583000D01*
Y-0207000D01*
X0584000D01*
Y-0204000D01*
X0585000D01*
Y-0202000D01*
X0586000D01*
Y-0200000D01*
X0587000D01*
Y-0191000D01*
X0586000D01*
Y-0188000D01*
X0585000D01*
Y-0186000D01*
X0584000D01*
Y-0185000D01*
X0583000D01*
Y-0184000D01*
X0540000D01*
Y-0183000D01*
X0537000D01*
Y-0182000D01*
X0533000D01*
Y-0181000D01*
X0520000D01*
G37*
G36*
X0720000D02*
Y-0182000D01*
X0716000D01*
Y-0183000D01*
X0713000D01*
Y-0184000D01*
X0711000D01*
Y-0185000D01*
X0709000D01*
Y-0186000D01*
X0707000D01*
Y-0187000D01*
X0706000D01*
Y-0188000D01*
X0704000D01*
Y-0189000D01*
X0703000D01*
Y-0190000D01*
X0702000D01*
Y-0191000D01*
X0701000D01*
Y-0192000D01*
X0700000D01*
Y-0193000D01*
X0699000D01*
Y-0194000D01*
X0698000D01*
Y-0195000D01*
X0697000D01*
Y-0197000D01*
X0696000D01*
Y-0198000D01*
X0695000D01*
Y-0200000D01*
X0694000D01*
Y-0202000D01*
X0693000D01*
Y-0204000D01*
X0692000D01*
Y-0207000D01*
X0691000D01*
Y-0211000D01*
X0690000D01*
Y-0224000D01*
X0691000D01*
Y-0228000D01*
X0692000D01*
Y-0231000D01*
X0693000D01*
Y-0233000D01*
X0694000D01*
Y-0235000D01*
X0695000D01*
Y-0237000D01*
X0696000D01*
Y-0238000D01*
X0697000D01*
Y-0240000D01*
X0698000D01*
Y-0241000D01*
X0699000D01*
Y-0242000D01*
X0700000D01*
Y-0243000D01*
X0701000D01*
Y-0244000D01*
X0702000D01*
Y-0245000D01*
X0703000D01*
Y-0246000D01*
X0704000D01*
Y-0247000D01*
X0706000D01*
Y-0248000D01*
X0707000D01*
Y-0249000D01*
X0709000D01*
Y-0250000D01*
X0711000D01*
Y-0251000D01*
X0713000D01*
Y-0252000D01*
X0716000D01*
Y-0253000D01*
X0720000D01*
Y-0254000D01*
X0723000D01*
Y-0345000D01*
X0443000D01*
Y-0505000D01*
X0492000D01*
Y-0729000D01*
X0379000D01*
Y-0727000D01*
X0378000D01*
Y-0725000D01*
X0377000D01*
Y-0723000D01*
X0376000D01*
Y-0722000D01*
X0375000D01*
Y-0721000D01*
X0374000D01*
Y-0720000D01*
X0372000D01*
Y-0719000D01*
X0370000D01*
Y-0718000D01*
X0366000D01*
Y-0717000D01*
X0363000D01*
Y-0718000D01*
X0359000D01*
Y-0719000D01*
X0357000D01*
Y-0720000D01*
X0355000D01*
Y-0721000D01*
X0354000D01*
Y-0722000D01*
X0353000D01*
Y-0723000D01*
X0352000D01*
Y-0725000D01*
X0351000D01*
Y-0727000D01*
X0350000D01*
Y-0731000D01*
X0349000D01*
Y-0734000D01*
X0350000D01*
Y-0738000D01*
X0351000D01*
Y-0740000D01*
X0352000D01*
Y-0742000D01*
X0353000D01*
Y-0743000D01*
X0354000D01*
Y-0744000D01*
X0355000D01*
Y-0745000D01*
X0357000D01*
Y-0746000D01*
X0359000D01*
Y-0747000D01*
X0363000D01*
Y-0748000D01*
X0366000D01*
Y-0747000D01*
X0370000D01*
Y-0746000D01*
X0372000D01*
Y-0745000D01*
X0374000D01*
Y-0744000D01*
X0375000D01*
Y-0743000D01*
X0376000D01*
Y-0742000D01*
X0377000D01*
Y-0740000D01*
X0378000D01*
Y-0738000D01*
X0379000D01*
Y-0736000D01*
X0499000D01*
Y-0498000D01*
X0450000D01*
Y-0352000D01*
X0730000D01*
Y-0254000D01*
X0733000D01*
Y-0253000D01*
X0737000D01*
Y-0252000D01*
X0740000D01*
Y-0251000D01*
X0742000D01*
Y-0250000D01*
X0744000D01*
Y-0249000D01*
X0746000D01*
Y-0248000D01*
X0747000D01*
Y-0247000D01*
X0749000D01*
Y-0246000D01*
X0750000D01*
Y-0245000D01*
X0751000D01*
Y-0244000D01*
X0752000D01*
Y-0243000D01*
X0753000D01*
Y-0242000D01*
X0754000D01*
Y-0241000D01*
X0755000D01*
Y-0240000D01*
X0756000D01*
Y-0238000D01*
X0757000D01*
Y-0237000D01*
X0758000D01*
Y-0236000D01*
X0759000D01*
Y-0234000D01*
X0760000D01*
Y-0233000D01*
X0761000D01*
Y-0231000D01*
X0762000D01*
Y-0228000D01*
X0763000D01*
Y-0225000D01*
X0764000D01*
Y-0209000D01*
X0763000D01*
Y-0206000D01*
X0762000D01*
Y-0204000D01*
X0761000D01*
Y-0202000D01*
X0760000D01*
Y-0200000D01*
X0759000D01*
Y-0199000D01*
X0758000D01*
Y-0198000D01*
X0757000D01*
Y-0196000D01*
X0756000D01*
Y-0195000D01*
X0755000D01*
Y-0194000D01*
X0754000D01*
Y-0193000D01*
X0753000D01*
Y-0192000D01*
X0752000D01*
Y-0191000D01*
X0751000D01*
Y-0190000D01*
X0750000D01*
Y-0189000D01*
X0749000D01*
Y-0188000D01*
X0747000D01*
Y-0187000D01*
X0746000D01*
Y-0186000D01*
X0744000D01*
Y-0185000D01*
X0742000D01*
Y-0184000D01*
X0740000D01*
Y-0183000D01*
X0737000D01*
Y-0182000D01*
X0733000D01*
Y-0181000D01*
X0720000D01*
G37*
G36*
X0521000Y-0422000D02*
Y-0423000D01*
X0517000D01*
Y-0424000D01*
X0515000D01*
Y-0425000D01*
X0513000D01*
Y-0426000D01*
X0512000D01*
Y-0427000D01*
X0511000D01*
Y-0428000D01*
X0510000D01*
Y-0430000D01*
X0509000D01*
Y-0432000D01*
X0508000D01*
Y-0436000D01*
X0507000D01*
Y-0439000D01*
X0508000D01*
Y-0443000D01*
X0509000D01*
Y-0445000D01*
X0510000D01*
Y-0447000D01*
X0511000D01*
Y-0448000D01*
X0512000D01*
Y-0449000D01*
X0513000D01*
Y-0450000D01*
X0515000D01*
Y-0451000D01*
X0517000D01*
Y-0452000D01*
X0521000D01*
Y-0453000D01*
X0524000D01*
Y-0452000D01*
X0528000D01*
Y-0451000D01*
X0530000D01*
Y-0450000D01*
X0532000D01*
Y-0449000D01*
X0533000D01*
Y-0448000D01*
X0534000D01*
Y-0447000D01*
X0535000D01*
Y-0445000D01*
X0536000D01*
Y-0443000D01*
X0537000D01*
Y-0441000D01*
X0543000D01*
Y-0850000D01*
X0626000D01*
Y-0874000D01*
X0623000D01*
Y-0875000D01*
X0619000D01*
Y-0876000D01*
X0616000D01*
Y-0877000D01*
X0614000D01*
Y-0878000D01*
X0612000D01*
Y-0879000D01*
X0610000D01*
Y-0880000D01*
X0609000D01*
Y-0881000D01*
X0607000D01*
Y-0882000D01*
X0606000D01*
Y-0883000D01*
X0605000D01*
Y-0884000D01*
X0604000D01*
Y-0885000D01*
X0603000D01*
Y-0886000D01*
X0602000D01*
Y-0887000D01*
X0601000D01*
Y-0888000D01*
X0600000D01*
Y-0890000D01*
X0599000D01*
Y-0891000D01*
X0598000D01*
Y-0893000D01*
X0597000D01*
Y-0895000D01*
X0596000D01*
Y-0897000D01*
X0595000D01*
Y-0900000D01*
X0594000D01*
Y-0904000D01*
X0593000D01*
Y-0917000D01*
X0594000D01*
Y-0921000D01*
X0595000D01*
Y-0924000D01*
X0596000D01*
Y-0926000D01*
X0597000D01*
Y-0928000D01*
X0598000D01*
Y-0930000D01*
X0599000D01*
Y-0931000D01*
X0600000D01*
Y-0933000D01*
X0601000D01*
Y-0934000D01*
X0602000D01*
Y-0935000D01*
X0603000D01*
Y-0936000D01*
X0604000D01*
Y-0937000D01*
X0605000D01*
Y-0938000D01*
X0606000D01*
Y-0939000D01*
X0607000D01*
Y-0940000D01*
X0609000D01*
Y-0941000D01*
X0610000D01*
Y-0942000D01*
X0612000D01*
Y-0943000D01*
X0614000D01*
Y-0944000D01*
X0616000D01*
Y-0945000D01*
X0619000D01*
Y-0946000D01*
X0623000D01*
Y-0947000D01*
X0636000D01*
Y-0946000D01*
X0640000D01*
Y-0945000D01*
X0643000D01*
Y-0944000D01*
X0645000D01*
Y-0943000D01*
X0647000D01*
Y-0942000D01*
X0649000D01*
Y-0941000D01*
X0650000D01*
Y-0940000D01*
X0652000D01*
Y-0939000D01*
X0653000D01*
Y-0938000D01*
X0654000D01*
Y-0937000D01*
X0655000D01*
Y-0936000D01*
X0656000D01*
Y-0935000D01*
X0657000D01*
Y-0934000D01*
X0658000D01*
Y-0933000D01*
X0659000D01*
Y-0931000D01*
X0660000D01*
Y-0930000D01*
X0661000D01*
Y-0928000D01*
X0662000D01*
Y-0926000D01*
X0663000D01*
Y-0924000D01*
X0664000D01*
Y-0921000D01*
X0665000D01*
Y-0917000D01*
X0666000D01*
Y-0904000D01*
X0665000D01*
Y-0900000D01*
X0664000D01*
Y-0897000D01*
X0663000D01*
Y-0895000D01*
X0662000D01*
Y-0893000D01*
X0661000D01*
Y-0891000D01*
X0660000D01*
Y-0890000D01*
X0659000D01*
Y-0888000D01*
X0658000D01*
Y-0887000D01*
X0657000D01*
Y-0886000D01*
X0656000D01*
Y-0885000D01*
X0655000D01*
Y-0884000D01*
X0654000D01*
Y-0883000D01*
X0653000D01*
Y-0882000D01*
X0652000D01*
Y-0881000D01*
X0650000D01*
Y-0880000D01*
X0649000D01*
Y-0879000D01*
X0647000D01*
Y-0878000D01*
X0645000D01*
Y-0877000D01*
X0643000D01*
Y-0876000D01*
X0640000D01*
Y-0875000D01*
X0636000D01*
Y-0874000D01*
X0633000D01*
Y-0843000D01*
X0550000D01*
Y-0434000D01*
X0537000D01*
Y-0432000D01*
X0536000D01*
Y-0430000D01*
X0535000D01*
Y-0428000D01*
X0534000D01*
Y-0427000D01*
X0533000D01*
Y-0426000D01*
X0532000D01*
Y-0425000D01*
X0530000D01*
Y-0424000D01*
X0528000D01*
Y-0423000D01*
X0524000D01*
Y-0422000D01*
X0521000D01*
G37*
G36*
X0510000Y-0376000D02*
Y-0377000D01*
X0506000D01*
Y-0378000D01*
X0504000D01*
Y-0379000D01*
X0502000D01*
Y-0380000D01*
X0501000D01*
Y-0381000D01*
X0500000D01*
Y-0382000D01*
X0499000D01*
Y-0384000D01*
X0498000D01*
Y-0386000D01*
X0497000D01*
Y-0388000D01*
X0477000D01*
Y-0471000D01*
X0526000D01*
Y-0874000D01*
X0523000D01*
Y-0875000D01*
X0519000D01*
Y-0876000D01*
X0516000D01*
Y-0877000D01*
X0514000D01*
Y-0878000D01*
X0512000D01*
Y-0879000D01*
X0510000D01*
Y-0880000D01*
X0509000D01*
Y-0881000D01*
X0507000D01*
Y-0882000D01*
X0506000D01*
Y-0883000D01*
X0505000D01*
Y-0884000D01*
X0504000D01*
Y-0885000D01*
X0503000D01*
Y-0886000D01*
X0502000D01*
Y-0887000D01*
X0501000D01*
Y-0888000D01*
X0500000D01*
Y-0890000D01*
X0499000D01*
Y-0891000D01*
X0498000D01*
Y-0893000D01*
X0497000D01*
Y-0895000D01*
X0496000D01*
Y-0897000D01*
X0495000D01*
Y-0900000D01*
X0494000D01*
Y-0904000D01*
X0493000D01*
Y-0917000D01*
X0494000D01*
Y-0921000D01*
X0495000D01*
Y-0924000D01*
X0496000D01*
Y-0926000D01*
X0497000D01*
Y-0928000D01*
X0498000D01*
Y-0930000D01*
X0499000D01*
Y-0931000D01*
X0500000D01*
Y-0933000D01*
X0501000D01*
Y-0934000D01*
X0502000D01*
Y-0935000D01*
X0503000D01*
Y-0936000D01*
X0504000D01*
Y-0937000D01*
X0505000D01*
Y-0938000D01*
X0506000D01*
Y-0939000D01*
X0507000D01*
Y-0940000D01*
X0509000D01*
Y-0941000D01*
X0510000D01*
Y-0942000D01*
X0512000D01*
Y-0943000D01*
X0514000D01*
Y-0944000D01*
X0516000D01*
Y-0945000D01*
X0519000D01*
Y-0946000D01*
X0523000D01*
Y-0947000D01*
X0536000D01*
Y-0946000D01*
X0540000D01*
Y-0945000D01*
X0543000D01*
Y-0944000D01*
X0545000D01*
Y-0943000D01*
X0547000D01*
Y-0942000D01*
X0549000D01*
Y-0941000D01*
X0550000D01*
Y-0940000D01*
X0552000D01*
Y-0939000D01*
X0553000D01*
Y-0938000D01*
X0554000D01*
Y-0937000D01*
X0555000D01*
Y-0936000D01*
X0556000D01*
Y-0935000D01*
X0557000D01*
Y-0934000D01*
X0558000D01*
Y-0933000D01*
X0559000D01*
Y-0931000D01*
X0560000D01*
Y-0930000D01*
X0561000D01*
Y-0929000D01*
X0562000D01*
Y-0927000D01*
X0563000D01*
Y-0926000D01*
X0564000D01*
Y-0924000D01*
X0565000D01*
Y-0921000D01*
X0566000D01*
Y-0918000D01*
X0567000D01*
Y-0902000D01*
X0566000D01*
Y-0899000D01*
X0565000D01*
Y-0897000D01*
X0564000D01*
Y-0895000D01*
X0563000D01*
Y-0893000D01*
X0562000D01*
Y-0892000D01*
X0561000D01*
Y-0891000D01*
X0560000D01*
Y-0889000D01*
X0559000D01*
Y-0888000D01*
X0558000D01*
Y-0887000D01*
X0557000D01*
Y-0886000D01*
X0556000D01*
Y-0885000D01*
X0555000D01*
Y-0884000D01*
X0554000D01*
Y-0883000D01*
X0553000D01*
Y-0882000D01*
X0552000D01*
Y-0881000D01*
X0550000D01*
Y-0880000D01*
X0549000D01*
Y-0879000D01*
X0547000D01*
Y-0878000D01*
X0545000D01*
Y-0877000D01*
X0543000D01*
Y-0876000D01*
X0540000D01*
Y-0875000D01*
X0536000D01*
Y-0874000D01*
X0533000D01*
Y-0464000D01*
X0484000D01*
Y-0395000D01*
X0497000D01*
Y-0397000D01*
X0498000D01*
Y-0399000D01*
X0499000D01*
Y-0401000D01*
X0500000D01*
Y-0402000D01*
X0501000D01*
Y-0403000D01*
X0502000D01*
Y-0404000D01*
X0504000D01*
Y-0405000D01*
X0506000D01*
Y-0406000D01*
X0510000D01*
Y-0407000D01*
X0513000D01*
Y-0406000D01*
X0517000D01*
Y-0405000D01*
X0519000D01*
Y-0404000D01*
X0521000D01*
Y-0403000D01*
X0522000D01*
Y-0402000D01*
X0523000D01*
Y-0401000D01*
X0524000D01*
Y-0399000D01*
X0525000D01*
Y-0397000D01*
X0526000D01*
Y-0395000D01*
X0560000D01*
Y-0558000D01*
X0772000D01*
Y-0560000D01*
X0773000D01*
Y-0562000D01*
X0774000D01*
Y-0564000D01*
X0775000D01*
Y-0565000D01*
X0776000D01*
Y-0566000D01*
X0777000D01*
Y-0567000D01*
X0779000D01*
Y-0568000D01*
X0781000D01*
Y-0569000D01*
X0785000D01*
Y-0570000D01*
X0788000D01*
Y-0569000D01*
X0792000D01*
Y-0568000D01*
X0794000D01*
Y-0567000D01*
X0796000D01*
Y-0566000D01*
X0797000D01*
Y-0565000D01*
X0798000D01*
Y-0564000D01*
X0799000D01*
Y-0562000D01*
X0800000D01*
Y-0560000D01*
X0801000D01*
Y-0556000D01*
X0802000D01*
Y-0553000D01*
X0801000D01*
Y-0549000D01*
X0800000D01*
Y-0547000D01*
X0799000D01*
Y-0545000D01*
X0798000D01*
Y-0544000D01*
X0797000D01*
Y-0543000D01*
X0796000D01*
Y-0542000D01*
X0794000D01*
Y-0541000D01*
X0792000D01*
Y-0540000D01*
X0788000D01*
Y-0539000D01*
X0785000D01*
Y-0540000D01*
X0781000D01*
Y-0541000D01*
X0779000D01*
Y-0542000D01*
X0777000D01*
Y-0543000D01*
X0776000D01*
Y-0544000D01*
X0775000D01*
Y-0545000D01*
X0774000D01*
Y-0547000D01*
X0773000D01*
Y-0549000D01*
X0772000D01*
Y-0551000D01*
X0567000D01*
Y-0388000D01*
X0526000D01*
Y-0386000D01*
X0525000D01*
Y-0384000D01*
X0524000D01*
Y-0382000D01*
X0523000D01*
Y-0381000D01*
X0522000D01*
Y-0380000D01*
X0521000D01*
Y-0379000D01*
X0519000D01*
Y-0378000D01*
X0517000D01*
Y-0377000D01*
X0513000D01*
Y-0376000D01*
X0510000D01*
G37*
G36*
X0759000Y-1133000D02*
Y-1134000D01*
X0755000D01*
Y-1135000D01*
X0752000D01*
Y-1136000D01*
X0750000D01*
Y-1137000D01*
X0748000D01*
Y-1138000D01*
X0746000D01*
Y-1139000D01*
X0744000D01*
Y-1140000D01*
X0743000D01*
Y-1141000D01*
X0742000D01*
Y-1142000D01*
X0741000D01*
Y-1143000D01*
X0739000D01*
Y-1144000D01*
X0738000D01*
Y-1146000D01*
X0737000D01*
Y-1147000D01*
X0736000D01*
Y-1148000D01*
X0735000D01*
Y-1149000D01*
X0734000D01*
Y-1151000D01*
X0733000D01*
Y-1153000D01*
X0732000D01*
Y-1155000D01*
X0731000D01*
Y-1157000D01*
X0730000D01*
Y-1159999D01*
X0729000D01*
Y-1163999D01*
X0728000D01*
Y-1177000D01*
X0729000D01*
Y-1181000D01*
X0730000D01*
Y-1183999D01*
X0731000D01*
Y-1185999D01*
X0732000D01*
Y-1187999D01*
X0733000D01*
Y-1189999D01*
X0734000D01*
Y-1191999D01*
X0735000D01*
Y-1193000D01*
X0736000D01*
Y-1193999D01*
X0737000D01*
Y-1195000D01*
X0738000D01*
Y-1197000D01*
X0739000D01*
Y-1197999D01*
X0741000D01*
Y-1199000D01*
X0742000D01*
Y-1199999D01*
X0743000D01*
Y-1201000D01*
X0744000D01*
Y-1201999D01*
X0746000D01*
Y-1203000D01*
X0748000D01*
Y-1203999D01*
X0750000D01*
Y-1205000D01*
X0752000D01*
Y-1205999D01*
X0755000D01*
Y-1207000D01*
X0759000D01*
Y-1207999D01*
X0772000D01*
Y-1207000D01*
X0776000D01*
Y-1205999D01*
X0779000D01*
Y-1205000D01*
X0781000D01*
Y-1203999D01*
X0783000D01*
Y-1203000D01*
X0785000D01*
Y-1201999D01*
X0787000D01*
Y-1201000D01*
X0788000D01*
Y-1199999D01*
X0789000D01*
Y-1199000D01*
X0790000D01*
Y-1197999D01*
X0792000D01*
Y-1197000D01*
X0793000D01*
Y-1195000D01*
X0794000D01*
Y-1193999D01*
X0795000D01*
Y-1193000D01*
X0796000D01*
Y-1191999D01*
X0797000D01*
Y-1189999D01*
X0798000D01*
Y-1187999D01*
X0799000D01*
Y-1185999D01*
X0800000D01*
Y-1183999D01*
X0801000D01*
Y-1181000D01*
X0802000D01*
Y-1177000D01*
X0803000D01*
Y-1163999D01*
X0802000D01*
Y-1159999D01*
X0801000D01*
Y-1157000D01*
X0800000D01*
Y-1155000D01*
X0799000D01*
Y-1153000D01*
X0798000D01*
Y-1151000D01*
X0797000D01*
Y-1149000D01*
X0796000D01*
Y-1148000D01*
X0795000D01*
Y-1147000D01*
X0794000D01*
Y-1146000D01*
X0793000D01*
Y-1144000D01*
X0792000D01*
Y-1143000D01*
X0790000D01*
Y-1142000D01*
X0789000D01*
Y-1141000D01*
X0788000D01*
Y-1140000D01*
X0787000D01*
Y-1139000D01*
X0785000D01*
Y-1138000D01*
X0783000D01*
Y-1137000D01*
X0781000D01*
Y-1136000D01*
X0779000D01*
Y-1135000D01*
X0776000D01*
Y-1134000D01*
X0772000D01*
Y-1133000D01*
X0759000D01*
G37*
G36*
X0820000Y-0181000D02*
Y-0182000D01*
X0816000D01*
Y-0183000D01*
X0813000D01*
Y-0184000D01*
X0811000D01*
Y-0185000D01*
X0809000D01*
Y-0186000D01*
X0807000D01*
Y-0187000D01*
X0806000D01*
Y-0188000D01*
X0804000D01*
Y-0189000D01*
X0803000D01*
Y-0190000D01*
X0802000D01*
Y-0191000D01*
X0801000D01*
Y-0192000D01*
X0800000D01*
Y-0193000D01*
X0799000D01*
Y-0194000D01*
X0798000D01*
Y-0195000D01*
X0797000D01*
Y-0197000D01*
X0796000D01*
Y-0198000D01*
X0795000D01*
Y-0200000D01*
X0794000D01*
Y-0202000D01*
X0793000D01*
Y-0204000D01*
X0792000D01*
Y-0207000D01*
X0791000D01*
Y-0211000D01*
X0790000D01*
Y-0224000D01*
X0791000D01*
Y-0228000D01*
X0792000D01*
Y-0231000D01*
X0793000D01*
Y-0233000D01*
X0794000D01*
Y-0235000D01*
X0795000D01*
Y-0237000D01*
X0796000D01*
Y-0238000D01*
X0797000D01*
Y-0240000D01*
X0798000D01*
Y-0241000D01*
X0799000D01*
Y-0242000D01*
X0800000D01*
Y-0243000D01*
X0801000D01*
Y-0244000D01*
X0802000D01*
Y-0245000D01*
X0803000D01*
Y-0246000D01*
X0804000D01*
Y-0247000D01*
X0806000D01*
Y-0248000D01*
X0807000D01*
Y-0249000D01*
X0809000D01*
Y-0250000D01*
X0811000D01*
Y-0251000D01*
X0813000D01*
Y-0252000D01*
X0816000D01*
Y-0253000D01*
X0820000D01*
Y-0254000D01*
X0824000D01*
Y-0362000D01*
X0460000D01*
Y-0488000D01*
X0509000D01*
Y-0755000D01*
X0325000D01*
Y-0704000D01*
X0327000D01*
Y-0703000D01*
X0329000D01*
Y-0702000D01*
X0331000D01*
Y-0701000D01*
X0332000D01*
Y-0700000D01*
X0333000D01*
Y-0699000D01*
X0334000D01*
Y-0697000D01*
X0335000D01*
Y-0695000D01*
X0336000D01*
Y-0691000D01*
X0337000D01*
Y-0688000D01*
X0336000D01*
Y-0684000D01*
X0335000D01*
Y-0682000D01*
X0334000D01*
Y-0680000D01*
X0333000D01*
Y-0679000D01*
X0332000D01*
Y-0678000D01*
X0331000D01*
Y-0677000D01*
X0329000D01*
Y-0676000D01*
X0327000D01*
Y-0675000D01*
X0323000D01*
Y-0674000D01*
X0320000D01*
Y-0675000D01*
X0316000D01*
Y-0676000D01*
X0314000D01*
Y-0677000D01*
X0312000D01*
Y-0678000D01*
X0311000D01*
Y-0679000D01*
X0310000D01*
Y-0680000D01*
X0309000D01*
Y-0682000D01*
X0308000D01*
Y-0684000D01*
X0307000D01*
Y-0688000D01*
X0306000D01*
Y-0691000D01*
X0307000D01*
Y-0695000D01*
X0308000D01*
Y-0697000D01*
X0309000D01*
Y-0699000D01*
X0310000D01*
Y-0700000D01*
X0311000D01*
Y-0701000D01*
X0312000D01*
Y-0702000D01*
X0314000D01*
Y-0703000D01*
X0316000D01*
Y-0704000D01*
X0318000D01*
Y-0762000D01*
X0516000D01*
Y-0481000D01*
X0467000D01*
Y-0369000D01*
X0831000D01*
Y-0254000D01*
X0833000D01*
Y-0253000D01*
X0837000D01*
Y-0252000D01*
X0840000D01*
Y-0251000D01*
X0842000D01*
Y-0250000D01*
X0844000D01*
Y-0249000D01*
X0846000D01*
Y-0248000D01*
X0847000D01*
Y-0247000D01*
X0849000D01*
Y-0246000D01*
X0850000D01*
Y-0245000D01*
X0851000D01*
Y-0244000D01*
X0852000D01*
Y-0243000D01*
X0853000D01*
Y-0242000D01*
X0854000D01*
Y-0241000D01*
X0855000D01*
Y-0240000D01*
X0856000D01*
Y-0238000D01*
X0857000D01*
Y-0237000D01*
X0858000D01*
Y-0235000D01*
X0859000D01*
Y-0233000D01*
X0860000D01*
Y-0231000D01*
X0861000D01*
Y-0228000D01*
X0862000D01*
Y-0224000D01*
X0863000D01*
Y-0211000D01*
X0862000D01*
Y-0207000D01*
X0861000D01*
Y-0204000D01*
X0860000D01*
Y-0202000D01*
X0859000D01*
Y-0200000D01*
X0858000D01*
Y-0198000D01*
X0857000D01*
Y-0197000D01*
X0856000D01*
Y-0195000D01*
X0855000D01*
Y-0194000D01*
X0854000D01*
Y-0193000D01*
X0853000D01*
Y-0192000D01*
X0852000D01*
Y-0191000D01*
X0851000D01*
Y-0190000D01*
X0850000D01*
Y-0189000D01*
X0849000D01*
Y-0188000D01*
X0847000D01*
Y-0187000D01*
X0846000D01*
Y-0186000D01*
X0844000D01*
Y-0185000D01*
X0842000D01*
Y-0184000D01*
X0840000D01*
Y-0183000D01*
X0837000D01*
Y-0182000D01*
X0833000D01*
Y-0181000D01*
X0820000D01*
G37*
G36*
X0620000D02*
Y-0182000D01*
X0616000D01*
Y-0183000D01*
X0613000D01*
Y-0184000D01*
X0611000D01*
Y-0185000D01*
X0609000D01*
Y-0186000D01*
X0607000D01*
Y-0187000D01*
X0606000D01*
Y-0188000D01*
X0604000D01*
Y-0189000D01*
X0603000D01*
Y-0190000D01*
X0602000D01*
Y-0191000D01*
X0601000D01*
Y-0192000D01*
X0600000D01*
Y-0193000D01*
X0599000D01*
Y-0194000D01*
X0598000D01*
Y-0195000D01*
X0597000D01*
Y-0197000D01*
X0596000D01*
Y-0198000D01*
X0595000D01*
Y-0200000D01*
X0594000D01*
Y-0202000D01*
X0593000D01*
Y-0204000D01*
X0592000D01*
Y-0207000D01*
X0591000D01*
Y-0211000D01*
X0590000D01*
Y-0224000D01*
X0591000D01*
Y-0228000D01*
X0592000D01*
Y-0231000D01*
X0593000D01*
Y-0233000D01*
X0594000D01*
Y-0235000D01*
X0595000D01*
Y-0237000D01*
X0596000D01*
Y-0238000D01*
X0597000D01*
Y-0240000D01*
X0598000D01*
Y-0241000D01*
X0599000D01*
Y-0242000D01*
X0600000D01*
Y-0243000D01*
X0601000D01*
Y-0244000D01*
X0602000D01*
Y-0245000D01*
X0603000D01*
Y-0246000D01*
X0604000D01*
Y-0247000D01*
X0606000D01*
Y-0248000D01*
X0607000D01*
Y-0249000D01*
X0609000D01*
Y-0250000D01*
X0611000D01*
Y-0251000D01*
X0613000D01*
Y-0252000D01*
X0616000D01*
Y-0253000D01*
X0620000D01*
Y-0277000D01*
X0619000D01*
Y-0278000D01*
X0618000D01*
Y-0279000D01*
X0617000D01*
Y-0280000D01*
X0616000D01*
Y-0281000D01*
X0615000D01*
Y-0282000D01*
X0614000D01*
Y-0283000D01*
X0613000D01*
Y-0284000D01*
X0612000D01*
Y-0285000D01*
X0611000D01*
Y-0286000D01*
X0610000D01*
Y-0287000D01*
X0609000D01*
Y-0288000D01*
X0608000D01*
Y-0289000D01*
X0607000D01*
Y-0290000D01*
X0606000D01*
Y-0291000D01*
X0605000D01*
Y-0292000D01*
X0604000D01*
Y-0293000D01*
X0603000D01*
Y-0294000D01*
X0602000D01*
Y-0295000D01*
X0601000D01*
Y-0296000D01*
X0600000D01*
Y-0297000D01*
X0599000D01*
Y-0298000D01*
X0598000D01*
Y-0299000D01*
X0597000D01*
Y-0300000D01*
X0596000D01*
Y-0301000D01*
X0595000D01*
Y-0302000D01*
X0594000D01*
Y-0303000D01*
X0593000D01*
Y-0304000D01*
X0592000D01*
Y-0305000D01*
X0591000D01*
Y-0306000D01*
X0590000D01*
Y-0307000D01*
X0589000D01*
Y-0308000D01*
X0588000D01*
Y-0309000D01*
X0587000D01*
Y-0310000D01*
X0586000D01*
Y-0311000D01*
X0585000D01*
Y-0312000D01*
X0584000D01*
Y-0313000D01*
X0583000D01*
Y-0314000D01*
X0582000D01*
Y-0315000D01*
X0581000D01*
Y-0316000D01*
X0580000D01*
Y-0317000D01*
X0579000D01*
Y-0318000D01*
X0578000D01*
Y-0319000D01*
X0272000D01*
Y-0320000D01*
X0271000D01*
Y-0321000D01*
X0270000D01*
Y-0322000D01*
X0269000D01*
Y-0323000D01*
X0268000D01*
Y-0324000D01*
X0267000D01*
Y-0325000D01*
X0266000D01*
Y-0326000D01*
X0265000D01*
Y-0327000D01*
X0264000D01*
Y-0328000D01*
X0263000D01*
Y-0329000D01*
X0262000D01*
Y-0330000D01*
X0261000D01*
Y-0331000D01*
X0260000D01*
Y-0332000D01*
X0259000D01*
Y-0333000D01*
X0258000D01*
Y-0334000D01*
X0257000D01*
Y-0335000D01*
X0256000D01*
Y-0336000D01*
X0255000D01*
Y-0337000D01*
X0254000D01*
Y-0338000D01*
X0253000D01*
Y-0339000D01*
X0252000D01*
Y-0340000D01*
X0251000D01*
Y-0341000D01*
X0250000D01*
Y-0342000D01*
X0249000D01*
Y-0343000D01*
X0248000D01*
Y-0344000D01*
X0247000D01*
Y-0345000D01*
X0246000D01*
Y-0346000D01*
X0245000D01*
Y-0347000D01*
X0244000D01*
Y-0348000D01*
X0243000D01*
Y-0349000D01*
X0242000D01*
Y-0350000D01*
X0241000D01*
Y-0351000D01*
X0240000D01*
Y-0352000D01*
X0239000D01*
Y-0353000D01*
X0238000D01*
Y-0354000D01*
X0237000D01*
Y-0355000D01*
X0236000D01*
Y-0356000D01*
X0235000D01*
Y-0357000D01*
X0234000D01*
Y-0358000D01*
X0233000D01*
Y-0359000D01*
X0232000D01*
Y-0360000D01*
X0231000D01*
Y-0361000D01*
X0230000D01*
Y-0362000D01*
X0229000D01*
Y-0363000D01*
X0228000D01*
Y-0364000D01*
X0227000D01*
Y-0365000D01*
X0226000D01*
Y-0366000D01*
X0225000D01*
Y-0367000D01*
X0224000D01*
Y-0368000D01*
X0223000D01*
Y-0875000D01*
X0219000D01*
Y-0876000D01*
X0216000D01*
Y-0877000D01*
X0214000D01*
Y-0878000D01*
X0212000D01*
Y-0879000D01*
X0210000D01*
Y-0880000D01*
X0209000D01*
Y-0881000D01*
X0207000D01*
Y-0882000D01*
X0206000D01*
Y-0883000D01*
X0205000D01*
Y-0884000D01*
X0204000D01*
Y-0885000D01*
X0203000D01*
Y-0886000D01*
X0202000D01*
Y-0887000D01*
X0201000D01*
Y-0888000D01*
X0200000D01*
Y-0890000D01*
X0199000D01*
Y-0891000D01*
X0198000D01*
Y-0893000D01*
X0197000D01*
Y-0895000D01*
X0196000D01*
Y-0897000D01*
X0195000D01*
Y-0900000D01*
X0194000D01*
Y-0904000D01*
X0193000D01*
Y-0917000D01*
X0194000D01*
Y-0921000D01*
X0195000D01*
Y-0924000D01*
X0196000D01*
Y-0926000D01*
X0197000D01*
Y-0928000D01*
X0198000D01*
Y-0930000D01*
X0199000D01*
Y-0931000D01*
X0200000D01*
Y-0933000D01*
X0201000D01*
Y-0934000D01*
X0202000D01*
Y-0935000D01*
X0203000D01*
Y-0936000D01*
X0204000D01*
Y-0937000D01*
X0205000D01*
Y-0938000D01*
X0206000D01*
Y-0939000D01*
X0207000D01*
Y-0940000D01*
X0209000D01*
Y-0941000D01*
X0210000D01*
Y-0942000D01*
X0212000D01*
Y-0943000D01*
X0214000D01*
Y-0944000D01*
X0216000D01*
Y-0945000D01*
X0219000D01*
Y-0946000D01*
X0223000D01*
Y-0947000D01*
X0236000D01*
Y-0946000D01*
X0240000D01*
Y-0945000D01*
X0243000D01*
Y-0944000D01*
X0245000D01*
Y-0943000D01*
X0247000D01*
Y-0942000D01*
X0249000D01*
Y-0941000D01*
X0250000D01*
Y-0940000D01*
X0252000D01*
Y-0939000D01*
X0253000D01*
Y-0938000D01*
X0254000D01*
Y-0937000D01*
X0255000D01*
Y-0936000D01*
X0256000D01*
Y-0935000D01*
X0257000D01*
Y-0934000D01*
X0258000D01*
Y-0933000D01*
X0259000D01*
Y-0931000D01*
X0260000D01*
Y-0930000D01*
X0261000D01*
Y-0928000D01*
X0262000D01*
Y-0926000D01*
X0263000D01*
Y-0924000D01*
X0264000D01*
Y-0921000D01*
X0265000D01*
Y-0917000D01*
X0266000D01*
Y-0904000D01*
X0265000D01*
Y-0900000D01*
X0264000D01*
Y-0897000D01*
X0263000D01*
Y-0895000D01*
X0262000D01*
Y-0893000D01*
X0261000D01*
Y-0891000D01*
X0260000D01*
Y-0890000D01*
X0259000D01*
Y-0888000D01*
X0258000D01*
Y-0887000D01*
X0257000D01*
Y-0886000D01*
X0256000D01*
Y-0885000D01*
X0255000D01*
Y-0884000D01*
X0254000D01*
Y-0883000D01*
X0253000D01*
Y-0882000D01*
X0252000D01*
Y-0881000D01*
X0250000D01*
Y-0880000D01*
X0249000D01*
Y-0879000D01*
X0247000D01*
Y-0878000D01*
X0245000D01*
Y-0877000D01*
X0243000D01*
Y-0876000D01*
X0240000D01*
Y-0875000D01*
X0236000D01*
Y-0374000D01*
X0237000D01*
Y-0373000D01*
X0238000D01*
Y-0372000D01*
X0239000D01*
Y-0371000D01*
X0240000D01*
Y-0370000D01*
X0241000D01*
Y-0369000D01*
X0242000D01*
Y-0368000D01*
X0243000D01*
Y-0367000D01*
X0244000D01*
Y-0366000D01*
X0245000D01*
Y-0365000D01*
X0246000D01*
Y-0364000D01*
X0247000D01*
Y-0363000D01*
X0248000D01*
Y-0362000D01*
X0249000D01*
Y-0361000D01*
X0250000D01*
Y-0360000D01*
X0251000D01*
Y-0359000D01*
X0252000D01*
Y-0358000D01*
X0253000D01*
Y-0357000D01*
X0254000D01*
Y-0356000D01*
X0255000D01*
Y-0355000D01*
X0256000D01*
Y-0354000D01*
X0257000D01*
Y-0353000D01*
X0258000D01*
Y-0352000D01*
X0259000D01*
Y-0351000D01*
X0260000D01*
Y-0350000D01*
X0261000D01*
Y-0349000D01*
X0262000D01*
Y-0348000D01*
X0263000D01*
Y-0347000D01*
X0264000D01*
Y-0346000D01*
X0265000D01*
Y-0345000D01*
X0266000D01*
Y-0344000D01*
X0267000D01*
Y-0343000D01*
X0268000D01*
Y-0342000D01*
X0269000D01*
Y-0341000D01*
X0270000D01*
Y-0340000D01*
X0271000D01*
Y-0339000D01*
X0272000D01*
Y-0338000D01*
X0273000D01*
Y-0337000D01*
X0274000D01*
Y-0336000D01*
X0275000D01*
Y-0335000D01*
X0276000D01*
Y-0334000D01*
X0277000D01*
Y-0333000D01*
X0278000D01*
Y-0332000D01*
X0584000D01*
Y-0331000D01*
X0585000D01*
Y-0330000D01*
X0586000D01*
Y-0329000D01*
X0587000D01*
Y-0328000D01*
X0588000D01*
Y-0327000D01*
X0589000D01*
Y-0326000D01*
X0590000D01*
Y-0325000D01*
X0591000D01*
Y-0324000D01*
X0592000D01*
Y-0323000D01*
X0593000D01*
Y-0322000D01*
X0594000D01*
Y-0321000D01*
X0595000D01*
Y-0320000D01*
X0596000D01*
Y-0319000D01*
X0597000D01*
Y-0318000D01*
X0598000D01*
Y-0317000D01*
X0599000D01*
Y-0316000D01*
X0600000D01*
Y-0315000D01*
X0601000D01*
Y-0314000D01*
X0602000D01*
Y-0313000D01*
X0603000D01*
Y-0312000D01*
X0604000D01*
Y-0311000D01*
X0605000D01*
Y-0310000D01*
X0606000D01*
Y-0309000D01*
X0607000D01*
Y-0308000D01*
X0608000D01*
Y-0307000D01*
X0609000D01*
Y-0306000D01*
X0610000D01*
Y-0305000D01*
X0611000D01*
Y-0304000D01*
X0612000D01*
Y-0303000D01*
X0613000D01*
Y-0302000D01*
X0614000D01*
Y-0301000D01*
X0615000D01*
Y-0300000D01*
X0616000D01*
Y-0299000D01*
X0617000D01*
Y-0298000D01*
X0618000D01*
Y-0297000D01*
X0619000D01*
Y-0296000D01*
X0620000D01*
Y-0295000D01*
X0621000D01*
Y-0294000D01*
X0622000D01*
Y-0293000D01*
X0623000D01*
Y-0292000D01*
X0624000D01*
Y-0291000D01*
X0625000D01*
Y-0290000D01*
X0626000D01*
Y-0289000D01*
X0627000D01*
Y-0288000D01*
X0628000D01*
Y-0287000D01*
X0629000D01*
Y-0286000D01*
X0630000D01*
Y-0285000D01*
X0631000D01*
Y-0284000D01*
X0632000D01*
Y-0283000D01*
X0633000D01*
Y-0253000D01*
X0637000D01*
Y-0252000D01*
X0640000D01*
Y-0251000D01*
X0642000D01*
Y-0250000D01*
X0644000D01*
Y-0249000D01*
X0646000D01*
Y-0248000D01*
X0647000D01*
Y-0247000D01*
X0649000D01*
Y-0246000D01*
X0650000D01*
Y-0245000D01*
X0651000D01*
Y-0244000D01*
X0652000D01*
Y-0243000D01*
X0653000D01*
Y-0242000D01*
X0654000D01*
Y-0241000D01*
X0655000D01*
Y-0240000D01*
X0656000D01*
Y-0238000D01*
X0657000D01*
Y-0237000D01*
X0658000D01*
Y-0236000D01*
X0659000D01*
Y-0234000D01*
X0660000D01*
Y-0233000D01*
X0661000D01*
Y-0231000D01*
X0662000D01*
Y-0228000D01*
X0663000D01*
Y-0225000D01*
X0664000D01*
Y-0209000D01*
X0663000D01*
Y-0206000D01*
X0662000D01*
Y-0204000D01*
X0661000D01*
Y-0202000D01*
X0660000D01*
Y-0200000D01*
X0659000D01*
Y-0199000D01*
X0658000D01*
Y-0198000D01*
X0657000D01*
Y-0196000D01*
X0656000D01*
Y-0195000D01*
X0655000D01*
Y-0194000D01*
X0654000D01*
Y-0193000D01*
X0653000D01*
Y-0192000D01*
X0652000D01*
Y-0191000D01*
X0651000D01*
Y-0190000D01*
X0650000D01*
Y-0189000D01*
X0649000D01*
Y-0188000D01*
X0647000D01*
Y-0187000D01*
X0646000D01*
Y-0186000D01*
X0644000D01*
Y-0185000D01*
X0642000D01*
Y-0184000D01*
X0640000D01*
Y-0183000D01*
X0637000D01*
Y-0182000D01*
X0633000D01*
Y-0181000D01*
X0620000D01*
G37*
G36*
X0423000Y-0874000D02*
Y-0875000D01*
X0419000D01*
Y-0876000D01*
X0416000D01*
Y-0877000D01*
X0414000D01*
Y-0878000D01*
X0412000D01*
Y-0879000D01*
X0410000D01*
Y-0880000D01*
X0409000D01*
Y-0881000D01*
X0407000D01*
Y-0882000D01*
X0406000D01*
Y-0883000D01*
X0405000D01*
Y-0884000D01*
X0404000D01*
Y-0885000D01*
X0403000D01*
Y-0886000D01*
X0402000D01*
Y-0887000D01*
X0401000D01*
Y-0888000D01*
X0400000D01*
Y-0890000D01*
X0399000D01*
Y-0891000D01*
X0398000D01*
Y-0893000D01*
X0397000D01*
Y-0895000D01*
X0396000D01*
Y-0897000D01*
X0395000D01*
Y-0900000D01*
X0394000D01*
Y-0904000D01*
X0393000D01*
Y-0917000D01*
X0394000D01*
Y-0921000D01*
X0395000D01*
Y-0924000D01*
X0396000D01*
Y-0926000D01*
X0397000D01*
Y-0928000D01*
X0398000D01*
Y-0930000D01*
X0399000D01*
Y-0931000D01*
X0400000D01*
Y-0933000D01*
X0401000D01*
Y-0934000D01*
X0402000D01*
Y-0935000D01*
X0403000D01*
Y-0936000D01*
X0404000D01*
Y-0937000D01*
X0405000D01*
Y-0938000D01*
X0406000D01*
Y-0939000D01*
X0407000D01*
Y-0940000D01*
X0409000D01*
Y-0941000D01*
X0410000D01*
Y-0942000D01*
X0412000D01*
Y-0943000D01*
X0414000D01*
Y-0944000D01*
X0416000D01*
Y-0945000D01*
X0419000D01*
Y-0946000D01*
X0423000D01*
Y-0947000D01*
X0436000D01*
Y-0946000D01*
X0440000D01*
Y-0945000D01*
X0443000D01*
Y-0944000D01*
X0445000D01*
Y-0943000D01*
X0447000D01*
Y-0942000D01*
X0449000D01*
Y-0941000D01*
X0450000D01*
Y-0940000D01*
X0452000D01*
Y-0939000D01*
X0453000D01*
Y-0938000D01*
X0454000D01*
Y-0937000D01*
X0455000D01*
Y-0936000D01*
X0456000D01*
Y-0935000D01*
X0457000D01*
Y-0934000D01*
X0458000D01*
Y-0933000D01*
X0459000D01*
Y-0931000D01*
X0460000D01*
Y-0930000D01*
X0461000D01*
Y-0929000D01*
X0462000D01*
Y-0927000D01*
X0463000D01*
Y-0926000D01*
X0464000D01*
Y-0924000D01*
X0465000D01*
Y-0921000D01*
X0466000D01*
Y-0918000D01*
X0467000D01*
Y-0902000D01*
X0466000D01*
Y-0899000D01*
X0465000D01*
Y-0897000D01*
X0464000D01*
Y-0895000D01*
X0463000D01*
Y-0893000D01*
X0462000D01*
Y-0892000D01*
X0461000D01*
Y-0891000D01*
X0460000D01*
Y-0889000D01*
X0459000D01*
Y-0888000D01*
X0458000D01*
Y-0887000D01*
X0457000D01*
Y-0886000D01*
X0456000D01*
Y-0885000D01*
X0455000D01*
Y-0884000D01*
X0454000D01*
Y-0883000D01*
X0453000D01*
Y-0882000D01*
X0452000D01*
Y-0881000D01*
X0450000D01*
Y-0880000D01*
X0449000D01*
Y-0879000D01*
X0447000D01*
Y-0878000D01*
X0445000D01*
Y-0877000D01*
X0443000D01*
Y-0876000D01*
X0440000D01*
Y-0875000D01*
X0436000D01*
Y-0874000D01*
X0423000D01*
G37*
G36*
X0479000Y-0794000D02*
Y-0795000D01*
X0475000D01*
Y-0796000D01*
X0473000D01*
Y-0797000D01*
X0471000D01*
Y-0798000D01*
X0470000D01*
Y-0799000D01*
X0469000D01*
Y-0800000D01*
X0468000D01*
Y-0802000D01*
X0467000D01*
Y-0804000D01*
X0324000D01*
Y-0874000D01*
X0323000D01*
Y-0875000D01*
X0319000D01*
Y-0876000D01*
X0316000D01*
Y-0877000D01*
X0314000D01*
Y-0878000D01*
X0312000D01*
Y-0879000D01*
X0310000D01*
Y-0880000D01*
X0309000D01*
Y-0881000D01*
X0307000D01*
Y-0882000D01*
X0306000D01*
Y-0883000D01*
X0305000D01*
Y-0884000D01*
X0304000D01*
Y-0885000D01*
X0303000D01*
Y-0886000D01*
X0302000D01*
Y-0887000D01*
X0301000D01*
Y-0888000D01*
X0300000D01*
Y-0890000D01*
X0299000D01*
Y-0891000D01*
X0298000D01*
Y-0893000D01*
X0297000D01*
Y-0895000D01*
X0296000D01*
Y-0897000D01*
X0295000D01*
Y-0900000D01*
X0294000D01*
Y-0904000D01*
X0293000D01*
Y-0917000D01*
X0294000D01*
Y-0921000D01*
X0295000D01*
Y-0924000D01*
X0296000D01*
Y-0926000D01*
X0297000D01*
Y-0928000D01*
X0298000D01*
Y-0930000D01*
X0299000D01*
Y-0931000D01*
X0300000D01*
Y-0933000D01*
X0301000D01*
Y-0934000D01*
X0302000D01*
Y-0935000D01*
X0303000D01*
Y-0936000D01*
X0304000D01*
Y-0937000D01*
X0305000D01*
Y-0938000D01*
X0306000D01*
Y-0939000D01*
X0307000D01*
Y-0940000D01*
X0309000D01*
Y-0941000D01*
X0310000D01*
Y-0942000D01*
X0312000D01*
Y-0943000D01*
X0314000D01*
Y-0944000D01*
X0316000D01*
Y-0945000D01*
X0319000D01*
Y-0946000D01*
X0323000D01*
Y-0947000D01*
X0336000D01*
Y-0946000D01*
X0340000D01*
Y-0945000D01*
X0343000D01*
Y-0944000D01*
X0345000D01*
Y-0943000D01*
X0347000D01*
Y-0942000D01*
X0349000D01*
Y-0941000D01*
X0350000D01*
Y-0940000D01*
X0352000D01*
Y-0939000D01*
X0353000D01*
Y-0938000D01*
X0354000D01*
Y-0937000D01*
X0355000D01*
Y-0936000D01*
X0356000D01*
Y-0935000D01*
X0357000D01*
Y-0934000D01*
X0358000D01*
Y-0933000D01*
X0359000D01*
Y-0931000D01*
X0360000D01*
Y-0930000D01*
X0361000D01*
Y-0928000D01*
X0362000D01*
Y-0926000D01*
X0363000D01*
Y-0924000D01*
X0364000D01*
Y-0921000D01*
X0365000D01*
Y-0917000D01*
X0366000D01*
Y-0904000D01*
X0365000D01*
Y-0900000D01*
X0364000D01*
Y-0897000D01*
X0363000D01*
Y-0895000D01*
X0362000D01*
Y-0893000D01*
X0361000D01*
Y-0891000D01*
X0360000D01*
Y-0890000D01*
X0359000D01*
Y-0888000D01*
X0358000D01*
Y-0887000D01*
X0357000D01*
Y-0886000D01*
X0356000D01*
Y-0885000D01*
X0355000D01*
Y-0884000D01*
X0354000D01*
Y-0883000D01*
X0353000D01*
Y-0882000D01*
X0352000D01*
Y-0881000D01*
X0350000D01*
Y-0880000D01*
X0349000D01*
Y-0879000D01*
X0347000D01*
Y-0878000D01*
X0345000D01*
Y-0877000D01*
X0343000D01*
Y-0876000D01*
X0340000D01*
Y-0875000D01*
X0336000D01*
Y-0874000D01*
X0335000D01*
Y-0815000D01*
X0467000D01*
Y-0817000D01*
X0468000D01*
Y-0819000D01*
X0469000D01*
Y-0820000D01*
X0470000D01*
Y-0821000D01*
X0471000D01*
Y-0822000D01*
X0473000D01*
Y-0823000D01*
X0475000D01*
Y-0824000D01*
X0479000D01*
Y-0825000D01*
X0482000D01*
Y-0824000D01*
X0486000D01*
Y-0823000D01*
X0488000D01*
Y-0822000D01*
X0490000D01*
Y-0821000D01*
X0491000D01*
Y-0820000D01*
X0492000D01*
Y-0819000D01*
X0493000D01*
Y-0817000D01*
X0494000D01*
Y-0815000D01*
X0495000D01*
Y-0811000D01*
X0496000D01*
Y-0808000D01*
X0495000D01*
Y-0804000D01*
X0494000D01*
Y-0802000D01*
X0493000D01*
Y-0800000D01*
X0492000D01*
Y-0799000D01*
X0491000D01*
Y-0798000D01*
X0490000D01*
Y-0797000D01*
X0488000D01*
Y-0796000D01*
X0486000D01*
Y-0795000D01*
X0482000D01*
Y-0794000D01*
X0479000D01*
G37*
G36*
X0655000Y-0390000D02*
Y-0391000D01*
X0651000D01*
Y-0392000D01*
X0649000D01*
Y-0393000D01*
X0647000D01*
Y-0394000D01*
X0646000D01*
Y-0395000D01*
X0645000D01*
Y-0396000D01*
X0644000D01*
Y-0398000D01*
X0643000D01*
Y-0400000D01*
X0642000D01*
Y-0404000D01*
X0641000D01*
Y-0407000D01*
X0642000D01*
Y-0411000D01*
X0643000D01*
Y-0413000D01*
X0644000D01*
Y-0415000D01*
X0645000D01*
Y-0416000D01*
X0646000D01*
Y-0417000D01*
X0647000D01*
Y-0418000D01*
X0649000D01*
Y-0419000D01*
X0651000D01*
Y-0420000D01*
X0655000D01*
Y-0421000D01*
X0658000D01*
Y-0420000D01*
X0662000D01*
Y-0419000D01*
X0664000D01*
Y-0418000D01*
X0666000D01*
Y-0417000D01*
X0667000D01*
Y-0416000D01*
X0668000D01*
Y-0415000D01*
X0669000D01*
Y-0413000D01*
X0670000D01*
Y-0411000D01*
X0671000D01*
Y-0409000D01*
X0921000D01*
Y-1042000D01*
X0919000D01*
Y-1042999D01*
X0917000D01*
Y-1044000D01*
X0915000D01*
Y-1044999D01*
X0914000D01*
Y-1046000D01*
X0913000D01*
Y-1046999D01*
X0912000D01*
Y-1048999D01*
X0911000D01*
Y-1050999D01*
X0910000D01*
Y-1054999D01*
X0909000D01*
Y-1058000D01*
X0910000D01*
Y-1062000D01*
X0911000D01*
Y-1064000D01*
X0912000D01*
Y-1066000D01*
X0913000D01*
Y-1066999D01*
X0914000D01*
Y-1068000D01*
X0915000D01*
Y-1068999D01*
X0917000D01*
Y-1070000D01*
X0919000D01*
Y-1070999D01*
X0923000D01*
Y-1072000D01*
X0926000D01*
Y-1070999D01*
X0930000D01*
Y-1070000D01*
X0932000D01*
Y-1068999D01*
X0934000D01*
Y-1068000D01*
X0935000D01*
Y-1066999D01*
X0936000D01*
Y-1066000D01*
X0937000D01*
Y-1064000D01*
X0938000D01*
Y-1062000D01*
X0939000D01*
Y-1058000D01*
X0940000D01*
Y-1054999D01*
X0939000D01*
Y-1050999D01*
X0938000D01*
Y-1048999D01*
X0937000D01*
Y-1046999D01*
X0936000D01*
Y-1046000D01*
X0935000D01*
Y-1044999D01*
X0934000D01*
Y-1044000D01*
X0932000D01*
Y-1042999D01*
X0930000D01*
Y-1042000D01*
X0928000D01*
Y-0402000D01*
X0671000D01*
Y-0400000D01*
X0670000D01*
Y-0398000D01*
X0669000D01*
Y-0396000D01*
X0668000D01*
Y-0395000D01*
X0667000D01*
Y-0394000D01*
X0666000D01*
Y-0393000D01*
X0664000D01*
Y-0392000D01*
X0662000D01*
Y-0391000D01*
X0658000D01*
Y-0390000D01*
X0655000D01*
G37*
G36*
X1100000Y-0564000D02*
Y-0565000D01*
X1094999D01*
Y-0566000D01*
X1092000D01*
Y-0567000D01*
X1088999D01*
Y-0568000D01*
X1086999D01*
Y-0569000D01*
X1084999D01*
Y-0570000D01*
X1082999D01*
Y-0571000D01*
X1080999D01*
Y-0572000D01*
X1080000D01*
Y-0573000D01*
X1078999D01*
Y-0574000D01*
X1076999D01*
Y-0575000D01*
X1076000D01*
Y-0576000D01*
X1074999D01*
Y-0577000D01*
X1074000D01*
Y-0578000D01*
X1072999D01*
Y-0579000D01*
X1072000D01*
Y-0580000D01*
X1070999D01*
Y-0582000D01*
X1070000D01*
Y-0583000D01*
X1068999D01*
Y-0584000D01*
X1068000D01*
Y-0586000D01*
X1066999D01*
Y-0588000D01*
X1066000D01*
Y-0590000D01*
X1064999D01*
Y-0592000D01*
X1064000D01*
Y-0595000D01*
X1062999D01*
Y-0598000D01*
X1062000D01*
Y-0603000D01*
X1060999D01*
Y-0616000D01*
X1062000D01*
Y-0621000D01*
X1062999D01*
Y-0624000D01*
X1064000D01*
Y-0627000D01*
X1064999D01*
Y-0629000D01*
X1066000D01*
Y-0631000D01*
X1066999D01*
Y-0633000D01*
X1068000D01*
Y-0635000D01*
X1068999D01*
Y-0636000D01*
X1070000D01*
Y-0637000D01*
X1070999D01*
Y-0639000D01*
X1072000D01*
Y-0640000D01*
X1072999D01*
Y-0641000D01*
X1074000D01*
Y-0642000D01*
X1074999D01*
Y-0643000D01*
X1076000D01*
Y-0644000D01*
X1076999D01*
Y-0645000D01*
X1078999D01*
Y-0646000D01*
X1080000D01*
Y-0647000D01*
X1080999D01*
Y-0648000D01*
X1082999D01*
Y-0649000D01*
X1084999D01*
Y-0650000D01*
X1086999D01*
Y-0651000D01*
X1088999D01*
Y-0652000D01*
X1092000D01*
Y-0653000D01*
X1094999D01*
Y-0654000D01*
X1100000D01*
Y-0655000D01*
X1112999D01*
Y-0654000D01*
X1118000D01*
Y-0653000D01*
X1121000D01*
Y-0652000D01*
X1124000D01*
Y-0651000D01*
X1126000D01*
Y-0650000D01*
X1128000D01*
Y-0649000D01*
X1130000D01*
Y-0648000D01*
X1132000D01*
Y-0647000D01*
X1133000D01*
Y-0646000D01*
X1134000D01*
Y-0645000D01*
X1136000D01*
Y-0644000D01*
X1137000D01*
Y-0643000D01*
X1138000D01*
Y-0642000D01*
X1139000D01*
Y-0641000D01*
X1140000D01*
Y-0640000D01*
X1141000D01*
Y-0639000D01*
X1142000D01*
Y-0637000D01*
X1143000D01*
Y-0636000D01*
X1144000D01*
Y-0635000D01*
X1145000D01*
Y-0633000D01*
X1146000D01*
Y-0631000D01*
X1147000D01*
Y-0629000D01*
X1148000D01*
Y-0627000D01*
X1149000D01*
Y-0624000D01*
X1150000D01*
Y-0621000D01*
X1151000D01*
Y-0616000D01*
X1152000D01*
Y-0603000D01*
X1151000D01*
Y-0598000D01*
X1150000D01*
Y-0595000D01*
X1149000D01*
Y-0592000D01*
X1148000D01*
Y-0590000D01*
X1147000D01*
Y-0588000D01*
X1146000D01*
Y-0586000D01*
X1145000D01*
Y-0584000D01*
X1144000D01*
Y-0583000D01*
X1143000D01*
Y-0582000D01*
X1142000D01*
Y-0580000D01*
X1141000D01*
Y-0579000D01*
X1140000D01*
Y-0578000D01*
X1139000D01*
Y-0577000D01*
X1138000D01*
Y-0576000D01*
X1137000D01*
Y-0575000D01*
X1136000D01*
Y-0574000D01*
X1134000D01*
Y-0573000D01*
X1133000D01*
Y-0572000D01*
X1132000D01*
Y-0571000D01*
X1130000D01*
Y-0570000D01*
X1128000D01*
Y-0569000D01*
X1126000D01*
Y-0568000D01*
X1124000D01*
Y-0567000D01*
X1121000D01*
Y-0566000D01*
X1118000D01*
Y-0565000D01*
X1112999D01*
Y-0564000D01*
X1100000D01*
G37*
M02*
