G04 Output from Chad's Board Thing.*
%FSLAX26Y26*%
%MOIN*%
G36*
%ADD10C,0.01*%
D10*
X0550000Y-0044000D02*
Y-0063000D01*
X0548000D01*
Y-0062000D01*
X0540000D01*
Y-0063000D01*
X0538000D01*
Y-0064000D01*
X0536000D01*
Y-0065000D01*
X0535000D01*
Y-0066000D01*
X0534000D01*
Y-0067000D01*
X0533000D01*
Y-0069000D01*
X0534000D01*
X0535000D01*
X0536000D01*
X0537000D01*
X0538000D01*
X0539000D01*
X0540000D01*
X0541000D01*
X0547000D01*
Y-0070000D01*
X0548000D01*
Y-0071000D01*
X0549000D01*
Y-0072000D01*
X0550000D01*
Y-0079000D01*
X0549000D01*
Y-0081000D01*
X0547000D01*
Y-0082000D01*
X0542000D01*
Y-0081000D01*
X0540000D01*
Y-0080000D01*
X0539000D01*
Y-0078000D01*
X0538000D01*
Y-0073000D01*
X0539000D01*
Y-0071000D01*
X0540000D01*
Y-0070000D01*
X0542000D01*
Y-0069000D01*
X0541000D01*
X0540000D01*
X0539000D01*
X0538000D01*
X0537000D01*
X0536000D01*
X0535000D01*
X0534000D01*
X0533000D01*
X0532000D01*
Y-0071000D01*
X0531000D01*
Y-0080000D01*
X0532000D01*
Y-0083000D01*
X0533000D01*
Y-0084000D01*
X0534000D01*
Y-0085000D01*
X0535000D01*
Y-0086000D01*
X0536000D01*
Y-0087000D01*
X0538000D01*
Y-0088000D01*
X0540000D01*
Y-0089000D01*
X0549000D01*
Y-0088000D01*
X0550000D01*
Y-0089000D01*
X0557000D01*
Y-0044000D01*
X0550000D01*
G37*
G36*
X0427000Y-0048000D02*
Y-0054000D01*
X0428000D01*
X0429000D01*
X0430000D01*
X0431000D01*
X0432000D01*
X0433000D01*
X0441000D01*
Y-0055000D01*
X0442000D01*
Y-0057000D01*
X0443000D01*
Y-0062000D01*
X0442000D01*
Y-0063000D01*
X0441000D01*
Y-0064000D01*
X0434000D01*
Y-0054000D01*
X0433000D01*
X0432000D01*
X0431000D01*
X0430000D01*
X0429000D01*
X0428000D01*
X0427000D01*
Y-0070000D01*
X0428000D01*
X0429000D01*
X0430000D01*
X0431000D01*
X0432000D01*
X0433000D01*
X0443000D01*
Y-0071000D01*
X0444000D01*
Y-0072000D01*
X0445000D01*
Y-0074000D01*
X0446000D01*
Y-0080000D01*
X0445000D01*
Y-0081000D01*
X0444000D01*
Y-0082000D01*
X0434000D01*
Y-0070000D01*
X0433000D01*
X0432000D01*
X0431000D01*
X0430000D01*
X0429000D01*
X0428000D01*
X0427000D01*
Y-0089000D01*
X0445000D01*
Y-0088000D01*
X0447000D01*
Y-0087000D01*
X0449000D01*
Y-0086000D01*
X0450000D01*
Y-0085000D01*
X0451000D01*
Y-0083000D01*
X0452000D01*
Y-0081000D01*
X0453000D01*
Y-0073000D01*
X0452000D01*
Y-0070000D01*
X0451000D01*
Y-0068000D01*
X0450000D01*
Y-0067000D01*
X0449000D01*
Y-0066000D01*
X0447000D01*
Y-0065000D01*
X0448000D01*
Y-0064000D01*
X0449000D01*
Y-0062000D01*
X0450000D01*
Y-0055000D01*
X0449000D01*
Y-0053000D01*
X0448000D01*
Y-0051000D01*
X0446000D01*
Y-0050000D01*
X0445000D01*
Y-0049000D01*
X0443000D01*
Y-0048000D01*
X0427000D01*
G37*
G36*
X0590000Y-0062000D02*
Y-0063000D01*
X0587000D01*
Y-0064000D01*
X0586000D01*
Y-0065000D01*
X0584000D01*
Y-0066000D01*
X0583000D01*
Y-0067000D01*
X0582000D01*
Y-0068000D01*
X0583000D01*
X0584000D01*
X0585000D01*
X0586000D01*
X0587000D01*
X0588000D01*
X0589000D01*
X0590000D01*
X0596000D01*
Y-0069000D01*
X0598000D01*
Y-0072000D01*
X0588000D01*
Y-0071000D01*
X0589000D01*
Y-0070000D01*
X0590000D01*
Y-0069000D01*
X0591000D01*
Y-0068000D01*
X0590000D01*
X0589000D01*
X0588000D01*
X0587000D01*
X0586000D01*
X0585000D01*
X0584000D01*
X0583000D01*
X0582000D01*
Y-0069000D01*
X0581000D01*
Y-0072000D01*
X0580000D01*
Y-0080000D01*
X0581000D01*
Y-0082000D01*
X0582000D01*
Y-0084000D01*
X0583000D01*
Y-0085000D01*
X0584000D01*
Y-0086000D01*
X0585000D01*
Y-0087000D01*
X0587000D01*
Y-0088000D01*
X0590000D01*
Y-0089000D01*
X0598000D01*
Y-0088000D01*
X0601000D01*
Y-0087000D01*
X0603000D01*
Y-0086000D01*
X0604000D01*
Y-0085000D01*
X0605000D01*
Y-0082000D01*
X0604000D01*
Y-0081000D01*
X0602000D01*
Y-0080000D01*
X0601000D01*
Y-0079000D01*
X0599000D01*
Y-0080000D01*
X0598000D01*
Y-0081000D01*
X0597000D01*
Y-0082000D01*
X0592000D01*
Y-0081000D01*
X0590000D01*
Y-0080000D01*
X0589000D01*
Y-0079000D01*
X0588000D01*
Y-0078000D01*
X0606000D01*
Y-0070000D01*
X0605000D01*
Y-0068000D01*
X0604000D01*
Y-0066000D01*
X0603000D01*
Y-0065000D01*
X0602000D01*
Y-0064000D01*
X0600000D01*
Y-0063000D01*
X0598000D01*
Y-0062000D01*
X0590000D01*
G37*
G36*
X0466000D02*
Y-0063000D01*
X0463000D01*
Y-0064000D01*
X0461000D01*
Y-0065000D01*
X0460000D01*
Y-0066000D01*
X0459000D01*
Y-0067000D01*
X0458000D01*
Y-0068000D01*
X0459000D01*
X0460000D01*
X0461000D01*
X0462000D01*
X0463000D01*
X0464000D01*
X0465000D01*
X0466000D01*
X0472000D01*
Y-0069000D01*
X0474000D01*
Y-0070000D01*
X0475000D01*
Y-0072000D01*
X0476000D01*
Y-0078000D01*
X0475000D01*
Y-0080000D01*
X0474000D01*
Y-0081000D01*
X0472000D01*
Y-0082000D01*
X0467000D01*
Y-0081000D01*
X0465000D01*
Y-0080000D01*
X0464000D01*
Y-0078000D01*
X0463000D01*
Y-0072000D01*
X0464000D01*
Y-0070000D01*
X0465000D01*
Y-0069000D01*
X0467000D01*
Y-0068000D01*
X0466000D01*
X0465000D01*
X0464000D01*
X0463000D01*
X0462000D01*
X0461000D01*
X0460000D01*
X0459000D01*
X0458000D01*
Y-0069000D01*
X0457000D01*
Y-0071000D01*
X0456000D01*
Y-0080000D01*
X0457000D01*
Y-0082000D01*
X0458000D01*
Y-0084000D01*
X0459000D01*
Y-0085000D01*
X0460000D01*
Y-0086000D01*
X0461000D01*
Y-0087000D01*
X0463000D01*
Y-0088000D01*
X0465000D01*
Y-0089000D01*
X0474000D01*
Y-0088000D01*
X0476000D01*
Y-0087000D01*
X0478000D01*
Y-0086000D01*
X0479000D01*
Y-0085000D01*
X0480000D01*
Y-0084000D01*
X0481000D01*
Y-0082000D01*
X0482000D01*
Y-0080000D01*
X0483000D01*
Y-0071000D01*
X0482000D01*
Y-0069000D01*
X0481000D01*
Y-0067000D01*
X0480000D01*
Y-0066000D01*
X0479000D01*
Y-0065000D01*
X0478000D01*
Y-0064000D01*
X0476000D01*
Y-0063000D01*
X0474000D01*
Y-0062000D01*
X0466000D01*
G37*
G36*
X0627000Y-0044000D02*
Y-0063000D01*
X0625000D01*
Y-0062000D01*
X0617000D01*
Y-0063000D01*
X0615000D01*
Y-0064000D01*
X0613000D01*
Y-0065000D01*
X0612000D01*
Y-0066000D01*
X0611000D01*
Y-0067000D01*
X0610000D01*
Y-0069000D01*
X0611000D01*
X0612000D01*
X0613000D01*
X0614000D01*
X0615000D01*
X0616000D01*
X0617000D01*
X0618000D01*
X0624000D01*
Y-0070000D01*
X0625000D01*
Y-0071000D01*
X0626000D01*
Y-0072000D01*
X0627000D01*
Y-0079000D01*
X0626000D01*
Y-0081000D01*
X0624000D01*
Y-0082000D01*
X0619000D01*
Y-0081000D01*
X0617000D01*
Y-0080000D01*
X0616000D01*
Y-0078000D01*
X0615000D01*
Y-0073000D01*
X0616000D01*
Y-0071000D01*
X0617000D01*
Y-0070000D01*
X0619000D01*
Y-0069000D01*
X0618000D01*
X0617000D01*
X0616000D01*
X0615000D01*
X0614000D01*
X0613000D01*
X0612000D01*
X0611000D01*
X0610000D01*
X0609000D01*
Y-0071000D01*
X0608000D01*
Y-0080000D01*
X0609000D01*
Y-0083000D01*
X0610000D01*
Y-0084000D01*
X0611000D01*
Y-0085000D01*
X0612000D01*
Y-0086000D01*
X0613000D01*
Y-0087000D01*
X0615000D01*
Y-0088000D01*
X0617000D01*
Y-0089000D01*
X0626000D01*
Y-0088000D01*
X0627000D01*
Y-0089000D01*
X0634000D01*
Y-0044000D01*
X0627000D01*
G37*
G36*
X0765000Y-0057000D02*
Y-0062000D01*
X0762000D01*
Y-0069000D01*
X0765000D01*
Y-0089000D01*
X0772000D01*
Y-0069000D01*
X0775000D01*
Y-0062000D01*
X0772000D01*
Y-0057000D01*
X0765000D01*
G37*
G36*
X0722000Y-0062000D02*
Y-0063000D01*
X0719000D01*
Y-0064000D01*
X0718000D01*
Y-0065000D01*
X0717000D01*
Y-0066000D01*
X0716000D01*
Y-0067000D01*
X0715000D01*
Y-0068000D01*
X0714000D01*
Y-0070000D01*
X0713000D01*
Y-0072000D01*
X0712000D01*
Y-0080000D01*
X0713000D01*
Y-0082000D01*
X0714000D01*
Y-0084000D01*
X0715000D01*
Y-0085000D01*
X0716000D01*
Y-0086000D01*
X0717000D01*
Y-0087000D01*
X0719000D01*
Y-0088000D01*
X0721000D01*
Y-0089000D01*
X0730000D01*
Y-0088000D01*
X0732000D01*
Y-0087000D01*
X0734000D01*
Y-0084000D01*
X0733000D01*
Y-0083000D01*
X0732000D01*
Y-0081000D01*
X0731000D01*
Y-0080000D01*
X0730000D01*
Y-0081000D01*
X0728000D01*
Y-0082000D01*
X0723000D01*
Y-0081000D01*
X0721000D01*
Y-0080000D01*
X0720000D01*
Y-0078000D01*
X0719000D01*
Y-0074000D01*
X0720000D01*
Y-0072000D01*
X0721000D01*
Y-0071000D01*
X0722000D01*
Y-0070000D01*
X0723000D01*
Y-0069000D01*
X0728000D01*
Y-0070000D01*
X0730000D01*
Y-0072000D01*
X0731000D01*
Y-0070000D01*
X0732000D01*
Y-0069000D01*
X0733000D01*
Y-0067000D01*
X0734000D01*
Y-0064000D01*
X0732000D01*
Y-0063000D01*
X0730000D01*
Y-0062000D01*
X0722000D01*
G37*
G36*
X0736000D02*
Y-0082000D01*
X0737000D01*
Y-0084000D01*
X0738000D01*
Y-0086000D01*
X0739000D01*
Y-0087000D01*
X0740000D01*
Y-0088000D01*
X0742000D01*
Y-0089000D01*
X0750000D01*
Y-0088000D01*
X0751000D01*
Y-0087000D01*
X0752000D01*
Y-0089000D01*
X0759000D01*
Y-0062000D01*
X0752000D01*
Y-0078000D01*
X0751000D01*
Y-0080000D01*
X0750000D01*
Y-0081000D01*
X0748000D01*
Y-0082000D01*
X0745000D01*
Y-0081000D01*
X0744000D01*
Y-0080000D01*
X0743000D01*
Y-0062000D01*
X0736000D01*
G37*
G36*
X0674000D02*
Y-0063000D01*
X0671000D01*
Y-0064000D01*
X0670000D01*
Y-0065000D01*
X0668000D01*
Y-0066000D01*
X0667000D01*
Y-0067000D01*
X0666000D01*
Y-0068000D01*
X0667000D01*
X0668000D01*
X0669000D01*
X0670000D01*
X0671000D01*
X0672000D01*
X0673000D01*
X0674000D01*
X0680000D01*
Y-0069000D01*
X0682000D01*
Y-0072000D01*
X0672000D01*
Y-0071000D01*
X0673000D01*
Y-0070000D01*
X0674000D01*
Y-0069000D01*
X0675000D01*
Y-0068000D01*
X0674000D01*
X0673000D01*
X0672000D01*
X0671000D01*
X0670000D01*
X0669000D01*
X0668000D01*
X0667000D01*
X0666000D01*
Y-0069000D01*
X0665000D01*
Y-0072000D01*
X0664000D01*
Y-0080000D01*
X0665000D01*
Y-0082000D01*
X0666000D01*
Y-0084000D01*
X0667000D01*
Y-0085000D01*
X0668000D01*
Y-0086000D01*
X0669000D01*
Y-0087000D01*
X0671000D01*
Y-0088000D01*
X0674000D01*
Y-0089000D01*
X0682000D01*
Y-0088000D01*
X0685000D01*
Y-0087000D01*
X0687000D01*
Y-0086000D01*
X0688000D01*
Y-0085000D01*
X0689000D01*
Y-0082000D01*
X0688000D01*
Y-0081000D01*
X0686000D01*
Y-0080000D01*
X0685000D01*
Y-0079000D01*
X0683000D01*
Y-0080000D01*
X0682000D01*
Y-0081000D01*
X0681000D01*
Y-0082000D01*
X0676000D01*
Y-0081000D01*
X0674000D01*
Y-0080000D01*
X0673000D01*
Y-0079000D01*
X0672000D01*
Y-0078000D01*
X0690000D01*
Y-0070000D01*
X0689000D01*
Y-0068000D01*
X0688000D01*
Y-0066000D01*
X0687000D01*
Y-0065000D01*
X0686000D01*
Y-0064000D01*
X0684000D01*
Y-0063000D01*
X0682000D01*
Y-0062000D01*
X0674000D01*
G37*
G36*
X0512000D02*
Y-0089000D01*
X0519000D01*
Y-0074000D01*
X0520000D01*
Y-0072000D01*
X0521000D01*
Y-0070000D01*
X0523000D01*
Y-0069000D01*
X0528000D01*
Y-0067000D01*
X0529000D01*
Y-0065000D01*
X0530000D01*
Y-0063000D01*
X0529000D01*
Y-0062000D01*
X0522000D01*
Y-0063000D01*
X0519000D01*
Y-0062000D01*
X0512000D01*
G37*
G36*
X0784000D02*
Y-0063000D01*
X0782000D01*
Y-0064000D01*
X0780000D01*
Y-0066000D01*
X0779000D01*
Y-0067000D01*
X0778000D01*
Y-0073000D01*
X0779000D01*
Y-0075000D01*
X0780000D01*
Y-0076000D01*
X0781000D01*
Y-0077000D01*
X0783000D01*
Y-0078000D01*
X0786000D01*
Y-0079000D01*
X0789000D01*
Y-0081000D01*
X0788000D01*
Y-0082000D01*
X0784000D01*
Y-0081000D01*
X0783000D01*
Y-0080000D01*
X0782000D01*
Y-0079000D01*
X0780000D01*
Y-0080000D01*
X0779000D01*
Y-0081000D01*
X0778000D01*
Y-0082000D01*
X0777000D01*
Y-0083000D01*
X0776000D01*
Y-0084000D01*
X0777000D01*
Y-0086000D01*
X0778000D01*
Y-0087000D01*
X0780000D01*
Y-0088000D01*
X0783000D01*
Y-0089000D01*
X0790000D01*
Y-0088000D01*
X0793000D01*
Y-0087000D01*
X0794000D01*
Y-0086000D01*
X0795000D01*
Y-0085000D01*
X0796000D01*
Y-0083000D01*
X0797000D01*
Y-0077000D01*
X0796000D01*
Y-0075000D01*
X0794000D01*
Y-0074000D01*
X0793000D01*
Y-0073000D01*
X0791000D01*
Y-0072000D01*
X0787000D01*
Y-0071000D01*
X0785000D01*
Y-0069000D01*
X0786000D01*
Y-0068000D01*
X0789000D01*
Y-0069000D01*
X0791000D01*
Y-0070000D01*
X0793000D01*
Y-0069000D01*
X0794000D01*
Y-0068000D01*
X0795000D01*
Y-0066000D01*
X0796000D01*
Y-0064000D01*
X0794000D01*
Y-0063000D01*
X0792000D01*
Y-0062000D01*
X0784000D01*
G37*
G36*
X0623000Y-0105000D02*
Y-0142000D01*
X0633000D01*
Y-0105000D01*
X0623000D01*
G37*
G36*
X0494000Y-0062000D02*
Y-0063000D01*
X0491000D01*
Y-0064000D01*
X0489000D01*
Y-0065000D01*
X0488000D01*
Y-0066000D01*
X0487000D01*
Y-0067000D01*
X0486000D01*
Y-0069000D01*
X0487000D01*
X0488000D01*
X0489000D01*
X0490000D01*
X0491000D01*
X0492000D01*
X0493000D01*
X0494000D01*
X0500000D01*
Y-0070000D01*
X0501000D01*
Y-0071000D01*
X0502000D01*
Y-0072000D01*
X0503000D01*
Y-0079000D01*
X0502000D01*
Y-0081000D01*
X0500000D01*
Y-0082000D01*
X0495000D01*
Y-0081000D01*
X0493000D01*
Y-0080000D01*
X0492000D01*
Y-0078000D01*
X0491000D01*
Y-0073000D01*
X0492000D01*
Y-0071000D01*
X0493000D01*
Y-0070000D01*
X0495000D01*
Y-0069000D01*
X0494000D01*
X0493000D01*
X0492000D01*
X0491000D01*
X0490000D01*
X0489000D01*
X0488000D01*
X0487000D01*
X0486000D01*
X0485000D01*
Y-0072000D01*
X0484000D01*
Y-0080000D01*
X0485000D01*
Y-0082000D01*
X0486000D01*
Y-0084000D01*
X0487000D01*
Y-0085000D01*
X0488000D01*
Y-0086000D01*
X0489000D01*
Y-0087000D01*
X0491000D01*
Y-0088000D01*
X0493000D01*
Y-0089000D01*
X0501000D01*
Y-0088000D01*
X0503000D01*
Y-0089000D01*
X0510000D01*
Y-0062000D01*
X0503000D01*
Y-0063000D01*
X0501000D01*
Y-0062000D01*
X0494000D01*
G37*
G36*
X0647000D02*
Y-0063000D01*
X0644000D01*
Y-0064000D01*
X0642000D01*
Y-0065000D01*
X0641000D01*
Y-0066000D01*
X0640000D01*
Y-0067000D01*
X0639000D01*
Y-0069000D01*
X0640000D01*
X0641000D01*
X0642000D01*
X0643000D01*
X0644000D01*
X0645000D01*
X0646000D01*
X0653000D01*
Y-0070000D01*
X0654000D01*
Y-0071000D01*
X0655000D01*
Y-0079000D01*
X0654000D01*
Y-0081000D01*
X0653000D01*
Y-0082000D01*
X0648000D01*
Y-0081000D01*
X0646000D01*
Y-0080000D01*
X0645000D01*
Y-0078000D01*
X0644000D01*
Y-0073000D01*
X0645000D01*
Y-0071000D01*
X0646000D01*
Y-0070000D01*
X0647000D01*
Y-0069000D01*
X0646000D01*
X0645000D01*
X0644000D01*
X0643000D01*
X0642000D01*
X0641000D01*
X0640000D01*
X0639000D01*
X0638000D01*
Y-0072000D01*
X0637000D01*
Y-0080000D01*
X0638000D01*
Y-0082000D01*
X0639000D01*
Y-0084000D01*
X0640000D01*
Y-0085000D01*
X0641000D01*
Y-0086000D01*
X0642000D01*
Y-0087000D01*
X0644000D01*
Y-0088000D01*
X0646000D01*
Y-0089000D01*
X0654000D01*
Y-0088000D01*
X0655000D01*
Y-0092000D01*
X0654000D01*
Y-0093000D01*
X0652000D01*
Y-0094000D01*
X0647000D01*
Y-0093000D01*
X0645000D01*
Y-0092000D01*
X0643000D01*
Y-0091000D01*
X0642000D01*
Y-0092000D01*
X0641000D01*
Y-0094000D01*
X0640000D01*
Y-0096000D01*
X0639000D01*
Y-0097000D01*
X0640000D01*
Y-0098000D01*
X0641000D01*
Y-0099000D01*
X0643000D01*
Y-0100000D01*
X0646000D01*
Y-0101000D01*
X0653000D01*
Y-0100000D01*
X0656000D01*
Y-0099000D01*
X0657000D01*
Y-0098000D01*
X0658000D01*
Y-0097000D01*
X0659000D01*
Y-0096000D01*
X0660000D01*
Y-0095000D01*
X0661000D01*
Y-0092000D01*
X0662000D01*
Y-0062000D01*
X0655000D01*
Y-0063000D01*
X0654000D01*
Y-0062000D01*
X0647000D01*
G37*
G36*
X0215000Y-0163000D02*
Y-0164000D01*
X0208000D01*
Y-0165000D01*
X0204000D01*
Y-0166000D01*
X0200000D01*
Y-0167000D01*
X0197000D01*
Y-0168000D01*
X0194000D01*
Y-0169000D01*
X0192000D01*
Y-0170000D01*
X0189000D01*
Y-0171000D01*
X0187000D01*
Y-0172000D01*
X0185000D01*
Y-0173000D01*
X0186000D01*
X0187000D01*
X0188000D01*
X0189000D01*
X0190000D01*
X0191000D01*
X0192000D01*
X0193000D01*
X0194000D01*
X0195000D01*
X0196000D01*
X0197000D01*
X0198000D01*
X0199000D01*
X0200000D01*
X0201000D01*
X0202000D01*
X0203000D01*
X0204000D01*
X0205000D01*
X0206000D01*
X0207000D01*
X0208000D01*
X0209000D01*
X0210000D01*
X0211000D01*
X0212000D01*
X0213000D01*
X0214000D01*
X0215000D01*
X0216000D01*
X0217000D01*
X0218000D01*
X0219000D01*
X0220000D01*
X0221000D01*
X0222000D01*
X1130000D01*
Y-0174000D01*
X1138000D01*
Y-0175000D01*
X1144000D01*
Y-0176000D01*
X1149000D01*
Y-0177000D01*
X1152000D01*
Y-0178000D01*
X1155000D01*
Y-0179000D01*
X1157000D01*
Y-0180000D01*
X1159999D01*
Y-0181000D01*
X1161999D01*
Y-0182000D01*
X1163999D01*
Y-0183000D01*
X1165999D01*
Y-0184000D01*
X1167000D01*
Y-0185000D01*
X1169000D01*
Y-0186000D01*
X1171000D01*
Y-0187000D01*
X1171999D01*
Y-0188000D01*
X1173000D01*
Y-0189000D01*
X1175000D01*
Y-0190000D01*
X1175999D01*
Y-0191000D01*
X1177000D01*
Y-0192000D01*
X1177999D01*
Y-0193000D01*
X1179000D01*
Y-0194000D01*
X1179999D01*
Y-0195000D01*
X1181000D01*
Y-0196000D01*
X1181999D01*
Y-0197000D01*
X1183000D01*
Y-0198000D01*
X1183999D01*
Y-0199000D01*
X1185000D01*
Y-0200000D01*
X1185999D01*
Y-0201000D01*
X1187000D01*
Y-0202000D01*
X1187999D01*
Y-0204000D01*
X1189000D01*
Y-0205000D01*
X1189999D01*
Y-0206000D01*
X1191000D01*
Y-0208000D01*
X1191999D01*
Y-0210000D01*
X1193000D01*
Y-0211000D01*
X1193999D01*
Y-0213000D01*
X1195000D01*
Y-0215000D01*
X1195999D01*
Y-0217000D01*
X1197000D01*
Y-0220000D01*
X1197999D01*
Y-0222000D01*
X1199000D01*
Y-0225000D01*
X1199999D01*
Y-0228000D01*
X1201000D01*
Y-0233000D01*
X1201999D01*
Y-0239000D01*
X1203000D01*
Y-1191999D01*
X1201999D01*
Y-1199999D01*
X1201000D01*
Y-1205999D01*
X1199999D01*
Y-1211000D01*
X1199000D01*
Y-1213999D01*
X1197999D01*
Y-1217000D01*
X1197000D01*
Y-1219000D01*
X1195999D01*
Y-1221999D01*
X1195000D01*
Y-1223999D01*
X1193999D01*
Y-1225999D01*
X1193000D01*
Y-1227999D01*
X1191999D01*
Y-1229000D01*
X1191000D01*
Y-1231000D01*
X1189999D01*
Y-1233000D01*
X1189000D01*
Y-1234000D01*
X1187999D01*
Y-1235000D01*
X1187000D01*
Y-1237000D01*
X1185999D01*
Y-1238000D01*
X1185000D01*
Y-1239000D01*
X1183999D01*
Y-1240000D01*
X1183000D01*
Y-1241000D01*
X1181999D01*
Y-1242000D01*
X1181000D01*
Y-1243000D01*
X1179999D01*
Y-1244000D01*
X1179000D01*
Y-1245000D01*
X1177999D01*
Y-1246000D01*
X1177000D01*
Y-1247000D01*
X1175999D01*
Y-1248000D01*
X1175000D01*
Y-1249000D01*
X1173999D01*
Y-1250000D01*
X1171999D01*
Y-1251000D01*
X1171000D01*
Y-1252000D01*
X1169999D01*
Y-1253000D01*
X1167999D01*
Y-1254000D01*
X1165999D01*
Y-1255000D01*
X1165000D01*
Y-1256000D01*
X1163000D01*
Y-1257000D01*
X1161000D01*
Y-1258000D01*
X1159000D01*
Y-1259000D01*
X1155999D01*
Y-1260000D01*
X1153999D01*
Y-1261000D01*
X1151000D01*
Y-1262000D01*
X1148000D01*
Y-1263000D01*
X1143000D01*
Y-1264000D01*
X1137000D01*
Y-1265000D01*
X0216000D01*
Y-1264000D01*
X0210000D01*
Y-1263000D01*
X0205000D01*
Y-1262000D01*
X0202000D01*
Y-1261000D01*
X0199000D01*
Y-1260000D01*
X0197000D01*
Y-1259000D01*
X0194000D01*
Y-1258000D01*
X0192000D01*
Y-1257000D01*
X0190000D01*
Y-1256000D01*
X0188000D01*
Y-1255000D01*
X0187000D01*
Y-1254000D01*
X0185000D01*
Y-1253000D01*
X0183000D01*
Y-1252000D01*
X0182000D01*
Y-1251000D01*
X0181000D01*
Y-1250000D01*
X0179000D01*
Y-1249000D01*
X0178000D01*
Y-1248000D01*
X0177000D01*
Y-1247000D01*
X0176000D01*
Y-1246000D01*
X0175000D01*
Y-1245000D01*
X0174000D01*
Y-1244000D01*
X0173000D01*
Y-1243000D01*
X0172000D01*
Y-1242000D01*
X0171000D01*
Y-1241000D01*
X0170000D01*
Y-1240000D01*
X0169000D01*
Y-1239000D01*
X0168000D01*
Y-1238000D01*
X0167000D01*
Y-1237000D01*
X0166000D01*
Y-1235000D01*
X0165000D01*
Y-1234000D01*
X0164000D01*
Y-1233000D01*
X0163000D01*
Y-1231000D01*
X0162000D01*
Y-1229000D01*
X0161000D01*
Y-1227999D01*
X0160000D01*
Y-1225999D01*
X0159000D01*
Y-1223999D01*
X0158000D01*
Y-1221999D01*
X0157000D01*
Y-1219000D01*
X0156000D01*
Y-1217000D01*
X0155000D01*
Y-1213999D01*
X0154000D01*
Y-1211000D01*
X0153000D01*
Y-1205999D01*
X0152000D01*
Y-1199999D01*
X0151000D01*
Y-1191999D01*
X0150000D01*
Y-0239000D01*
X0151000D01*
Y-0233000D01*
X0152000D01*
Y-0228000D01*
X0153000D01*
Y-0225000D01*
X0154000D01*
Y-0222000D01*
X0155000D01*
Y-0220000D01*
X0156000D01*
Y-0217000D01*
X0157000D01*
Y-0215000D01*
X0158000D01*
Y-0213000D01*
X0159000D01*
Y-0211000D01*
X0160000D01*
Y-0210000D01*
X0161000D01*
Y-0208000D01*
X0162000D01*
Y-0206000D01*
X0163000D01*
Y-0205000D01*
X0164000D01*
Y-0204000D01*
X0165000D01*
Y-0202000D01*
X0166000D01*
Y-0201000D01*
X0167000D01*
Y-0200000D01*
X0168000D01*
Y-0199000D01*
X0169000D01*
Y-0198000D01*
X0170000D01*
Y-0197000D01*
X0171000D01*
Y-0196000D01*
X0172000D01*
Y-0195000D01*
X0173000D01*
Y-0194000D01*
X0174000D01*
Y-0193000D01*
X0175000D01*
Y-0192000D01*
X0176000D01*
Y-0191000D01*
X0177000D01*
Y-0190000D01*
X0178000D01*
Y-0189000D01*
X0180000D01*
Y-0188000D01*
X0181000D01*
Y-0187000D01*
X0182000D01*
Y-0186000D01*
X0184000D01*
Y-0185000D01*
X0186000D01*
Y-0184000D01*
X0187000D01*
Y-0183000D01*
X0189000D01*
Y-0182000D01*
X0191000D01*
Y-0181000D01*
X0193000D01*
Y-0180000D01*
X0196000D01*
Y-0179000D01*
X0198000D01*
Y-0178000D01*
X0201000D01*
Y-0177000D01*
X0204000D01*
Y-0176000D01*
X0209000D01*
Y-0175000D01*
X0215000D01*
Y-0174000D01*
X0223000D01*
Y-0173000D01*
X0222000D01*
X0221000D01*
X0220000D01*
X0219000D01*
X0218000D01*
X0217000D01*
X0216000D01*
X0215000D01*
X0214000D01*
X0213000D01*
X0212000D01*
X0211000D01*
X0210000D01*
X0209000D01*
X0208000D01*
X0207000D01*
X0206000D01*
X0205000D01*
X0204000D01*
X0203000D01*
X0202000D01*
X0201000D01*
X0200000D01*
X0199000D01*
X0198000D01*
X0197000D01*
X0196000D01*
X0195000D01*
X0194000D01*
X0193000D01*
X0192000D01*
X0191000D01*
X0190000D01*
X0189000D01*
X0188000D01*
X0187000D01*
X0186000D01*
X0185000D01*
X0183000D01*
Y-0174000D01*
X0182000D01*
Y-0175000D01*
X0180000D01*
Y-0176000D01*
X0178000D01*
Y-0177000D01*
X0177000D01*
Y-0178000D01*
X0175000D01*
Y-0179000D01*
X0174000D01*
Y-0180000D01*
X0173000D01*
Y-0181000D01*
X0171000D01*
Y-0182000D01*
X0170000D01*
Y-0183000D01*
X0169000D01*
Y-0184000D01*
X0168000D01*
Y-0185000D01*
X0167000D01*
Y-0186000D01*
X0166000D01*
Y-0187000D01*
X0165000D01*
Y-0188000D01*
X0164000D01*
Y-0189000D01*
X0163000D01*
Y-0190000D01*
X0162000D01*
Y-0191000D01*
X0161000D01*
Y-0192000D01*
X0160000D01*
Y-0193000D01*
X0159000D01*
Y-0194000D01*
X0158000D01*
Y-0196000D01*
X0157000D01*
Y-0197000D01*
X0156000D01*
Y-0198000D01*
X0155000D01*
Y-0200000D01*
X0154000D01*
Y-0201000D01*
X0153000D01*
Y-0203000D01*
X0152000D01*
Y-0205000D01*
X0151000D01*
Y-0206000D01*
X0150000D01*
Y-0208000D01*
X0149000D01*
Y-0210000D01*
X0148000D01*
Y-0212000D01*
X0147000D01*
Y-0215000D01*
X0146000D01*
Y-0217000D01*
X0145000D01*
Y-0220000D01*
X0144000D01*
Y-0223000D01*
X0143000D01*
Y-0227000D01*
X0142000D01*
Y-0231000D01*
X0141000D01*
Y-0238000D01*
X0140000D01*
Y-1199999D01*
X0141000D01*
Y-1207000D01*
X0142000D01*
Y-1211000D01*
X0143000D01*
Y-1215000D01*
X0144000D01*
Y-1217999D01*
X0145000D01*
Y-1221000D01*
X0146000D01*
Y-1223000D01*
X0147000D01*
Y-1225999D01*
X0148000D01*
Y-1227999D01*
X0149000D01*
Y-1229999D01*
X0150000D01*
Y-1231999D01*
X0151000D01*
Y-1233000D01*
X0152000D01*
Y-1235000D01*
X0153000D01*
Y-1237000D01*
X0154000D01*
Y-1238000D01*
X0155000D01*
Y-1240000D01*
X0156000D01*
Y-1241000D01*
X0157000D01*
Y-1242000D01*
X0158000D01*
Y-1244000D01*
X0159000D01*
Y-1245000D01*
X0160000D01*
Y-1246000D01*
X0161000D01*
Y-1247000D01*
X0162000D01*
Y-1248000D01*
X0163000D01*
Y-1249000D01*
X0164000D01*
Y-1250000D01*
X0165000D01*
Y-1251000D01*
X0166000D01*
Y-1252000D01*
X0167000D01*
Y-1253000D01*
X0168000D01*
Y-1254000D01*
X0169000D01*
Y-1255000D01*
X0170000D01*
Y-1256000D01*
X0171000D01*
Y-1257000D01*
X0173000D01*
Y-1258000D01*
X0174000D01*
Y-1259000D01*
X0175000D01*
Y-1260000D01*
X0177000D01*
Y-1261000D01*
X0178000D01*
Y-1262000D01*
X0180000D01*
Y-1263000D01*
X0182000D01*
Y-1264000D01*
X0183000D01*
Y-1265000D01*
X0185000D01*
Y-1266000D01*
X0187000D01*
Y-1267000D01*
X0189000D01*
Y-1268000D01*
X0192000D01*
Y-1269000D01*
X0194000D01*
Y-1270000D01*
X0197000D01*
Y-1271000D01*
X0200000D01*
Y-1272000D01*
X0204000D01*
Y-1273000D01*
X0208000D01*
Y-1274000D01*
X0215000D01*
Y-1275000D01*
X1138000D01*
Y-1274000D01*
X1145000D01*
Y-1273000D01*
X1149000D01*
Y-1272000D01*
X1153000D01*
Y-1271000D01*
X1155999D01*
Y-1270000D01*
X1159000D01*
Y-1269000D01*
X1161000D01*
Y-1268000D01*
X1163999D01*
Y-1267000D01*
X1165999D01*
Y-1266000D01*
X1167999D01*
Y-1265000D01*
X1169999D01*
Y-1264000D01*
X1171000D01*
Y-1263000D01*
X1173000D01*
Y-1262000D01*
X1175000D01*
Y-1261000D01*
X1175999D01*
Y-1260000D01*
X1177999D01*
Y-1259000D01*
X1179000D01*
Y-1258000D01*
X1179999D01*
Y-1257000D01*
X1181999D01*
Y-1256000D01*
X1183000D01*
Y-1255000D01*
X1183999D01*
Y-1254000D01*
X1185000D01*
Y-1253000D01*
X1185999D01*
Y-1252000D01*
X1187000D01*
Y-1251000D01*
X1187999D01*
Y-1250000D01*
X1189000D01*
Y-1249000D01*
X1189999D01*
Y-1248000D01*
X1191000D01*
Y-1247000D01*
X1191999D01*
Y-1246000D01*
X1193000D01*
Y-1245000D01*
X1193999D01*
Y-1244000D01*
X1195000D01*
Y-1242000D01*
X1195999D01*
Y-1241000D01*
X1197000D01*
Y-1240000D01*
X1197999D01*
Y-1238000D01*
X1199000D01*
Y-1237000D01*
X1199999D01*
Y-1235000D01*
X1201000D01*
Y-1233000D01*
X1201999D01*
Y-1231999D01*
X1203000D01*
Y-1229999D01*
X1203999D01*
Y-1227999D01*
X1205000D01*
Y-1225999D01*
X1205999D01*
Y-1223000D01*
X1207000D01*
Y-1221000D01*
X1207999D01*
Y-1217999D01*
X1209000D01*
Y-1215000D01*
X1209999D01*
Y-1211000D01*
X1211000D01*
Y-1207000D01*
X1211999D01*
Y-1199999D01*
X1213000D01*
Y-0238000D01*
X1211999D01*
Y-0231000D01*
X1211000D01*
Y-0227000D01*
X1209999D01*
Y-0223000D01*
X1209000D01*
Y-0220000D01*
X1207999D01*
Y-0217000D01*
X1207000D01*
Y-0215000D01*
X1205999D01*
Y-0212000D01*
X1205000D01*
Y-0210000D01*
X1203999D01*
Y-0208000D01*
X1203000D01*
Y-0206000D01*
X1201999D01*
Y-0205000D01*
X1201000D01*
Y-0203000D01*
X1199999D01*
Y-0201000D01*
X1199000D01*
Y-0200000D01*
X1197999D01*
Y-0198000D01*
X1197000D01*
Y-0197000D01*
X1195999D01*
Y-0196000D01*
X1195000D01*
Y-0194000D01*
X1193999D01*
Y-0193000D01*
X1193000D01*
Y-0192000D01*
X1191999D01*
Y-0191000D01*
X1191000D01*
Y-0190000D01*
X1189999D01*
Y-0189000D01*
X1189000D01*
Y-0188000D01*
X1187999D01*
Y-0187000D01*
X1187000D01*
Y-0186000D01*
X1185999D01*
Y-0185000D01*
X1185000D01*
Y-0184000D01*
X1183999D01*
Y-0183000D01*
X1183000D01*
Y-0182000D01*
X1181999D01*
Y-0181000D01*
X1179999D01*
Y-0180000D01*
X1179000D01*
Y-0179000D01*
X1177999D01*
Y-0178000D01*
X1175999D01*
Y-0177000D01*
X1175000D01*
Y-0176000D01*
X1173000D01*
Y-0175000D01*
X1171000D01*
Y-0174000D01*
X1169999D01*
Y-0173000D01*
X1167999D01*
Y-0172000D01*
X1165999D01*
Y-0171000D01*
X1163999D01*
Y-0170000D01*
X1161000D01*
Y-0169000D01*
X1159000D01*
Y-0168000D01*
X1155999D01*
Y-0167000D01*
X1153000D01*
Y-0166000D01*
X1149000D01*
Y-0165000D01*
X1145000D01*
Y-0164000D01*
X1138000D01*
Y-0163000D01*
X0215000D01*
G37*
M02*
