M48
INCH,TZ
FMAT,2
T01C0.1
T02C0.03972
T03C0.01065
T04C0.05113
%
G90
G05
T03
X0.5115Y-0.3915
X0.6565Y-0.4055
X0.5225Y-0.4375
X0.7865Y-0.5545
X0.5795Y-0.5885
X0.6095Y-0.6125
X0.5785Y-0.6285
X0.6085Y-0.6525
X0.3215Y-0.6895
X0.3645Y-0.7325
X0.4805Y-0.8095
X0.9245Y-1.0565
T02
X0.5265Y-0.2175
X0.6265Y-0.2175
X0.7265Y-0.2175
X0.8265Y-0.2175
X0.2295Y-0.9105
X0.3295Y-0.9105
X0.4295Y-0.9105
X0.5295Y-0.9105
X0.6295Y-0.9105
X0.7295Y-0.9105
X0.5885Y-1.1705
X0.7655Y-1.1705
T04
X0.3205Y-0.6095
X1.1065Y-0.6095
X0.5395Y-1.0725
X0.8145Y-1.0725
T01
X0.2240Y-0.2470
X1.1290Y-0.2470
X0.2240Y-1.1910
X1.1290Y-1.1910
T0
M30
