G04 Output from Chad's Board Thing.*
%FSLAX26Y26*%
%MOIN*%
G36*
%ADD10C,0.01*%
D10*
X0520000Y-0181000D02*
Y-0182000D01*
X0516000D01*
Y-0183000D01*
X0513000D01*
Y-0184000D01*
X0511000D01*
Y-0185000D01*
X0509000D01*
Y-0186000D01*
X0507000D01*
Y-0187000D01*
X0506000D01*
Y-0188000D01*
X0504000D01*
Y-0189000D01*
X0503000D01*
Y-0190000D01*
X0502000D01*
Y-0191000D01*
X0501000D01*
Y-0192000D01*
X0500000D01*
Y-0193000D01*
X0499000D01*
Y-0194000D01*
X0498000D01*
Y-0195000D01*
X0497000D01*
Y-0197000D01*
X0496000D01*
Y-0198000D01*
X0495000D01*
Y-0200000D01*
X0494000D01*
Y-0202000D01*
X0493000D01*
Y-0204000D01*
X0492000D01*
Y-0207000D01*
X0491000D01*
Y-0211000D01*
X0490000D01*
Y-0224000D01*
X0491000D01*
Y-0228000D01*
X0492000D01*
Y-0231000D01*
X0493000D01*
Y-0233000D01*
X0494000D01*
Y-0235000D01*
X0495000D01*
Y-0237000D01*
X0496000D01*
Y-0238000D01*
X0497000D01*
Y-0240000D01*
X0498000D01*
Y-0241000D01*
X0499000D01*
Y-0242000D01*
X0500000D01*
Y-0243000D01*
X0501000D01*
Y-0244000D01*
X0502000D01*
Y-0245000D01*
X0503000D01*
Y-0246000D01*
X0504000D01*
Y-0247000D01*
X0506000D01*
Y-0248000D01*
X0507000D01*
Y-0249000D01*
X0509000D01*
Y-0250000D01*
X0511000D01*
Y-0251000D01*
X0513000D01*
Y-0252000D01*
X0516000D01*
Y-0253000D01*
X0520000D01*
Y-0254000D01*
X0533000D01*
Y-0253000D01*
X0537000D01*
Y-0252000D01*
X0540000D01*
Y-0251000D01*
X0542000D01*
Y-0250000D01*
X0544000D01*
Y-0249000D01*
X0546000D01*
Y-0248000D01*
X0547000D01*
Y-0247000D01*
X0549000D01*
Y-0246000D01*
X0550000D01*
Y-0245000D01*
X0551000D01*
Y-0244000D01*
X0552000D01*
Y-0243000D01*
X0553000D01*
Y-0242000D01*
X0554000D01*
Y-0241000D01*
X0555000D01*
Y-0240000D01*
X0556000D01*
Y-0238000D01*
X0557000D01*
Y-0237000D01*
X0558000D01*
Y-0235000D01*
X0559000D01*
Y-0233000D01*
X0560000D01*
Y-0231000D01*
X0561000D01*
Y-0228000D01*
X0562000D01*
Y-0224000D01*
X0563000D01*
Y-0211000D01*
X0562000D01*
Y-0207000D01*
X0561000D01*
Y-0204000D01*
X0560000D01*
Y-0202000D01*
X0559000D01*
Y-0200000D01*
X0558000D01*
Y-0198000D01*
X0557000D01*
Y-0197000D01*
X0556000D01*
Y-0195000D01*
X0555000D01*
Y-0194000D01*
X0554000D01*
Y-0193000D01*
X0553000D01*
Y-0192000D01*
X0552000D01*
Y-0191000D01*
X0551000D01*
Y-0190000D01*
X0550000D01*
Y-0189000D01*
X0549000D01*
Y-0188000D01*
X0547000D01*
Y-0187000D01*
X0546000D01*
Y-0186000D01*
X0544000D01*
Y-0185000D01*
X0542000D01*
Y-0184000D01*
X0540000D01*
Y-0183000D01*
X0537000D01*
Y-0182000D01*
X0533000D01*
Y-0181000D01*
X0520000D01*
G37*
G36*
X0820000D02*
Y-0182000D01*
X0816000D01*
Y-0183000D01*
X0813000D01*
Y-0184000D01*
X0811000D01*
Y-0185000D01*
X0809000D01*
Y-0186000D01*
X0807000D01*
Y-0187000D01*
X0806000D01*
Y-0188000D01*
X0804000D01*
Y-0189000D01*
X0803000D01*
Y-0190000D01*
X0802000D01*
Y-0191000D01*
X0801000D01*
Y-0192000D01*
X0800000D01*
Y-0193000D01*
X0799000D01*
Y-0194000D01*
X0798000D01*
Y-0195000D01*
X0797000D01*
Y-0197000D01*
X0796000D01*
Y-0198000D01*
X0795000D01*
Y-0200000D01*
X0794000D01*
Y-0202000D01*
X0793000D01*
Y-0204000D01*
X0792000D01*
Y-0207000D01*
X0791000D01*
Y-0211000D01*
X0790000D01*
Y-0224000D01*
X0791000D01*
Y-0228000D01*
X0792000D01*
Y-0231000D01*
X0793000D01*
Y-0233000D01*
X0794000D01*
Y-0235000D01*
X0795000D01*
Y-0237000D01*
X0796000D01*
Y-0238000D01*
X0797000D01*
Y-0240000D01*
X0798000D01*
Y-0241000D01*
X0799000D01*
Y-0242000D01*
X0800000D01*
Y-0243000D01*
X0801000D01*
Y-0244000D01*
X0802000D01*
Y-0245000D01*
X0803000D01*
Y-0246000D01*
X0804000D01*
Y-0247000D01*
X0806000D01*
Y-0248000D01*
X0807000D01*
Y-0249000D01*
X0809000D01*
Y-0250000D01*
X0811000D01*
Y-0251000D01*
X0813000D01*
Y-0252000D01*
X0816000D01*
Y-0253000D01*
X0820000D01*
Y-0254000D01*
X0833000D01*
Y-0253000D01*
X0837000D01*
Y-0252000D01*
X0840000D01*
Y-0251000D01*
X0842000D01*
Y-0250000D01*
X0844000D01*
Y-0249000D01*
X0846000D01*
Y-0248000D01*
X0847000D01*
Y-0247000D01*
X0849000D01*
Y-0246000D01*
X0850000D01*
Y-0245000D01*
X0851000D01*
Y-0244000D01*
X0852000D01*
Y-0243000D01*
X0853000D01*
Y-0242000D01*
X0854000D01*
Y-0241000D01*
X0855000D01*
Y-0240000D01*
X0856000D01*
Y-0238000D01*
X0857000D01*
Y-0237000D01*
X0858000D01*
Y-0235000D01*
X0859000D01*
Y-0233000D01*
X0860000D01*
Y-0231000D01*
X0861000D01*
Y-0228000D01*
X0862000D01*
Y-0224000D01*
X0863000D01*
Y-0211000D01*
X0862000D01*
Y-0207000D01*
X0861000D01*
Y-0204000D01*
X0860000D01*
Y-0202000D01*
X0859000D01*
Y-0200000D01*
X0858000D01*
Y-0198000D01*
X0857000D01*
Y-0197000D01*
X0856000D01*
Y-0195000D01*
X0855000D01*
Y-0194000D01*
X0854000D01*
Y-0193000D01*
X0853000D01*
Y-0192000D01*
X0852000D01*
Y-0191000D01*
X0851000D01*
Y-0190000D01*
X0850000D01*
Y-0189000D01*
X0849000D01*
Y-0188000D01*
X0847000D01*
Y-0187000D01*
X0846000D01*
Y-0186000D01*
X0844000D01*
Y-0185000D01*
X0842000D01*
Y-0184000D01*
X0840000D01*
Y-0183000D01*
X0837000D01*
Y-0182000D01*
X0833000D01*
Y-0181000D01*
X0820000D01*
G37*
G36*
X0523000Y-0874000D02*
Y-0875000D01*
X0519000D01*
Y-0876000D01*
X0516000D01*
Y-0877000D01*
X0514000D01*
Y-0878000D01*
X0512000D01*
Y-0879000D01*
X0510000D01*
Y-0880000D01*
X0509000D01*
Y-0881000D01*
X0507000D01*
Y-0882000D01*
X0506000D01*
Y-0883000D01*
X0505000D01*
Y-0884000D01*
X0504000D01*
Y-0885000D01*
X0503000D01*
Y-0886000D01*
X0502000D01*
Y-0887000D01*
X0501000D01*
Y-0888000D01*
X0500000D01*
Y-0890000D01*
X0499000D01*
Y-0891000D01*
X0498000D01*
Y-0893000D01*
X0497000D01*
Y-0895000D01*
X0496000D01*
Y-0897000D01*
X0495000D01*
Y-0900000D01*
X0494000D01*
Y-0904000D01*
X0493000D01*
Y-0917000D01*
X0494000D01*
Y-0921000D01*
X0495000D01*
Y-0924000D01*
X0496000D01*
Y-0926000D01*
X0497000D01*
Y-0928000D01*
X0498000D01*
Y-0930000D01*
X0499000D01*
Y-0931000D01*
X0500000D01*
Y-0933000D01*
X0501000D01*
Y-0934000D01*
X0502000D01*
Y-0935000D01*
X0503000D01*
Y-0936000D01*
X0504000D01*
Y-0937000D01*
X0505000D01*
Y-0938000D01*
X0506000D01*
Y-0939000D01*
X0507000D01*
Y-0940000D01*
X0509000D01*
Y-0941000D01*
X0510000D01*
Y-0942000D01*
X0512000D01*
Y-0943000D01*
X0514000D01*
Y-0944000D01*
X0516000D01*
Y-0945000D01*
X0519000D01*
Y-0946000D01*
X0523000D01*
Y-0947000D01*
X0536000D01*
Y-0946000D01*
X0540000D01*
Y-0945000D01*
X0543000D01*
Y-0944000D01*
X0545000D01*
Y-0943000D01*
X0547000D01*
Y-0942000D01*
X0549000D01*
Y-0941000D01*
X0550000D01*
Y-0940000D01*
X0552000D01*
Y-0939000D01*
X0553000D01*
Y-0938000D01*
X0554000D01*
Y-0937000D01*
X0555000D01*
Y-0936000D01*
X0556000D01*
Y-0935000D01*
X0557000D01*
Y-0934000D01*
X0558000D01*
Y-0933000D01*
X0559000D01*
Y-0931000D01*
X0560000D01*
Y-0930000D01*
X0561000D01*
Y-0929000D01*
X0562000D01*
Y-0927000D01*
X0563000D01*
Y-0926000D01*
X0564000D01*
Y-0924000D01*
X0565000D01*
Y-0921000D01*
X0566000D01*
Y-0918000D01*
X0567000D01*
Y-0902000D01*
X0566000D01*
Y-0899000D01*
X0565000D01*
Y-0897000D01*
X0564000D01*
Y-0895000D01*
X0563000D01*
Y-0893000D01*
X0562000D01*
Y-0892000D01*
X0561000D01*
Y-0891000D01*
X0560000D01*
Y-0889000D01*
X0559000D01*
Y-0888000D01*
X0558000D01*
Y-0887000D01*
X0557000D01*
Y-0886000D01*
X0556000D01*
Y-0885000D01*
X0555000D01*
Y-0884000D01*
X0554000D01*
Y-0883000D01*
X0553000D01*
Y-0882000D01*
X0552000D01*
Y-0881000D01*
X0550000D01*
Y-0880000D01*
X0549000D01*
Y-0879000D01*
X0547000D01*
Y-0878000D01*
X0545000D01*
Y-0877000D01*
X0543000D01*
Y-0876000D01*
X0540000D01*
Y-0875000D01*
X0536000D01*
Y-0874000D01*
X0523000D01*
G37*
G36*
X0723000D02*
Y-0875000D01*
X0719000D01*
Y-0876000D01*
X0716000D01*
Y-0877000D01*
X0714000D01*
Y-0878000D01*
X0712000D01*
Y-0879000D01*
X0710000D01*
Y-0880000D01*
X0709000D01*
Y-0881000D01*
X0707000D01*
Y-0882000D01*
X0706000D01*
Y-0883000D01*
X0705000D01*
Y-0884000D01*
X0704000D01*
Y-0885000D01*
X0703000D01*
Y-0886000D01*
X0702000D01*
Y-0887000D01*
X0701000D01*
Y-0888000D01*
X0700000D01*
Y-0890000D01*
X0699000D01*
Y-0891000D01*
X0698000D01*
Y-0893000D01*
X0697000D01*
Y-0895000D01*
X0696000D01*
Y-0897000D01*
X0695000D01*
Y-0900000D01*
X0694000D01*
Y-0904000D01*
X0693000D01*
Y-0917000D01*
X0694000D01*
Y-0921000D01*
X0695000D01*
Y-0924000D01*
X0696000D01*
Y-0926000D01*
X0697000D01*
Y-0928000D01*
X0698000D01*
Y-0930000D01*
X0699000D01*
Y-0931000D01*
X0700000D01*
Y-0933000D01*
X0701000D01*
Y-0934000D01*
X0702000D01*
Y-0935000D01*
X0703000D01*
Y-0936000D01*
X0704000D01*
Y-0937000D01*
X0705000D01*
Y-0938000D01*
X0706000D01*
Y-0939000D01*
X0707000D01*
Y-0940000D01*
X0709000D01*
Y-0941000D01*
X0710000D01*
Y-0942000D01*
X0712000D01*
Y-0943000D01*
X0714000D01*
Y-0944000D01*
X0716000D01*
Y-0945000D01*
X0719000D01*
Y-0946000D01*
X0723000D01*
Y-0947000D01*
X0736000D01*
Y-0946000D01*
X0740000D01*
Y-0945000D01*
X0743000D01*
Y-0944000D01*
X0745000D01*
Y-0943000D01*
X0747000D01*
Y-0942000D01*
X0749000D01*
Y-0941000D01*
X0750000D01*
Y-0940000D01*
X0752000D01*
Y-0939000D01*
X0753000D01*
Y-0938000D01*
X0754000D01*
Y-0937000D01*
X0755000D01*
Y-0936000D01*
X0756000D01*
Y-0935000D01*
X0757000D01*
Y-0934000D01*
X0758000D01*
Y-0933000D01*
X0759000D01*
Y-0931000D01*
X0760000D01*
Y-0930000D01*
X0761000D01*
Y-0928000D01*
X0762000D01*
Y-0926000D01*
X0763000D01*
Y-0924000D01*
X0764000D01*
Y-0921000D01*
X0765000D01*
Y-0917000D01*
X0766000D01*
Y-0904000D01*
X0765000D01*
Y-0900000D01*
X0764000D01*
Y-0897000D01*
X0763000D01*
Y-0895000D01*
X0762000D01*
Y-0893000D01*
X0761000D01*
Y-0891000D01*
X0760000D01*
Y-0890000D01*
X0759000D01*
Y-0888000D01*
X0758000D01*
Y-0887000D01*
X0757000D01*
Y-0886000D01*
X0756000D01*
Y-0885000D01*
X0755000D01*
Y-0884000D01*
X0754000D01*
Y-0883000D01*
X0753000D01*
Y-0882000D01*
X0752000D01*
Y-0881000D01*
X0750000D01*
Y-0880000D01*
X0749000D01*
Y-0879000D01*
X0747000D01*
Y-0878000D01*
X0745000D01*
Y-0877000D01*
X0743000D01*
Y-0876000D01*
X0740000D01*
Y-0875000D01*
X0736000D01*
Y-0874000D01*
X0723000D01*
G37*
G36*
X0620000Y-0181000D02*
Y-0182000D01*
X0616000D01*
Y-0183000D01*
X0613000D01*
Y-0184000D01*
X0611000D01*
Y-0185000D01*
X0609000D01*
Y-0186000D01*
X0607000D01*
Y-0187000D01*
X0606000D01*
Y-0188000D01*
X0604000D01*
Y-0189000D01*
X0603000D01*
Y-0190000D01*
X0602000D01*
Y-0191000D01*
X0601000D01*
Y-0192000D01*
X0600000D01*
Y-0193000D01*
X0599000D01*
Y-0194000D01*
X0598000D01*
Y-0195000D01*
X0597000D01*
Y-0197000D01*
X0596000D01*
Y-0198000D01*
X0595000D01*
Y-0200000D01*
X0594000D01*
Y-0202000D01*
X0593000D01*
Y-0204000D01*
X0592000D01*
Y-0207000D01*
X0591000D01*
Y-0211000D01*
X0590000D01*
Y-0224000D01*
X0591000D01*
Y-0228000D01*
X0592000D01*
Y-0231000D01*
X0593000D01*
Y-0233000D01*
X0594000D01*
Y-0235000D01*
X0595000D01*
Y-0237000D01*
X0596000D01*
Y-0238000D01*
X0597000D01*
Y-0240000D01*
X0598000D01*
Y-0241000D01*
X0599000D01*
Y-0242000D01*
X0600000D01*
Y-0243000D01*
X0601000D01*
Y-0244000D01*
X0602000D01*
Y-0245000D01*
X0603000D01*
Y-0246000D01*
X0604000D01*
Y-0247000D01*
X0606000D01*
Y-0248000D01*
X0607000D01*
Y-0249000D01*
X0609000D01*
Y-0250000D01*
X0611000D01*
Y-0251000D01*
X0613000D01*
Y-0252000D01*
X0616000D01*
Y-0253000D01*
X0620000D01*
Y-0254000D01*
X0633000D01*
Y-0253000D01*
X0637000D01*
Y-0252000D01*
X0640000D01*
Y-0251000D01*
X0642000D01*
Y-0250000D01*
X0644000D01*
Y-0249000D01*
X0646000D01*
Y-0248000D01*
X0647000D01*
Y-0247000D01*
X0649000D01*
Y-0246000D01*
X0650000D01*
Y-0245000D01*
X0651000D01*
Y-0244000D01*
X0652000D01*
Y-0243000D01*
X0653000D01*
Y-0242000D01*
X0654000D01*
Y-0241000D01*
X0655000D01*
Y-0240000D01*
X0656000D01*
Y-0238000D01*
X0657000D01*
Y-0237000D01*
X0658000D01*
Y-0236000D01*
X0659000D01*
Y-0234000D01*
X0660000D01*
Y-0233000D01*
X0661000D01*
Y-0231000D01*
X0662000D01*
Y-0228000D01*
X0663000D01*
Y-0225000D01*
X0664000D01*
Y-0209000D01*
X0663000D01*
Y-0206000D01*
X0662000D01*
Y-0204000D01*
X0661000D01*
Y-0202000D01*
X0660000D01*
Y-0200000D01*
X0659000D01*
Y-0199000D01*
X0658000D01*
Y-0198000D01*
X0657000D01*
Y-0196000D01*
X0656000D01*
Y-0195000D01*
X0655000D01*
Y-0194000D01*
X0654000D01*
Y-0193000D01*
X0653000D01*
Y-0192000D01*
X0652000D01*
Y-0191000D01*
X0651000D01*
Y-0190000D01*
X0650000D01*
Y-0189000D01*
X0649000D01*
Y-0188000D01*
X0647000D01*
Y-0187000D01*
X0646000D01*
Y-0186000D01*
X0644000D01*
Y-0185000D01*
X0642000D01*
Y-0184000D01*
X0640000D01*
Y-0183000D01*
X0637000D01*
Y-0182000D01*
X0633000D01*
Y-0181000D01*
X0620000D01*
G37*
G36*
X0223000Y-0874000D02*
Y-0875000D01*
X0219000D01*
Y-0876000D01*
X0216000D01*
Y-0877000D01*
X0214000D01*
Y-0878000D01*
X0212000D01*
Y-0879000D01*
X0210000D01*
Y-0880000D01*
X0209000D01*
Y-0881000D01*
X0207000D01*
Y-0882000D01*
X0206000D01*
Y-0883000D01*
X0205000D01*
Y-0884000D01*
X0204000D01*
Y-0885000D01*
X0203000D01*
Y-0886000D01*
X0202000D01*
Y-0887000D01*
X0201000D01*
Y-0888000D01*
X0200000D01*
Y-0890000D01*
X0199000D01*
Y-0891000D01*
X0198000D01*
Y-0893000D01*
X0197000D01*
Y-0895000D01*
X0196000D01*
Y-0897000D01*
X0195000D01*
Y-0900000D01*
X0194000D01*
Y-0904000D01*
X0193000D01*
Y-0917000D01*
X0194000D01*
Y-0921000D01*
X0195000D01*
Y-0924000D01*
X0196000D01*
Y-0926000D01*
X0197000D01*
Y-0928000D01*
X0198000D01*
Y-0930000D01*
X0199000D01*
Y-0931000D01*
X0200000D01*
Y-0933000D01*
X0201000D01*
Y-0934000D01*
X0202000D01*
Y-0935000D01*
X0203000D01*
Y-0936000D01*
X0204000D01*
Y-0937000D01*
X0205000D01*
Y-0938000D01*
X0206000D01*
Y-0939000D01*
X0207000D01*
Y-0940000D01*
X0209000D01*
Y-0941000D01*
X0210000D01*
Y-0942000D01*
X0212000D01*
Y-0943000D01*
X0214000D01*
Y-0944000D01*
X0216000D01*
Y-0945000D01*
X0219000D01*
Y-0946000D01*
X0223000D01*
Y-0947000D01*
X0236000D01*
Y-0946000D01*
X0240000D01*
Y-0945000D01*
X0243000D01*
Y-0944000D01*
X0245000D01*
Y-0943000D01*
X0247000D01*
Y-0942000D01*
X0249000D01*
Y-0941000D01*
X0250000D01*
Y-0940000D01*
X0252000D01*
Y-0939000D01*
X0253000D01*
Y-0938000D01*
X0254000D01*
Y-0937000D01*
X0255000D01*
Y-0936000D01*
X0256000D01*
Y-0935000D01*
X0257000D01*
Y-0934000D01*
X0258000D01*
Y-0933000D01*
X0259000D01*
Y-0931000D01*
X0260000D01*
Y-0930000D01*
X0261000D01*
Y-0928000D01*
X0262000D01*
Y-0926000D01*
X0263000D01*
Y-0924000D01*
X0264000D01*
Y-0921000D01*
X0265000D01*
Y-0917000D01*
X0266000D01*
Y-0904000D01*
X0265000D01*
Y-0900000D01*
X0264000D01*
Y-0897000D01*
X0263000D01*
Y-0895000D01*
X0262000D01*
Y-0893000D01*
X0261000D01*
Y-0891000D01*
X0260000D01*
Y-0890000D01*
X0259000D01*
Y-0888000D01*
X0258000D01*
Y-0887000D01*
X0257000D01*
Y-0886000D01*
X0256000D01*
Y-0885000D01*
X0255000D01*
Y-0884000D01*
X0254000D01*
Y-0883000D01*
X0253000D01*
Y-0882000D01*
X0252000D01*
Y-0881000D01*
X0250000D01*
Y-0880000D01*
X0249000D01*
Y-0879000D01*
X0247000D01*
Y-0878000D01*
X0245000D01*
Y-0877000D01*
X0243000D01*
Y-0876000D01*
X0240000D01*
Y-0875000D01*
X0236000D01*
Y-0874000D01*
X0223000D01*
G37*
G36*
X1100000Y-0564000D02*
Y-0565000D01*
X1094999D01*
Y-0566000D01*
X1092000D01*
Y-0567000D01*
X1088999D01*
Y-0568000D01*
X1086999D01*
Y-0569000D01*
X1084999D01*
Y-0570000D01*
X1082999D01*
Y-0571000D01*
X1080999D01*
Y-0572000D01*
X1080000D01*
Y-0573000D01*
X1078999D01*
Y-0574000D01*
X1076999D01*
Y-0575000D01*
X1076000D01*
Y-0576000D01*
X1074999D01*
Y-0577000D01*
X1074000D01*
Y-0578000D01*
X1072999D01*
Y-0579000D01*
X1072000D01*
Y-0580000D01*
X1070999D01*
Y-0582000D01*
X1070000D01*
Y-0583000D01*
X1068999D01*
Y-0584000D01*
X1068000D01*
Y-0586000D01*
X1066999D01*
Y-0588000D01*
X1066000D01*
Y-0590000D01*
X1064999D01*
Y-0592000D01*
X1064000D01*
Y-0595000D01*
X1062999D01*
Y-0598000D01*
X1062000D01*
Y-0603000D01*
X1060999D01*
Y-0616000D01*
X1062000D01*
Y-0621000D01*
X1062999D01*
Y-0624000D01*
X1064000D01*
Y-0627000D01*
X1064999D01*
Y-0629000D01*
X1066000D01*
Y-0631000D01*
X1066999D01*
Y-0633000D01*
X1068000D01*
Y-0635000D01*
X1068999D01*
Y-0636000D01*
X1070000D01*
Y-0637000D01*
X1070999D01*
Y-0639000D01*
X1072000D01*
Y-0640000D01*
X1072999D01*
Y-0641000D01*
X1074000D01*
Y-0642000D01*
X1074999D01*
Y-0643000D01*
X1076000D01*
Y-0644000D01*
X1076999D01*
Y-0645000D01*
X1078999D01*
Y-0646000D01*
X1080000D01*
Y-0647000D01*
X1080999D01*
Y-0648000D01*
X1082999D01*
Y-0649000D01*
X1084999D01*
Y-0650000D01*
X1086999D01*
Y-0651000D01*
X1088999D01*
Y-0652000D01*
X1092000D01*
Y-0653000D01*
X1094999D01*
Y-0654000D01*
X1100000D01*
Y-0655000D01*
X1112999D01*
Y-0654000D01*
X1118000D01*
Y-0653000D01*
X1121000D01*
Y-0652000D01*
X1124000D01*
Y-0651000D01*
X1126000D01*
Y-0650000D01*
X1128000D01*
Y-0649000D01*
X1130000D01*
Y-0648000D01*
X1132000D01*
Y-0647000D01*
X1133000D01*
Y-0646000D01*
X1134000D01*
Y-0645000D01*
X1136000D01*
Y-0644000D01*
X1137000D01*
Y-0643000D01*
X1138000D01*
Y-0642000D01*
X1139000D01*
Y-0641000D01*
X1140000D01*
Y-0640000D01*
X1141000D01*
Y-0639000D01*
X1142000D01*
Y-0637000D01*
X1143000D01*
Y-0636000D01*
X1144000D01*
Y-0635000D01*
X1145000D01*
Y-0633000D01*
X1146000D01*
Y-0631000D01*
X1147000D01*
Y-0629000D01*
X1148000D01*
Y-0627000D01*
X1149000D01*
Y-0624000D01*
X1150000D01*
Y-0621000D01*
X1151000D01*
Y-0616000D01*
X1152000D01*
Y-0603000D01*
X1151000D01*
Y-0598000D01*
X1150000D01*
Y-0595000D01*
X1149000D01*
Y-0592000D01*
X1148000D01*
Y-0590000D01*
X1147000D01*
Y-0588000D01*
X1146000D01*
Y-0586000D01*
X1145000D01*
Y-0584000D01*
X1144000D01*
Y-0583000D01*
X1143000D01*
Y-0582000D01*
X1142000D01*
Y-0580000D01*
X1141000D01*
Y-0579000D01*
X1140000D01*
Y-0578000D01*
X1139000D01*
Y-0577000D01*
X1138000D01*
Y-0576000D01*
X1137000D01*
Y-0575000D01*
X1136000D01*
Y-0574000D01*
X1134000D01*
Y-0573000D01*
X1133000D01*
Y-0572000D01*
X1132000D01*
Y-0571000D01*
X1130000D01*
Y-0570000D01*
X1128000D01*
Y-0569000D01*
X1126000D01*
Y-0568000D01*
X1124000D01*
Y-0567000D01*
X1121000D01*
Y-0566000D01*
X1118000D01*
Y-0565000D01*
X1112999D01*
Y-0564000D01*
X1100000D01*
G37*
G36*
X0623000Y-0874000D02*
Y-0875000D01*
X0619000D01*
Y-0876000D01*
X0616000D01*
Y-0877000D01*
X0614000D01*
Y-0878000D01*
X0612000D01*
Y-0879000D01*
X0610000D01*
Y-0880000D01*
X0609000D01*
Y-0881000D01*
X0607000D01*
Y-0882000D01*
X0606000D01*
Y-0883000D01*
X0605000D01*
Y-0884000D01*
X0604000D01*
Y-0885000D01*
X0603000D01*
Y-0886000D01*
X0602000D01*
Y-0887000D01*
X0601000D01*
Y-0888000D01*
X0600000D01*
Y-0890000D01*
X0599000D01*
Y-0891000D01*
X0598000D01*
Y-0893000D01*
X0597000D01*
Y-0895000D01*
X0596000D01*
Y-0897000D01*
X0595000D01*
Y-0900000D01*
X0594000D01*
Y-0904000D01*
X0593000D01*
Y-0917000D01*
X0594000D01*
Y-0921000D01*
X0595000D01*
Y-0924000D01*
X0596000D01*
Y-0926000D01*
X0597000D01*
Y-0928000D01*
X0598000D01*
Y-0930000D01*
X0599000D01*
Y-0931000D01*
X0600000D01*
Y-0933000D01*
X0601000D01*
Y-0934000D01*
X0602000D01*
Y-0935000D01*
X0603000D01*
Y-0936000D01*
X0604000D01*
Y-0937000D01*
X0605000D01*
Y-0938000D01*
X0606000D01*
Y-0939000D01*
X0607000D01*
Y-0940000D01*
X0609000D01*
Y-0941000D01*
X0610000D01*
Y-0942000D01*
X0612000D01*
Y-0943000D01*
X0614000D01*
Y-0944000D01*
X0616000D01*
Y-0945000D01*
X0619000D01*
Y-0946000D01*
X0623000D01*
Y-0947000D01*
X0636000D01*
Y-0946000D01*
X0640000D01*
Y-0945000D01*
X0643000D01*
Y-0944000D01*
X0645000D01*
Y-0943000D01*
X0647000D01*
Y-0942000D01*
X0649000D01*
Y-0941000D01*
X0650000D01*
Y-0940000D01*
X0652000D01*
Y-0939000D01*
X0653000D01*
Y-0938000D01*
X0654000D01*
Y-0937000D01*
X0655000D01*
Y-0936000D01*
X0656000D01*
Y-0935000D01*
X0657000D01*
Y-0934000D01*
X0658000D01*
Y-0933000D01*
X0659000D01*
Y-0931000D01*
X0660000D01*
Y-0930000D01*
X0661000D01*
Y-0928000D01*
X0662000D01*
Y-0926000D01*
X0663000D01*
Y-0924000D01*
X0664000D01*
Y-0921000D01*
X0665000D01*
Y-0917000D01*
X0666000D01*
Y-0904000D01*
X0665000D01*
Y-0900000D01*
X0664000D01*
Y-0897000D01*
X0663000D01*
Y-0895000D01*
X0662000D01*
Y-0893000D01*
X0661000D01*
Y-0891000D01*
X0660000D01*
Y-0890000D01*
X0659000D01*
Y-0888000D01*
X0658000D01*
Y-0887000D01*
X0657000D01*
Y-0886000D01*
X0656000D01*
Y-0885000D01*
X0655000D01*
Y-0884000D01*
X0654000D01*
Y-0883000D01*
X0653000D01*
Y-0882000D01*
X0652000D01*
Y-0881000D01*
X0650000D01*
Y-0880000D01*
X0649000D01*
Y-0879000D01*
X0647000D01*
Y-0878000D01*
X0645000D01*
Y-0877000D01*
X0643000D01*
Y-0876000D01*
X0640000D01*
Y-0875000D01*
X0636000D01*
Y-0874000D01*
X0623000D01*
G37*
G36*
X0720000Y-0181000D02*
Y-0182000D01*
X0716000D01*
Y-0183000D01*
X0713000D01*
Y-0184000D01*
X0711000D01*
Y-0185000D01*
X0709000D01*
Y-0186000D01*
X0707000D01*
Y-0187000D01*
X0706000D01*
Y-0188000D01*
X0704000D01*
Y-0189000D01*
X0703000D01*
Y-0190000D01*
X0702000D01*
Y-0191000D01*
X0701000D01*
Y-0192000D01*
X0700000D01*
Y-0193000D01*
X0699000D01*
Y-0194000D01*
X0698000D01*
Y-0195000D01*
X0697000D01*
Y-0197000D01*
X0696000D01*
Y-0198000D01*
X0695000D01*
Y-0200000D01*
X0694000D01*
Y-0202000D01*
X0693000D01*
Y-0204000D01*
X0692000D01*
Y-0207000D01*
X0691000D01*
Y-0211000D01*
X0690000D01*
Y-0224000D01*
X0691000D01*
Y-0228000D01*
X0692000D01*
Y-0231000D01*
X0693000D01*
Y-0233000D01*
X0694000D01*
Y-0235000D01*
X0695000D01*
Y-0237000D01*
X0696000D01*
Y-0238000D01*
X0697000D01*
Y-0240000D01*
X0698000D01*
Y-0241000D01*
X0699000D01*
Y-0242000D01*
X0700000D01*
Y-0243000D01*
X0701000D01*
Y-0244000D01*
X0702000D01*
Y-0245000D01*
X0703000D01*
Y-0246000D01*
X0704000D01*
Y-0247000D01*
X0706000D01*
Y-0248000D01*
X0707000D01*
Y-0249000D01*
X0709000D01*
Y-0250000D01*
X0711000D01*
Y-0251000D01*
X0713000D01*
Y-0252000D01*
X0716000D01*
Y-0253000D01*
X0720000D01*
Y-0254000D01*
X0733000D01*
Y-0253000D01*
X0737000D01*
Y-0252000D01*
X0740000D01*
Y-0251000D01*
X0742000D01*
Y-0250000D01*
X0744000D01*
Y-0249000D01*
X0746000D01*
Y-0248000D01*
X0747000D01*
Y-0247000D01*
X0749000D01*
Y-0246000D01*
X0750000D01*
Y-0245000D01*
X0751000D01*
Y-0244000D01*
X0752000D01*
Y-0243000D01*
X0753000D01*
Y-0242000D01*
X0754000D01*
Y-0241000D01*
X0755000D01*
Y-0240000D01*
X0756000D01*
Y-0238000D01*
X0757000D01*
Y-0237000D01*
X0758000D01*
Y-0236000D01*
X0759000D01*
Y-0234000D01*
X0760000D01*
Y-0233000D01*
X0761000D01*
Y-0231000D01*
X0762000D01*
Y-0228000D01*
X0763000D01*
Y-0225000D01*
X0764000D01*
Y-0209000D01*
X0763000D01*
Y-0206000D01*
X0762000D01*
Y-0204000D01*
X0761000D01*
Y-0202000D01*
X0760000D01*
Y-0200000D01*
X0759000D01*
Y-0199000D01*
X0758000D01*
Y-0198000D01*
X0757000D01*
Y-0196000D01*
X0756000D01*
Y-0195000D01*
X0755000D01*
Y-0194000D01*
X0754000D01*
Y-0193000D01*
X0753000D01*
Y-0192000D01*
X0752000D01*
Y-0191000D01*
X0751000D01*
Y-0190000D01*
X0750000D01*
Y-0189000D01*
X0749000D01*
Y-0188000D01*
X0747000D01*
Y-0187000D01*
X0746000D01*
Y-0186000D01*
X0744000D01*
Y-0185000D01*
X0742000D01*
Y-0184000D01*
X0740000D01*
Y-0183000D01*
X0737000D01*
Y-0182000D01*
X0733000D01*
Y-0181000D01*
X0720000D01*
G37*
G36*
X0582000Y-1133000D02*
Y-1134000D01*
X0578000D01*
Y-1135000D01*
X0575000D01*
Y-1136000D01*
X0573000D01*
Y-1137000D01*
X0571000D01*
Y-1138000D01*
X0569000D01*
Y-1139000D01*
X0567000D01*
Y-1140000D01*
X0566000D01*
Y-1141000D01*
X0565000D01*
Y-1142000D01*
X0564000D01*
Y-1143000D01*
X0562000D01*
Y-1144000D01*
X0561000D01*
Y-1146000D01*
X0560000D01*
Y-1147000D01*
X0559000D01*
Y-1148000D01*
X0558000D01*
Y-1149000D01*
X0557000D01*
Y-1151000D01*
X0556000D01*
Y-1153000D01*
X0555000D01*
Y-1155000D01*
X0554000D01*
Y-1157000D01*
X0553000D01*
Y-1159999D01*
X0552000D01*
Y-1163999D01*
X0551000D01*
Y-1177000D01*
X0552000D01*
Y-1181000D01*
X0553000D01*
Y-1183999D01*
X0554000D01*
Y-1185999D01*
X0555000D01*
Y-1187999D01*
X0556000D01*
Y-1189999D01*
X0557000D01*
Y-1191999D01*
X0558000D01*
Y-1193000D01*
X0559000D01*
Y-1193999D01*
X0560000D01*
Y-1195000D01*
X0561000D01*
Y-1197000D01*
X0562000D01*
Y-1197999D01*
X0564000D01*
Y-1199000D01*
X0565000D01*
Y-1199999D01*
X0566000D01*
Y-1201000D01*
X0567000D01*
Y-1201999D01*
X0569000D01*
Y-1203000D01*
X0571000D01*
Y-1203999D01*
X0573000D01*
Y-1205000D01*
X0575000D01*
Y-1205999D01*
X0578000D01*
Y-1207000D01*
X0582000D01*
Y-1207999D01*
X0595000D01*
Y-1207000D01*
X0599000D01*
Y-1205999D01*
X0602000D01*
Y-1205000D01*
X0604000D01*
Y-1203999D01*
X0606000D01*
Y-1203000D01*
X0608000D01*
Y-1201999D01*
X0610000D01*
Y-1201000D01*
X0611000D01*
Y-1199999D01*
X0612000D01*
Y-1199000D01*
X0613000D01*
Y-1197999D01*
X0615000D01*
Y-1197000D01*
X0616000D01*
Y-1195000D01*
X0617000D01*
Y-1193999D01*
X0618000D01*
Y-1193000D01*
X0619000D01*
Y-1191999D01*
X0620000D01*
Y-1189999D01*
X0621000D01*
Y-1187999D01*
X0622000D01*
Y-1185999D01*
X0623000D01*
Y-1183999D01*
X0624000D01*
Y-1181000D01*
X0625000D01*
Y-1177000D01*
X0626000D01*
Y-1163999D01*
X0625000D01*
Y-1159999D01*
X0624000D01*
Y-1157000D01*
X0623000D01*
Y-1155000D01*
X0622000D01*
Y-1153000D01*
X0621000D01*
Y-1151000D01*
X0620000D01*
Y-1149000D01*
X0619000D01*
Y-1148000D01*
X0618000D01*
Y-1147000D01*
X0617000D01*
Y-1146000D01*
X0616000D01*
Y-1144000D01*
X0615000D01*
Y-1143000D01*
X0613000D01*
Y-1142000D01*
X0612000D01*
Y-1141000D01*
X0611000D01*
Y-1140000D01*
X0610000D01*
Y-1139000D01*
X0608000D01*
Y-1138000D01*
X0606000D01*
Y-1137000D01*
X0604000D01*
Y-1136000D01*
X0602000D01*
Y-1135000D01*
X0599000D01*
Y-1134000D01*
X0595000D01*
Y-1133000D01*
X0582000D01*
G37*
G36*
X0558000Y-0567000D02*
Y-0670000D01*
X0625000D01*
Y-0567000D01*
X0558000D01*
G37*
G36*
X0314000Y-0564000D02*
Y-0565000D01*
X0309000D01*
Y-0566000D01*
X0306000D01*
Y-0567000D01*
X0303000D01*
Y-0568000D01*
X0301000D01*
Y-0569000D01*
X0299000D01*
Y-0570000D01*
X0297000D01*
Y-0571000D01*
X0295000D01*
Y-0572000D01*
X0294000D01*
Y-0573000D01*
X0293000D01*
Y-0574000D01*
X0291000D01*
Y-0575000D01*
X0290000D01*
Y-0576000D01*
X0289000D01*
Y-0577000D01*
X0288000D01*
Y-0578000D01*
X0287000D01*
Y-0579000D01*
X0286000D01*
Y-0580000D01*
X0285000D01*
Y-0582000D01*
X0284000D01*
Y-0583000D01*
X0283000D01*
Y-0584000D01*
X0282000D01*
Y-0586000D01*
X0281000D01*
Y-0588000D01*
X0280000D01*
Y-0590000D01*
X0279000D01*
Y-0592000D01*
X0278000D01*
Y-0595000D01*
X0277000D01*
Y-0598000D01*
X0276000D01*
Y-0603000D01*
X0275000D01*
Y-0616000D01*
X0276000D01*
Y-0621000D01*
X0277000D01*
Y-0624000D01*
X0278000D01*
Y-0627000D01*
X0279000D01*
Y-0629000D01*
X0280000D01*
Y-0631000D01*
X0281000D01*
Y-0633000D01*
X0282000D01*
Y-0635000D01*
X0283000D01*
Y-0636000D01*
X0284000D01*
Y-0637000D01*
X0285000D01*
Y-0639000D01*
X0286000D01*
Y-0640000D01*
X0287000D01*
Y-0641000D01*
X0288000D01*
Y-0642000D01*
X0289000D01*
Y-0643000D01*
X0290000D01*
Y-0644000D01*
X0291000D01*
Y-0645000D01*
X0293000D01*
Y-0646000D01*
X0294000D01*
Y-0647000D01*
X0295000D01*
Y-0648000D01*
X0297000D01*
Y-0649000D01*
X0299000D01*
Y-0650000D01*
X0301000D01*
Y-0651000D01*
X0303000D01*
Y-0652000D01*
X0306000D01*
Y-0653000D01*
X0309000D01*
Y-0654000D01*
X0314000D01*
Y-0655000D01*
X0327000D01*
Y-0654000D01*
X0332000D01*
Y-0653000D01*
X0335000D01*
Y-0652000D01*
X0338000D01*
Y-0651000D01*
X0340000D01*
Y-0650000D01*
X0342000D01*
Y-0649000D01*
X0344000D01*
Y-0648000D01*
X0346000D01*
Y-0647000D01*
X0347000D01*
Y-0646000D01*
X0348000D01*
Y-0645000D01*
X0350000D01*
Y-0644000D01*
X0351000D01*
Y-0643000D01*
X0352000D01*
Y-0642000D01*
X0353000D01*
Y-0641000D01*
X0354000D01*
Y-0640000D01*
X0355000D01*
Y-0639000D01*
X0356000D01*
Y-0637000D01*
X0357000D01*
Y-0636000D01*
X0358000D01*
Y-0635000D01*
X0359000D01*
Y-0633000D01*
X0360000D01*
Y-0631000D01*
X0361000D01*
Y-0629000D01*
X0362000D01*
Y-0627000D01*
X0363000D01*
Y-0624000D01*
X0364000D01*
Y-0621000D01*
X0365000D01*
Y-0616000D01*
X0366000D01*
Y-0603000D01*
X0365000D01*
Y-0598000D01*
X0364000D01*
Y-0595000D01*
X0363000D01*
Y-0592000D01*
X0362000D01*
Y-0590000D01*
X0361000D01*
Y-0588000D01*
X0360000D01*
Y-0586000D01*
X0359000D01*
Y-0584000D01*
X0358000D01*
Y-0583000D01*
X0357000D01*
Y-0582000D01*
X0356000D01*
Y-0580000D01*
X0355000D01*
Y-0579000D01*
X0354000D01*
Y-0578000D01*
X0353000D01*
Y-0577000D01*
X0352000D01*
Y-0576000D01*
X0351000D01*
Y-0575000D01*
X0350000D01*
Y-0574000D01*
X0348000D01*
Y-0573000D01*
X0347000D01*
Y-0572000D01*
X0346000D01*
Y-0571000D01*
X0344000D01*
Y-0570000D01*
X0342000D01*
Y-0569000D01*
X0340000D01*
Y-0568000D01*
X0338000D01*
Y-0567000D01*
X0335000D01*
Y-0566000D01*
X0332000D01*
Y-0565000D01*
X0327000D01*
Y-0564000D01*
X0314000D01*
G37*
G36*
X0323000Y-0874000D02*
Y-0875000D01*
X0319000D01*
Y-0876000D01*
X0316000D01*
Y-0877000D01*
X0314000D01*
Y-0878000D01*
X0312000D01*
Y-0879000D01*
X0310000D01*
Y-0880000D01*
X0309000D01*
Y-0881000D01*
X0307000D01*
Y-0882000D01*
X0306000D01*
Y-0883000D01*
X0305000D01*
Y-0884000D01*
X0304000D01*
Y-0885000D01*
X0303000D01*
Y-0886000D01*
X0302000D01*
Y-0887000D01*
X0301000D01*
Y-0888000D01*
X0300000D01*
Y-0890000D01*
X0299000D01*
Y-0891000D01*
X0298000D01*
Y-0893000D01*
X0297000D01*
Y-0895000D01*
X0296000D01*
Y-0897000D01*
X0295000D01*
Y-0900000D01*
X0294000D01*
Y-0904000D01*
X0293000D01*
Y-0917000D01*
X0294000D01*
Y-0921000D01*
X0295000D01*
Y-0924000D01*
X0296000D01*
Y-0926000D01*
X0297000D01*
Y-0928000D01*
X0298000D01*
Y-0930000D01*
X0299000D01*
Y-0931000D01*
X0300000D01*
Y-0933000D01*
X0301000D01*
Y-0934000D01*
X0302000D01*
Y-0935000D01*
X0303000D01*
Y-0936000D01*
X0304000D01*
Y-0937000D01*
X0305000D01*
Y-0938000D01*
X0306000D01*
Y-0939000D01*
X0307000D01*
Y-0940000D01*
X0309000D01*
Y-0941000D01*
X0310000D01*
Y-0942000D01*
X0312000D01*
Y-0943000D01*
X0314000D01*
Y-0944000D01*
X0316000D01*
Y-0945000D01*
X0319000D01*
Y-0946000D01*
X0323000D01*
Y-0947000D01*
X0336000D01*
Y-0946000D01*
X0340000D01*
Y-0945000D01*
X0343000D01*
Y-0944000D01*
X0345000D01*
Y-0943000D01*
X0347000D01*
Y-0942000D01*
X0349000D01*
Y-0941000D01*
X0350000D01*
Y-0940000D01*
X0352000D01*
Y-0939000D01*
X0353000D01*
Y-0938000D01*
X0354000D01*
Y-0937000D01*
X0355000D01*
Y-0936000D01*
X0356000D01*
Y-0935000D01*
X0357000D01*
Y-0934000D01*
X0358000D01*
Y-0933000D01*
X0359000D01*
Y-0931000D01*
X0360000D01*
Y-0930000D01*
X0361000D01*
Y-0928000D01*
X0362000D01*
Y-0926000D01*
X0363000D01*
Y-0924000D01*
X0364000D01*
Y-0921000D01*
X0365000D01*
Y-0917000D01*
X0366000D01*
Y-0904000D01*
X0365000D01*
Y-0900000D01*
X0364000D01*
Y-0897000D01*
X0363000D01*
Y-0895000D01*
X0362000D01*
Y-0893000D01*
X0361000D01*
Y-0891000D01*
X0360000D01*
Y-0890000D01*
X0359000D01*
Y-0888000D01*
X0358000D01*
Y-0887000D01*
X0357000D01*
Y-0886000D01*
X0356000D01*
Y-0885000D01*
X0355000D01*
Y-0884000D01*
X0354000D01*
Y-0883000D01*
X0353000D01*
Y-0882000D01*
X0352000D01*
Y-0881000D01*
X0350000D01*
Y-0880000D01*
X0349000D01*
Y-0879000D01*
X0347000D01*
Y-0878000D01*
X0345000D01*
Y-0877000D01*
X0343000D01*
Y-0876000D01*
X0340000D01*
Y-0875000D01*
X0336000D01*
Y-0874000D01*
X0323000D01*
G37*
G36*
X0423000D02*
Y-0875000D01*
X0419000D01*
Y-0876000D01*
X0416000D01*
Y-0877000D01*
X0414000D01*
Y-0878000D01*
X0412000D01*
Y-0879000D01*
X0410000D01*
Y-0880000D01*
X0409000D01*
Y-0881000D01*
X0407000D01*
Y-0882000D01*
X0406000D01*
Y-0883000D01*
X0405000D01*
Y-0884000D01*
X0404000D01*
Y-0885000D01*
X0403000D01*
Y-0886000D01*
X0402000D01*
Y-0887000D01*
X0401000D01*
Y-0888000D01*
X0400000D01*
Y-0890000D01*
X0399000D01*
Y-0891000D01*
X0398000D01*
Y-0893000D01*
X0397000D01*
Y-0895000D01*
X0396000D01*
Y-0897000D01*
X0395000D01*
Y-0900000D01*
X0394000D01*
Y-0904000D01*
X0393000D01*
Y-0917000D01*
X0394000D01*
Y-0921000D01*
X0395000D01*
Y-0924000D01*
X0396000D01*
Y-0926000D01*
X0397000D01*
Y-0928000D01*
X0398000D01*
Y-0930000D01*
X0399000D01*
Y-0931000D01*
X0400000D01*
Y-0933000D01*
X0401000D01*
Y-0934000D01*
X0402000D01*
Y-0935000D01*
X0403000D01*
Y-0936000D01*
X0404000D01*
Y-0937000D01*
X0405000D01*
Y-0938000D01*
X0406000D01*
Y-0939000D01*
X0407000D01*
Y-0940000D01*
X0409000D01*
Y-0941000D01*
X0410000D01*
Y-0942000D01*
X0412000D01*
Y-0943000D01*
X0414000D01*
Y-0944000D01*
X0416000D01*
Y-0945000D01*
X0419000D01*
Y-0946000D01*
X0423000D01*
Y-0947000D01*
X0436000D01*
Y-0946000D01*
X0440000D01*
Y-0945000D01*
X0443000D01*
Y-0944000D01*
X0445000D01*
Y-0943000D01*
X0447000D01*
Y-0942000D01*
X0449000D01*
Y-0941000D01*
X0450000D01*
Y-0940000D01*
X0452000D01*
Y-0939000D01*
X0453000D01*
Y-0938000D01*
X0454000D01*
Y-0937000D01*
X0455000D01*
Y-0936000D01*
X0456000D01*
Y-0935000D01*
X0457000D01*
Y-0934000D01*
X0458000D01*
Y-0933000D01*
X0459000D01*
Y-0931000D01*
X0460000D01*
Y-0930000D01*
X0461000D01*
Y-0929000D01*
X0462000D01*
Y-0927000D01*
X0463000D01*
Y-0926000D01*
X0464000D01*
Y-0924000D01*
X0465000D01*
Y-0921000D01*
X0466000D01*
Y-0918000D01*
X0467000D01*
Y-0902000D01*
X0466000D01*
Y-0899000D01*
X0465000D01*
Y-0897000D01*
X0464000D01*
Y-0895000D01*
X0463000D01*
Y-0893000D01*
X0462000D01*
Y-0892000D01*
X0461000D01*
Y-0891000D01*
X0460000D01*
Y-0889000D01*
X0459000D01*
Y-0888000D01*
X0458000D01*
Y-0887000D01*
X0457000D01*
Y-0886000D01*
X0456000D01*
Y-0885000D01*
X0455000D01*
Y-0884000D01*
X0454000D01*
Y-0883000D01*
X0453000D01*
Y-0882000D01*
X0452000D01*
Y-0881000D01*
X0450000D01*
Y-0880000D01*
X0449000D01*
Y-0879000D01*
X0447000D01*
Y-0878000D01*
X0445000D01*
Y-0877000D01*
X0443000D01*
Y-0876000D01*
X0440000D01*
Y-0875000D01*
X0436000D01*
Y-0874000D01*
X0423000D01*
G37*
G36*
X0759000Y-1133000D02*
Y-1134000D01*
X0755000D01*
Y-1135000D01*
X0752000D01*
Y-1136000D01*
X0750000D01*
Y-1137000D01*
X0748000D01*
Y-1138000D01*
X0746000D01*
Y-1139000D01*
X0744000D01*
Y-1140000D01*
X0743000D01*
Y-1141000D01*
X0742000D01*
Y-1142000D01*
X0741000D01*
Y-1143000D01*
X0739000D01*
Y-1144000D01*
X0738000D01*
Y-1146000D01*
X0737000D01*
Y-1147000D01*
X0736000D01*
Y-1148000D01*
X0735000D01*
Y-1149000D01*
X0734000D01*
Y-1151000D01*
X0733000D01*
Y-1153000D01*
X0732000D01*
Y-1155000D01*
X0731000D01*
Y-1157000D01*
X0730000D01*
Y-1159999D01*
X0729000D01*
Y-1163999D01*
X0728000D01*
Y-1177000D01*
X0729000D01*
Y-1181000D01*
X0730000D01*
Y-1183999D01*
X0731000D01*
Y-1185999D01*
X0732000D01*
Y-1187999D01*
X0733000D01*
Y-1189999D01*
X0734000D01*
Y-1191999D01*
X0735000D01*
Y-1193000D01*
X0736000D01*
Y-1193999D01*
X0737000D01*
Y-1195000D01*
X0738000D01*
Y-1197000D01*
X0739000D01*
Y-1197999D01*
X0741000D01*
Y-1199000D01*
X0742000D01*
Y-1199999D01*
X0743000D01*
Y-1201000D01*
X0744000D01*
Y-1201999D01*
X0746000D01*
Y-1203000D01*
X0748000D01*
Y-1203999D01*
X0750000D01*
Y-1205000D01*
X0752000D01*
Y-1205999D01*
X0755000D01*
Y-1207000D01*
X0759000D01*
Y-1207999D01*
X0772000D01*
Y-1207000D01*
X0776000D01*
Y-1205999D01*
X0779000D01*
Y-1205000D01*
X0781000D01*
Y-1203999D01*
X0783000D01*
Y-1203000D01*
X0785000D01*
Y-1201999D01*
X0787000D01*
Y-1201000D01*
X0788000D01*
Y-1199999D01*
X0789000D01*
Y-1199000D01*
X0790000D01*
Y-1197999D01*
X0792000D01*
Y-1197000D01*
X0793000D01*
Y-1195000D01*
X0794000D01*
Y-1193999D01*
X0795000D01*
Y-1193000D01*
X0796000D01*
Y-1191999D01*
X0797000D01*
Y-1189999D01*
X0798000D01*
Y-1187999D01*
X0799000D01*
Y-1185999D01*
X0800000D01*
Y-1183999D01*
X0801000D01*
Y-1181000D01*
X0802000D01*
Y-1177000D01*
X0803000D01*
Y-1163999D01*
X0802000D01*
Y-1159999D01*
X0801000D01*
Y-1157000D01*
X0800000D01*
Y-1155000D01*
X0799000D01*
Y-1153000D01*
X0798000D01*
Y-1151000D01*
X0797000D01*
Y-1149000D01*
X0796000D01*
Y-1148000D01*
X0795000D01*
Y-1147000D01*
X0794000D01*
Y-1146000D01*
X0793000D01*
Y-1144000D01*
X0792000D01*
Y-1143000D01*
X0790000D01*
Y-1142000D01*
X0789000D01*
Y-1141000D01*
X0788000D01*
Y-1140000D01*
X0787000D01*
Y-1139000D01*
X0785000D01*
Y-1138000D01*
X0783000D01*
Y-1137000D01*
X0781000D01*
Y-1136000D01*
X0779000D01*
Y-1135000D01*
X0776000D01*
Y-1134000D01*
X0772000D01*
Y-1133000D01*
X0759000D01*
G37*
G36*
X0533000Y-1028999D02*
Y-1030000D01*
X0528000D01*
Y-1030999D01*
X0525000D01*
Y-1032000D01*
X0522000D01*
Y-1032999D01*
X0520000D01*
Y-1034000D01*
X0518000D01*
Y-1034999D01*
X0517000D01*
Y-1036000D01*
X0515000D01*
Y-1036999D01*
X0514000D01*
Y-1038000D01*
X0512000D01*
Y-1038999D01*
X0511000D01*
Y-1040000D01*
X0510000D01*
Y-1040999D01*
X0509000D01*
Y-1042000D01*
X0508000D01*
Y-1042999D01*
X0507000D01*
Y-1044000D01*
X0506000D01*
Y-1044999D01*
X0505000D01*
Y-1046999D01*
X0504000D01*
Y-1048000D01*
X0503000D01*
Y-1050000D01*
X0502000D01*
Y-1050999D01*
X0501000D01*
Y-1052999D01*
X0500000D01*
Y-1054999D01*
X0499000D01*
Y-1058000D01*
X0498000D01*
Y-1060999D01*
X0497000D01*
Y-1066000D01*
X0496000D01*
Y-1078999D01*
X0497000D01*
Y-1084000D01*
X0498000D01*
Y-1086999D01*
X0499000D01*
Y-1090000D01*
X0500000D01*
Y-1092000D01*
X0501000D01*
Y-1094000D01*
X0502000D01*
Y-1094999D01*
X0503000D01*
Y-1096999D01*
X0504000D01*
Y-1098000D01*
X0505000D01*
Y-1100000D01*
X0506000D01*
Y-1100999D01*
X0507000D01*
Y-1102000D01*
X0508000D01*
Y-1102999D01*
X0509000D01*
Y-1104000D01*
X0510000D01*
Y-1104999D01*
X0511000D01*
Y-1106000D01*
X0512000D01*
Y-1106999D01*
X0514000D01*
Y-1108000D01*
X0515000D01*
Y-1108999D01*
X0517000D01*
Y-1110000D01*
X0518000D01*
Y-1110999D01*
X0520000D01*
Y-1112000D01*
X0522000D01*
Y-1112999D01*
X0525000D01*
Y-1114000D01*
X0528000D01*
Y-1114999D01*
X0533000D01*
Y-1116000D01*
X0546000D01*
Y-1114999D01*
X0551000D01*
Y-1114000D01*
X0554000D01*
Y-1112999D01*
X0557000D01*
Y-1112000D01*
X0559000D01*
Y-1110999D01*
X0561000D01*
Y-1110000D01*
X0562000D01*
Y-1108999D01*
X0564000D01*
Y-1108000D01*
X0565000D01*
Y-1106999D01*
X0567000D01*
Y-1106000D01*
X0568000D01*
Y-1104999D01*
X0569000D01*
Y-1104000D01*
X0570000D01*
Y-1102999D01*
X0571000D01*
Y-1102000D01*
X0572000D01*
Y-1100999D01*
X0573000D01*
Y-1100000D01*
X0574000D01*
Y-1098000D01*
X0575000D01*
Y-1096999D01*
X0576000D01*
Y-1094999D01*
X0577000D01*
Y-1094000D01*
X0578000D01*
Y-1092000D01*
X0579000D01*
Y-1090000D01*
X0580000D01*
Y-1086999D01*
X0581000D01*
Y-1084000D01*
X0582000D01*
Y-1078999D01*
X0583000D01*
Y-1066000D01*
X0582000D01*
Y-1060999D01*
X0581000D01*
Y-1058000D01*
X0580000D01*
Y-1054999D01*
X0579000D01*
Y-1052999D01*
X0578000D01*
Y-1050999D01*
X0577000D01*
Y-1050000D01*
X0576000D01*
Y-1048000D01*
X0575000D01*
Y-1046999D01*
X0574000D01*
Y-1044999D01*
X0573000D01*
Y-1044000D01*
X0572000D01*
Y-1042999D01*
X0571000D01*
Y-1042000D01*
X0570000D01*
Y-1040999D01*
X0569000D01*
Y-1040000D01*
X0568000D01*
Y-1038999D01*
X0567000D01*
Y-1038000D01*
X0565000D01*
Y-1036999D01*
X0564000D01*
Y-1036000D01*
X0562000D01*
Y-1034999D01*
X0561000D01*
Y-1034000D01*
X0559000D01*
Y-1032999D01*
X0557000D01*
Y-1032000D01*
X0554000D01*
Y-1030999D01*
X0551000D01*
Y-1030000D01*
X0546000D01*
Y-1028999D01*
X0533000D01*
G37*
G36*
X0808000D02*
Y-1030000D01*
X0803000D01*
Y-1030999D01*
X0800000D01*
Y-1032000D01*
X0797000D01*
Y-1032999D01*
X0795000D01*
Y-1034000D01*
X0793000D01*
Y-1034999D01*
X0792000D01*
Y-1036000D01*
X0790000D01*
Y-1036999D01*
X0789000D01*
Y-1038000D01*
X0787000D01*
Y-1038999D01*
X0786000D01*
Y-1040000D01*
X0785000D01*
Y-1040999D01*
X0784000D01*
Y-1042000D01*
X0783000D01*
Y-1042999D01*
X0782000D01*
Y-1044000D01*
X0781000D01*
Y-1044999D01*
X0780000D01*
Y-1046999D01*
X0779000D01*
Y-1048000D01*
X0778000D01*
Y-1050000D01*
X0777000D01*
Y-1050999D01*
X0776000D01*
Y-1052999D01*
X0775000D01*
Y-1054999D01*
X0774000D01*
Y-1058000D01*
X0773000D01*
Y-1060999D01*
X0772000D01*
Y-1066000D01*
X0771000D01*
Y-1078999D01*
X0772000D01*
Y-1084000D01*
X0773000D01*
Y-1086999D01*
X0774000D01*
Y-1090000D01*
X0775000D01*
Y-1092000D01*
X0776000D01*
Y-1094000D01*
X0777000D01*
Y-1094999D01*
X0778000D01*
Y-1096999D01*
X0779000D01*
Y-1098000D01*
X0780000D01*
Y-1100000D01*
X0781000D01*
Y-1100999D01*
X0782000D01*
Y-1102000D01*
X0783000D01*
Y-1102999D01*
X0784000D01*
Y-1104000D01*
X0785000D01*
Y-1104999D01*
X0786000D01*
Y-1106000D01*
X0787000D01*
Y-1106999D01*
X0789000D01*
Y-1108000D01*
X0790000D01*
Y-1108999D01*
X0792000D01*
Y-1110000D01*
X0793000D01*
Y-1110999D01*
X0795000D01*
Y-1112000D01*
X0797000D01*
Y-1112999D01*
X0800000D01*
Y-1114000D01*
X0803000D01*
Y-1114999D01*
X0808000D01*
Y-1116000D01*
X0821000D01*
Y-1114999D01*
X0826000D01*
Y-1114000D01*
X0829000D01*
Y-1112999D01*
X0832000D01*
Y-1112000D01*
X0834000D01*
Y-1110999D01*
X0836000D01*
Y-1110000D01*
X0837000D01*
Y-1108999D01*
X0839000D01*
Y-1108000D01*
X0840000D01*
Y-1106999D01*
X0842000D01*
Y-1106000D01*
X0843000D01*
Y-1104999D01*
X0844000D01*
Y-1104000D01*
X0845000D01*
Y-1102999D01*
X0846000D01*
Y-1102000D01*
X0847000D01*
Y-1100999D01*
X0848000D01*
Y-1100000D01*
X0849000D01*
Y-1098000D01*
X0850000D01*
Y-1096999D01*
X0851000D01*
Y-1094999D01*
X0852000D01*
Y-1094000D01*
X0853000D01*
Y-1092000D01*
X0854000D01*
Y-1090000D01*
X0855000D01*
Y-1086999D01*
X0856000D01*
Y-1084000D01*
X0857000D01*
Y-1078999D01*
X0858000D01*
Y-1066000D01*
X0857000D01*
Y-1060999D01*
X0856000D01*
Y-1058000D01*
X0855000D01*
Y-1054999D01*
X0854000D01*
Y-1052999D01*
X0853000D01*
Y-1050999D01*
X0852000D01*
Y-1050000D01*
X0851000D01*
Y-1048000D01*
X0850000D01*
Y-1046999D01*
X0849000D01*
Y-1044999D01*
X0848000D01*
Y-1044000D01*
X0847000D01*
Y-1042999D01*
X0846000D01*
Y-1042000D01*
X0845000D01*
Y-1040999D01*
X0844000D01*
Y-1040000D01*
X0843000D01*
Y-1038999D01*
X0842000D01*
Y-1038000D01*
X0840000D01*
Y-1036999D01*
X0839000D01*
Y-1036000D01*
X0837000D01*
Y-1034999D01*
X0836000D01*
Y-1034000D01*
X0834000D01*
Y-1032999D01*
X0832000D01*
Y-1032000D01*
X0829000D01*
Y-1030999D01*
X0826000D01*
Y-1030000D01*
X0821000D01*
Y-1028999D01*
X0808000D01*
G37*
M02*
