G04 Output from Chad's Board Thing.*
%FSLAX26Y26*%
%MOIN*%
%LPC*%
%ADD10C,0.026*%
D10*
X0222000Y-0027000D02*
Y-0028000D01*
X0212000D01*
Y-0029000D01*
X0204000D01*
Y-0030000D01*
X0197000D01*
Y-0031000D01*
X0188000D01*
Y-0032000D01*
X0174000D01*
Y-0031000D01*
X0165000D01*
Y-0030000D01*
X0157000D01*
Y-0029000D01*
X0148000D01*
Y-0028000D01*
X0126000D01*
Y-0029000D01*
X0119000D01*
Y-0030000D01*
X0114000D01*
Y-0031000D01*
X0110000D01*
Y-0032000D01*
X0107000D01*
Y-0033000D01*
X0104000D01*
Y-0034000D01*
X0102000D01*
Y-0035000D01*
X0099000D01*
Y-0036000D01*
X0097000D01*
Y-0037000D01*
X0095000D01*
Y-0038000D01*
X0093000D01*
Y-0039000D01*
X0091000D01*
Y-0040000D01*
X0089000D01*
Y-0041000D01*
X0088000D01*
Y-0042000D01*
X0086000D01*
Y-0043000D01*
X0085000D01*
Y-0044000D01*
X0083000D01*
Y-0045000D01*
X0082000D01*
Y-0046000D01*
X0080000D01*
Y-0047000D01*
X0079000D01*
Y-0048000D01*
X0078000D01*
Y-0049000D01*
X0077000D01*
Y-0050000D01*
X0075000D01*
Y-0051000D01*
X0074000D01*
Y-0052000D01*
X0073000D01*
Y-0053000D01*
X0072000D01*
Y-0054000D01*
X0071000D01*
Y-0055000D01*
X0070000D01*
Y-0056000D01*
X0069000D01*
Y-0057000D01*
X0068000D01*
Y-0058000D01*
X0067000D01*
Y-0059000D01*
X0066000D01*
Y-0060000D01*
X0065000D01*
Y-0062000D01*
X0064000D01*
Y-0063000D01*
X0063000D01*
Y-0064000D01*
X0062000D01*
Y-0066000D01*
X0061000D01*
Y-0068000D01*
X0060000D01*
Y-0070000D01*
X0059000D01*
Y-0072000D01*
X0058000D01*
Y-0074000D01*
X0057000D01*
Y-0076000D01*
X0056000D01*
Y-0078000D01*
X0055000D01*
Y-0081000D01*
X0054000D01*
Y-0086000D01*
X0053000D01*
Y-0093000D01*
X0052000D01*
Y-0113000D01*
X0051000D01*
Y-0234000D01*
X0330000D01*
Y-0235000D01*
X0331000D01*
Y-0236000D01*
X0333000D01*
Y-0237000D01*
X0335000D01*
Y-0238000D01*
X0336000D01*
Y-0239000D01*
X0337000D01*
Y-0240000D01*
X0339000D01*
Y-0242000D01*
X0340000D01*
Y-0244000D01*
X0341000D01*
Y-0246000D01*
X0342000D01*
Y-0247000D01*
X0343000D01*
Y-0258000D01*
X0342000D01*
Y-0260000D01*
X0341000D01*
Y-0262000D01*
X0340000D01*
Y-0263000D01*
X0339000D01*
Y-0265000D01*
X0338000D01*
Y-0266000D01*
X0336000D01*
Y-0267000D01*
X0335000D01*
Y-0268000D01*
X0333000D01*
Y-0269000D01*
X0332000D01*
Y-0270000D01*
X0329000D01*
Y-0271000D01*
X0326000D01*
Y-0272000D01*
X0324000D01*
Y-0557000D01*
X0326000D01*
Y-0558000D01*
X0328000D01*
Y-0559000D01*
X0331000D01*
Y-0560000D01*
X0333000D01*
Y-0561000D01*
X0335000D01*
Y-0562000D01*
X0336000D01*
Y-0563000D01*
X0337000D01*
Y-0564000D01*
X0338000D01*
Y-0566000D01*
X0339000D01*
Y-0567000D01*
X0340000D01*
Y-0568000D01*
X0341000D01*
Y-0572000D01*
X0342000D01*
Y-0575000D01*
X0343000D01*
Y-0578000D01*
X0342000D01*
Y-0584000D01*
X0341000D01*
Y-0585000D01*
X0340000D01*
Y-0586000D01*
X0339000D01*
Y-0588000D01*
X0338000D01*
Y-0589000D01*
X0337000D01*
Y-0590000D01*
X0336000D01*
Y-0591000D01*
X0334000D01*
Y-0592000D01*
X0333000D01*
Y-0593000D01*
X0330000D01*
Y-0594000D01*
X0327000D01*
Y-0595000D01*
X0051000D01*
Y-0716000D01*
X0052000D01*
Y-0736000D01*
X0053000D01*
Y-0743000D01*
X0054000D01*
Y-0748000D01*
X0055000D01*
Y-0751000D01*
X0056000D01*
Y-0753000D01*
X0057000D01*
Y-0755000D01*
X0058000D01*
Y-0757000D01*
X0059000D01*
Y-0759000D01*
X0060000D01*
Y-0761000D01*
X0061000D01*
Y-0763000D01*
X0062000D01*
Y-0765000D01*
X0063000D01*
Y-0766000D01*
X0064000D01*
Y-0767000D01*
X0065000D01*
Y-0769000D01*
X0066000D01*
Y-0770000D01*
X0067000D01*
Y-0771000D01*
X0068000D01*
Y-0772000D01*
X0069000D01*
Y-0773000D01*
X0070000D01*
Y-0774000D01*
X0071000D01*
Y-0775000D01*
X0072000D01*
Y-0776000D01*
X0073000D01*
Y-0777000D01*
X0074000D01*
Y-0778000D01*
X0075000D01*
Y-0779000D01*
X0077000D01*
Y-0780000D01*
X0078000D01*
Y-0781000D01*
X0079000D01*
Y-0782000D01*
X0080000D01*
Y-0783000D01*
X0082000D01*
Y-0784000D01*
X0083000D01*
Y-0785000D01*
X0084000D01*
Y-0786000D01*
X0086000D01*
Y-0787000D01*
X0088000D01*
Y-0788000D01*
X0089000D01*
Y-0789000D01*
X0091000D01*
Y-0790000D01*
X0093000D01*
Y-0791000D01*
X0095000D01*
Y-0792000D01*
X0097000D01*
Y-0793000D01*
X0099000D01*
Y-0794000D01*
X0101000D01*
Y-0795000D01*
X0104000D01*
Y-0796000D01*
X0107000D01*
Y-0797000D01*
X0110000D01*
Y-0798000D01*
X0113000D01*
Y-0799000D01*
X0118000D01*
Y-0800000D01*
X0124000D01*
Y-0801000D01*
X0150000D01*
Y-0800000D01*
X0159000D01*
Y-0799000D01*
X0167000D01*
Y-0798000D01*
X0179000D01*
Y-0797000D01*
X0184000D01*
Y-0798000D01*
X0195000D01*
Y-0799000D01*
X0203000D01*
Y-0800000D01*
X0210000D01*
Y-0801000D01*
X0219000D01*
Y-0802000D01*
X0244000D01*
Y-0801000D01*
X0253000D01*
Y-0800000D01*
X0261000D01*
Y-0799000D01*
X0268000D01*
Y-0798000D01*
X0295000D01*
Y-0799000D01*
X0302000D01*
Y-0800000D01*
X0310000D01*
Y-0801000D01*
X0319000D01*
Y-0802000D01*
X0344000D01*
Y-0801000D01*
X0353000D01*
Y-0800000D01*
X0361000D01*
Y-0799000D01*
X0368000D01*
Y-0798000D01*
X0395000D01*
Y-0799000D01*
X0402000D01*
Y-0800000D01*
X0410000D01*
Y-0801000D01*
X0419000D01*
Y-0802000D01*
X0444000D01*
Y-0801000D01*
X0453000D01*
Y-0800000D01*
X0461000D01*
Y-0799000D01*
X0468000D01*
Y-0798000D01*
X0495000D01*
Y-0799000D01*
X0502000D01*
Y-0800000D01*
X0510000D01*
Y-0801000D01*
X0519000D01*
Y-0802000D01*
X0544000D01*
Y-0801000D01*
X0553000D01*
Y-0800000D01*
X0561000D01*
Y-0799000D01*
X0568000D01*
Y-0798000D01*
X0595000D01*
Y-0799000D01*
X0602000D01*
Y-0800000D01*
X0610000D01*
Y-0801000D01*
X0619000D01*
Y-0802000D01*
X0644000D01*
Y-0801000D01*
X0653000D01*
Y-0800000D01*
X0661000D01*
Y-0799000D01*
X0668000D01*
Y-0798000D01*
X0695000D01*
Y-0799000D01*
X0702000D01*
Y-0800000D01*
X0710000D01*
Y-0801000D01*
X0719000D01*
Y-0802000D01*
X0744000D01*
Y-0801000D01*
X0753000D01*
Y-0800000D01*
X0761000D01*
Y-0799000D01*
X0768000D01*
Y-0798000D01*
X0795000D01*
Y-0799000D01*
X0802000D01*
Y-0800000D01*
X0810000D01*
Y-0801000D01*
X0819000D01*
Y-0802000D01*
X0844000D01*
Y-0801000D01*
X0853000D01*
Y-0800000D01*
X0861000D01*
Y-0799000D01*
X0868000D01*
Y-0798000D01*
X0895000D01*
Y-0799000D01*
X0902000D01*
Y-0800000D01*
X0910000D01*
Y-0801000D01*
X0919000D01*
Y-0802000D01*
X0944000D01*
Y-0801000D01*
X0953000D01*
Y-0800000D01*
X0961000D01*
Y-0799000D01*
X0968000D01*
Y-0798000D01*
X0995000D01*
Y-0799000D01*
X1002000D01*
Y-0800000D01*
X1010000D01*
Y-0801000D01*
X1019000D01*
Y-0802000D01*
X1044000D01*
Y-0801000D01*
X1052999D01*
Y-0800000D01*
X1060999D01*
Y-0799000D01*
X1068000D01*
Y-0798000D01*
X1094999D01*
Y-0799000D01*
X1102000D01*
Y-0800000D01*
X1110000D01*
Y-0801000D01*
X1119000D01*
Y-0802000D01*
X1144000D01*
Y-0801000D01*
X1153000D01*
Y-0800000D01*
X1161000D01*
Y-0799000D01*
X1167999D01*
Y-0798000D01*
X1195000D01*
Y-0799000D01*
X1201999D01*
Y-0800000D01*
X1209999D01*
Y-0801000D01*
X1219000D01*
Y-0802000D01*
X1244000D01*
Y-0801000D01*
X1253000D01*
Y-0800000D01*
X1261000D01*
Y-0799000D01*
X1268000D01*
Y-0798000D01*
X1294999D01*
Y-0799000D01*
X1302000D01*
Y-0800000D01*
X1310000D01*
Y-0801000D01*
X1318999D01*
Y-0802000D01*
X1344000D01*
Y-0801000D01*
X1353000D01*
Y-0800000D01*
X1361000D01*
Y-0799000D01*
X1368000D01*
Y-0798000D01*
X1395000D01*
Y-0799000D01*
X1402000D01*
Y-0800000D01*
X1409999D01*
Y-0801000D01*
X1419000D01*
Y-0802000D01*
X1443999D01*
Y-0801000D01*
X1453000D01*
Y-0800000D01*
X1461000D01*
Y-0799000D01*
X1468000D01*
Y-0798000D01*
X1495000D01*
Y-0799000D01*
X1502000D01*
Y-0800000D01*
X1510000D01*
Y-0801000D01*
X1519000D01*
Y-0802000D01*
X1544000D01*
Y-0801000D01*
X1552999D01*
Y-0800000D01*
X1560000D01*
Y-0799000D01*
X1568000D01*
Y-0798000D01*
X1579000D01*
Y-0797000D01*
X1584000D01*
Y-0798000D01*
X1596000D01*
Y-0799000D01*
X1604000D01*
Y-0800000D01*
X1613000D01*
Y-0801000D01*
X1639000D01*
Y-0800000D01*
X1645000D01*
Y-0799000D01*
X1650000D01*
Y-0798000D01*
X1653000D01*
Y-0797000D01*
X1656000D01*
Y-0796000D01*
X1659000D01*
Y-0795000D01*
X1662000D01*
Y-0794000D01*
X1664000D01*
Y-0793000D01*
X1665999D01*
Y-0792000D01*
X1667999D01*
Y-0791000D01*
X1669999D01*
Y-0790000D01*
X1671999D01*
Y-0789000D01*
X1673999D01*
Y-0788000D01*
X1675000D01*
Y-0787000D01*
X1677000D01*
Y-0786000D01*
X1679000D01*
Y-0785000D01*
X1679999D01*
Y-0784000D01*
X1681000D01*
Y-0783000D01*
X1683000D01*
Y-0782000D01*
X1683999D01*
Y-0781000D01*
X1685000D01*
Y-0780000D01*
X1686000D01*
Y-0779000D01*
X1688000D01*
Y-0778000D01*
X1689000D01*
Y-0777000D01*
X1690000D01*
Y-0776000D01*
X1691000D01*
Y-0775000D01*
X1692000D01*
Y-0774000D01*
X1693000D01*
Y-0773000D01*
X1694000D01*
Y-0772000D01*
X1695000D01*
Y-0771000D01*
X1696000D01*
Y-0770000D01*
X1697000D01*
Y-0769000D01*
X1698000D01*
Y-0768000D01*
X1699000D01*
Y-0766000D01*
X1700000D01*
Y-0765000D01*
X1701000D01*
Y-0764000D01*
X1702000D01*
Y-0762000D01*
X1703000D01*
Y-0761000D01*
X1704000D01*
Y-0760000D01*
X1705000D01*
Y-0758000D01*
X1706000D01*
Y-0757000D01*
X1707000D01*
Y-0755000D01*
X1708000D01*
Y-0753000D01*
X1709000D01*
Y-0752000D01*
X1710000D01*
Y-0750000D01*
X1711000D01*
Y-0748000D01*
X1712000D01*
Y-0746000D01*
X1713000D01*
Y-0744000D01*
X1714000D01*
Y-0742000D01*
X1715000D01*
Y-0739000D01*
X1716000D01*
Y-0737000D01*
X1717000D01*
Y-0734000D01*
X1718000D01*
Y-0731000D01*
X1719000D01*
Y-0728000D01*
X1720000D01*
Y-0725000D01*
X1721000D01*
Y-0721000D01*
X1722000D01*
Y-0717000D01*
X1723000D01*
Y-0712000D01*
X1724000D01*
Y-0707000D01*
X1725000D01*
Y-0699000D01*
X1726000D01*
Y-0689000D01*
X1727000D01*
Y-0668000D01*
X1728000D01*
Y-0161000D01*
X1727000D01*
Y-0140000D01*
X1726000D01*
Y-0130000D01*
X1725000D01*
Y-0123000D01*
X1724000D01*
Y-0117000D01*
X1723000D01*
Y-0112000D01*
X1722000D01*
Y-0108000D01*
X1721000D01*
Y-0104000D01*
X1720000D01*
Y-0101000D01*
X1719000D01*
Y-0098000D01*
X1718000D01*
Y-0095000D01*
X1717000D01*
Y-0092000D01*
X1716000D01*
Y-0090000D01*
X1715000D01*
Y-0087000D01*
X1714000D01*
Y-0085000D01*
X1713000D01*
Y-0083000D01*
X1712000D01*
Y-0081000D01*
X1711000D01*
Y-0079000D01*
X1710000D01*
Y-0077000D01*
X1709000D01*
Y-0076000D01*
X1708000D01*
Y-0074000D01*
X1707000D01*
Y-0072000D01*
X1706000D01*
Y-0071000D01*
X1705000D01*
Y-0069000D01*
X1704000D01*
Y-0068000D01*
X1703000D01*
Y-0067000D01*
X1702000D01*
Y-0065000D01*
X1701000D01*
Y-0064000D01*
X1700000D01*
Y-0063000D01*
X1699000D01*
Y-0062000D01*
X1698000D01*
Y-0060000D01*
X1697000D01*
Y-0059000D01*
X1696000D01*
Y-0058000D01*
X1695000D01*
Y-0057000D01*
X1694000D01*
Y-0056000D01*
X1693000D01*
Y-0055000D01*
X1692000D01*
Y-0054000D01*
X1691000D01*
Y-0053000D01*
X1690000D01*
Y-0052000D01*
X1689000D01*
Y-0051000D01*
X1688000D01*
Y-0050000D01*
X1686000D01*
Y-0049000D01*
X1685000D01*
Y-0048000D01*
X1683999D01*
Y-0047000D01*
X1683000D01*
Y-0046000D01*
X1681000D01*
Y-0045000D01*
X1679999D01*
Y-0044000D01*
X1677999D01*
Y-0043000D01*
X1677000D01*
Y-0042000D01*
X1675000D01*
Y-0041000D01*
X1673999D01*
Y-0040000D01*
X1671999D01*
Y-0039000D01*
X1669999D01*
Y-0038000D01*
X1667999D01*
Y-0037000D01*
X1665999D01*
Y-0036000D01*
X1664000D01*
Y-0035000D01*
X1661000D01*
Y-0034000D01*
X1659000D01*
Y-0033000D01*
X1656000D01*
Y-0032000D01*
X1653000D01*
Y-0031000D01*
X1649000D01*
Y-0030000D01*
X1644000D01*
Y-0029000D01*
X1637000D01*
Y-0028000D01*
X1615000D01*
Y-0029000D01*
X1606000D01*
Y-0030000D01*
X1598000D01*
Y-0031000D01*
X1589000D01*
Y-0032000D01*
X1575000D01*
Y-0031000D01*
X1566000D01*
Y-0030000D01*
X1558999D01*
Y-0029000D01*
X1550999D01*
Y-0028000D01*
X1540999D01*
Y-0027000D01*
X1522000D01*
Y-0028000D01*
X1512000D01*
Y-0029000D01*
X1504000D01*
Y-0030000D01*
X1497000D01*
Y-0031000D01*
X1487000D01*
Y-0032000D01*
X1476000D01*
Y-0031000D01*
X1465999D01*
Y-0030000D01*
X1459000D01*
Y-0029000D01*
X1451999D01*
Y-0028000D01*
X1441000D01*
Y-0027000D01*
X1421999D01*
Y-0028000D01*
X1411000D01*
Y-0029000D01*
X1404000D01*
Y-0030000D01*
X1397000D01*
Y-0031000D01*
X1387000D01*
Y-0032000D01*
X1376000D01*
Y-0031000D01*
X1366000D01*
Y-0030000D01*
X1359000D01*
Y-0029000D01*
X1352000D01*
Y-0028000D01*
X1340999D01*
Y-0027000D01*
X1322000D01*
Y-0028000D01*
X1310999D01*
Y-0029000D01*
X1304000D01*
Y-0030000D01*
X1296999D01*
Y-0031000D01*
X1286999D01*
Y-0032000D01*
X1276000D01*
Y-0031000D01*
X1266000D01*
Y-0030000D01*
X1259000D01*
Y-0029000D01*
X1252000D01*
Y-0028000D01*
X1241000D01*
Y-0027000D01*
X1221999D01*
Y-0028000D01*
X1211000D01*
Y-0029000D01*
X1203999D01*
Y-0030000D01*
X1197000D01*
Y-0031000D01*
X1187000D01*
Y-0032000D01*
X1175999D01*
Y-0031000D01*
X1165999D01*
Y-0030000D01*
X1159000D01*
Y-0029000D01*
X1152000D01*
Y-0028000D01*
X1141000D01*
Y-0027000D01*
X1122000D01*
Y-0028000D01*
X1110999D01*
Y-0029000D01*
X1104000D01*
Y-0030000D01*
X1096999D01*
Y-0031000D01*
X1086999D01*
Y-0032000D01*
X1076000D01*
Y-0031000D01*
X1066000D01*
Y-0030000D01*
X1058999D01*
Y-0029000D01*
X1052000D01*
Y-0028000D01*
X1040999D01*
Y-0027000D01*
X1022000D01*
Y-0028000D01*
X1011000D01*
Y-0029000D01*
X1004000D01*
Y-0030000D01*
X0997000D01*
Y-0031000D01*
X0987000D01*
Y-0032000D01*
X0976000D01*
Y-0031000D01*
X0966000D01*
Y-0030000D01*
X0959000D01*
Y-0029000D01*
X0952000D01*
Y-0028000D01*
X0941000D01*
Y-0027000D01*
X0922000D01*
Y-0028000D01*
X0911000D01*
Y-0029000D01*
X0904000D01*
Y-0030000D01*
X0897000D01*
Y-0031000D01*
X0887000D01*
Y-0032000D01*
X0876000D01*
Y-0031000D01*
X0866000D01*
Y-0030000D01*
X0859000D01*
Y-0029000D01*
X0852000D01*
Y-0028000D01*
X0841000D01*
Y-0027000D01*
X0822000D01*
Y-0028000D01*
X0811000D01*
Y-0029000D01*
X0804000D01*
Y-0030000D01*
X0797000D01*
Y-0031000D01*
X0787000D01*
Y-0032000D01*
X0776000D01*
Y-0031000D01*
X0766000D01*
Y-0030000D01*
X0759000D01*
Y-0029000D01*
X0752000D01*
Y-0028000D01*
X0741000D01*
Y-0027000D01*
X0722000D01*
Y-0028000D01*
X0711000D01*
Y-0029000D01*
X0704000D01*
Y-0030000D01*
X0697000D01*
Y-0031000D01*
X0687000D01*
Y-0032000D01*
X0676000D01*
Y-0031000D01*
X0666000D01*
Y-0030000D01*
X0659000D01*
Y-0029000D01*
X0652000D01*
Y-0028000D01*
X0641000D01*
Y-0027000D01*
X0622000D01*
Y-0028000D01*
X0611000D01*
Y-0029000D01*
X0604000D01*
Y-0030000D01*
X0597000D01*
Y-0031000D01*
X0587000D01*
Y-0032000D01*
X0576000D01*
Y-0031000D01*
X0566000D01*
Y-0030000D01*
X0559000D01*
Y-0029000D01*
X0552000D01*
Y-0028000D01*
X0541000D01*
Y-0027000D01*
X0522000D01*
Y-0028000D01*
X0511000D01*
Y-0029000D01*
X0504000D01*
Y-0030000D01*
X0497000D01*
Y-0031000D01*
X0487000D01*
Y-0032000D01*
X0476000D01*
Y-0031000D01*
X0466000D01*
Y-0030000D01*
X0459000D01*
Y-0029000D01*
X0452000D01*
Y-0028000D01*
X0441000D01*
Y-0027000D01*
X0422000D01*
Y-0028000D01*
X0411000D01*
Y-0029000D01*
X0404000D01*
Y-0030000D01*
X0397000D01*
Y-0031000D01*
X0387000D01*
Y-0032000D01*
X0376000D01*
Y-0031000D01*
X0366000D01*
Y-0030000D01*
X0359000D01*
Y-0029000D01*
X0352000D01*
Y-0028000D01*
X0341000D01*
Y-0027000D01*
X0322000D01*
Y-0028000D01*
X0311000D01*
Y-0029000D01*
X0304000D01*
Y-0030000D01*
X0297000D01*
Y-0031000D01*
X0287000D01*
Y-0032000D01*
X0276000D01*
Y-0031000D01*
X0266000D01*
Y-0030000D01*
X0259000D01*
Y-0029000D01*
X0251000D01*
Y-0028000D01*
X0241000D01*
Y-0027000D01*
X0222000D01*
%LPD*%
%ADD11C,0.006*%
D11*
D02*
Y-0028000D01*
X0212000D01*
Y-0029000D01*
X0204000D01*
Y-0030000D01*
X0197000D01*
Y-0031000D01*
X0188000D01*
Y-0032000D01*
X0174000D01*
Y-0031000D01*
X0165000D01*
Y-0030000D01*
X0157000D01*
Y-0029000D01*
X0148000D01*
Y-0028000D01*
X0126000D01*
Y-0029000D01*
X0119000D01*
Y-0030000D01*
X0114000D01*
Y-0031000D01*
X0110000D01*
Y-0032000D01*
X0107000D01*
Y-0033000D01*
X0104000D01*
Y-0034000D01*
X0102000D01*
Y-0035000D01*
X0099000D01*
Y-0036000D01*
X0097000D01*
Y-0037000D01*
X0095000D01*
Y-0038000D01*
X0093000D01*
Y-0039000D01*
X0091000D01*
Y-0040000D01*
X0089000D01*
Y-0041000D01*
X0088000D01*
Y-0042000D01*
X0086000D01*
Y-0043000D01*
X0085000D01*
Y-0044000D01*
X0083000D01*
Y-0045000D01*
X0082000D01*
Y-0046000D01*
X0080000D01*
Y-0047000D01*
X0079000D01*
Y-0048000D01*
X0078000D01*
Y-0049000D01*
X0077000D01*
Y-0050000D01*
X0075000D01*
Y-0051000D01*
X0074000D01*
Y-0052000D01*
X0073000D01*
Y-0053000D01*
X0072000D01*
Y-0054000D01*
X0071000D01*
Y-0055000D01*
X0070000D01*
Y-0056000D01*
X0069000D01*
Y-0057000D01*
X0068000D01*
Y-0058000D01*
X0067000D01*
Y-0059000D01*
X0066000D01*
Y-0060000D01*
X0065000D01*
Y-0062000D01*
X0064000D01*
Y-0063000D01*
X0063000D01*
Y-0064000D01*
X0062000D01*
Y-0066000D01*
X0061000D01*
Y-0068000D01*
X0060000D01*
Y-0070000D01*
X0059000D01*
Y-0072000D01*
X0058000D01*
Y-0074000D01*
X0057000D01*
Y-0076000D01*
X0056000D01*
Y-0078000D01*
X0055000D01*
Y-0081000D01*
X0054000D01*
Y-0086000D01*
X0053000D01*
Y-0093000D01*
X0052000D01*
Y-0113000D01*
X0051000D01*
Y-0234000D01*
X0330000D01*
Y-0235000D01*
X0331000D01*
Y-0236000D01*
X0333000D01*
Y-0237000D01*
X0335000D01*
Y-0238000D01*
X0336000D01*
Y-0239000D01*
X0337000D01*
Y-0240000D01*
X0339000D01*
Y-0242000D01*
X0340000D01*
Y-0244000D01*
X0341000D01*
Y-0246000D01*
X0342000D01*
Y-0247000D01*
X0343000D01*
Y-0258000D01*
X0342000D01*
Y-0260000D01*
X0341000D01*
Y-0262000D01*
X0340000D01*
Y-0263000D01*
X0339000D01*
Y-0265000D01*
X0338000D01*
Y-0266000D01*
X0336000D01*
Y-0267000D01*
X0335000D01*
Y-0268000D01*
X0333000D01*
Y-0269000D01*
X0332000D01*
Y-0270000D01*
X0329000D01*
Y-0271000D01*
X0326000D01*
Y-0272000D01*
X0324000D01*
Y-0557000D01*
X0326000D01*
Y-0558000D01*
X0328000D01*
Y-0559000D01*
X0331000D01*
Y-0560000D01*
X0333000D01*
Y-0561000D01*
X0335000D01*
Y-0562000D01*
X0336000D01*
Y-0563000D01*
X0337000D01*
Y-0564000D01*
X0338000D01*
Y-0566000D01*
X0339000D01*
Y-0567000D01*
X0340000D01*
Y-0568000D01*
X0341000D01*
Y-0572000D01*
X0342000D01*
Y-0575000D01*
X0343000D01*
Y-0578000D01*
X0342000D01*
Y-0584000D01*
X0341000D01*
Y-0585000D01*
X0340000D01*
Y-0586000D01*
X0339000D01*
Y-0588000D01*
X0338000D01*
Y-0589000D01*
X0337000D01*
Y-0590000D01*
X0336000D01*
Y-0591000D01*
X0334000D01*
Y-0592000D01*
X0333000D01*
Y-0593000D01*
X0330000D01*
Y-0594000D01*
X0327000D01*
Y-0595000D01*
X0051000D01*
Y-0716000D01*
X0052000D01*
Y-0736000D01*
X0053000D01*
Y-0743000D01*
X0054000D01*
Y-0748000D01*
X0055000D01*
Y-0751000D01*
X0056000D01*
Y-0753000D01*
X0057000D01*
Y-0755000D01*
X0058000D01*
Y-0757000D01*
X0059000D01*
Y-0759000D01*
X0060000D01*
Y-0761000D01*
X0061000D01*
Y-0763000D01*
X0062000D01*
Y-0765000D01*
X0063000D01*
Y-0766000D01*
X0064000D01*
Y-0767000D01*
X0065000D01*
Y-0769000D01*
X0066000D01*
Y-0770000D01*
X0067000D01*
Y-0771000D01*
X0068000D01*
Y-0772000D01*
X0069000D01*
Y-0773000D01*
X0070000D01*
Y-0774000D01*
X0071000D01*
Y-0775000D01*
X0072000D01*
Y-0776000D01*
X0073000D01*
Y-0777000D01*
X0074000D01*
Y-0778000D01*
X0075000D01*
Y-0779000D01*
X0077000D01*
Y-0780000D01*
X0078000D01*
Y-0781000D01*
X0079000D01*
Y-0782000D01*
X0080000D01*
Y-0783000D01*
X0082000D01*
Y-0784000D01*
X0083000D01*
Y-0785000D01*
X0084000D01*
Y-0786000D01*
X0086000D01*
Y-0787000D01*
X0088000D01*
Y-0788000D01*
X0089000D01*
Y-0789000D01*
X0091000D01*
Y-0790000D01*
X0093000D01*
Y-0791000D01*
X0095000D01*
Y-0792000D01*
X0097000D01*
Y-0793000D01*
X0099000D01*
Y-0794000D01*
X0101000D01*
Y-0795000D01*
X0104000D01*
Y-0796000D01*
X0107000D01*
Y-0797000D01*
X0110000D01*
Y-0798000D01*
X0113000D01*
Y-0799000D01*
X0118000D01*
Y-0800000D01*
X0124000D01*
Y-0801000D01*
X0150000D01*
Y-0800000D01*
X0159000D01*
Y-0799000D01*
X0167000D01*
Y-0798000D01*
X0179000D01*
Y-0797000D01*
X0184000D01*
Y-0798000D01*
X0195000D01*
Y-0799000D01*
X0203000D01*
Y-0800000D01*
X0210000D01*
Y-0801000D01*
X0219000D01*
Y-0802000D01*
X0244000D01*
Y-0801000D01*
X0253000D01*
Y-0800000D01*
X0261000D01*
Y-0799000D01*
X0268000D01*
Y-0798000D01*
X0295000D01*
Y-0799000D01*
X0302000D01*
Y-0800000D01*
X0310000D01*
Y-0801000D01*
X0319000D01*
Y-0802000D01*
X0344000D01*
Y-0801000D01*
X0353000D01*
Y-0800000D01*
X0361000D01*
Y-0799000D01*
X0368000D01*
Y-0798000D01*
X0395000D01*
Y-0799000D01*
X0402000D01*
Y-0800000D01*
X0410000D01*
Y-0801000D01*
X0419000D01*
Y-0802000D01*
X0444000D01*
Y-0801000D01*
X0453000D01*
Y-0800000D01*
X0461000D01*
Y-0799000D01*
X0468000D01*
Y-0798000D01*
X0495000D01*
Y-0799000D01*
X0502000D01*
Y-0800000D01*
X0510000D01*
Y-0801000D01*
X0519000D01*
Y-0802000D01*
X0544000D01*
Y-0801000D01*
X0553000D01*
Y-0800000D01*
X0561000D01*
Y-0799000D01*
X0568000D01*
Y-0798000D01*
X0595000D01*
Y-0799000D01*
X0602000D01*
Y-0800000D01*
X0610000D01*
Y-0801000D01*
X0619000D01*
Y-0802000D01*
X0644000D01*
Y-0801000D01*
X0653000D01*
Y-0800000D01*
X0661000D01*
Y-0799000D01*
X0668000D01*
Y-0798000D01*
X0695000D01*
Y-0799000D01*
X0702000D01*
Y-0800000D01*
X0710000D01*
Y-0801000D01*
X0719000D01*
Y-0802000D01*
X0744000D01*
Y-0801000D01*
X0753000D01*
Y-0800000D01*
X0761000D01*
Y-0799000D01*
X0768000D01*
Y-0798000D01*
X0795000D01*
Y-0799000D01*
X0802000D01*
Y-0800000D01*
X0810000D01*
Y-0801000D01*
X0819000D01*
Y-0802000D01*
X0844000D01*
Y-0801000D01*
X0853000D01*
Y-0800000D01*
X0861000D01*
Y-0799000D01*
X0868000D01*
Y-0798000D01*
X0895000D01*
Y-0799000D01*
X0902000D01*
Y-0800000D01*
X0910000D01*
Y-0801000D01*
X0919000D01*
Y-0802000D01*
X0944000D01*
Y-0801000D01*
X0953000D01*
Y-0800000D01*
X0961000D01*
Y-0799000D01*
X0968000D01*
Y-0798000D01*
X0995000D01*
Y-0799000D01*
X1002000D01*
Y-0800000D01*
X1010000D01*
Y-0801000D01*
X1019000D01*
Y-0802000D01*
X1044000D01*
Y-0801000D01*
X1052999D01*
Y-0800000D01*
X1060999D01*
Y-0799000D01*
X1068000D01*
Y-0798000D01*
X1094999D01*
Y-0799000D01*
X1102000D01*
Y-0800000D01*
X1110000D01*
Y-0801000D01*
X1119000D01*
Y-0802000D01*
X1144000D01*
Y-0801000D01*
X1153000D01*
Y-0800000D01*
X1161000D01*
Y-0799000D01*
X1167999D01*
Y-0798000D01*
X1195000D01*
Y-0799000D01*
X1201999D01*
Y-0800000D01*
X1209999D01*
Y-0801000D01*
X1219000D01*
Y-0802000D01*
X1244000D01*
Y-0801000D01*
X1253000D01*
Y-0800000D01*
X1261000D01*
Y-0799000D01*
X1268000D01*
Y-0798000D01*
X1294999D01*
Y-0799000D01*
X1302000D01*
Y-0800000D01*
X1310000D01*
Y-0801000D01*
X1318999D01*
Y-0802000D01*
X1344000D01*
Y-0801000D01*
X1353000D01*
Y-0800000D01*
X1361000D01*
Y-0799000D01*
X1368000D01*
Y-0798000D01*
X1395000D01*
Y-0799000D01*
X1402000D01*
Y-0800000D01*
X1409999D01*
Y-0801000D01*
X1419000D01*
Y-0802000D01*
X1443999D01*
Y-0801000D01*
X1453000D01*
Y-0800000D01*
X1461000D01*
Y-0799000D01*
X1468000D01*
Y-0798000D01*
X1495000D01*
Y-0799000D01*
X1502000D01*
Y-0800000D01*
X1510000D01*
Y-0801000D01*
X1519000D01*
Y-0802000D01*
X1544000D01*
Y-0801000D01*
X1552999D01*
Y-0800000D01*
X1560000D01*
Y-0799000D01*
X1568000D01*
Y-0798000D01*
X1579000D01*
Y-0797000D01*
X1584000D01*
Y-0798000D01*
X1596000D01*
Y-0799000D01*
X1604000D01*
Y-0800000D01*
X1613000D01*
Y-0801000D01*
X1639000D01*
Y-0800000D01*
X1645000D01*
Y-0799000D01*
X1650000D01*
Y-0798000D01*
X1653000D01*
Y-0797000D01*
X1656000D01*
Y-0796000D01*
X1659000D01*
Y-0795000D01*
X1662000D01*
Y-0794000D01*
X1664000D01*
Y-0793000D01*
X1665999D01*
Y-0792000D01*
X1667999D01*
Y-0791000D01*
X1669999D01*
Y-0790000D01*
X1671999D01*
Y-0789000D01*
X1673999D01*
Y-0788000D01*
X1675000D01*
Y-0787000D01*
X1677000D01*
Y-0786000D01*
X1679000D01*
Y-0785000D01*
X1679999D01*
Y-0784000D01*
X1681000D01*
Y-0783000D01*
X1683000D01*
Y-0782000D01*
X1683999D01*
Y-0781000D01*
X1685000D01*
Y-0780000D01*
X1686000D01*
Y-0779000D01*
X1688000D01*
Y-0778000D01*
X1689000D01*
Y-0777000D01*
X1690000D01*
Y-0776000D01*
X1691000D01*
Y-0775000D01*
X1692000D01*
Y-0774000D01*
X1693000D01*
Y-0773000D01*
X1694000D01*
Y-0772000D01*
X1695000D01*
Y-0771000D01*
X1696000D01*
Y-0770000D01*
X1697000D01*
Y-0769000D01*
X1698000D01*
Y-0768000D01*
X1699000D01*
Y-0766000D01*
X1700000D01*
Y-0765000D01*
X1701000D01*
Y-0764000D01*
X1702000D01*
Y-0762000D01*
X1703000D01*
Y-0761000D01*
X1704000D01*
Y-0760000D01*
X1705000D01*
Y-0758000D01*
X1706000D01*
Y-0757000D01*
X1707000D01*
Y-0755000D01*
X1708000D01*
Y-0753000D01*
X1709000D01*
Y-0752000D01*
X1710000D01*
Y-0750000D01*
X1711000D01*
Y-0748000D01*
X1712000D01*
Y-0746000D01*
X1713000D01*
Y-0744000D01*
X1714000D01*
Y-0742000D01*
X1715000D01*
Y-0739000D01*
X1716000D01*
Y-0737000D01*
X1717000D01*
Y-0734000D01*
X1718000D01*
Y-0731000D01*
X1719000D01*
Y-0728000D01*
X1720000D01*
Y-0725000D01*
X1721000D01*
Y-0721000D01*
X1722000D01*
Y-0717000D01*
X1723000D01*
Y-0712000D01*
X1724000D01*
Y-0707000D01*
X1725000D01*
Y-0699000D01*
X1726000D01*
Y-0689000D01*
X1727000D01*
Y-0668000D01*
X1728000D01*
Y-0161000D01*
X1727000D01*
Y-0140000D01*
X1726000D01*
Y-0130000D01*
X1725000D01*
Y-0123000D01*
X1724000D01*
Y-0117000D01*
X1723000D01*
Y-0112000D01*
X1722000D01*
Y-0108000D01*
X1721000D01*
Y-0104000D01*
X1720000D01*
Y-0101000D01*
X1719000D01*
Y-0098000D01*
X1718000D01*
Y-0095000D01*
X1717000D01*
Y-0092000D01*
X1716000D01*
Y-0090000D01*
X1715000D01*
Y-0087000D01*
X1714000D01*
Y-0085000D01*
X1713000D01*
Y-0083000D01*
X1712000D01*
Y-0081000D01*
X1711000D01*
Y-0079000D01*
X1710000D01*
Y-0077000D01*
X1709000D01*
Y-0076000D01*
X1708000D01*
Y-0074000D01*
X1707000D01*
Y-0072000D01*
X1706000D01*
Y-0071000D01*
X1705000D01*
Y-0069000D01*
X1704000D01*
Y-0068000D01*
X1703000D01*
Y-0067000D01*
X1702000D01*
Y-0065000D01*
X1701000D01*
Y-0064000D01*
X1700000D01*
Y-0063000D01*
X1699000D01*
Y-0062000D01*
X1698000D01*
Y-0060000D01*
X1697000D01*
Y-0059000D01*
X1696000D01*
Y-0058000D01*
X1695000D01*
Y-0057000D01*
X1694000D01*
Y-0056000D01*
X1693000D01*
Y-0055000D01*
X1692000D01*
Y-0054000D01*
X1691000D01*
Y-0053000D01*
X1690000D01*
Y-0052000D01*
X1689000D01*
Y-0051000D01*
X1688000D01*
Y-0050000D01*
X1686000D01*
Y-0049000D01*
X1685000D01*
Y-0048000D01*
X1683999D01*
Y-0047000D01*
X1683000D01*
Y-0046000D01*
X1681000D01*
Y-0045000D01*
X1679999D01*
Y-0044000D01*
X1677999D01*
Y-0043000D01*
X1677000D01*
Y-0042000D01*
X1675000D01*
Y-0041000D01*
X1673999D01*
Y-0040000D01*
X1671999D01*
Y-0039000D01*
X1669999D01*
Y-0038000D01*
X1667999D01*
Y-0037000D01*
X1665999D01*
Y-0036000D01*
X1664000D01*
Y-0035000D01*
X1661000D01*
Y-0034000D01*
X1659000D01*
Y-0033000D01*
X1656000D01*
Y-0032000D01*
X1653000D01*
Y-0031000D01*
X1649000D01*
Y-0030000D01*
X1644000D01*
Y-0029000D01*
X1637000D01*
Y-0028000D01*
X1615000D01*
Y-0029000D01*
X1606000D01*
Y-0030000D01*
X1598000D01*
Y-0031000D01*
X1589000D01*
Y-0032000D01*
X1575000D01*
Y-0031000D01*
X1566000D01*
Y-0030000D01*
X1558999D01*
Y-0029000D01*
X1550999D01*
Y-0028000D01*
X1540999D01*
Y-0027000D01*
X1522000D01*
Y-0028000D01*
X1512000D01*
Y-0029000D01*
X1504000D01*
Y-0030000D01*
X1497000D01*
Y-0031000D01*
X1487000D01*
Y-0032000D01*
X1476000D01*
Y-0031000D01*
X1465999D01*
Y-0030000D01*
X1459000D01*
Y-0029000D01*
X1451999D01*
Y-0028000D01*
X1441000D01*
Y-0027000D01*
X1421999D01*
Y-0028000D01*
X1411000D01*
Y-0029000D01*
X1404000D01*
Y-0030000D01*
X1397000D01*
Y-0031000D01*
X1387000D01*
Y-0032000D01*
X1376000D01*
Y-0031000D01*
X1366000D01*
Y-0030000D01*
X1359000D01*
Y-0029000D01*
X1352000D01*
Y-0028000D01*
X1340999D01*
Y-0027000D01*
X1322000D01*
Y-0028000D01*
X1310999D01*
Y-0029000D01*
X1304000D01*
Y-0030000D01*
X1296999D01*
Y-0031000D01*
X1286999D01*
Y-0032000D01*
X1276000D01*
Y-0031000D01*
X1266000D01*
Y-0030000D01*
X1259000D01*
Y-0029000D01*
X1252000D01*
Y-0028000D01*
X1241000D01*
Y-0027000D01*
X1221999D01*
Y-0028000D01*
X1211000D01*
Y-0029000D01*
X1203999D01*
Y-0030000D01*
X1197000D01*
Y-0031000D01*
X1187000D01*
Y-0032000D01*
X1175999D01*
Y-0031000D01*
X1165999D01*
Y-0030000D01*
X1159000D01*
Y-0029000D01*
X1152000D01*
Y-0028000D01*
X1141000D01*
Y-0027000D01*
X1122000D01*
Y-0028000D01*
X1110999D01*
Y-0029000D01*
X1104000D01*
Y-0030000D01*
X1096999D01*
Y-0031000D01*
X1086999D01*
Y-0032000D01*
X1076000D01*
Y-0031000D01*
X1066000D01*
Y-0030000D01*
X1058999D01*
Y-0029000D01*
X1052000D01*
Y-0028000D01*
X1040999D01*
Y-0027000D01*
X1022000D01*
Y-0028000D01*
X1011000D01*
Y-0029000D01*
X1004000D01*
Y-0030000D01*
X0997000D01*
Y-0031000D01*
X0987000D01*
Y-0032000D01*
X0976000D01*
Y-0031000D01*
X0966000D01*
Y-0030000D01*
X0959000D01*
Y-0029000D01*
X0952000D01*
Y-0028000D01*
X0941000D01*
Y-0027000D01*
X0922000D01*
Y-0028000D01*
X0911000D01*
Y-0029000D01*
X0904000D01*
Y-0030000D01*
X0897000D01*
Y-0031000D01*
X0887000D01*
Y-0032000D01*
X0876000D01*
Y-0031000D01*
X0866000D01*
Y-0030000D01*
X0859000D01*
Y-0029000D01*
X0852000D01*
Y-0028000D01*
X0841000D01*
Y-0027000D01*
X0822000D01*
Y-0028000D01*
X0811000D01*
Y-0029000D01*
X0804000D01*
Y-0030000D01*
X0797000D01*
Y-0031000D01*
X0787000D01*
Y-0032000D01*
X0776000D01*
Y-0031000D01*
X0766000D01*
Y-0030000D01*
X0759000D01*
Y-0029000D01*
X0752000D01*
Y-0028000D01*
X0741000D01*
Y-0027000D01*
X0722000D01*
Y-0028000D01*
X0711000D01*
Y-0029000D01*
X0704000D01*
Y-0030000D01*
X0697000D01*
Y-0031000D01*
X0687000D01*
Y-0032000D01*
X0676000D01*
Y-0031000D01*
X0666000D01*
Y-0030000D01*
X0659000D01*
Y-0029000D01*
X0652000D01*
Y-0028000D01*
X0641000D01*
Y-0027000D01*
X0622000D01*
Y-0028000D01*
X0611000D01*
Y-0029000D01*
X0604000D01*
Y-0030000D01*
X0597000D01*
Y-0031000D01*
X0587000D01*
Y-0032000D01*
X0576000D01*
Y-0031000D01*
X0566000D01*
Y-0030000D01*
X0559000D01*
Y-0029000D01*
X0552000D01*
Y-0028000D01*
X0541000D01*
Y-0027000D01*
X0522000D01*
Y-0028000D01*
X0511000D01*
Y-0029000D01*
X0504000D01*
Y-0030000D01*
X0497000D01*
Y-0031000D01*
X0487000D01*
Y-0032000D01*
X0476000D01*
Y-0031000D01*
X0466000D01*
Y-0030000D01*
X0459000D01*
Y-0029000D01*
X0452000D01*
Y-0028000D01*
X0441000D01*
Y-0027000D01*
X0422000D01*
Y-0028000D01*
X0411000D01*
Y-0029000D01*
X0404000D01*
Y-0030000D01*
X0397000D01*
Y-0031000D01*
X0387000D01*
Y-0032000D01*
X0376000D01*
Y-0031000D01*
X0366000D01*
Y-0030000D01*
X0359000D01*
Y-0029000D01*
X0352000D01*
Y-0028000D01*
X0341000D01*
Y-0027000D01*
X0322000D01*
Y-0028000D01*
X0311000D01*
Y-0029000D01*
X0304000D01*
Y-0030000D01*
X0297000D01*
Y-0031000D01*
X0287000D01*
Y-0032000D01*
X0276000D01*
Y-0031000D01*
X0266000D01*
Y-0030000D01*
X0259000D01*
Y-0029000D01*
X0251000D01*
Y-0028000D01*
X0241000D01*
Y-0027000D01*
X0222000D01*
M02*
