G04 Output from Chad's Board Thing.*
%FSLAX26Y26*%
%MOIN*%
%LPC*%
%ADD10C,0.026*%
D10*
X0112000Y-0182000D02*
Y-0183000D01*
X0108000D01*
Y-0184000D01*
X0107000D01*
Y-0185000D01*
X0105000D01*
Y-0186000D01*
X0104000D01*
Y-0188000D01*
X0103000D01*
Y-0189000D01*
X0102000D01*
Y-0193000D01*
X0101000D01*
Y-0196000D01*
X0102000D01*
Y-0200000D01*
X0103000D01*
Y-0201000D01*
X0104000D01*
Y-0203000D01*
X0105000D01*
Y-0204000D01*
X0107000D01*
Y-0205000D01*
X0108000D01*
Y-0206000D01*
X0112000D01*
Y-0207000D01*
X0160000D01*
Y-0206000D01*
X0164000D01*
Y-0205000D01*
X0165000D01*
Y-0204000D01*
X0167000D01*
Y-0203000D01*
X0168000D01*
Y-0201000D01*
X0169000D01*
Y-0200000D01*
X0170000D01*
Y-0196000D01*
X0171000D01*
Y-0193000D01*
X0170000D01*
Y-0189000D01*
X0169000D01*
Y-0188000D01*
X0168000D01*
Y-0186000D01*
X0167000D01*
Y-0185000D01*
X0165000D01*
Y-0184000D01*
X0164000D01*
Y-0183000D01*
X0160000D01*
Y-0182000D01*
X0112000D01*
X0277000D02*
Y-0183000D01*
X0273000D01*
Y-0184000D01*
X0272000D01*
Y-0185000D01*
X0270000D01*
Y-0186000D01*
X0269000D01*
Y-0188000D01*
X0268000D01*
Y-0189000D01*
X0267000D01*
Y-0193000D01*
X0266000D01*
Y-0196000D01*
X0267000D01*
Y-0200000D01*
X0268000D01*
Y-0201000D01*
X0269000D01*
Y-0203000D01*
X0270000D01*
Y-0204000D01*
X0272000D01*
Y-0205000D01*
X0273000D01*
Y-0206000D01*
X0277000D01*
Y-0207000D01*
X0310000D01*
Y-0206000D01*
X0314000D01*
Y-0205000D01*
X0315000D01*
Y-0204000D01*
X0317000D01*
Y-0203000D01*
X0318000D01*
Y-0201000D01*
X0319000D01*
Y-0200000D01*
X0320000D01*
Y-0196000D01*
X0321000D01*
Y-0193000D01*
X0320000D01*
Y-0189000D01*
X0319000D01*
Y-0188000D01*
X0318000D01*
Y-0186000D01*
X0317000D01*
Y-0185000D01*
X0315000D01*
Y-0184000D01*
X0314000D01*
Y-0183000D01*
X0310000D01*
Y-0182000D01*
X0277000D01*
Y-0622000D02*
Y-0623000D01*
X0273000D01*
Y-0624000D01*
X0272000D01*
Y-0625000D01*
X0270000D01*
Y-0626000D01*
X0269000D01*
Y-0628000D01*
X0268000D01*
Y-0629000D01*
X0267000D01*
Y-0633000D01*
X0266000D01*
Y-0636000D01*
X0267000D01*
Y-0640000D01*
X0268000D01*
Y-0641000D01*
X0269000D01*
Y-0643000D01*
X0270000D01*
Y-0644000D01*
X0272000D01*
Y-0645000D01*
X0273000D01*
Y-0646000D01*
X0277000D01*
Y-0647000D01*
X0310000D01*
Y-0646000D01*
X0314000D01*
Y-0645000D01*
X0315000D01*
Y-0644000D01*
X0317000D01*
Y-0643000D01*
X0318000D01*
Y-0641000D01*
X0319000D01*
Y-0640000D01*
X0320000D01*
Y-0636000D01*
X0321000D01*
Y-0633000D01*
X0320000D01*
Y-0629000D01*
X0319000D01*
Y-0628000D01*
X0318000D01*
Y-0626000D01*
X0317000D01*
Y-0625000D01*
X0315000D01*
Y-0624000D01*
X0314000D01*
Y-0623000D01*
X0310000D01*
Y-0622000D01*
X0277000D01*
X0112000D02*
Y-0623000D01*
X0108000D01*
Y-0624000D01*
X0107000D01*
Y-0625000D01*
X0105000D01*
Y-0626000D01*
X0104000D01*
Y-0628000D01*
X0103000D01*
Y-0629000D01*
X0102000D01*
Y-0633000D01*
X0101000D01*
Y-0636000D01*
X0102000D01*
Y-0640000D01*
X0103000D01*
Y-0641000D01*
X0104000D01*
Y-0643000D01*
X0105000D01*
Y-0644000D01*
X0107000D01*
Y-0645000D01*
X0108000D01*
Y-0646000D01*
X0112000D01*
Y-0647000D01*
X0160000D01*
Y-0646000D01*
X0164000D01*
Y-0645000D01*
X0165000D01*
Y-0644000D01*
X0167000D01*
Y-0643000D01*
X0168000D01*
Y-0641000D01*
X0169000D01*
Y-0640000D01*
X0170000D01*
Y-0636000D01*
X0171000D01*
Y-0633000D01*
X0170000D01*
Y-0629000D01*
X0169000D01*
Y-0628000D01*
X0168000D01*
Y-0626000D01*
X0167000D01*
Y-0625000D01*
X0165000D01*
Y-0624000D01*
X0164000D01*
Y-0623000D01*
X0160000D01*
Y-0622000D01*
X0112000D01*
%LPD*%
%ADD11C,0.006*%
D11*
Y-0182000D02*
Y-0183000D01*
X0108000D01*
Y-0184000D01*
X0107000D01*
Y-0185000D01*
X0105000D01*
Y-0186000D01*
X0104000D01*
Y-0188000D01*
X0103000D01*
Y-0189000D01*
X0102000D01*
Y-0193000D01*
X0101000D01*
Y-0196000D01*
X0102000D01*
Y-0200000D01*
X0103000D01*
Y-0201000D01*
X0104000D01*
Y-0203000D01*
X0105000D01*
Y-0204000D01*
X0107000D01*
Y-0205000D01*
X0108000D01*
Y-0206000D01*
X0112000D01*
Y-0207000D01*
X0160000D01*
Y-0206000D01*
X0164000D01*
Y-0205000D01*
X0165000D01*
Y-0204000D01*
X0167000D01*
Y-0203000D01*
X0168000D01*
Y-0201000D01*
X0169000D01*
Y-0200000D01*
X0170000D01*
Y-0196000D01*
X0171000D01*
Y-0193000D01*
X0170000D01*
Y-0189000D01*
X0169000D01*
Y-0188000D01*
X0168000D01*
Y-0186000D01*
X0167000D01*
Y-0185000D01*
X0165000D01*
Y-0184000D01*
X0164000D01*
Y-0183000D01*
X0160000D01*
Y-0182000D01*
X0112000D01*
X0277000D02*
Y-0183000D01*
X0273000D01*
Y-0184000D01*
X0272000D01*
Y-0185000D01*
X0270000D01*
Y-0186000D01*
X0269000D01*
Y-0188000D01*
X0268000D01*
Y-0189000D01*
X0267000D01*
Y-0193000D01*
X0266000D01*
Y-0196000D01*
X0267000D01*
Y-0200000D01*
X0268000D01*
Y-0201000D01*
X0269000D01*
Y-0203000D01*
X0270000D01*
Y-0204000D01*
X0272000D01*
Y-0205000D01*
X0273000D01*
Y-0206000D01*
X0277000D01*
Y-0207000D01*
X0310000D01*
Y-0206000D01*
X0314000D01*
Y-0205000D01*
X0315000D01*
Y-0204000D01*
X0317000D01*
Y-0203000D01*
X0318000D01*
Y-0201000D01*
X0319000D01*
Y-0200000D01*
X0320000D01*
Y-0196000D01*
X0321000D01*
Y-0193000D01*
X0320000D01*
Y-0189000D01*
X0319000D01*
Y-0188000D01*
X0318000D01*
Y-0186000D01*
X0317000D01*
Y-0185000D01*
X0315000D01*
Y-0184000D01*
X0314000D01*
Y-0183000D01*
X0310000D01*
Y-0182000D01*
X0277000D01*
Y-0622000D02*
Y-0623000D01*
X0273000D01*
Y-0624000D01*
X0272000D01*
Y-0625000D01*
X0270000D01*
Y-0626000D01*
X0269000D01*
Y-0628000D01*
X0268000D01*
Y-0629000D01*
X0267000D01*
Y-0633000D01*
X0266000D01*
Y-0636000D01*
X0267000D01*
Y-0640000D01*
X0268000D01*
Y-0641000D01*
X0269000D01*
Y-0643000D01*
X0270000D01*
Y-0644000D01*
X0272000D01*
Y-0645000D01*
X0273000D01*
Y-0646000D01*
X0277000D01*
Y-0647000D01*
X0310000D01*
Y-0646000D01*
X0314000D01*
Y-0645000D01*
X0315000D01*
Y-0644000D01*
X0317000D01*
Y-0643000D01*
X0318000D01*
Y-0641000D01*
X0319000D01*
Y-0640000D01*
X0320000D01*
Y-0636000D01*
X0321000D01*
Y-0633000D01*
X0320000D01*
Y-0629000D01*
X0319000D01*
Y-0628000D01*
X0318000D01*
Y-0626000D01*
X0317000D01*
Y-0625000D01*
X0315000D01*
Y-0624000D01*
X0314000D01*
Y-0623000D01*
X0310000D01*
Y-0622000D01*
X0277000D01*
X0112000D02*
Y-0623000D01*
X0108000D01*
Y-0624000D01*
X0107000D01*
Y-0625000D01*
X0105000D01*
Y-0626000D01*
X0104000D01*
Y-0628000D01*
X0103000D01*
Y-0629000D01*
X0102000D01*
Y-0633000D01*
X0101000D01*
Y-0636000D01*
X0102000D01*
Y-0640000D01*
X0103000D01*
Y-0641000D01*
X0104000D01*
Y-0643000D01*
X0105000D01*
Y-0644000D01*
X0107000D01*
Y-0645000D01*
X0108000D01*
Y-0646000D01*
X0112000D01*
Y-0647000D01*
X0160000D01*
Y-0646000D01*
X0164000D01*
Y-0645000D01*
X0165000D01*
Y-0644000D01*
X0167000D01*
Y-0643000D01*
X0168000D01*
Y-0641000D01*
X0169000D01*
Y-0640000D01*
X0170000D01*
Y-0636000D01*
X0171000D01*
Y-0633000D01*
X0170000D01*
Y-0629000D01*
X0169000D01*
Y-0628000D01*
X0168000D01*
Y-0626000D01*
X0167000D01*
Y-0625000D01*
X0165000D01*
Y-0624000D01*
X0164000D01*
Y-0623000D01*
X0160000D01*
Y-0622000D01*
X0112000D01*
M02*
