M48
INCH,TZ
FMAT,2
T01C0.03972
T02C0.01065
T03C0.02036
%
G90
G05
T02
X1.3115Y-0.1825
X0.8485Y-0.1875
X0.5905Y-0.1975
X1.6175Y-0.2025
X1.4455Y-0.2065
X1.1645Y-0.2105
X1.2505Y-0.2105
X1.3025Y-0.2215
X0.5905Y-0.2355
X1.1165Y-0.2375
X0.7835Y-0.2535
X0.6835Y-0.2595
X0.8665Y-0.2675
X1.4895Y-0.2815
X0.3915Y-0.2845
X1.0515Y-0.2905
X0.5075Y-0.3005
X0.8315Y-0.3365
X0.8595Y-0.3665
X1.0515Y-0.3765
X0.7945Y-0.3915
X0.4725Y-0.3955
X0.5995Y-0.3955
X0.6585Y-0.4105
X1.5745Y-0.4355
X1.6145Y-0.4355
X0.4725Y-0.4535
X0.8615Y-0.4555
X1.0515Y-0.4575
X1.5945Y-0.4695
X0.5985Y-0.4865
X0.6925Y-0.4865
X0.5075Y-0.5155
X0.9285Y-0.5425
X0.3905Y-0.5445
X1.0515Y-0.5465
X0.7585Y-0.5475
X1.2215Y-0.5485
X1.6025Y-0.5495
X1.4725Y-0.5575
X1.5125Y-0.5625
X0.8265Y-0.5655
X0.9025Y-0.5775
X0.6575Y-0.5885
X0.6985Y-0.5885
X0.5045Y-0.5995
X1.2505Y-0.6085
X1.2185Y-0.6325
X1.4805Y-0.6725
X1.5795Y-0.7565
T03
X1.3165Y-0.3495
X1.3665Y-0.3495
X1.2915Y-0.3805
X1.3415Y-0.3805
X1.3915Y-0.3805
X1.3165Y-0.4115
X1.3665Y-0.4115
T01
X0.1315Y-0.1145
X0.2315Y-0.1145
X0.3315Y-0.1145
X0.4315Y-0.1145
X0.5315Y-0.1145
X0.6315Y-0.1145
X0.7315Y-0.1145
X0.8315Y-0.1145
X0.9315Y-0.1145
X1.0315Y-0.1145
X1.1315Y-0.1145
X1.2315Y-0.1145
X1.3315Y-0.1145
X1.4315Y-0.1145
X1.5315Y-0.1145
X1.6315Y-0.1145
X0.1315Y-0.7145
X0.2315Y-0.7145
X0.3315Y-0.7145
X0.4315Y-0.7145
X0.5315Y-0.7145
X0.6315Y-0.7145
X0.7315Y-0.7145
X0.8315Y-0.7145
X0.9315Y-0.7145
X1.0315Y-0.7145
X1.1315Y-0.7145
X1.2315Y-0.7145
X1.3315Y-0.7145
X1.4315Y-0.7145
X1.5315Y-0.7145
X1.6315Y-0.7145
T0
M30
