G04 Output from Chad's Board Thing.*
%FSLAX26Y26*%
%MOIN*%
G36*
%ADD10C,0.01*%
D10*
X0122000Y-0048000D02*
Y-0049000D01*
X0120000D01*
Y-0050000D01*
X0119000D01*
Y-0051000D01*
X0118000D01*
Y-0052000D01*
X0117000D01*
Y-0055000D01*
X0118000D01*
Y-0056000D01*
X0119000D01*
Y-0057000D01*
X0122000D01*
Y-0056000D01*
X0124000D01*
Y-0055000D01*
X0127000D01*
Y-0056000D01*
X0128000D01*
Y-0061000D01*
X0127000D01*
Y-0062000D01*
X0126000D01*
Y-0061000D01*
X0122000D01*
Y-0062000D01*
X0121000D01*
Y-0063000D01*
X0120000D01*
Y-0066000D01*
X0121000D01*
Y-0067000D01*
X0122000D01*
Y-0068000D01*
X0124000D01*
Y-0069000D01*
X0128000D01*
Y-0072000D01*
X0125000D01*
Y-0073000D01*
X0120000D01*
Y-0072000D01*
X0116000D01*
Y-0073000D01*
X0115000D01*
Y-0074000D01*
X0114000D01*
Y-0077000D01*
X0115000D01*
Y-0078000D01*
X0116000D01*
Y-0079000D01*
X0117000D01*
Y-0080000D01*
X0127000D01*
Y-0079000D01*
X0130000D01*
Y-0078000D01*
X0131000D01*
Y-0077000D01*
X0132000D01*
Y-0076000D01*
X0133000D01*
Y-0075000D01*
X0134000D01*
Y-0074000D01*
X0135000D01*
Y-0066000D01*
X0134000D01*
Y-0063000D01*
X0135000D01*
Y-0054000D01*
X0134000D01*
Y-0052000D01*
X0133000D01*
Y-0051000D01*
X0132000D01*
Y-0050000D01*
X0131000D01*
Y-0049000D01*
X0130000D01*
Y-0048000D01*
X0122000D01*
G37*
G36*
X1237000Y-0546000D02*
Y-0547000D01*
X1235000D01*
Y-0548000D01*
X1234000D01*
Y-0550000D01*
X1233000D01*
Y-0553000D01*
X1234000D01*
Y-0555000D01*
X1235000D01*
Y-0556000D01*
X1237000D01*
Y-0557000D01*
X1240000D01*
Y-0556000D01*
X1242000D01*
Y-0555000D01*
X1243000D01*
Y-0553000D01*
X1244000D01*
Y-0550000D01*
X1243000D01*
Y-0548000D01*
X1242000D01*
Y-0547000D01*
X1240000D01*
Y-0546000D01*
X1237000D01*
G37*
G36*
X1623000Y-0053000D02*
Y-0054000D01*
X1622000D01*
Y-0055000D01*
X1621000D01*
Y-0061000D01*
X1620000D01*
Y-0072000D01*
X1619000D01*
Y-0079000D01*
X1620000D01*
Y-0080000D01*
X1621000D01*
Y-0081000D01*
X1624000D01*
Y-0080000D01*
X1625000D01*
Y-0079000D01*
X1626000D01*
Y-0075000D01*
X1627000D01*
Y-0064000D01*
X1628000D01*
Y-0058000D01*
X1629000D01*
Y-0055000D01*
X1628000D01*
Y-0054000D01*
X1627000D01*
Y-0053000D01*
X1623000D01*
G37*
G36*
X1472000Y-0708000D02*
Y-0709000D01*
X1470000D01*
Y-0710000D01*
X1469000D01*
Y-0712000D01*
X1468000D01*
Y-0715000D01*
X1469000D01*
Y-0717000D01*
X1470000D01*
Y-0718000D01*
X1472000D01*
Y-0719000D01*
X1490000D01*
Y-0718000D01*
X1492000D01*
Y-0717000D01*
X1493000D01*
Y-0715000D01*
X1494000D01*
Y-0712000D01*
X1493000D01*
Y-0710000D01*
X1492000D01*
Y-0709000D01*
X1490000D01*
Y-0708000D01*
X1472000D01*
G37*
G36*
X1636000Y-0053000D02*
Y-0054000D01*
X1635000D01*
Y-0055000D01*
X1634000D01*
Y-0062000D01*
X1635000D01*
Y-0063000D01*
X1636000D01*
Y-0064000D01*
X1639000D01*
Y-0063000D01*
X1640000D01*
Y-0062000D01*
X1641000D01*
Y-0060000D01*
X1643000D01*
Y-0061000D01*
X1642000D01*
Y-0063000D01*
X1641000D01*
Y-0067000D01*
X1640000D01*
Y-0070000D01*
X1639000D01*
Y-0079000D01*
X1640000D01*
Y-0080000D01*
X1641000D01*
Y-0081000D01*
X1644000D01*
Y-0080000D01*
X1645000D01*
Y-0079000D01*
X1646000D01*
Y-0073000D01*
X1647000D01*
Y-0069000D01*
X1648000D01*
Y-0065000D01*
X1649000D01*
Y-0063000D01*
X1650000D01*
Y-0061000D01*
X1651000D01*
Y-0060000D01*
X1652000D01*
Y-0056000D01*
X1651000D01*
Y-0055000D01*
X1650000D01*
Y-0054000D01*
X1648000D01*
Y-0053000D01*
X1636000D01*
G37*
G36*
X0172000Y-0108000D02*
Y-0109000D01*
X0170000D01*
Y-0110000D01*
X0169000D01*
Y-0112000D01*
X0168000D01*
Y-0115000D01*
X0169000D01*
Y-0117000D01*
X0170000D01*
Y-0118000D01*
X0172000D01*
Y-0119000D01*
X0190000D01*
Y-0118000D01*
X0192000D01*
Y-0117000D01*
X0193000D01*
Y-0115000D01*
X0194000D01*
Y-0112000D01*
X0193000D01*
Y-0110000D01*
X0192000D01*
Y-0109000D01*
X0190000D01*
Y-0108000D01*
X0172000D01*
G37*
G36*
X0272000D02*
Y-0109000D01*
X0270000D01*
Y-0110000D01*
X0269000D01*
Y-0112000D01*
X0268000D01*
Y-0115000D01*
X0269000D01*
Y-0117000D01*
X0270000D01*
Y-0118000D01*
X0272000D01*
Y-0119000D01*
X0290000D01*
Y-0118000D01*
X0292000D01*
Y-0117000D01*
X0293000D01*
Y-0115000D01*
X0294000D01*
Y-0112000D01*
X0293000D01*
Y-0110000D01*
X0292000D01*
Y-0109000D01*
X0290000D01*
Y-0108000D01*
X0272000D01*
G37*
G36*
X0372000D02*
Y-0109000D01*
X0370000D01*
Y-0110000D01*
X0369000D01*
Y-0112000D01*
X0368000D01*
Y-0115000D01*
X0369000D01*
Y-0117000D01*
X0370000D01*
Y-0118000D01*
X0372000D01*
Y-0119000D01*
X0390000D01*
Y-0118000D01*
X0392000D01*
Y-0117000D01*
X0393000D01*
Y-0115000D01*
X0394000D01*
Y-0112000D01*
X0393000D01*
Y-0110000D01*
X0392000D01*
Y-0109000D01*
X0390000D01*
Y-0108000D01*
X0372000D01*
G37*
G36*
X0472000D02*
Y-0109000D01*
X0470000D01*
Y-0110000D01*
X0469000D01*
Y-0112000D01*
X0468000D01*
Y-0115000D01*
X0469000D01*
Y-0117000D01*
X0470000D01*
Y-0118000D01*
X0472000D01*
Y-0119000D01*
X0490000D01*
Y-0118000D01*
X0492000D01*
Y-0117000D01*
X0493000D01*
Y-0115000D01*
X0494000D01*
Y-0112000D01*
X0493000D01*
Y-0110000D01*
X0492000D01*
Y-0109000D01*
X0490000D01*
Y-0108000D01*
X0472000D01*
G37*
G36*
X0572000D02*
Y-0109000D01*
X0570000D01*
Y-0110000D01*
X0569000D01*
Y-0112000D01*
X0568000D01*
Y-0115000D01*
X0569000D01*
Y-0117000D01*
X0570000D01*
Y-0118000D01*
X0572000D01*
Y-0119000D01*
X0590000D01*
Y-0118000D01*
X0592000D01*
Y-0117000D01*
X0593000D01*
Y-0115000D01*
X0594000D01*
Y-0112000D01*
X0593000D01*
Y-0110000D01*
X0592000D01*
Y-0109000D01*
X0590000D01*
Y-0108000D01*
X0572000D01*
G37*
G36*
X1623000Y-0750000D02*
Y-0751000D01*
X1622000D01*
Y-0752000D01*
X1621000D01*
Y-0755000D01*
X1620000D01*
Y-0759000D01*
X1619000D01*
Y-0764000D01*
X1618000D01*
Y-0774000D01*
X1619000D01*
Y-0775000D01*
X1620000D01*
Y-0776000D01*
X1623000D01*
Y-0775000D01*
X1624000D01*
Y-0774000D01*
X1625000D01*
Y-0766000D01*
X1626000D01*
Y-0761000D01*
X1627000D01*
Y-0757000D01*
X1628000D01*
Y-0752000D01*
X1627000D01*
Y-0751000D01*
X1626000D01*
Y-0750000D01*
X1623000D01*
G37*
G36*
X0442000Y-0274000D02*
Y-0275000D01*
X0441000D01*
Y-0276000D01*
X0440000D01*
Y-0277000D01*
X0439000D01*
Y-0279000D01*
X0438000D01*
Y-0280000D01*
X0437000D01*
Y-0281000D01*
X0436000D01*
Y-0282000D01*
X0435000D01*
Y-0283000D01*
X0434000D01*
Y-0284000D01*
X0433000D01*
Y-0286000D01*
X0432000D01*
Y-0291000D01*
X0433000D01*
Y-0292000D01*
X0435000D01*
Y-0293000D01*
X0436000D01*
Y-0294000D01*
X0437000D01*
Y-0295000D01*
X0438000D01*
Y-0296000D01*
X0439000D01*
Y-0297000D01*
X0440000D01*
Y-0298000D01*
X0441000D01*
Y-0299000D01*
X0447000D01*
Y-0298000D01*
X0448000D01*
Y-0275000D01*
X0447000D01*
Y-0274000D01*
X0442000D01*
G37*
G36*
X0772000Y-0708000D02*
Y-0709000D01*
X0770000D01*
Y-0710000D01*
X0769000D01*
Y-0712000D01*
X0768000D01*
Y-0715000D01*
X0769000D01*
Y-0717000D01*
X0770000D01*
Y-0718000D01*
X0772000D01*
Y-0719000D01*
X0790000D01*
Y-0718000D01*
X0792000D01*
Y-0717000D01*
X0793000D01*
Y-0715000D01*
X0794000D01*
Y-0712000D01*
X0793000D01*
Y-0710000D01*
X0792000D01*
Y-0709000D01*
X0790000D01*
Y-0708000D01*
X0772000D01*
G37*
G36*
X0972000D02*
Y-0709000D01*
X0970000D01*
Y-0710000D01*
X0969000D01*
Y-0712000D01*
X0968000D01*
Y-0715000D01*
X0969000D01*
Y-0717000D01*
X0970000D01*
Y-0718000D01*
X0972000D01*
Y-0719000D01*
X0990000D01*
Y-0718000D01*
X0992000D01*
Y-0717000D01*
X0993000D01*
Y-0715000D01*
X0994000D01*
Y-0712000D01*
X0993000D01*
Y-0710000D01*
X0992000D01*
Y-0709000D01*
X0990000D01*
Y-0708000D01*
X0972000D01*
G37*
G36*
X0672000Y-0108000D02*
Y-0109000D01*
X0670000D01*
Y-0110000D01*
X0669000D01*
Y-0112000D01*
X0668000D01*
Y-0115000D01*
X0669000D01*
Y-0117000D01*
X0670000D01*
Y-0118000D01*
X0672000D01*
Y-0119000D01*
X0690000D01*
Y-0118000D01*
X0692000D01*
Y-0117000D01*
X0693000D01*
Y-0115000D01*
X0694000D01*
Y-0112000D01*
X0693000D01*
Y-0110000D01*
X0692000D01*
Y-0109000D01*
X0690000D01*
Y-0108000D01*
X0672000D01*
G37*
G36*
X1272000Y-0708000D02*
Y-0709000D01*
X1270000D01*
Y-0710000D01*
X1269000D01*
Y-0712000D01*
X1268000D01*
Y-0715000D01*
X1269000D01*
Y-0717000D01*
X1270000D01*
Y-0718000D01*
X1272000D01*
Y-0719000D01*
X1290000D01*
Y-0718000D01*
X1292000D01*
Y-0717000D01*
X1292999D01*
Y-0715000D01*
X1294000D01*
Y-0712000D01*
X1292999D01*
Y-0710000D01*
X1292000D01*
Y-0709000D01*
X1290000D01*
Y-0708000D01*
X1272000D01*
G37*
G36*
X0772000Y-0108000D02*
Y-0109000D01*
X0770000D01*
Y-0110000D01*
X0769000D01*
Y-0112000D01*
X0768000D01*
Y-0115000D01*
X0769000D01*
Y-0117000D01*
X0770000D01*
Y-0118000D01*
X0772000D01*
Y-0119000D01*
X0790000D01*
Y-0118000D01*
X0792000D01*
Y-0117000D01*
X0793000D01*
Y-0115000D01*
X0794000D01*
Y-0112000D01*
X0793000D01*
Y-0110000D01*
X0792000D01*
Y-0109000D01*
X0790000D01*
Y-0108000D01*
X0772000D01*
G37*
G36*
X1479000Y-0524000D02*
Y-0525000D01*
X1478000D01*
Y-0526000D01*
X1477000D01*
Y-0530000D01*
X1476000D01*
Y-0533000D01*
X1475000D01*
Y-0541000D01*
X1476000D01*
Y-0542000D01*
X1477000D01*
Y-0543000D01*
X1478000D01*
Y-0544000D01*
X1481000D01*
Y-0545000D01*
X1487000D01*
Y-0544000D01*
X1490000D01*
Y-0543000D01*
X1492000D01*
Y-0542000D01*
X1493000D01*
Y-0541000D01*
X1494000D01*
Y-0539000D01*
X1495000D01*
Y-0527000D01*
X1494000D01*
Y-0526000D01*
X1493000D01*
Y-0525000D01*
X1489000D01*
Y-0526000D01*
X1488000D01*
Y-0527000D01*
X1487000D01*
Y-0530000D01*
X1488000D01*
Y-0536000D01*
X1487000D01*
Y-0537000D01*
X1482000D01*
Y-0536000D01*
X1483000D01*
Y-0533000D01*
X1484000D01*
Y-0526000D01*
X1483000D01*
Y-0525000D01*
X1482000D01*
Y-0524000D01*
X1479000D01*
G37*
G36*
X0872000Y-0108000D02*
Y-0109000D01*
X0870000D01*
Y-0110000D01*
X0869000D01*
Y-0112000D01*
X0868000D01*
Y-0115000D01*
X0869000D01*
Y-0117000D01*
X0870000D01*
Y-0118000D01*
X0872000D01*
Y-0119000D01*
X0890000D01*
Y-0118000D01*
X0892000D01*
Y-0117000D01*
X0893000D01*
Y-0115000D01*
X0894000D01*
Y-0112000D01*
X0893000D01*
Y-0110000D01*
X0892000D01*
Y-0109000D01*
X0890000D01*
Y-0108000D01*
X0872000D01*
G37*
G36*
X1072000D02*
Y-0109000D01*
X1070000D01*
Y-0110000D01*
X1068999D01*
Y-0112000D01*
X1068000D01*
Y-0115000D01*
X1068999D01*
Y-0117000D01*
X1070000D01*
Y-0118000D01*
X1072000D01*
Y-0119000D01*
X1090000D01*
Y-0118000D01*
X1092000D01*
Y-0117000D01*
X1092999D01*
Y-0115000D01*
X1094000D01*
Y-0112000D01*
X1092999D01*
Y-0110000D01*
X1092000D01*
Y-0109000D01*
X1090000D01*
Y-0108000D01*
X1072000D01*
G37*
G36*
X0272000Y-0708000D02*
Y-0709000D01*
X0270000D01*
Y-0710000D01*
X0269000D01*
Y-0712000D01*
X0268000D01*
Y-0715000D01*
X0269000D01*
Y-0717000D01*
X0270000D01*
Y-0718000D01*
X0272000D01*
Y-0719000D01*
X0290000D01*
Y-0718000D01*
X0292000D01*
Y-0717000D01*
X0293000D01*
Y-0715000D01*
X0294000D01*
Y-0712000D01*
X0293000D01*
Y-0710000D01*
X0292000D01*
Y-0709000D01*
X0290000D01*
Y-0708000D01*
X0272000D01*
G37*
G36*
X0742000Y-0488000D02*
Y-0489000D01*
X0741000D01*
Y-0490000D01*
X0740000D01*
Y-0491000D01*
X0739000D01*
Y-0493000D01*
X0738000D01*
Y-0495000D01*
X0737000D01*
Y-0506000D01*
X0738000D01*
Y-0507000D01*
X0739000D01*
Y-0508000D01*
X0740000D01*
Y-0509000D01*
X0741000D01*
Y-0510000D01*
X0742000D01*
Y-0511000D01*
X0752000D01*
Y-0510000D01*
X0753000D01*
Y-0509000D01*
X0755000D01*
Y-0508000D01*
X0756000D01*
Y-0507000D01*
X0757000D01*
Y-0506000D01*
X0758000D01*
Y-0505000D01*
X0759000D01*
Y-0502000D01*
X0760000D01*
Y-0491000D01*
X0759000D01*
Y-0490000D01*
X0758000D01*
Y-0489000D01*
X0755000D01*
Y-0490000D01*
X0754000D01*
Y-0491000D01*
X0753000D01*
Y-0499000D01*
X0752000D01*
Y-0502000D01*
X0751000D01*
Y-0503000D01*
X0749000D01*
Y-0504000D01*
X0745000D01*
Y-0503000D01*
X0744000D01*
Y-0497000D01*
X0745000D01*
Y-0495000D01*
X0746000D01*
Y-0494000D01*
X0747000D01*
Y-0490000D01*
X0746000D01*
Y-0489000D01*
X0745000D01*
Y-0488000D01*
X0742000D01*
G37*
G36*
X1572000Y-0708000D02*
Y-0709000D01*
X1570000D01*
Y-0710000D01*
X1569000D01*
Y-0712000D01*
X1568000D01*
Y-0715000D01*
X1569000D01*
Y-0717000D01*
X1570000D01*
Y-0718000D01*
X1572000D01*
Y-0719000D01*
X1590000D01*
Y-0718000D01*
X1592000D01*
Y-0717000D01*
X1593000D01*
Y-0715000D01*
X1594000D01*
Y-0712000D01*
X1593000D01*
Y-0710000D01*
X1592000D01*
Y-0709000D01*
X1590000D01*
Y-0708000D01*
X1572000D01*
G37*
G36*
X0872000Y-0738000D02*
Y-0739000D01*
X0871000D01*
Y-0740000D01*
X0870000D01*
Y-0760000D01*
X0869000D01*
Y-0761000D01*
X0868000D01*
Y-0760000D01*
X0867000D01*
Y-0756000D01*
X0866000D01*
Y-0755000D01*
X0865000D01*
Y-0754000D01*
X0862000D01*
Y-0755000D01*
X0861000D01*
Y-0756000D01*
X0860000D01*
Y-0762000D01*
X0861000D01*
Y-0765000D01*
X0862000D01*
Y-0766000D01*
X0863000D01*
Y-0767000D01*
X0864000D01*
Y-0768000D01*
X0872000D01*
Y-0767000D01*
X0873000D01*
Y-0766000D01*
X0874000D01*
Y-0765000D01*
X0875000D01*
Y-0764000D01*
X0876000D01*
Y-0763000D01*
X0877000D01*
Y-0740000D01*
X0876000D01*
Y-0739000D01*
X0875000D01*
Y-0738000D01*
X0872000D01*
G37*
G36*
X0143000Y-0049000D02*
Y-0050000D01*
X0142000D01*
Y-0051000D01*
X0141000D01*
Y-0052000D01*
X0140000D01*
Y-0054000D01*
X0139000D01*
Y-0059000D01*
X0140000D01*
Y-0060000D01*
X0141000D01*
Y-0061000D01*
X0144000D01*
Y-0060000D01*
X0145000D01*
Y-0059000D01*
X0146000D01*
Y-0056000D01*
X0150000D01*
Y-0057000D01*
X0151000D01*
Y-0059000D01*
X0150000D01*
Y-0061000D01*
X0149000D01*
Y-0063000D01*
X0148000D01*
Y-0064000D01*
X0147000D01*
Y-0065000D01*
X0146000D01*
Y-0066000D01*
X0145000D01*
Y-0067000D01*
X0144000D01*
Y-0068000D01*
X0143000D01*
Y-0069000D01*
X0141000D01*
Y-0070000D01*
X0140000D01*
Y-0071000D01*
X0139000D01*
Y-0072000D01*
X0138000D01*
Y-0073000D01*
X0137000D01*
Y-0077000D01*
X0138000D01*
Y-0078000D01*
X0139000D01*
Y-0079000D01*
X0156000D01*
Y-0078000D01*
X0157000D01*
Y-0077000D01*
X0158000D01*
Y-0074000D01*
X0157000D01*
Y-0073000D01*
X0156000D01*
Y-0072000D01*
X0150000D01*
Y-0071000D01*
X0151000D01*
Y-0070000D01*
X0152000D01*
Y-0069000D01*
X0153000D01*
Y-0068000D01*
X0154000D01*
Y-0066000D01*
X0155000D01*
Y-0065000D01*
X0156000D01*
Y-0064000D01*
X0157000D01*
Y-0061000D01*
X0158000D01*
Y-0054000D01*
X0157000D01*
Y-0052000D01*
X0156000D01*
Y-0051000D01*
X0155000D01*
Y-0050000D01*
X0152000D01*
Y-0049000D01*
X0143000D01*
G37*
G36*
X0972000Y-0108000D02*
Y-0109000D01*
X0970000D01*
Y-0110000D01*
X0969000D01*
Y-0112000D01*
X0968000D01*
Y-0115000D01*
X0969000D01*
Y-0117000D01*
X0970000D01*
Y-0118000D01*
X0972000D01*
Y-0119000D01*
X0990000D01*
Y-0118000D01*
X0992000D01*
Y-0117000D01*
X0993000D01*
Y-0115000D01*
X0994000D01*
Y-0112000D01*
X0993000D01*
Y-0110000D01*
X0992000D01*
Y-0109000D01*
X0990000D01*
Y-0108000D01*
X0972000D01*
G37*
G36*
X1554000Y-0304000D02*
Y-0305000D01*
X1552999D01*
Y-0306000D01*
X1552000D01*
Y-0310000D01*
X1552999D01*
Y-0327000D01*
X1554000D01*
Y-0328000D01*
X1554999D01*
Y-0329000D01*
X1558000D01*
Y-0328000D01*
X1558999D01*
Y-0327000D01*
X1560000D01*
Y-0307000D01*
X1558999D01*
Y-0306000D01*
X1558000D01*
Y-0305000D01*
X1556999D01*
Y-0304000D01*
X1554000D01*
G37*
G36*
X0372000Y-0708000D02*
Y-0709000D01*
X0370000D01*
Y-0710000D01*
X0369000D01*
Y-0712000D01*
X0368000D01*
Y-0715000D01*
X0369000D01*
Y-0717000D01*
X0370000D01*
Y-0718000D01*
X0372000D01*
Y-0719000D01*
X0390000D01*
Y-0718000D01*
X0392000D01*
Y-0717000D01*
X0393000D01*
Y-0715000D01*
X0394000D01*
Y-0712000D01*
X0393000D01*
Y-0710000D01*
X0392000D01*
Y-0709000D01*
X0390000D01*
Y-0708000D01*
X0372000D01*
G37*
G36*
X1171999Y-0108000D02*
Y-0109000D01*
X1169999D01*
Y-0110000D01*
X1169000D01*
Y-0112000D01*
X1167999D01*
Y-0115000D01*
X1169000D01*
Y-0117000D01*
X1169999D01*
Y-0118000D01*
X1171999D01*
Y-0119000D01*
X1189999D01*
Y-0118000D01*
X1191999D01*
Y-0117000D01*
X1193000D01*
Y-0115000D01*
X1193999D01*
Y-0112000D01*
X1193000D01*
Y-0110000D01*
X1191999D01*
Y-0109000D01*
X1189999D01*
Y-0108000D01*
X1171999D01*
G37*
G36*
X0672000Y-0708000D02*
Y-0709000D01*
X0670000D01*
Y-0710000D01*
X0669000D01*
Y-0712000D01*
X0668000D01*
Y-0715000D01*
X0669000D01*
Y-0717000D01*
X0670000D01*
Y-0718000D01*
X0672000D01*
Y-0719000D01*
X0690000D01*
Y-0718000D01*
X0692000D01*
Y-0717000D01*
X0693000D01*
Y-0715000D01*
X0694000D01*
Y-0712000D01*
X0693000D01*
Y-0710000D01*
X0692000D01*
Y-0709000D01*
X0690000D01*
Y-0708000D01*
X0672000D01*
G37*
G36*
X1463000Y-0510000D02*
Y-0511000D01*
X1461000D01*
Y-0512000D01*
X1459999D01*
Y-0514000D01*
X1459000D01*
Y-0525000D01*
X1453999D01*
Y-0526000D01*
X1447000D01*
Y-0527000D01*
X1445000D01*
Y-0528000D01*
X1443999D01*
Y-0530000D01*
X1443000D01*
Y-0533000D01*
X1443999D01*
Y-0535000D01*
X1445000D01*
Y-0536000D01*
X1447000D01*
Y-0537000D01*
X1457000D01*
Y-0536000D01*
X1467000D01*
Y-0535000D01*
X1469000D01*
Y-0534000D01*
X1470000D01*
Y-0532000D01*
X1471000D01*
Y-0524000D01*
X1470000D01*
Y-0514000D01*
X1469000D01*
Y-0512000D01*
X1468000D01*
Y-0511000D01*
X1465999D01*
Y-0510000D01*
X1463000D01*
G37*
G36*
X1272000Y-0108000D02*
Y-0109000D01*
X1270000D01*
Y-0110000D01*
X1269000D01*
Y-0112000D01*
X1268000D01*
Y-0115000D01*
X1269000D01*
Y-0117000D01*
X1270000D01*
Y-0118000D01*
X1272000D01*
Y-0119000D01*
X1290000D01*
Y-0118000D01*
X1292000D01*
Y-0117000D01*
X1292999D01*
Y-0115000D01*
X1294000D01*
Y-0112000D01*
X1292999D01*
Y-0110000D01*
X1292000D01*
Y-0109000D01*
X1290000D01*
Y-0108000D01*
X1272000D01*
G37*
G36*
X1372000D02*
Y-0109000D01*
X1370000D01*
Y-0110000D01*
X1369000D01*
Y-0112000D01*
X1368000D01*
Y-0115000D01*
X1369000D01*
Y-0117000D01*
X1370000D01*
Y-0118000D01*
X1372000D01*
Y-0119000D01*
X1390000D01*
Y-0118000D01*
X1392000D01*
Y-0117000D01*
X1393000D01*
Y-0115000D01*
X1394000D01*
Y-0112000D01*
X1393000D01*
Y-0110000D01*
X1392000D01*
Y-0109000D01*
X1390000D01*
Y-0108000D01*
X1372000D01*
G37*
G36*
X0414000Y-0569000D02*
Y-0570000D01*
X0413000D01*
Y-0571000D01*
X0412000D01*
Y-0578000D01*
X0411000D01*
Y-0592000D01*
X0412000D01*
Y-0596000D01*
X0413000D01*
Y-0597000D01*
X0414000D01*
Y-0598000D01*
X0417000D01*
Y-0597000D01*
X0418000D01*
Y-0596000D01*
X0419000D01*
Y-0590000D01*
X0418000D01*
Y-0581000D01*
X0419000D01*
Y-0571000D01*
X0418000D01*
Y-0570000D01*
X0417000D01*
Y-0569000D01*
X0414000D01*
G37*
G36*
X1472000Y-0108000D02*
Y-0109000D01*
X1470000D01*
Y-0110000D01*
X1469000D01*
Y-0112000D01*
X1468000D01*
Y-0115000D01*
X1469000D01*
Y-0117000D01*
X1470000D01*
Y-0118000D01*
X1472000D01*
Y-0119000D01*
X1490000D01*
Y-0118000D01*
X1492000D01*
Y-0117000D01*
X1493000D01*
Y-0115000D01*
X1494000D01*
Y-0112000D01*
X1493000D01*
Y-0110000D01*
X1492000D01*
Y-0109000D01*
X1490000D01*
Y-0108000D01*
X1472000D01*
G37*
G36*
X1572000D02*
Y-0109000D01*
X1570000D01*
Y-0110000D01*
X1569000D01*
Y-0112000D01*
X1568000D01*
Y-0115000D01*
X1569000D01*
Y-0117000D01*
X1570000D01*
Y-0118000D01*
X1572000D01*
Y-0119000D01*
X1590000D01*
Y-0118000D01*
X1592000D01*
Y-0117000D01*
X1593000D01*
Y-0115000D01*
X1594000D01*
Y-0112000D01*
X1593000D01*
Y-0110000D01*
X1592000D01*
Y-0109000D01*
X1590000D01*
Y-0108000D01*
X1572000D01*
G37*
G36*
X0131000Y-0145000D02*
Y-0146000D01*
X0129000D01*
Y-0147000D01*
X0128000D01*
Y-0148000D01*
X0127000D01*
Y-0150000D01*
X0126000D01*
Y-0167000D01*
X0127000D01*
Y-0169000D01*
X0128000D01*
Y-0170000D01*
X0130000D01*
Y-0171000D01*
X0133000D01*
Y-0170000D01*
X0135000D01*
Y-0169000D01*
X0136000D01*
Y-0167000D01*
X0137000D01*
Y-0153000D01*
X0138000D01*
Y-0149000D01*
X0137000D01*
Y-0147000D01*
X0136000D01*
Y-0146000D01*
X0134000D01*
Y-0145000D01*
X0131000D01*
G37*
G36*
X0172000Y-0708000D02*
Y-0709000D01*
X0170000D01*
Y-0710000D01*
X0169000D01*
Y-0712000D01*
X0168000D01*
Y-0715000D01*
X0169000D01*
Y-0717000D01*
X0170000D01*
Y-0718000D01*
X0172000D01*
Y-0719000D01*
X0190000D01*
Y-0718000D01*
X0192000D01*
Y-0717000D01*
X0193000D01*
Y-0715000D01*
X0194000D01*
Y-0712000D01*
X0193000D01*
Y-0710000D01*
X0192000D01*
Y-0709000D01*
X0190000D01*
Y-0708000D01*
X0172000D01*
G37*
G36*
X1502000Y-0524000D02*
Y-0525000D01*
X1501000D01*
Y-0526000D01*
X1500000D01*
Y-0539000D01*
X1499000D01*
Y-0543000D01*
X1500000D01*
Y-0544000D01*
X1501000D01*
Y-0545000D01*
X1504000D01*
Y-0544000D01*
X1505000D01*
Y-0543000D01*
X1506000D01*
Y-0542000D01*
X1507000D01*
Y-0526000D01*
X1506000D01*
Y-0525000D01*
X1505000D01*
Y-0524000D01*
X1502000D01*
G37*
G36*
X0472000Y-0708000D02*
Y-0709000D01*
X0470000D01*
Y-0710000D01*
X0469000D01*
Y-0712000D01*
X0468000D01*
Y-0715000D01*
X0469000D01*
Y-0717000D01*
X0470000D01*
Y-0718000D01*
X0472000D01*
Y-0719000D01*
X0490000D01*
Y-0718000D01*
X0492000D01*
Y-0717000D01*
X0493000D01*
Y-0715000D01*
X0494000D01*
Y-0712000D01*
X0493000D01*
Y-0710000D01*
X0492000D01*
Y-0709000D01*
X0490000D01*
Y-0708000D01*
X0472000D01*
G37*
G36*
X0736000Y-0466000D02*
Y-0467000D01*
X0734000D01*
Y-0468000D01*
X0733000D01*
Y-0470000D01*
X0732000D01*
Y-0473000D01*
X0733000D01*
Y-0475000D01*
X0734000D01*
Y-0476000D01*
X0736000D01*
Y-0477000D01*
X0739000D01*
Y-0476000D01*
X0741000D01*
Y-0475000D01*
X0742000D01*
Y-0473000D01*
X0743000D01*
Y-0470000D01*
X0742000D01*
Y-0468000D01*
X0741000D01*
Y-0467000D01*
X0739000D01*
Y-0466000D01*
X0736000D01*
G37*
G36*
X0133000Y-0658000D02*
Y-0659000D01*
X0131000D01*
Y-0660000D01*
X0130000D01*
Y-0662000D01*
X0129000D01*
Y-0672000D01*
X0128000D01*
Y-0679000D01*
X0129000D01*
Y-0681000D01*
X0130000D01*
Y-0682000D01*
X0132000D01*
Y-0683000D01*
X0135000D01*
Y-0682000D01*
X0137000D01*
Y-0681000D01*
X0138000D01*
Y-0679000D01*
X0139000D01*
Y-0675000D01*
X0140000D01*
Y-0666000D01*
X0141000D01*
Y-0662000D01*
X0140000D01*
Y-0660000D01*
X0139000D01*
Y-0659000D01*
X0137000D01*
Y-0658000D01*
X0133000D01*
G37*
G36*
X0129000Y-0752000D02*
Y-0753000D01*
X0128000D01*
Y-0754000D01*
X0127000D01*
Y-0761000D01*
X0126000D01*
Y-0768000D01*
X0125000D01*
Y-0774000D01*
X0124000D01*
Y-0777000D01*
X0125000D01*
Y-0778000D01*
X0126000D01*
Y-0779000D01*
X0130000D01*
Y-0778000D01*
X0131000D01*
Y-0777000D01*
X0132000D01*
Y-0770000D01*
X0133000D01*
Y-0763000D01*
X0134000D01*
Y-0754000D01*
X0133000D01*
Y-0753000D01*
X0132000D01*
Y-0752000D01*
X0129000D01*
G37*
G36*
X0794000Y-0227000D02*
Y-0228000D01*
X0759000D01*
Y-0229000D01*
X0758000D01*
Y-0230000D01*
X0757000D01*
Y-0233000D01*
X0756000D01*
Y-0239000D01*
X0757000D01*
X0758000D01*
X0759000D01*
X0760000D01*
X0761000D01*
X0762000D01*
X0763000D01*
X0764000D01*
X0765000D01*
X0766000D01*
X0797000D01*
Y-0251000D01*
X0798000D01*
Y-0254000D01*
X0797000D01*
Y-0259000D01*
X0796000D01*
Y-0266000D01*
X0766000D01*
Y-0248000D01*
X0767000D01*
Y-0239000D01*
X0766000D01*
X0765000D01*
X0764000D01*
X0763000D01*
X0762000D01*
X0761000D01*
X0760000D01*
X0759000D01*
X0758000D01*
X0757000D01*
X0756000D01*
Y-0242000D01*
X0755000D01*
Y-0274000D01*
X0756000D01*
Y-0275000D01*
X0757000D01*
Y-0276000D01*
X0760000D01*
Y-0277000D01*
X0804000D01*
Y-0276000D01*
X0806000D01*
Y-0275000D01*
X0807000D01*
Y-0274000D01*
X0808000D01*
Y-0267000D01*
X0807000D01*
Y-0265000D01*
X0808000D01*
Y-0260000D01*
X0809000D01*
Y-0245000D01*
X0808000D01*
Y-0236000D01*
X0809000D01*
Y-0229000D01*
X0808000D01*
Y-0228000D01*
X0807000D01*
Y-0227000D01*
X0794000D01*
G37*
G36*
X0531000Y-0225000D02*
Y-0226000D01*
X0496000D01*
Y-0227000D01*
X0495000D01*
Y-0228000D01*
X0494000D01*
Y-0231000D01*
X0493000D01*
Y-0237000D01*
X0494000D01*
X0495000D01*
X0496000D01*
X0497000D01*
X0498000D01*
X0499000D01*
X0500000D01*
X0501000D01*
X0502000D01*
X0503000D01*
X0534000D01*
Y-0249000D01*
X0535000D01*
Y-0252000D01*
X0534000D01*
Y-0257000D01*
X0533000D01*
Y-0264000D01*
X0503000D01*
Y-0246000D01*
X0504000D01*
Y-0237000D01*
X0503000D01*
X0502000D01*
X0501000D01*
X0500000D01*
X0499000D01*
X0498000D01*
X0497000D01*
X0496000D01*
X0495000D01*
X0494000D01*
X0493000D01*
Y-0240000D01*
X0492000D01*
Y-0272000D01*
X0493000D01*
Y-0273000D01*
X0494000D01*
Y-0274000D01*
X0497000D01*
Y-0275000D01*
X0541000D01*
Y-0274000D01*
X0543000D01*
Y-0273000D01*
X0544000D01*
Y-0272000D01*
X0545000D01*
Y-0265000D01*
X0544000D01*
Y-0263000D01*
X0545000D01*
Y-0258000D01*
X0546000D01*
Y-0243000D01*
X0545000D01*
Y-0234000D01*
X0546000D01*
Y-0227000D01*
X0545000D01*
Y-0226000D01*
X0544000D01*
Y-0225000D01*
X0531000D01*
G37*
G36*
X1535000Y-0304000D02*
Y-0305000D01*
X1533000D01*
Y-0306000D01*
X1531000D01*
Y-0307000D01*
X1530000D01*
Y-0308000D01*
X1529000D01*
Y-0309000D01*
X1528000D01*
Y-0310000D01*
X1527000D01*
Y-0311000D01*
X1526000D01*
Y-0313000D01*
X1525000D01*
Y-0325000D01*
X1526000D01*
Y-0326000D01*
X1527000D01*
Y-0327000D01*
X1528000D01*
Y-0328000D01*
X1529000D01*
Y-0329000D01*
X1531000D01*
Y-0330000D01*
X1533000D01*
Y-0331000D01*
X1536999D01*
Y-0330000D01*
X1540000D01*
Y-0329000D01*
X1540999D01*
Y-0328000D01*
X1542000D01*
Y-0327000D01*
X1542999D01*
Y-0324000D01*
X1542000D01*
Y-0323000D01*
X1540999D01*
Y-0322000D01*
X1536999D01*
Y-0323000D01*
X1533000D01*
Y-0322000D01*
X1532000D01*
Y-0316000D01*
X1533000D01*
Y-0313000D01*
X1535000D01*
Y-0312000D01*
X1536999D01*
Y-0311000D01*
X1538000D01*
Y-0312000D01*
X1540000D01*
Y-0313000D01*
X1542999D01*
Y-0312000D01*
X1544000D01*
Y-0311000D01*
X1544999D01*
Y-0308000D01*
X1544000D01*
Y-0307000D01*
X1542999D01*
Y-0306000D01*
X1542000D01*
Y-0305000D01*
X1540000D01*
Y-0304000D01*
X1535000D01*
G37*
G36*
X0835000Y-0234000D02*
Y-0235000D01*
X0833000D01*
Y-0236000D01*
X0831000D01*
Y-0237000D01*
X0830000D01*
Y-0238000D01*
X0829000D01*
Y-0239000D01*
X0828000D01*
Y-0240000D01*
X0827000D01*
Y-0241000D01*
X0826000D01*
Y-0243000D01*
X0825000D01*
Y-0245000D01*
X0824000D01*
Y-0247000D01*
X0823000D01*
Y-0250000D01*
X0822000D01*
Y-0261000D01*
X0823000D01*
Y-0262000D01*
X0824000D01*
Y-0263000D01*
X0825000D01*
Y-0265000D01*
X0826000D01*
Y-0266000D01*
X0827000D01*
Y-0267000D01*
X0829000D01*
Y-0268000D01*
X0831000D01*
Y-0269000D01*
X0838000D01*
Y-0268000D01*
X0839000D01*
Y-0267000D01*
X0841000D01*
Y-0266000D01*
X0842000D01*
Y-0265000D01*
X0843000D01*
Y-0262000D01*
X0842000D01*
Y-0261000D01*
X0841000D01*
Y-0260000D01*
X0836000D01*
Y-0261000D01*
X0835000D01*
Y-0262000D01*
X0833000D01*
Y-0261000D01*
X0831000D01*
Y-0260000D01*
X0830000D01*
Y-0258000D01*
X0829000D01*
Y-0252000D01*
X0830000D01*
Y-0249000D01*
X0831000D01*
Y-0247000D01*
X0832000D01*
Y-0245000D01*
X0833000D01*
Y-0243000D01*
X0835000D01*
Y-0242000D01*
X0837000D01*
Y-0241000D01*
X0838000D01*
Y-0242000D01*
X0839000D01*
Y-0243000D01*
X0840000D01*
Y-0244000D01*
X0841000D01*
Y-0245000D01*
X0844000D01*
Y-0244000D01*
X0845000D01*
Y-0243000D01*
X0846000D01*
Y-0240000D01*
X0845000D01*
Y-0238000D01*
X0844000D01*
Y-0237000D01*
X0843000D01*
Y-0236000D01*
X0842000D01*
Y-0235000D01*
X0841000D01*
Y-0234000D01*
X0835000D01*
G37*
G36*
X1558000Y-0576000D02*
Y-0577000D01*
X1556999D01*
Y-0578000D01*
X1556000D01*
Y-0580000D01*
X1554999D01*
Y-0582000D01*
X1554000D01*
Y-0584000D01*
X1552999D01*
Y-0589000D01*
X1554000D01*
Y-0590000D01*
X1554999D01*
Y-0591000D01*
X1558000D01*
Y-0590000D01*
X1558999D01*
Y-0589000D01*
X1560000D01*
Y-0586000D01*
X1561000D01*
Y-0584000D01*
X1562000D01*
Y-0583000D01*
X1566000D01*
Y-0587000D01*
X1565000D01*
Y-0589000D01*
X1564000D01*
Y-0591000D01*
X1563000D01*
Y-0592000D01*
X1562000D01*
Y-0593000D01*
X1561000D01*
Y-0594000D01*
X1560000D01*
Y-0596000D01*
X1558999D01*
Y-0597000D01*
X1558000D01*
Y-0598000D01*
X1556999D01*
Y-0599000D01*
X1556000D01*
Y-0600000D01*
X1554999D01*
Y-0601000D01*
X1554000D01*
Y-0604000D01*
X1554999D01*
Y-0605000D01*
X1556000D01*
Y-0606000D01*
X1567000D01*
Y-0607000D01*
X1572000D01*
Y-0606000D01*
X1573000D01*
Y-0605000D01*
X1574000D01*
Y-0602000D01*
X1573000D01*
Y-0601000D01*
X1572000D01*
Y-0600000D01*
X1570000D01*
Y-0599000D01*
X1566000D01*
Y-0598000D01*
X1567000D01*
Y-0597000D01*
X1568000D01*
Y-0595000D01*
X1569000D01*
Y-0594000D01*
X1570000D01*
Y-0593000D01*
X1571000D01*
Y-0592000D01*
X1572000D01*
Y-0589000D01*
X1573000D01*
Y-0580000D01*
X1572000D01*
Y-0579000D01*
X1571000D01*
Y-0578000D01*
X1570000D01*
Y-0577000D01*
X1569000D01*
Y-0576000D01*
X1558000D01*
G37*
G36*
X0562000Y-0238000D02*
Y-0239000D01*
X0560000D01*
Y-0240000D01*
X0558000D01*
Y-0241000D01*
X0557000D01*
Y-0242000D01*
X0556000D01*
Y-0243000D01*
X0555000D01*
Y-0244000D01*
X0554000D01*
Y-0247000D01*
X0553000D01*
Y-0254000D01*
X0554000D01*
Y-0259000D01*
X0555000D01*
Y-0261000D01*
X0556000D01*
Y-0262000D01*
X0557000D01*
Y-0263000D01*
X0558000D01*
Y-0264000D01*
X0559000D01*
Y-0265000D01*
X0560000D01*
Y-0266000D01*
X0568000D01*
Y-0265000D01*
X0569000D01*
Y-0264000D01*
X0570000D01*
Y-0263000D01*
X0571000D01*
Y-0258000D01*
X0570000D01*
Y-0257000D01*
X0569000D01*
Y-0256000D01*
X0566000D01*
Y-0257000D01*
X0565000D01*
Y-0258000D01*
X0564000D01*
Y-0259000D01*
X0563000D01*
Y-0258000D01*
X0562000D01*
Y-0257000D01*
X0561000D01*
Y-0252000D01*
X0560000D01*
Y-0249000D01*
X0561000D01*
Y-0247000D01*
X0562000D01*
Y-0246000D01*
X0564000D01*
Y-0247000D01*
X0565000D01*
Y-0248000D01*
X0566000D01*
Y-0249000D01*
X0569000D01*
Y-0248000D01*
X0570000D01*
Y-0247000D01*
X0571000D01*
Y-0243000D01*
X0570000D01*
Y-0242000D01*
X0569000D01*
Y-0241000D01*
X0568000D01*
Y-0240000D01*
X0567000D01*
Y-0239000D01*
X0566000D01*
Y-0238000D01*
X0562000D01*
G37*
G36*
X0765000Y-0485000D02*
Y-0486000D01*
X0764000D01*
Y-0487000D01*
X0763000D01*
Y-0488000D01*
X0762000D01*
Y-0490000D01*
X0761000D01*
Y-0493000D01*
X0762000D01*
Y-0494000D01*
X0763000D01*
Y-0495000D01*
X0767000D01*
Y-0494000D01*
X0768000D01*
Y-0493000D01*
X0769000D01*
Y-0492000D01*
X0773000D01*
Y-0493000D01*
X0774000D01*
Y-0498000D01*
X0773000D01*
Y-0499000D01*
X0772000D01*
Y-0500000D01*
X0771000D01*
Y-0501000D01*
X0770000D01*
Y-0502000D01*
X0769000D01*
Y-0503000D01*
X0768000D01*
Y-0504000D01*
X0766000D01*
Y-0505000D01*
X0765000D01*
Y-0506000D01*
X0764000D01*
Y-0507000D01*
X0763000D01*
Y-0508000D01*
X0762000D01*
Y-0512000D01*
X0763000D01*
Y-0513000D01*
X0764000D01*
Y-0514000D01*
X0775000D01*
Y-0515000D01*
X0781000D01*
Y-0514000D01*
X0782000D01*
Y-0513000D01*
X0783000D01*
Y-0509000D01*
X0782000D01*
Y-0508000D01*
X0781000D01*
Y-0507000D01*
X0775000D01*
Y-0506000D01*
X0776000D01*
Y-0504000D01*
X0777000D01*
Y-0503000D01*
X0778000D01*
Y-0502000D01*
X0779000D01*
Y-0501000D01*
X0780000D01*
Y-0500000D01*
X0781000D01*
Y-0491000D01*
X0780000D01*
Y-0490000D01*
X0779000D01*
Y-0489000D01*
X0778000D01*
Y-0488000D01*
X0777000D01*
Y-0487000D01*
X0776000D01*
Y-0486000D01*
X0775000D01*
Y-0485000D01*
X0765000D01*
G37*
G36*
X0885000Y-0737000D02*
Y-0738000D01*
X0884000D01*
Y-0739000D01*
X0883000D01*
Y-0740000D01*
X0882000D01*
Y-0741000D01*
X0881000D01*
Y-0743000D01*
X0880000D01*
Y-0749000D01*
X0881000D01*
Y-0750000D01*
X0882000D01*
Y-0751000D01*
X0885000D01*
Y-0750000D01*
X0886000D01*
Y-0749000D01*
X0887000D01*
Y-0746000D01*
X0888000D01*
Y-0744000D01*
X0890000D01*
Y-0745000D01*
X0891000D01*
Y-0746000D01*
X0892000D01*
Y-0749000D01*
X0891000D01*
Y-0751000D01*
X0890000D01*
Y-0752000D01*
X0889000D01*
Y-0754000D01*
X0888000D01*
Y-0755000D01*
X0887000D01*
Y-0756000D01*
X0886000D01*
Y-0757000D01*
X0885000D01*
Y-0758000D01*
X0884000D01*
Y-0759000D01*
X0883000D01*
Y-0760000D01*
X0882000D01*
Y-0761000D01*
X0881000D01*
Y-0762000D01*
X0880000D01*
Y-0766000D01*
X0881000D01*
Y-0767000D01*
X0882000D01*
Y-0768000D01*
X0891000D01*
Y-0767000D01*
X0896000D01*
Y-0768000D01*
X0900000D01*
Y-0767000D01*
X0901000D01*
Y-0766000D01*
X0902000D01*
Y-0763000D01*
X0901000D01*
Y-0762000D01*
X0900000D01*
Y-0761000D01*
X0898000D01*
Y-0760000D01*
X0893000D01*
Y-0759000D01*
X0894000D01*
Y-0757000D01*
X0895000D01*
Y-0756000D01*
X0896000D01*
Y-0754000D01*
X0897000D01*
Y-0753000D01*
X0898000D01*
Y-0751000D01*
X0899000D01*
Y-0743000D01*
X0898000D01*
Y-0741000D01*
X0897000D01*
Y-0740000D01*
X0896000D01*
Y-0739000D01*
X0895000D01*
Y-0738000D01*
X0893000D01*
Y-0737000D01*
X0885000D01*
G37*
G36*
X1072000Y-0708000D02*
Y-0709000D01*
X1070000D01*
Y-0710000D01*
X1068999D01*
Y-0712000D01*
X1068000D01*
Y-0715000D01*
X1068999D01*
Y-0717000D01*
X1070000D01*
Y-0718000D01*
X1072000D01*
Y-0719000D01*
X1090000D01*
Y-0718000D01*
X1092000D01*
Y-0717000D01*
X1092999D01*
Y-0715000D01*
X1094000D01*
Y-0712000D01*
X1092999D01*
Y-0710000D01*
X1092000D01*
Y-0709000D01*
X1090000D01*
Y-0708000D01*
X1072000D01*
G37*
G36*
X1225999Y-0290000D02*
Y-0291000D01*
X1223999D01*
Y-0292000D01*
X1223000D01*
Y-0294000D01*
X1221999D01*
Y-0312000D01*
X1223000D01*
Y-0314000D01*
X1223999D01*
Y-0315000D01*
X1225999D01*
Y-0316000D01*
X1229000D01*
Y-0315000D01*
X1231000D01*
Y-0314000D01*
X1231999D01*
Y-0312000D01*
X1233000D01*
Y-0301000D01*
X1245000D01*
Y-0300000D01*
X1247000D01*
Y-0299000D01*
X1248000D01*
Y-0297000D01*
X1249000D01*
Y-0294000D01*
X1248000D01*
Y-0292000D01*
X1247000D01*
Y-0291000D01*
X1245000D01*
Y-0290000D01*
X1225999D01*
G37*
G36*
X0582000Y-0236000D02*
Y-0237000D01*
X0580000D01*
Y-0238000D01*
X0579000D01*
Y-0239000D01*
X0578000D01*
Y-0240000D01*
X0577000D01*
Y-0241000D01*
X0576000D01*
Y-0243000D01*
X0575000D01*
Y-0247000D01*
X0576000D01*
Y-0248000D01*
X0577000D01*
Y-0249000D01*
X0580000D01*
Y-0248000D01*
X0581000D01*
Y-0247000D01*
X0582000D01*
Y-0245000D01*
X0583000D01*
Y-0244000D01*
X0585000D01*
Y-0243000D01*
X0586000D01*
Y-0246000D01*
X0587000D01*
Y-0248000D01*
X0585000D01*
Y-0249000D01*
X0582000D01*
Y-0250000D01*
X0581000D01*
Y-0251000D01*
X0580000D01*
Y-0254000D01*
X0581000D01*
Y-0255000D01*
X0582000D01*
Y-0256000D01*
X0588000D01*
Y-0258000D01*
X0587000D01*
Y-0259000D01*
X0585000D01*
Y-0258000D01*
X0582000D01*
Y-0257000D01*
X0577000D01*
Y-0258000D01*
X0576000D01*
Y-0259000D01*
X0575000D01*
Y-0262000D01*
X0576000D01*
Y-0263000D01*
X0577000D01*
Y-0264000D01*
X0579000D01*
Y-0265000D01*
X0582000D01*
Y-0266000D01*
X0590000D01*
Y-0265000D01*
X0591000D01*
Y-0264000D01*
X0592000D01*
Y-0263000D01*
X0593000D01*
Y-0262000D01*
X0594000D01*
Y-0260000D01*
X0595000D01*
Y-0253000D01*
X0594000D01*
Y-0252000D01*
X0593000D01*
Y-0251000D01*
X0594000D01*
Y-0243000D01*
X0593000D01*
Y-0241000D01*
X0592000D01*
Y-0240000D01*
X0591000D01*
Y-0239000D01*
X0590000D01*
Y-0238000D01*
X0589000D01*
Y-0237000D01*
X0588000D01*
Y-0236000D01*
X0582000D01*
G37*
G36*
X0821000Y-0591000D02*
Y-0592000D01*
X0820000D01*
Y-0593000D01*
X0819000D01*
Y-0595000D01*
X0818000D01*
Y-0596000D01*
X0817000D01*
Y-0598000D01*
X0816000D01*
Y-0599000D01*
X0815000D01*
Y-0601000D01*
X0814000D01*
Y-0602000D01*
X0813000D01*
Y-0608000D01*
X0814000D01*
Y-0609000D01*
X0816000D01*
Y-0610000D01*
X0826000D01*
Y-0613000D01*
X0825000D01*
Y-0619000D01*
X0826000D01*
Y-0620000D01*
X0831000D01*
Y-0619000D01*
X0832000D01*
Y-0618000D01*
X0833000D01*
Y-0613000D01*
X0834000D01*
Y-0611000D01*
X0839000D01*
Y-0610000D01*
X0840000D01*
Y-0605000D01*
X0839000D01*
Y-0604000D01*
X0836000D01*
Y-0599000D01*
X0835000D01*
Y-0598000D01*
X0830000D01*
Y-0599000D01*
X0829000D01*
Y-0601000D01*
X0828000D01*
Y-0603000D01*
X0823000D01*
Y-0602000D01*
X0824000D01*
Y-0600000D01*
X0825000D01*
Y-0599000D01*
X0826000D01*
Y-0597000D01*
X0827000D01*
Y-0592000D01*
X0826000D01*
Y-0591000D01*
X0821000D01*
G37*
G36*
X0698000Y-0325000D02*
Y-0326000D01*
X0696000D01*
Y-0327000D01*
X0695000D01*
Y-0329000D01*
X0694000D01*
Y-0332000D01*
X0695000D01*
Y-0334000D01*
X0696000D01*
Y-0335000D01*
X0698000D01*
Y-0336000D01*
X0718000D01*
Y-0355000D01*
X0719000D01*
Y-0357000D01*
X0720000D01*
Y-0358000D01*
X0722000D01*
Y-0359000D01*
X0725000D01*
Y-0358000D01*
X0727000D01*
Y-0357000D01*
X0728000D01*
Y-0355000D01*
X0729000D01*
Y-0338000D01*
X0730000D01*
Y-0330000D01*
X0729000D01*
Y-0328000D01*
X0728000D01*
Y-0327000D01*
X0727000D01*
Y-0326000D01*
X0725000D01*
Y-0325000D01*
X0698000D01*
G37*
G36*
X0872000Y-0708000D02*
Y-0709000D01*
X0870000D01*
Y-0710000D01*
X0869000D01*
Y-0712000D01*
X0868000D01*
Y-0715000D01*
X0869000D01*
Y-0717000D01*
X0870000D01*
Y-0718000D01*
X0872000D01*
Y-0719000D01*
X0890000D01*
Y-0718000D01*
X0892000D01*
Y-0717000D01*
X0893000D01*
Y-0715000D01*
X0894000D01*
Y-0712000D01*
X0893000D01*
Y-0710000D01*
X0892000D01*
Y-0709000D01*
X0890000D01*
Y-0708000D01*
X0872000D01*
G37*
G36*
X0566000Y-0323000D02*
Y-0324000D01*
X0564000D01*
Y-0325000D01*
X0563000D01*
Y-0327000D01*
X0562000D01*
Y-0331000D01*
X0561000D01*
Y-0336000D01*
X0562000D01*
Y-0343000D01*
X0561000D01*
Y-0354000D01*
X0562000D01*
Y-0356000D01*
X0563000D01*
Y-0357000D01*
X0565000D01*
Y-0358000D01*
X0568000D01*
Y-0357000D01*
X0570000D01*
Y-0356000D01*
X0571000D01*
Y-0354000D01*
X0572000D01*
Y-0345000D01*
X0573000D01*
Y-0334000D01*
X0592000D01*
Y-0333000D01*
X0594000D01*
Y-0332000D01*
X0595000D01*
Y-0330000D01*
X0596000D01*
Y-0327000D01*
X0595000D01*
Y-0325000D01*
X0594000D01*
Y-0324000D01*
X0592000D01*
Y-0323000D01*
X0566000D01*
G37*
G36*
X0565000Y-0457000D02*
Y-0458000D01*
X0563000D01*
Y-0459000D01*
X0562000D01*
Y-0461000D01*
X0561000D01*
Y-0467000D01*
X0560000D01*
Y-0480000D01*
X0561000D01*
Y-0482000D01*
X0560000D01*
Y-0489000D01*
X0561000D01*
Y-0491000D01*
X0562000D01*
Y-0492000D01*
X0564000D01*
Y-0493000D01*
X0570000D01*
Y-0492000D01*
X0575000D01*
Y-0493000D01*
X0582000D01*
Y-0494000D01*
X0589000D01*
Y-0493000D01*
X0591000D01*
Y-0492000D01*
X0592000D01*
Y-0491000D01*
X0593000D01*
Y-0489000D01*
X0594000D01*
Y-0486000D01*
X0593000D01*
Y-0484000D01*
X0592000D01*
Y-0483000D01*
X0590000D01*
Y-0482000D01*
X0586000D01*
Y-0483000D01*
X0584000D01*
Y-0482000D01*
X0578000D01*
Y-0481000D01*
X0572000D01*
Y-0477000D01*
X0571000D01*
Y-0469000D01*
X0572000D01*
Y-0461000D01*
X0571000D01*
Y-0459000D01*
X0570000D01*
Y-0458000D01*
X0568000D01*
Y-0457000D01*
X0565000D01*
G37*
G36*
X0529000Y-0539000D02*
Y-0540000D01*
X0528000D01*
Y-0541000D01*
X0527000D01*
Y-0542000D01*
X0526000D01*
Y-0546000D01*
X0527000D01*
X0528000D01*
X0529000D01*
X0530000D01*
X0531000D01*
X0532000D01*
X0536000D01*
Y-0547000D01*
X0539000D01*
Y-0548000D01*
X0540000D01*
Y-0549000D01*
X0539000D01*
Y-0550000D01*
X0537000D01*
Y-0551000D01*
X0533000D01*
Y-0546000D01*
X0532000D01*
X0531000D01*
X0530000D01*
X0529000D01*
X0528000D01*
X0527000D01*
X0526000D01*
Y-0557000D01*
X0525000D01*
Y-0561000D01*
X0524000D01*
Y-0565000D01*
X0525000D01*
Y-0566000D01*
X0526000D01*
Y-0567000D01*
X0529000D01*
Y-0566000D01*
X0530000D01*
Y-0565000D01*
X0531000D01*
Y-0563000D01*
X0532000D01*
Y-0559000D01*
X0533000D01*
Y-0558000D01*
X0537000D01*
Y-0560000D01*
X0538000D01*
Y-0562000D01*
X0539000D01*
Y-0565000D01*
X0540000D01*
Y-0566000D01*
X0541000D01*
Y-0567000D01*
X0545000D01*
Y-0566000D01*
X0546000D01*
Y-0565000D01*
X0547000D01*
Y-0562000D01*
X0546000D01*
Y-0559000D01*
X0545000D01*
Y-0558000D01*
X0544000D01*
Y-0555000D01*
X0545000D01*
Y-0554000D01*
X0546000D01*
Y-0553000D01*
X0547000D01*
Y-0545000D01*
X0546000D01*
Y-0544000D01*
X0545000D01*
Y-0543000D01*
X0544000D01*
Y-0542000D01*
X0543000D01*
Y-0541000D01*
X0541000D01*
Y-0540000D01*
X0539000D01*
Y-0539000D01*
X0529000D01*
G37*
G36*
X0784000Y-0530000D02*
Y-0531000D01*
X0783000D01*
Y-0532000D01*
X0782000D01*
Y-0541000D01*
X0783000D01*
X0784000D01*
X0785000D01*
X0786000D01*
X0787000D01*
X0788000D01*
X0789000D01*
X0790000D01*
X0791000D01*
X0792000D01*
X0793000D01*
X0794000D01*
X0795000D01*
X0796000D01*
X0797000D01*
X0798000D01*
X0799000D01*
X0800000D01*
X0801000D01*
X0802000D01*
X0803000D01*
X0804000D01*
X0805000D01*
X0809000D01*
Y-0542000D01*
X0814000D01*
Y-0543000D01*
X0821000D01*
Y-0573000D01*
X0803000D01*
Y-0572000D01*
X0794000D01*
Y-0542000D01*
X0806000D01*
Y-0541000D01*
X0805000D01*
X0804000D01*
X0803000D01*
X0802000D01*
X0801000D01*
X0800000D01*
X0799000D01*
X0798000D01*
X0797000D01*
X0796000D01*
X0795000D01*
X0794000D01*
X0793000D01*
X0792000D01*
X0791000D01*
X0790000D01*
X0789000D01*
X0788000D01*
X0787000D01*
X0786000D01*
X0785000D01*
X0784000D01*
X0783000D01*
X0782000D01*
Y-0545000D01*
X0783000D01*
Y-0580000D01*
X0784000D01*
Y-0581000D01*
X0785000D01*
Y-0582000D01*
X0788000D01*
Y-0583000D01*
X0797000D01*
Y-0584000D01*
X0829000D01*
Y-0583000D01*
X0830000D01*
Y-0582000D01*
X0831000D01*
Y-0579000D01*
X0832000D01*
Y-0535000D01*
X0831000D01*
Y-0533000D01*
X0830000D01*
Y-0532000D01*
X0829000D01*
Y-0531000D01*
X0822000D01*
Y-0532000D01*
X0820000D01*
Y-0531000D01*
X0815000D01*
Y-0530000D01*
X0800000D01*
Y-0531000D01*
X0791000D01*
Y-0530000D01*
X0784000D01*
G37*
G36*
X0572000Y-0708000D02*
Y-0709000D01*
X0570000D01*
Y-0710000D01*
X0569000D01*
Y-0712000D01*
X0568000D01*
Y-0715000D01*
X0569000D01*
Y-0717000D01*
X0570000D01*
Y-0718000D01*
X0572000D01*
Y-0719000D01*
X0590000D01*
Y-0718000D01*
X0592000D01*
Y-0717000D01*
X0593000D01*
Y-0715000D01*
X0594000D01*
Y-0712000D01*
X0593000D01*
Y-0710000D01*
X0592000D01*
Y-0709000D01*
X0590000D01*
Y-0708000D01*
X0572000D01*
G37*
G36*
X0524000Y-0572000D02*
Y-0573000D01*
X0523000D01*
Y-0574000D01*
X0522000D01*
Y-0583000D01*
X0523000D01*
X0524000D01*
X0525000D01*
X0526000D01*
X0527000D01*
X0528000D01*
X0529000D01*
X0530000D01*
X0531000D01*
X0532000D01*
X0533000D01*
X0534000D01*
X0535000D01*
X0536000D01*
X0537000D01*
X0538000D01*
X0539000D01*
X0540000D01*
X0541000D01*
X0542000D01*
X0543000D01*
X0544000D01*
X0545000D01*
X0549000D01*
Y-0584000D01*
X0554000D01*
Y-0585000D01*
X0561000D01*
Y-0615000D01*
X0543000D01*
Y-0614000D01*
X0534000D01*
Y-0584000D01*
X0546000D01*
Y-0583000D01*
X0545000D01*
X0544000D01*
X0543000D01*
X0542000D01*
X0541000D01*
X0540000D01*
X0539000D01*
X0538000D01*
X0537000D01*
X0536000D01*
X0535000D01*
X0534000D01*
X0533000D01*
X0532000D01*
X0531000D01*
X0530000D01*
X0529000D01*
X0528000D01*
X0527000D01*
X0526000D01*
X0525000D01*
X0524000D01*
X0523000D01*
X0522000D01*
Y-0587000D01*
X0523000D01*
Y-0622000D01*
X0524000D01*
Y-0623000D01*
X0525000D01*
Y-0624000D01*
X0528000D01*
Y-0625000D01*
X0537000D01*
Y-0626000D01*
X0569000D01*
Y-0625000D01*
X0570000D01*
Y-0624000D01*
X0571000D01*
Y-0621000D01*
X0572000D01*
Y-0577000D01*
X0571000D01*
Y-0575000D01*
X0570000D01*
Y-0574000D01*
X0569000D01*
Y-0573000D01*
X0562000D01*
Y-0574000D01*
X0560000D01*
Y-0573000D01*
X0555000D01*
Y-0572000D01*
X0540000D01*
Y-0573000D01*
X0531000D01*
Y-0572000D01*
X0524000D01*
G37*
G36*
X0790000Y-0592000D02*
Y-0593000D01*
X0788000D01*
Y-0594000D01*
X0787000D01*
Y-0595000D01*
X0786000D01*
Y-0599000D01*
X0787000D01*
X0788000D01*
X0789000D01*
X0790000D01*
X0791000D01*
X0792000D01*
X0802000D01*
Y-0603000D01*
X0801000D01*
Y-0604000D01*
X0793000D01*
Y-0599000D01*
X0792000D01*
X0791000D01*
X0790000D01*
X0789000D01*
X0788000D01*
X0787000D01*
X0786000D01*
Y-0619000D01*
X0787000D01*
Y-0620000D01*
X0788000D01*
Y-0621000D01*
X0791000D01*
Y-0620000D01*
X0792000D01*
Y-0619000D01*
X0793000D01*
Y-0611000D01*
X0798000D01*
Y-0613000D01*
X0799000D01*
Y-0615000D01*
X0800000D01*
Y-0618000D01*
X0801000D01*
Y-0619000D01*
X0802000D01*
Y-0620000D01*
X0803000D01*
Y-0621000D01*
X0806000D01*
Y-0620000D01*
X0807000D01*
Y-0619000D01*
X0808000D01*
Y-0615000D01*
X0807000D01*
Y-0613000D01*
X0806000D01*
Y-0611000D01*
X0805000D01*
Y-0609000D01*
X0806000D01*
Y-0608000D01*
X0807000D01*
Y-0607000D01*
X0808000D01*
Y-0606000D01*
X0809000D01*
Y-0596000D01*
X0808000D01*
Y-0594000D01*
X0807000D01*
Y-0593000D01*
X0806000D01*
Y-0592000D01*
X0790000D01*
G37*
G36*
X1617000Y-0578000D02*
Y-0579000D01*
X1582000D01*
Y-0580000D01*
X1581000D01*
Y-0581000D01*
X1580000D01*
Y-0584000D01*
X1579000D01*
Y-0590000D01*
X1580000D01*
X1581000D01*
X1582000D01*
X1583000D01*
X1584000D01*
X1585000D01*
X1586000D01*
X1587000D01*
X1588000D01*
X1589000D01*
X1620000D01*
Y-0602000D01*
X1621000D01*
Y-0605000D01*
X1620000D01*
Y-0610000D01*
X1619000D01*
Y-0617000D01*
X1589000D01*
Y-0599000D01*
X1590000D01*
Y-0590000D01*
X1589000D01*
X1588000D01*
X1587000D01*
X1586000D01*
X1585000D01*
X1584000D01*
X1583000D01*
X1582000D01*
X1581000D01*
X1580000D01*
X1579000D01*
Y-0593000D01*
X1578000D01*
Y-0625000D01*
X1579000D01*
Y-0626000D01*
X1580000D01*
Y-0627000D01*
X1583000D01*
Y-0628000D01*
X1627000D01*
Y-0627000D01*
X1629000D01*
Y-0626000D01*
X1630000D01*
Y-0625000D01*
X1631000D01*
Y-0618000D01*
X1630000D01*
Y-0616000D01*
X1631000D01*
Y-0611000D01*
X1632000D01*
Y-0596000D01*
X1631000D01*
Y-0587000D01*
X1632000D01*
Y-0580000D01*
X1631000D01*
Y-0579000D01*
X1630000D01*
Y-0578000D01*
X1617000D01*
G37*
G36*
X1447000Y-0290000D02*
Y-0291000D01*
X1445000D01*
Y-0292000D01*
X1443999D01*
Y-0294000D01*
X1443000D01*
Y-0297000D01*
X1443999D01*
Y-0299000D01*
X1445000D01*
Y-0300000D01*
X1447000D01*
Y-0301000D01*
X1451999D01*
Y-0302000D01*
X1459000D01*
Y-0308000D01*
X1459999D01*
Y-0313000D01*
X1461000D01*
Y-0315000D01*
X1461999D01*
Y-0316000D01*
X1463999D01*
Y-0317000D01*
X1467000D01*
Y-0316000D01*
X1469000D01*
Y-0315000D01*
X1470000D01*
Y-0313000D01*
X1471000D01*
Y-0305000D01*
X1470000D01*
Y-0295000D01*
X1469000D01*
Y-0293000D01*
X1468000D01*
Y-0292000D01*
X1465999D01*
Y-0291000D01*
X1459999D01*
Y-0290000D01*
X1455000D01*
Y-0291000D01*
X1453999D01*
Y-0290000D01*
X1447000D01*
G37*
G36*
X1092000Y-0438000D02*
Y-0439000D01*
X1090999D01*
Y-0440000D01*
X1090000D01*
Y-0441000D01*
X1088999D01*
Y-0445000D01*
X1090000D01*
X1090999D01*
X1092000D01*
X1092999D01*
X1094000D01*
X1094999D01*
X1100000D01*
Y-0448000D01*
X1096000D01*
Y-0445000D01*
X1094999D01*
X1094000D01*
X1092999D01*
X1092000D01*
X1090999D01*
X1090000D01*
X1088999D01*
Y-0465000D01*
X1090000D01*
Y-0466000D01*
X1090999D01*
Y-0467000D01*
X1094000D01*
Y-0466000D01*
X1094999D01*
Y-0465000D01*
X1096000D01*
Y-0455000D01*
X1098000D01*
Y-0457000D01*
X1098999D01*
Y-0458000D01*
X1100000D01*
Y-0460000D01*
X1100999D01*
Y-0462000D01*
X1102000D01*
Y-0464000D01*
X1102999D01*
Y-0465000D01*
X1104000D01*
Y-0466000D01*
X1106999D01*
Y-0465000D01*
X1108000D01*
Y-0464000D01*
X1108999D01*
Y-0460000D01*
X1108000D01*
Y-0458000D01*
X1106999D01*
Y-0456000D01*
X1106000D01*
Y-0455000D01*
X1104999D01*
Y-0452000D01*
X1106000D01*
Y-0451000D01*
X1106999D01*
Y-0450000D01*
X1108000D01*
Y-0445000D01*
X1106999D01*
Y-0442000D01*
X1106000D01*
Y-0441000D01*
X1104999D01*
Y-0440000D01*
X1104000D01*
Y-0439000D01*
X1102999D01*
Y-0438000D01*
X1092000D01*
G37*
G36*
X0722000Y-0460000D02*
Y-0461000D01*
X0720000D01*
Y-0462000D01*
X0719000D01*
Y-0464000D01*
X0718000D01*
Y-0478000D01*
X0717000D01*
Y-0483000D01*
X0713000D01*
Y-0482000D01*
X0701000D01*
Y-0483000D01*
X0699000D01*
Y-0484000D01*
X0698000D01*
Y-0486000D01*
X0697000D01*
Y-0489000D01*
X0698000D01*
Y-0491000D01*
X0699000D01*
Y-0492000D01*
X0701000D01*
Y-0493000D01*
X0711000D01*
Y-0494000D01*
X0723000D01*
Y-0493000D01*
X0725000D01*
Y-0492000D01*
X0726000D01*
Y-0491000D01*
X0727000D01*
Y-0489000D01*
X0728000D01*
Y-0481000D01*
X0729000D01*
Y-0464000D01*
X0728000D01*
Y-0462000D01*
X0727000D01*
Y-0461000D01*
X0725000D01*
Y-0460000D01*
X0722000D01*
G37*
G36*
X0855000Y-0235000D02*
Y-0236000D01*
X0854000D01*
Y-0237000D01*
X0853000D01*
Y-0244000D01*
X0852000D01*
Y-0247000D01*
X0851000D01*
Y-0252000D01*
X0850000D01*
Y-0260000D01*
X0851000D01*
Y-0261000D01*
X0852000D01*
Y-0262000D01*
X0858000D01*
Y-0261000D01*
X0859000D01*
Y-0267000D01*
X0860000D01*
Y-0268000D01*
X0861000D01*
Y-0269000D01*
X0865000D01*
Y-0268000D01*
X0866000D01*
Y-0267000D01*
X0867000D01*
Y-0259000D01*
X0870000D01*
Y-0258000D01*
X0873000D01*
Y-0257000D01*
X0874000D01*
Y-0256000D01*
X0875000D01*
Y-0253000D01*
X0874000D01*
Y-0252000D01*
X0873000D01*
Y-0251000D01*
X0870000D01*
Y-0245000D01*
X0869000D01*
Y-0244000D01*
X0868000D01*
Y-0243000D01*
X0865000D01*
Y-0244000D01*
X0864000D01*
Y-0245000D01*
X0863000D01*
Y-0251000D01*
X0862000D01*
Y-0253000D01*
X0859000D01*
Y-0254000D01*
X0858000D01*
Y-0249000D01*
X0859000D01*
Y-0246000D01*
X0860000D01*
Y-0237000D01*
X0859000D01*
Y-0236000D01*
X0858000D01*
Y-0235000D01*
X0855000D01*
G37*
G36*
X1640000Y-0750000D02*
Y-0751000D01*
X1639000D01*
Y-0752000D01*
X1638000D01*
Y-0753000D01*
X1637000D01*
Y-0754000D01*
X1636000D01*
Y-0755000D01*
X1635000D01*
Y-0756000D01*
X1634000D01*
Y-0757000D01*
X1633000D01*
Y-0759000D01*
X1632000D01*
Y-0761000D01*
X1631000D01*
Y-0764000D01*
X1630000D01*
Y-0767000D01*
X1631000D01*
X1632000D01*
X1633000D01*
X1634000D01*
X1635000D01*
X1636000D01*
X1639000D01*
Y-0768000D01*
X1640000D01*
Y-0771000D01*
X1639000D01*
Y-0770000D01*
X1637000D01*
Y-0767000D01*
X1636000D01*
X1635000D01*
X1634000D01*
X1633000D01*
X1632000D01*
X1631000D01*
X1630000D01*
Y-0772000D01*
X1631000D01*
Y-0774000D01*
X1632000D01*
Y-0775000D01*
X1633000D01*
Y-0776000D01*
X1634000D01*
Y-0777000D01*
X1636000D01*
Y-0778000D01*
X1643000D01*
Y-0777000D01*
X1645000D01*
Y-0776000D01*
X1646000D01*
Y-0775000D01*
X1647000D01*
Y-0766000D01*
X1646000D01*
Y-0764000D01*
X1645000D01*
Y-0763000D01*
X1644000D01*
Y-0762000D01*
X1642000D01*
Y-0761000D01*
X1641000D01*
Y-0760000D01*
X1640000D01*
Y-0759000D01*
X1641000D01*
Y-0758000D01*
X1642000D01*
Y-0757000D01*
X1646000D01*
Y-0756000D01*
X1647000D01*
Y-0755000D01*
X1648000D01*
Y-0752000D01*
X1647000D01*
Y-0751000D01*
X1646000D01*
Y-0750000D01*
X1640000D01*
G37*
G36*
X1090999Y-0518000D02*
Y-0519000D01*
X1088000D01*
Y-0520000D01*
X1086999D01*
Y-0521000D01*
X1086000D01*
Y-0525000D01*
X1086999D01*
X1088000D01*
X1088999D01*
X1090000D01*
X1090999D01*
X1092000D01*
X1096999D01*
Y-0526000D01*
X1098000D01*
Y-0527000D01*
X1098999D01*
Y-0528000D01*
X1096999D01*
Y-0529000D01*
X1092999D01*
Y-0525000D01*
X1092000D01*
X1090999D01*
X1090000D01*
X1088999D01*
X1088000D01*
X1086999D01*
X1086000D01*
Y-0536000D01*
X1084999D01*
Y-0545000D01*
X1086000D01*
Y-0546000D01*
X1086999D01*
Y-0547000D01*
X1090000D01*
Y-0546000D01*
X1090999D01*
Y-0545000D01*
X1092000D01*
Y-0539000D01*
X1092999D01*
Y-0536000D01*
X1096999D01*
Y-0538000D01*
X1098000D01*
Y-0540000D01*
X1098999D01*
Y-0541000D01*
X1100000D01*
Y-0545000D01*
X1100999D01*
Y-0546000D01*
X1102000D01*
Y-0547000D01*
X1106000D01*
Y-0546000D01*
X1106999D01*
Y-0545000D01*
X1108000D01*
Y-0542000D01*
X1106999D01*
Y-0539000D01*
X1106000D01*
Y-0538000D01*
X1104999D01*
Y-0536000D01*
X1104000D01*
Y-0533000D01*
X1104999D01*
Y-0532000D01*
X1106000D01*
Y-0531000D01*
X1106999D01*
Y-0527000D01*
X1106000D01*
Y-0525000D01*
X1104999D01*
Y-0523000D01*
X1104000D01*
Y-0522000D01*
X1102999D01*
Y-0521000D01*
X1102000D01*
Y-0520000D01*
X1100999D01*
Y-0519000D01*
X1100000D01*
Y-0518000D01*
X1090999D01*
G37*
G36*
X1613000Y-0307000D02*
Y-0308000D01*
X1578000D01*
Y-0309000D01*
X1577000D01*
Y-0310000D01*
X1576000D01*
Y-0313000D01*
X1575000D01*
Y-0319000D01*
X1576000D01*
X1577000D01*
X1578000D01*
X1579000D01*
X1580000D01*
X1581000D01*
X1582000D01*
X1583000D01*
X1584000D01*
X1585000D01*
X1616000D01*
Y-0331000D01*
X1617000D01*
Y-0334000D01*
X1616000D01*
Y-0339000D01*
X1615000D01*
Y-0346000D01*
X1585000D01*
Y-0328000D01*
X1586000D01*
Y-0319000D01*
X1585000D01*
X1584000D01*
X1583000D01*
X1582000D01*
X1581000D01*
X1580000D01*
X1579000D01*
X1578000D01*
X1577000D01*
X1576000D01*
X1575000D01*
Y-0322000D01*
X1574000D01*
Y-0354000D01*
X1575000D01*
Y-0355000D01*
X1576000D01*
Y-0356000D01*
X1579000D01*
Y-0357000D01*
X1623000D01*
Y-0356000D01*
X1625000D01*
Y-0355000D01*
X1626000D01*
Y-0354000D01*
X1627000D01*
Y-0347000D01*
X1626000D01*
Y-0345000D01*
X1627000D01*
Y-0340000D01*
X1628000D01*
Y-0325000D01*
X1627000D01*
Y-0316000D01*
X1628000D01*
Y-0309000D01*
X1627000D01*
Y-0308000D01*
X1626000D01*
Y-0307000D01*
X1613000D01*
G37*
G36*
X1227000Y-0511000D02*
Y-0512000D01*
X1225000D01*
Y-0513000D01*
X1223999D01*
Y-0515000D01*
X1223000D01*
Y-0521000D01*
X1221999D01*
Y-0532000D01*
X1223000D01*
Y-0534000D01*
X1223999D01*
Y-0535000D01*
X1225999D01*
Y-0536000D01*
X1227999D01*
Y-0537000D01*
X1236000D01*
Y-0538000D01*
X1244000D01*
Y-0537000D01*
X1246000D01*
Y-0536000D01*
X1247000D01*
Y-0534000D01*
X1248000D01*
Y-0531000D01*
X1247000D01*
Y-0529000D01*
X1246000D01*
Y-0528000D01*
X1244000D01*
Y-0527000D01*
X1239000D01*
Y-0526000D01*
X1233000D01*
Y-0524000D01*
X1234000D01*
Y-0515000D01*
X1233000D01*
Y-0513000D01*
X1231999D01*
Y-0512000D01*
X1229999D01*
Y-0511000D01*
X1227000D01*
G37*
G36*
X1116000Y-0434000D02*
Y-0435000D01*
X1114999D01*
Y-0436000D01*
X1114000D01*
Y-0437000D01*
X1112999D01*
Y-0438000D01*
X1112000D01*
Y-0440000D01*
X1110999D01*
Y-0447000D01*
X1112000D01*
Y-0448000D01*
X1118000D01*
Y-0447000D01*
X1119000D01*
Y-0442000D01*
X1120000D01*
Y-0441000D01*
X1126000D01*
Y-0442000D01*
X1127000D01*
Y-0444000D01*
X1126000D01*
Y-0446000D01*
X1125000D01*
Y-0447000D01*
X1124000D01*
Y-0448000D01*
X1123000D01*
Y-0450000D01*
X1122000D01*
Y-0451000D01*
X1121000D01*
Y-0452000D01*
X1120000D01*
Y-0453000D01*
X1118000D01*
Y-0454000D01*
X1117000D01*
Y-0455000D01*
X1116000D01*
Y-0456000D01*
X1114000D01*
Y-0457000D01*
X1112999D01*
Y-0458000D01*
X1112000D01*
Y-0459000D01*
X1110999D01*
Y-0464000D01*
X1112000D01*
Y-0465000D01*
X1114000D01*
Y-0466000D01*
X1120000D01*
Y-0465000D01*
X1136000D01*
Y-0464000D01*
X1137000D01*
Y-0459000D01*
X1136000D01*
Y-0458000D01*
X1126000D01*
Y-0457000D01*
X1127000D01*
Y-0456000D01*
X1128000D01*
Y-0455000D01*
X1129000D01*
Y-0454000D01*
X1130000D01*
Y-0452000D01*
X1131000D01*
Y-0451000D01*
X1132000D01*
Y-0450000D01*
X1133000D01*
Y-0448000D01*
X1134000D01*
Y-0437000D01*
X1133000D01*
Y-0436000D01*
X1132000D01*
Y-0435000D01*
X1131000D01*
Y-0434000D01*
X1116000D01*
G37*
G36*
X0978000Y-0428000D02*
Y-0429000D01*
X0977000D01*
Y-0430000D01*
X0976000D01*
Y-0439000D01*
X0977000D01*
X0978000D01*
X0979000D01*
X0980000D01*
X0981000D01*
X0982000D01*
X0983000D01*
X0984000D01*
X0985000D01*
X0986000D01*
X0987000D01*
X0988000D01*
X0989000D01*
X0990000D01*
X0991000D01*
X0992000D01*
X0993000D01*
X0994000D01*
X0995000D01*
X0996000D01*
X0997000D01*
X0998000D01*
X0999000D01*
X1003000D01*
Y-0440000D01*
X1008000D01*
Y-0441000D01*
X1015000D01*
Y-0471000D01*
X0997000D01*
Y-0470000D01*
X0988000D01*
Y-0440000D01*
X1000000D01*
Y-0439000D01*
X0999000D01*
X0998000D01*
X0997000D01*
X0996000D01*
X0995000D01*
X0994000D01*
X0993000D01*
X0992000D01*
X0991000D01*
X0990000D01*
X0989000D01*
X0988000D01*
X0987000D01*
X0986000D01*
X0985000D01*
X0984000D01*
X0983000D01*
X0982000D01*
X0981000D01*
X0980000D01*
X0979000D01*
X0978000D01*
X0977000D01*
X0976000D01*
Y-0443000D01*
X0977000D01*
Y-0478000D01*
X0978000D01*
Y-0479000D01*
X0979000D01*
Y-0480000D01*
X0982000D01*
Y-0481000D01*
X0991000D01*
Y-0482000D01*
X1023000D01*
Y-0481000D01*
X1024000D01*
Y-0480000D01*
X1024999D01*
Y-0477000D01*
X1026000D01*
Y-0433000D01*
X1024999D01*
Y-0431000D01*
X1024000D01*
Y-0430000D01*
X1023000D01*
Y-0429000D01*
X1016000D01*
Y-0430000D01*
X1014000D01*
Y-0429000D01*
X1009000D01*
Y-0428000D01*
X0994000D01*
Y-0429000D01*
X0985000D01*
Y-0428000D01*
X0978000D01*
G37*
G36*
X0977000Y-0513000D02*
Y-0514000D01*
X0976000D01*
Y-0515000D01*
X0975000D01*
Y-0524000D01*
X0976000D01*
X0977000D01*
X0978000D01*
X0979000D01*
X0980000D01*
X0981000D01*
X0982000D01*
X0983000D01*
X0984000D01*
X0985000D01*
X0986000D01*
X0987000D01*
X0988000D01*
X0989000D01*
X0990000D01*
X0991000D01*
X0992000D01*
X0993000D01*
X0994000D01*
X0995000D01*
X0996000D01*
X0997000D01*
X0998000D01*
X1002000D01*
Y-0525000D01*
X1007000D01*
Y-0526000D01*
X1014000D01*
Y-0556000D01*
X0996000D01*
Y-0555000D01*
X0987000D01*
Y-0525000D01*
X0999000D01*
Y-0524000D01*
X0998000D01*
X0997000D01*
X0996000D01*
X0995000D01*
X0994000D01*
X0993000D01*
X0992000D01*
X0991000D01*
X0990000D01*
X0989000D01*
X0988000D01*
X0987000D01*
X0986000D01*
X0985000D01*
X0984000D01*
X0983000D01*
X0982000D01*
X0981000D01*
X0980000D01*
X0979000D01*
X0978000D01*
X0977000D01*
X0976000D01*
X0975000D01*
Y-0528000D01*
X0976000D01*
Y-0563000D01*
X0977000D01*
Y-0564000D01*
X0978000D01*
Y-0565000D01*
X0981000D01*
Y-0566000D01*
X0990000D01*
Y-0567000D01*
X1022000D01*
Y-0566000D01*
X1023000D01*
Y-0565000D01*
X1024000D01*
Y-0562000D01*
X1024999D01*
Y-0518000D01*
X1024000D01*
Y-0516000D01*
X1023000D01*
Y-0515000D01*
X1022000D01*
Y-0514000D01*
X1015000D01*
Y-0515000D01*
X1013000D01*
Y-0514000D01*
X1008000D01*
Y-0513000D01*
X0993000D01*
Y-0514000D01*
X0984000D01*
Y-0513000D01*
X0977000D01*
G37*
G36*
X1119000Y-0514000D02*
Y-0515000D01*
X1117000D01*
Y-0516000D01*
X1116000D01*
Y-0517000D01*
X1114999D01*
Y-0518000D01*
X1114000D01*
Y-0519000D01*
X1112999D01*
Y-0527000D01*
X1114000D01*
Y-0528000D01*
X1119000D01*
Y-0527000D01*
X1120000D01*
Y-0524000D01*
X1121000D01*
Y-0522000D01*
X1123000D01*
Y-0521000D01*
X1125000D01*
Y-0522000D01*
X1126000D01*
Y-0523000D01*
X1127000D01*
Y-0528000D01*
X1126000D01*
Y-0529000D01*
X1122000D01*
Y-0530000D01*
X1121000D01*
Y-0535000D01*
X1122000D01*
Y-0536000D01*
X1127000D01*
Y-0537000D01*
X1128000D01*
Y-0541000D01*
X1126000D01*
Y-0542000D01*
X1120000D01*
Y-0541000D01*
X1119000D01*
Y-0540000D01*
X1118000D01*
Y-0539000D01*
X1112999D01*
Y-0540000D01*
X1112000D01*
Y-0546000D01*
X1112999D01*
Y-0547000D01*
X1114999D01*
Y-0548000D01*
X1116000D01*
Y-0549000D01*
X1118000D01*
Y-0550000D01*
X1128000D01*
Y-0549000D01*
X1131000D01*
Y-0548000D01*
X1132000D01*
Y-0547000D01*
X1133000D01*
Y-0546000D01*
X1134000D01*
Y-0545000D01*
X1135000D01*
Y-0532000D01*
X1134000D01*
Y-0530000D01*
X1135000D01*
Y-0523000D01*
X1134000D01*
Y-0518000D01*
X1133000D01*
Y-0517000D01*
X1132000D01*
Y-0516000D01*
X1131000D01*
Y-0515000D01*
X1129000D01*
Y-0514000D01*
X1119000D01*
G37*
G36*
X1536000Y-0579000D02*
Y-0580000D01*
X1535000D01*
Y-0581000D01*
X1533000D01*
Y-0582000D01*
X1532000D01*
Y-0583000D01*
X1531000D01*
Y-0585000D01*
X1530000D01*
Y-0587000D01*
X1529000D01*
Y-0591000D01*
X1528000D01*
Y-0597000D01*
X1529000D01*
Y-0600000D01*
X1530000D01*
Y-0601000D01*
X1531000D01*
Y-0602000D01*
X1532000D01*
Y-0603000D01*
X1533000D01*
Y-0604000D01*
X1534000D01*
Y-0605000D01*
X1535000D01*
Y-0606000D01*
X1546000D01*
Y-0605000D01*
X1546999D01*
Y-0604000D01*
X1548000D01*
Y-0603000D01*
X1548999D01*
Y-0600000D01*
X1548000D01*
Y-0599000D01*
X1546999D01*
Y-0598000D01*
X1542999D01*
Y-0599000D01*
X1538000D01*
Y-0598000D01*
X1536999D01*
Y-0597000D01*
X1536000D01*
Y-0594000D01*
X1535000D01*
Y-0593000D01*
X1536000D01*
Y-0590000D01*
X1536999D01*
Y-0588000D01*
X1538000D01*
Y-0587000D01*
X1542000D01*
Y-0588000D01*
X1546000D01*
Y-0587000D01*
X1546999D01*
Y-0586000D01*
X1548000D01*
Y-0583000D01*
X1546999D01*
Y-0582000D01*
X1546000D01*
Y-0581000D01*
X1544999D01*
Y-0580000D01*
X1540999D01*
Y-0579000D01*
X1536000D01*
G37*
G36*
X0558000Y-0538000D02*
Y-0539000D01*
X0557000D01*
Y-0540000D01*
X0556000D01*
Y-0541000D01*
X0555000D01*
Y-0548000D01*
X0554000D01*
Y-0558000D01*
X0553000D01*
Y-0565000D01*
X0554000D01*
Y-0566000D01*
X0555000D01*
Y-0567000D01*
X0558000D01*
Y-0566000D01*
X0559000D01*
Y-0565000D01*
X0560000D01*
Y-0561000D01*
X0561000D01*
Y-0550000D01*
X0562000D01*
Y-0544000D01*
X0563000D01*
Y-0540000D01*
X0562000D01*
Y-0539000D01*
X0561000D01*
Y-0538000D01*
X0558000D01*
G37*
G36*
X0399000Y-0569000D02*
Y-0570000D01*
X0398000D01*
Y-0571000D01*
X0397000D01*
Y-0590000D01*
X0396000D01*
Y-0592000D01*
X0395000D01*
Y-0593000D01*
X0394000D01*
Y-0592000D01*
X0393000D01*
Y-0590000D01*
X0392000D01*
Y-0589000D01*
X0393000D01*
Y-0585000D01*
X0392000D01*
Y-0584000D01*
X0391000D01*
Y-0583000D01*
X0388000D01*
Y-0584000D01*
X0387000D01*
Y-0585000D01*
X0386000D01*
Y-0586000D01*
X0385000D01*
Y-0593000D01*
X0386000D01*
Y-0595000D01*
X0387000D01*
Y-0596000D01*
X0388000D01*
Y-0597000D01*
X0389000D01*
Y-0598000D01*
X0390000D01*
Y-0599000D01*
X0391000D01*
Y-0600000D01*
X0398000D01*
Y-0599000D01*
X0399000D01*
Y-0598000D01*
X0400000D01*
Y-0597000D01*
X0401000D01*
Y-0596000D01*
X0402000D01*
Y-0595000D01*
X0403000D01*
Y-0593000D01*
X0404000D01*
Y-0571000D01*
X0403000D01*
Y-0570000D01*
X0402000D01*
Y-0569000D01*
X0399000D01*
G37*
G36*
X1171999Y-0708000D02*
Y-0709000D01*
X1169999D01*
Y-0710000D01*
X1169000D01*
Y-0712000D01*
X1167999D01*
Y-0715000D01*
X1169000D01*
Y-0717000D01*
X1169999D01*
Y-0718000D01*
X1171999D01*
Y-0719000D01*
X1189999D01*
Y-0718000D01*
X1191999D01*
Y-0717000D01*
X1193000D01*
Y-0715000D01*
X1193999D01*
Y-0712000D01*
X1193000D01*
Y-0710000D01*
X1191999D01*
Y-0709000D01*
X1189999D01*
Y-0708000D01*
X1171999D01*
G37*
G36*
X1372000D02*
Y-0709000D01*
X1370000D01*
Y-0710000D01*
X1369000D01*
Y-0712000D01*
X1368000D01*
Y-0715000D01*
X1369000D01*
Y-0717000D01*
X1370000D01*
Y-0718000D01*
X1372000D01*
Y-0719000D01*
X1390000D01*
Y-0718000D01*
X1392000D01*
Y-0717000D01*
X1393000D01*
Y-0715000D01*
X1394000D01*
Y-0712000D01*
X1393000D01*
Y-0710000D01*
X1392000D01*
Y-0709000D01*
X1390000D01*
Y-0708000D01*
X1372000D01*
G37*
G36*
X1651000Y-0139000D02*
Y-0140000D01*
X1649000D01*
Y-0141000D01*
X1648000D01*
Y-0143000D01*
X1647000D01*
Y-0152000D01*
X1648000D01*
Y-0163000D01*
X1649000D01*
Y-0164000D01*
X1648000D01*
Y-0171000D01*
X1647000D01*
Y-0189000D01*
X1648000D01*
Y-0247000D01*
X1649000D01*
Y-0256000D01*
X1650000D01*
Y-0268000D01*
X1649000D01*
Y-0275000D01*
X1648000D01*
Y-0290000D01*
X1649000D01*
Y-0350000D01*
X1650000D01*
Y-0359000D01*
X1651000D01*
Y-0366000D01*
X1650000D01*
Y-0379000D01*
X1649000D01*
Y-0387000D01*
X1648000D01*
Y-0401000D01*
X1649000D01*
Y-0428000D01*
X1648000D01*
Y-0449000D01*
X1649000D01*
Y-0480000D01*
X1648000D01*
Y-0485000D01*
X1647000D01*
Y-0523000D01*
X1648000D01*
Y-0545000D01*
X1647000D01*
Y-0621000D01*
X1648000D01*
Y-0645000D01*
X1649000D01*
Y-0659000D01*
X1648000D01*
Y-0685000D01*
X1649000D01*
Y-0687000D01*
X1650000D01*
Y-0688000D01*
X1652000D01*
Y-0689000D01*
X1656000D01*
Y-0688000D01*
X1658000D01*
Y-0687000D01*
X1659000D01*
Y-0685000D01*
X1660000D01*
Y-0679000D01*
X1659000D01*
Y-0662000D01*
X1660000D01*
Y-0643000D01*
X1659000D01*
Y-0615000D01*
X1658000D01*
Y-0547000D01*
X1659000D01*
Y-0521000D01*
X1658000D01*
Y-0487000D01*
X1659000D01*
Y-0483000D01*
X1660000D01*
Y-0447000D01*
X1659000D01*
Y-0431000D01*
X1660000D01*
Y-0398000D01*
X1659000D01*
Y-0390000D01*
X1660000D01*
Y-0382000D01*
X1661000D01*
Y-0369000D01*
X1662000D01*
Y-0357000D01*
X1661000D01*
Y-0347000D01*
X1660000D01*
Y-0287000D01*
X1659000D01*
Y-0277000D01*
X1660000D01*
Y-0271000D01*
X1661000D01*
Y-0254000D01*
X1660000D01*
Y-0245000D01*
X1659000D01*
Y-0187000D01*
X1658000D01*
Y-0174000D01*
X1659000D01*
Y-0167000D01*
X1660000D01*
Y-0160000D01*
X1659000D01*
Y-0150000D01*
X1658000D01*
Y-0143000D01*
X1657000D01*
Y-0141000D01*
X1656000D01*
Y-0140000D01*
X1654000D01*
Y-0139000D01*
X1651000D01*
G37*
M02*
