G04 Output from Chad's Board Thing.*
%FSLAX26Y26*%
%MOIN*%
G36*
%ADD10C,0.01*%
D10*
X0808000Y-0378000D02*
Y-0397000D01*
X0806000D01*
Y-0396000D01*
X0798000D01*
Y-0397000D01*
X0796000D01*
Y-0398000D01*
X0794000D01*
Y-0399000D01*
X0793000D01*
Y-0400000D01*
X0792000D01*
Y-0401000D01*
X0791000D01*
Y-0403000D01*
X0792000D01*
X0793000D01*
X0794000D01*
X0795000D01*
X0796000D01*
X0797000D01*
X0798000D01*
X0799000D01*
X0805000D01*
Y-0404000D01*
X0806000D01*
Y-0405000D01*
X0807000D01*
Y-0406000D01*
X0808000D01*
Y-0413000D01*
X0807000D01*
Y-0415000D01*
X0805000D01*
Y-0416000D01*
X0800000D01*
Y-0415000D01*
X0798000D01*
Y-0414000D01*
X0797000D01*
Y-0412000D01*
X0796000D01*
Y-0407000D01*
X0797000D01*
Y-0405000D01*
X0798000D01*
Y-0404000D01*
X0800000D01*
Y-0403000D01*
X0799000D01*
X0798000D01*
X0797000D01*
X0796000D01*
X0795000D01*
X0794000D01*
X0793000D01*
X0792000D01*
X0791000D01*
X0790000D01*
Y-0405000D01*
X0789000D01*
Y-0414000D01*
X0790000D01*
Y-0417000D01*
X0791000D01*
Y-0418000D01*
X0792000D01*
Y-0419000D01*
X0793000D01*
Y-0420000D01*
X0794000D01*
Y-0421000D01*
X0796000D01*
Y-0422000D01*
X0798000D01*
Y-0423000D01*
X0807000D01*
Y-0422000D01*
X0808000D01*
Y-0423000D01*
X0815000D01*
Y-0378000D01*
X0808000D01*
G37*
G36*
X0685000Y-0382000D02*
Y-0388000D01*
X0686000D01*
X0687000D01*
X0688000D01*
X0689000D01*
X0690000D01*
X0691000D01*
X0699000D01*
Y-0389000D01*
X0700000D01*
Y-0391000D01*
X0701000D01*
Y-0396000D01*
X0700000D01*
Y-0397000D01*
X0699000D01*
Y-0398000D01*
X0692000D01*
Y-0388000D01*
X0691000D01*
X0690000D01*
X0689000D01*
X0688000D01*
X0687000D01*
X0686000D01*
X0685000D01*
Y-0404000D01*
X0686000D01*
X0687000D01*
X0688000D01*
X0689000D01*
X0690000D01*
X0691000D01*
X0701000D01*
Y-0405000D01*
X0702000D01*
Y-0406000D01*
X0703000D01*
Y-0408000D01*
X0704000D01*
Y-0414000D01*
X0703000D01*
Y-0415000D01*
X0702000D01*
Y-0416000D01*
X0692000D01*
Y-0404000D01*
X0691000D01*
X0690000D01*
X0689000D01*
X0688000D01*
X0687000D01*
X0686000D01*
X0685000D01*
Y-0423000D01*
X0703000D01*
Y-0422000D01*
X0705000D01*
Y-0421000D01*
X0707000D01*
Y-0420000D01*
X0708000D01*
Y-0419000D01*
X0709000D01*
Y-0417000D01*
X0710000D01*
Y-0415000D01*
X0711000D01*
Y-0407000D01*
X0710000D01*
Y-0404000D01*
X0709000D01*
Y-0402000D01*
X0708000D01*
Y-0401000D01*
X0707000D01*
Y-0400000D01*
X0705000D01*
Y-0399000D01*
X0706000D01*
Y-0398000D01*
X0707000D01*
Y-0396000D01*
X0708000D01*
Y-0389000D01*
X0707000D01*
Y-0387000D01*
X0706000D01*
Y-0385000D01*
X0704000D01*
Y-0384000D01*
X0703000D01*
Y-0383000D01*
X0701000D01*
Y-0382000D01*
X0685000D01*
G37*
G36*
X1213000Y-0724000D02*
Y-0725000D01*
X1209999D01*
Y-0726000D01*
X1209000D01*
Y-0727000D01*
X1207000D01*
Y-0728000D01*
X1205999D01*
Y-0729000D01*
X1205000D01*
Y-0730000D01*
X1205999D01*
X1207000D01*
X1207999D01*
X1209000D01*
X1209999D01*
X1211000D01*
X1211999D01*
X1213000D01*
X1219000D01*
Y-0731000D01*
X1221000D01*
Y-0734000D01*
X1211000D01*
Y-0733000D01*
X1211999D01*
Y-0732000D01*
X1213000D01*
Y-0731000D01*
X1213999D01*
Y-0730000D01*
X1213000D01*
X1211999D01*
X1211000D01*
X1209999D01*
X1209000D01*
X1207999D01*
X1207000D01*
X1205999D01*
X1205000D01*
Y-0731000D01*
X1203999D01*
Y-0734000D01*
X1203000D01*
Y-0742000D01*
X1203999D01*
Y-0744000D01*
X1205000D01*
Y-0746000D01*
X1205999D01*
Y-0747000D01*
X1207000D01*
Y-0748000D01*
X1207999D01*
Y-0749000D01*
X1209999D01*
Y-0750000D01*
X1213000D01*
Y-0751000D01*
X1221000D01*
Y-0750000D01*
X1223999D01*
Y-0749000D01*
X1225999D01*
Y-0748000D01*
X1227000D01*
Y-0747000D01*
X1227999D01*
Y-0744000D01*
X1227000D01*
Y-0743000D01*
X1225000D01*
Y-0742000D01*
X1223999D01*
Y-0741000D01*
X1221999D01*
Y-0742000D01*
X1221000D01*
Y-0743000D01*
X1219999D01*
Y-0744000D01*
X1215000D01*
Y-0743000D01*
X1213000D01*
Y-0742000D01*
X1211999D01*
Y-0741000D01*
X1211000D01*
Y-0740000D01*
X1229000D01*
Y-0732000D01*
X1227999D01*
Y-0730000D01*
X1227000D01*
Y-0728000D01*
X1225999D01*
Y-0727000D01*
X1225000D01*
Y-0726000D01*
X1223000D01*
Y-0725000D01*
X1221000D01*
Y-0724000D01*
X1213000D01*
G37*
G36*
X1288000D02*
Y-0725000D01*
X1286000D01*
Y-0726000D01*
X1284000D01*
Y-0728000D01*
X1282999D01*
Y-0729000D01*
X1282000D01*
Y-0735000D01*
X1282999D01*
Y-0737000D01*
X1284000D01*
Y-0738000D01*
X1284999D01*
Y-0739000D01*
X1286999D01*
Y-0740000D01*
X1290000D01*
Y-0741000D01*
X1292999D01*
Y-0743000D01*
X1292000D01*
Y-0744000D01*
X1288000D01*
Y-0743000D01*
X1286999D01*
Y-0742000D01*
X1286000D01*
Y-0741000D01*
X1284000D01*
Y-0742000D01*
X1282999D01*
Y-0743000D01*
X1282000D01*
Y-0744000D01*
X1280999D01*
Y-0745000D01*
X1280000D01*
Y-0746000D01*
X1280999D01*
Y-0748000D01*
X1282000D01*
Y-0749000D01*
X1284000D01*
Y-0750000D01*
X1286999D01*
Y-0751000D01*
X1294000D01*
Y-0750000D01*
X1296999D01*
Y-0749000D01*
X1298000D01*
Y-0748000D01*
X1298999D01*
Y-0747000D01*
X1300000D01*
Y-0745000D01*
X1300999D01*
Y-0739000D01*
X1300000D01*
Y-0737000D01*
X1298000D01*
Y-0736000D01*
X1296999D01*
Y-0735000D01*
X1294999D01*
Y-0734000D01*
X1290999D01*
Y-0733000D01*
X1288999D01*
Y-0731000D01*
X1290000D01*
Y-0730000D01*
X1292999D01*
Y-0731000D01*
X1294999D01*
Y-0732000D01*
X1296999D01*
Y-0731000D01*
X1298000D01*
Y-0730000D01*
X1298999D01*
Y-0728000D01*
X1300000D01*
Y-0726000D01*
X1298000D01*
Y-0725000D01*
X1296000D01*
Y-0724000D01*
X1288000D01*
G37*
G36*
X0848000Y-0396000D02*
Y-0397000D01*
X0845000D01*
Y-0398000D01*
X0844000D01*
Y-0399000D01*
X0842000D01*
Y-0400000D01*
X0841000D01*
Y-0401000D01*
X0840000D01*
Y-0402000D01*
X0841000D01*
X0842000D01*
X0843000D01*
X0844000D01*
X0845000D01*
X0846000D01*
X0847000D01*
X0848000D01*
X0854000D01*
Y-0403000D01*
X0856000D01*
Y-0406000D01*
X0846000D01*
Y-0405000D01*
X0847000D01*
Y-0404000D01*
X0848000D01*
Y-0403000D01*
X0849000D01*
Y-0402000D01*
X0848000D01*
X0847000D01*
X0846000D01*
X0845000D01*
X0844000D01*
X0843000D01*
X0842000D01*
X0841000D01*
X0840000D01*
Y-0403000D01*
X0839000D01*
Y-0406000D01*
X0838000D01*
Y-0414000D01*
X0839000D01*
Y-0416000D01*
X0840000D01*
Y-0418000D01*
X0841000D01*
Y-0419000D01*
X0842000D01*
Y-0420000D01*
X0843000D01*
Y-0421000D01*
X0845000D01*
Y-0422000D01*
X0848000D01*
Y-0423000D01*
X0856000D01*
Y-0422000D01*
X0859000D01*
Y-0421000D01*
X0861000D01*
Y-0420000D01*
X0862000D01*
Y-0419000D01*
X0863000D01*
Y-0416000D01*
X0862000D01*
Y-0415000D01*
X0860000D01*
Y-0414000D01*
X0859000D01*
Y-0413000D01*
X0857000D01*
Y-0414000D01*
X0856000D01*
Y-0415000D01*
X0855000D01*
Y-0416000D01*
X0850000D01*
Y-0415000D01*
X0848000D01*
Y-0414000D01*
X0847000D01*
Y-0413000D01*
X0846000D01*
Y-0412000D01*
X0864000D01*
Y-0404000D01*
X0863000D01*
Y-0402000D01*
X0862000D01*
Y-0400000D01*
X0861000D01*
Y-0399000D01*
X0860000D01*
Y-0398000D01*
X0858000D01*
Y-0397000D01*
X0856000D01*
Y-0396000D01*
X0848000D01*
G37*
G36*
X1324999Y-0724000D02*
Y-0725000D01*
X1322000D01*
Y-0726000D01*
X1320000D01*
Y-0727000D01*
X1318999D01*
Y-0728000D01*
X1318000D01*
Y-0729000D01*
X1316999D01*
Y-0730000D01*
X1318000D01*
X1318999D01*
X1320000D01*
X1320999D01*
X1322000D01*
X1322999D01*
X1324000D01*
X1324999D01*
X1330999D01*
Y-0731000D01*
X1332999D01*
Y-0732000D01*
X1334000D01*
Y-0734000D01*
X1334999D01*
Y-0740000D01*
X1334000D01*
Y-0742000D01*
X1332999D01*
Y-0743000D01*
X1330999D01*
Y-0744000D01*
X1326000D01*
Y-0743000D01*
X1324000D01*
Y-0742000D01*
X1322999D01*
Y-0740000D01*
X1322000D01*
Y-0734000D01*
X1322999D01*
Y-0732000D01*
X1324000D01*
Y-0731000D01*
X1326000D01*
Y-0730000D01*
X1324999D01*
X1324000D01*
X1322999D01*
X1322000D01*
X1320999D01*
X1320000D01*
X1318999D01*
X1318000D01*
X1316999D01*
Y-0731000D01*
X1316000D01*
Y-0733000D01*
X1314999D01*
Y-0742000D01*
X1316000D01*
Y-0744000D01*
X1316999D01*
Y-0746000D01*
X1318000D01*
Y-0747000D01*
X1318999D01*
Y-0748000D01*
X1320000D01*
Y-0749000D01*
X1322000D01*
Y-0750000D01*
X1324000D01*
Y-0751000D01*
X1332999D01*
Y-0750000D01*
X1334999D01*
Y-0749000D01*
X1336999D01*
Y-0748000D01*
X1338000D01*
Y-0747000D01*
X1338999D01*
Y-0746000D01*
X1340000D01*
Y-0744000D01*
X1340999D01*
Y-0742000D01*
X1342000D01*
Y-0733000D01*
X1340999D01*
Y-0731000D01*
X1340000D01*
Y-0729000D01*
X1338999D01*
Y-0728000D01*
X1338000D01*
Y-0727000D01*
X1336999D01*
Y-0726000D01*
X1334999D01*
Y-0725000D01*
X1332999D01*
Y-0724000D01*
X1324999D01*
G37*
G36*
X0770000Y-0396000D02*
Y-0423000D01*
X0777000D01*
Y-0408000D01*
X0778000D01*
Y-0406000D01*
X0779000D01*
Y-0404000D01*
X0781000D01*
Y-0403000D01*
X0786000D01*
Y-0401000D01*
X0787000D01*
Y-0399000D01*
X0788000D01*
Y-0397000D01*
X0787000D01*
Y-0396000D01*
X0780000D01*
Y-0397000D01*
X0777000D01*
Y-0396000D01*
X0770000D01*
G37*
G36*
X1122000Y-0709000D02*
Y-0716000D01*
X1123000D01*
X1124000D01*
X1125000D01*
X1126000D01*
X1127000D01*
X1128000D01*
X1137000D01*
Y-0717000D01*
X1138000D01*
Y-0719000D01*
X1139000D01*
Y-0724000D01*
X1138000D01*
Y-0726000D01*
X1136000D01*
Y-0727000D01*
X1129000D01*
Y-0716000D01*
X1128000D01*
X1127000D01*
X1126000D01*
X1125000D01*
X1124000D01*
X1123000D01*
X1122000D01*
Y-0751000D01*
X1129000D01*
Y-0734000D01*
X1138000D01*
Y-0733000D01*
X1140000D01*
Y-0732000D01*
X1141000D01*
Y-0731000D01*
X1143000D01*
Y-0729000D01*
X1144000D01*
Y-0728000D01*
X1145000D01*
Y-0726000D01*
X1146000D01*
Y-0717000D01*
X1145000D01*
Y-0715000D01*
X1144000D01*
Y-0713000D01*
X1143000D01*
Y-0712000D01*
X1142000D01*
Y-0711000D01*
X1140000D01*
Y-0710000D01*
X1138000D01*
Y-0709000D01*
X1122000D01*
G37*
G36*
X1365000Y-0724000D02*
Y-0725000D01*
X1363000D01*
Y-0726000D01*
X1361000D01*
Y-0728000D01*
X1360000D01*
Y-0729000D01*
X1359000D01*
Y-0735000D01*
X1360000D01*
Y-0737000D01*
X1361000D01*
Y-0738000D01*
X1362000D01*
Y-0739000D01*
X1364000D01*
Y-0740000D01*
X1367000D01*
Y-0741000D01*
X1370000D01*
Y-0743000D01*
X1369000D01*
Y-0744000D01*
X1365000D01*
Y-0743000D01*
X1364000D01*
Y-0742000D01*
X1363000D01*
Y-0741000D01*
X1361000D01*
Y-0742000D01*
X1360000D01*
Y-0743000D01*
X1359000D01*
Y-0744000D01*
X1358000D01*
Y-0745000D01*
X1357000D01*
Y-0746000D01*
X1358000D01*
Y-0748000D01*
X1359000D01*
Y-0749000D01*
X1361000D01*
Y-0750000D01*
X1364000D01*
Y-0751000D01*
X1371000D01*
Y-0750000D01*
X1374000D01*
Y-0749000D01*
X1375000D01*
Y-0748000D01*
X1376000D01*
Y-0747000D01*
X1377000D01*
Y-0745000D01*
X1378000D01*
Y-0739000D01*
X1377000D01*
Y-0737000D01*
X1375000D01*
Y-0736000D01*
X1374000D01*
Y-0735000D01*
X1372000D01*
Y-0734000D01*
X1368000D01*
Y-0733000D01*
X1366000D01*
Y-0731000D01*
X1367000D01*
Y-0730000D01*
X1370000D01*
Y-0731000D01*
X1372000D01*
Y-0732000D01*
X1374000D01*
Y-0731000D01*
X1375000D01*
Y-0730000D01*
X1376000D01*
Y-0728000D01*
X1377000D01*
Y-0726000D01*
X1375000D01*
Y-0725000D01*
X1373000D01*
Y-0724000D01*
X1365000D01*
G37*
G36*
X0724000Y-0396000D02*
Y-0397000D01*
X0721000D01*
Y-0398000D01*
X0719000D01*
Y-0399000D01*
X0718000D01*
Y-0400000D01*
X0717000D01*
Y-0401000D01*
X0716000D01*
Y-0402000D01*
X0717000D01*
X0718000D01*
X0719000D01*
X0720000D01*
X0721000D01*
X0722000D01*
X0723000D01*
X0724000D01*
X0730000D01*
Y-0403000D01*
X0732000D01*
Y-0404000D01*
X0733000D01*
Y-0406000D01*
X0734000D01*
Y-0412000D01*
X0733000D01*
Y-0414000D01*
X0732000D01*
Y-0415000D01*
X0730000D01*
Y-0416000D01*
X0725000D01*
Y-0415000D01*
X0723000D01*
Y-0414000D01*
X0722000D01*
Y-0412000D01*
X0721000D01*
Y-0406000D01*
X0722000D01*
Y-0404000D01*
X0723000D01*
Y-0403000D01*
X0725000D01*
Y-0402000D01*
X0724000D01*
X0723000D01*
X0722000D01*
X0721000D01*
X0720000D01*
X0719000D01*
X0718000D01*
X0717000D01*
X0716000D01*
Y-0403000D01*
X0715000D01*
Y-0405000D01*
X0714000D01*
Y-0414000D01*
X0715000D01*
Y-0416000D01*
X0716000D01*
Y-0418000D01*
X0717000D01*
Y-0419000D01*
X0718000D01*
Y-0420000D01*
X0719000D01*
Y-0421000D01*
X0721000D01*
Y-0422000D01*
X0723000D01*
Y-0423000D01*
X0732000D01*
Y-0422000D01*
X0734000D01*
Y-0421000D01*
X0736000D01*
Y-0420000D01*
X0737000D01*
Y-0419000D01*
X0738000D01*
Y-0418000D01*
X0739000D01*
Y-0416000D01*
X0740000D01*
Y-0414000D01*
X0741000D01*
Y-0405000D01*
X0740000D01*
Y-0403000D01*
X0739000D01*
Y-0401000D01*
X0738000D01*
Y-0400000D01*
X0737000D01*
Y-0399000D01*
X0736000D01*
Y-0398000D01*
X0734000D01*
Y-0397000D01*
X0732000D01*
Y-0396000D01*
X0724000D01*
G37*
G36*
X0885000Y-0378000D02*
Y-0397000D01*
X0883000D01*
Y-0396000D01*
X0875000D01*
Y-0397000D01*
X0873000D01*
Y-0398000D01*
X0871000D01*
Y-0399000D01*
X0870000D01*
Y-0400000D01*
X0869000D01*
Y-0401000D01*
X0868000D01*
Y-0403000D01*
X0869000D01*
X0870000D01*
X0871000D01*
X0872000D01*
X0873000D01*
X0874000D01*
X0875000D01*
X0876000D01*
X0882000D01*
Y-0404000D01*
X0883000D01*
Y-0405000D01*
X0884000D01*
Y-0406000D01*
X0885000D01*
Y-0413000D01*
X0884000D01*
Y-0415000D01*
X0882000D01*
Y-0416000D01*
X0877000D01*
Y-0415000D01*
X0875000D01*
Y-0414000D01*
X0874000D01*
Y-0412000D01*
X0873000D01*
Y-0407000D01*
X0874000D01*
Y-0405000D01*
X0875000D01*
Y-0404000D01*
X0877000D01*
Y-0403000D01*
X0876000D01*
X0875000D01*
X0874000D01*
X0873000D01*
X0872000D01*
X0871000D01*
X0870000D01*
X0869000D01*
X0868000D01*
X0867000D01*
Y-0405000D01*
X0866000D01*
Y-0414000D01*
X0867000D01*
Y-0417000D01*
X0868000D01*
Y-0418000D01*
X0869000D01*
Y-0419000D01*
X0870000D01*
Y-0420000D01*
X0871000D01*
Y-0421000D01*
X0873000D01*
Y-0422000D01*
X0875000D01*
Y-0423000D01*
X0884000D01*
Y-0422000D01*
X0885000D01*
Y-0423000D01*
X0892000D01*
Y-0378000D01*
X0885000D01*
G37*
G36*
X1191999Y-0719000D02*
Y-0724000D01*
X1189000D01*
Y-0731000D01*
X1191999D01*
Y-0751000D01*
X1199000D01*
Y-0731000D01*
X1201999D01*
Y-0724000D01*
X1199000D01*
Y-0719000D01*
X1191999D01*
G37*
G36*
X1171000Y-0724000D02*
Y-0725000D01*
X1167999D01*
Y-0726000D01*
X1165999D01*
Y-0727000D01*
X1165000D01*
Y-0728000D01*
X1163999D01*
Y-0729000D01*
X1163000D01*
Y-0731000D01*
X1163999D01*
X1165000D01*
X1165999D01*
X1167000D01*
X1167999D01*
X1169000D01*
X1169999D01*
X1171000D01*
X1177000D01*
Y-0732000D01*
X1177999D01*
Y-0733000D01*
X1179000D01*
Y-0734000D01*
X1179999D01*
Y-0741000D01*
X1179000D01*
Y-0743000D01*
X1177000D01*
Y-0744000D01*
X1171999D01*
Y-0743000D01*
X1169999D01*
Y-0742000D01*
X1169000D01*
Y-0740000D01*
X1167999D01*
Y-0735000D01*
X1169000D01*
Y-0733000D01*
X1169999D01*
Y-0732000D01*
X1171999D01*
Y-0731000D01*
X1171000D01*
X1169999D01*
X1169000D01*
X1167999D01*
X1167000D01*
X1165999D01*
X1165000D01*
X1163999D01*
X1163000D01*
X1161999D01*
Y-0734000D01*
X1161000D01*
Y-0742000D01*
X1161999D01*
Y-0744000D01*
X1163000D01*
Y-0746000D01*
X1163999D01*
Y-0747000D01*
X1165000D01*
Y-0748000D01*
X1165999D01*
Y-0749000D01*
X1167999D01*
Y-0750000D01*
X1169999D01*
Y-0751000D01*
X1177999D01*
Y-0750000D01*
X1179999D01*
Y-0751000D01*
X1187000D01*
Y-0724000D01*
X1179999D01*
Y-0725000D01*
X1177999D01*
Y-0724000D01*
X1171000D01*
G37*
G36*
X1304000Y-0704000D02*
Y-0751000D01*
X1310999D01*
Y-0704000D01*
X1304000D01*
G37*
G36*
X0752000Y-0396000D02*
Y-0397000D01*
X0749000D01*
Y-0398000D01*
X0747000D01*
Y-0399000D01*
X0746000D01*
Y-0400000D01*
X0745000D01*
Y-0401000D01*
X0744000D01*
Y-0403000D01*
X0745000D01*
X0746000D01*
X0747000D01*
X0748000D01*
X0749000D01*
X0750000D01*
X0751000D01*
X0752000D01*
X0758000D01*
Y-0404000D01*
X0759000D01*
Y-0405000D01*
X0760000D01*
Y-0406000D01*
X0761000D01*
Y-0413000D01*
X0760000D01*
Y-0415000D01*
X0758000D01*
Y-0416000D01*
X0753000D01*
Y-0415000D01*
X0751000D01*
Y-0414000D01*
X0750000D01*
Y-0412000D01*
X0749000D01*
Y-0407000D01*
X0750000D01*
Y-0405000D01*
X0751000D01*
Y-0404000D01*
X0753000D01*
Y-0403000D01*
X0752000D01*
X0751000D01*
X0750000D01*
X0749000D01*
X0748000D01*
X0747000D01*
X0746000D01*
X0745000D01*
X0744000D01*
X0743000D01*
Y-0406000D01*
X0742000D01*
Y-0414000D01*
X0743000D01*
Y-0416000D01*
X0744000D01*
Y-0418000D01*
X0745000D01*
Y-0419000D01*
X0746000D01*
Y-0420000D01*
X0747000D01*
Y-0421000D01*
X0749000D01*
Y-0422000D01*
X0751000D01*
Y-0423000D01*
X0759000D01*
Y-0422000D01*
X0761000D01*
Y-0423000D01*
X0768000D01*
Y-0396000D01*
X0761000D01*
Y-0397000D01*
X0759000D01*
Y-0396000D01*
X0752000D01*
G37*
G36*
X1042000D02*
Y-0397000D01*
X1040000D01*
Y-0398000D01*
X1038000D01*
Y-0400000D01*
X1036999D01*
Y-0401000D01*
X1036000D01*
Y-0407000D01*
X1036999D01*
Y-0409000D01*
X1038000D01*
Y-0410000D01*
X1038999D01*
Y-0411000D01*
X1040999D01*
Y-0412000D01*
X1044000D01*
Y-0413000D01*
X1046999D01*
Y-0415000D01*
X1046000D01*
Y-0416000D01*
X1042000D01*
Y-0415000D01*
X1040999D01*
Y-0414000D01*
X1040000D01*
Y-0413000D01*
X1038000D01*
Y-0414000D01*
X1036999D01*
Y-0415000D01*
X1036000D01*
Y-0416000D01*
X1034999D01*
Y-0417000D01*
X1034000D01*
Y-0418000D01*
X1034999D01*
Y-0420000D01*
X1036000D01*
Y-0421000D01*
X1038000D01*
Y-0422000D01*
X1040999D01*
Y-0423000D01*
X1048000D01*
Y-0422000D01*
X1050999D01*
Y-0421000D01*
X1052000D01*
Y-0420000D01*
X1052999D01*
Y-0419000D01*
X1054000D01*
Y-0417000D01*
X1054999D01*
Y-0411000D01*
X1054000D01*
Y-0409000D01*
X1052000D01*
Y-0408000D01*
X1050999D01*
Y-0407000D01*
X1048999D01*
Y-0406000D01*
X1044999D01*
Y-0405000D01*
X1042999D01*
Y-0403000D01*
X1044000D01*
Y-0402000D01*
X1046999D01*
Y-0403000D01*
X1048999D01*
Y-0404000D01*
X1050999D01*
Y-0403000D01*
X1052000D01*
Y-0402000D01*
X1052999D01*
Y-0400000D01*
X1054000D01*
Y-0398000D01*
X1052000D01*
Y-0397000D01*
X1050000D01*
Y-0396000D01*
X1042000D01*
G37*
G36*
X0980000D02*
Y-0397000D01*
X0977000D01*
Y-0398000D01*
X0976000D01*
Y-0399000D01*
X0975000D01*
Y-0400000D01*
X0974000D01*
Y-0401000D01*
X0973000D01*
Y-0402000D01*
X0972000D01*
Y-0404000D01*
X0971000D01*
Y-0406000D01*
X0970000D01*
Y-0414000D01*
X0971000D01*
Y-0416000D01*
X0972000D01*
Y-0418000D01*
X0973000D01*
Y-0419000D01*
X0974000D01*
Y-0420000D01*
X0975000D01*
Y-0421000D01*
X0977000D01*
Y-0422000D01*
X0979000D01*
Y-0423000D01*
X0988000D01*
Y-0422000D01*
X0990000D01*
Y-0421000D01*
X0992000D01*
Y-0418000D01*
X0991000D01*
Y-0417000D01*
X0990000D01*
Y-0415000D01*
X0989000D01*
Y-0414000D01*
X0988000D01*
Y-0415000D01*
X0986000D01*
Y-0416000D01*
X0981000D01*
Y-0415000D01*
X0979000D01*
Y-0414000D01*
X0978000D01*
Y-0412000D01*
X0977000D01*
Y-0408000D01*
X0978000D01*
Y-0406000D01*
X0979000D01*
Y-0405000D01*
X0980000D01*
Y-0404000D01*
X0981000D01*
Y-0403000D01*
X0986000D01*
Y-0404000D01*
X0988000D01*
Y-0406000D01*
X0989000D01*
Y-0404000D01*
X0990000D01*
Y-0403000D01*
X0991000D01*
Y-0401000D01*
X0992000D01*
Y-0398000D01*
X0990000D01*
Y-0397000D01*
X0988000D01*
Y-0396000D01*
X0980000D01*
G37*
G36*
X1023000Y-0391000D02*
Y-0396000D01*
X1020000D01*
Y-0403000D01*
X1023000D01*
Y-0423000D01*
X1030000D01*
Y-0403000D01*
X1032999D01*
Y-0396000D01*
X1030000D01*
Y-0391000D01*
X1023000D01*
G37*
G36*
X0994000Y-0396000D02*
Y-0416000D01*
X0995000D01*
Y-0418000D01*
X0996000D01*
Y-0420000D01*
X0997000D01*
Y-0421000D01*
X0998000D01*
Y-0422000D01*
X1000000D01*
Y-0423000D01*
X1008000D01*
Y-0422000D01*
X1009000D01*
Y-0421000D01*
X1010000D01*
Y-0423000D01*
X1017000D01*
Y-0396000D01*
X1010000D01*
Y-0412000D01*
X1009000D01*
Y-0414000D01*
X1008000D01*
Y-0415000D01*
X1006000D01*
Y-0416000D01*
X1003000D01*
Y-0415000D01*
X1002000D01*
Y-0414000D01*
X1001000D01*
Y-0396000D01*
X0994000D01*
G37*
G36*
X1090999Y-0989000D02*
Y-0990000D01*
X1086999D01*
Y-0991000D01*
X1086000D01*
Y-0992000D01*
X1084000D01*
Y-0993000D01*
X1082999D01*
Y-0995000D01*
X1082000D01*
Y-0996000D01*
X1080999D01*
Y-1000000D01*
X1080000D01*
Y-1003000D01*
X1080999D01*
Y-1007000D01*
X1082000D01*
Y-1008000D01*
X1082999D01*
Y-1010000D01*
X1084000D01*
Y-1011000D01*
X1086000D01*
Y-1012000D01*
X1086999D01*
Y-1013000D01*
X1090999D01*
Y-1014000D01*
X1124000D01*
Y-1013000D01*
X1128000D01*
Y-1012000D01*
X1129000D01*
Y-1011000D01*
X1131000D01*
Y-1010000D01*
X1132000D01*
Y-1008000D01*
X1133000D01*
Y-1007000D01*
X1134000D01*
Y-1003000D01*
X1135000D01*
Y-1000000D01*
X1134000D01*
Y-0996000D01*
X1133000D01*
Y-0995000D01*
X1132000D01*
Y-0993000D01*
X1131000D01*
Y-0992000D01*
X1129000D01*
Y-0991000D01*
X1128000D01*
Y-0990000D01*
X1124000D01*
Y-0989000D01*
X1090999D01*
G37*
G36*
Y-0549000D02*
Y-0550000D01*
X1086999D01*
Y-0551000D01*
X1086000D01*
Y-0552000D01*
X1084000D01*
Y-0553000D01*
X1082999D01*
Y-0555000D01*
X1082000D01*
Y-0556000D01*
X1080999D01*
Y-0560000D01*
X1080000D01*
Y-0563000D01*
X1080999D01*
Y-0567000D01*
X1082000D01*
Y-0568000D01*
X1082999D01*
Y-0570000D01*
X1084000D01*
Y-0571000D01*
X1086000D01*
Y-0572000D01*
X1086999D01*
Y-0573000D01*
X1090999D01*
Y-0574000D01*
X1124000D01*
Y-0573000D01*
X1128000D01*
Y-0572000D01*
X1129000D01*
Y-0571000D01*
X1131000D01*
Y-0570000D01*
X1132000D01*
Y-0568000D01*
X1133000D01*
Y-0567000D01*
X1134000D01*
Y-0563000D01*
X1135000D01*
Y-0560000D01*
X1134000D01*
Y-0556000D01*
X1133000D01*
Y-0555000D01*
X1132000D01*
Y-0553000D01*
X1131000D01*
Y-0552000D01*
X1129000D01*
Y-0551000D01*
X1128000D01*
Y-0550000D01*
X1124000D01*
Y-0549000D01*
X1090999D01*
G37*
G36*
X1150000Y-0704000D02*
Y-0751000D01*
X1157000D01*
Y-0704000D01*
X1150000D01*
G37*
G36*
X1346000Y-0719000D02*
Y-0724000D01*
X1343000D01*
Y-0731000D01*
X1346000D01*
Y-0751000D01*
X1353000D01*
Y-0731000D01*
X1356000D01*
Y-0724000D01*
X1353000D01*
Y-0719000D01*
X1346000D01*
G37*
G36*
X0932000Y-0396000D02*
Y-0397000D01*
X0929000D01*
Y-0398000D01*
X0928000D01*
Y-0399000D01*
X0926000D01*
Y-0400000D01*
X0925000D01*
Y-0401000D01*
X0924000D01*
Y-0402000D01*
X0925000D01*
X0926000D01*
X0927000D01*
X0928000D01*
X0929000D01*
X0930000D01*
X0931000D01*
X0932000D01*
X0938000D01*
Y-0403000D01*
X0940000D01*
Y-0406000D01*
X0930000D01*
Y-0405000D01*
X0931000D01*
Y-0404000D01*
X0932000D01*
Y-0403000D01*
X0933000D01*
Y-0402000D01*
X0932000D01*
X0931000D01*
X0930000D01*
X0929000D01*
X0928000D01*
X0927000D01*
X0926000D01*
X0925000D01*
X0924000D01*
Y-0403000D01*
X0923000D01*
Y-0406000D01*
X0922000D01*
Y-0414000D01*
X0923000D01*
Y-0416000D01*
X0924000D01*
Y-0418000D01*
X0925000D01*
Y-0419000D01*
X0926000D01*
Y-0420000D01*
X0927000D01*
Y-0421000D01*
X0929000D01*
Y-0422000D01*
X0932000D01*
Y-0423000D01*
X0940000D01*
Y-0422000D01*
X0943000D01*
Y-0421000D01*
X0945000D01*
Y-0420000D01*
X0946000D01*
Y-0419000D01*
X0947000D01*
Y-0416000D01*
X0946000D01*
Y-0415000D01*
X0944000D01*
Y-0414000D01*
X0943000D01*
Y-0413000D01*
X0941000D01*
Y-0414000D01*
X0940000D01*
Y-0415000D01*
X0939000D01*
Y-0416000D01*
X0934000D01*
Y-0415000D01*
X0932000D01*
Y-0414000D01*
X0931000D01*
Y-0413000D01*
X0930000D01*
Y-0412000D01*
X0948000D01*
Y-0404000D01*
X0947000D01*
Y-0402000D01*
X0946000D01*
Y-0400000D01*
X0945000D01*
Y-0399000D01*
X0944000D01*
Y-0398000D01*
X0942000D01*
Y-0397000D01*
X0940000D01*
Y-0396000D01*
X0932000D01*
G37*
G36*
X0905000D02*
Y-0397000D01*
X0902000D01*
Y-0398000D01*
X0900000D01*
Y-0399000D01*
X0899000D01*
Y-0400000D01*
X0898000D01*
Y-0401000D01*
X0897000D01*
Y-0403000D01*
X0898000D01*
X0899000D01*
X0900000D01*
X0901000D01*
X0902000D01*
X0903000D01*
X0904000D01*
X0911000D01*
Y-0404000D01*
X0912000D01*
Y-0405000D01*
X0913000D01*
Y-0413000D01*
X0912000D01*
Y-0415000D01*
X0911000D01*
Y-0416000D01*
X0906000D01*
Y-0415000D01*
X0904000D01*
Y-0414000D01*
X0903000D01*
Y-0412000D01*
X0902000D01*
Y-0407000D01*
X0903000D01*
Y-0405000D01*
X0904000D01*
Y-0404000D01*
X0905000D01*
Y-0403000D01*
X0904000D01*
X0903000D01*
X0902000D01*
X0901000D01*
X0900000D01*
X0899000D01*
X0898000D01*
X0897000D01*
X0896000D01*
Y-0406000D01*
X0895000D01*
Y-0414000D01*
X0896000D01*
Y-0416000D01*
X0897000D01*
Y-0418000D01*
X0898000D01*
Y-0419000D01*
X0899000D01*
Y-0420000D01*
X0900000D01*
Y-0421000D01*
X0902000D01*
Y-0422000D01*
X0904000D01*
Y-0423000D01*
X0912000D01*
Y-0422000D01*
X0913000D01*
Y-0426000D01*
X0912000D01*
Y-0427000D01*
X0910000D01*
Y-0428000D01*
X0905000D01*
Y-0427000D01*
X0903000D01*
Y-0426000D01*
X0901000D01*
Y-0425000D01*
X0900000D01*
Y-0426000D01*
X0899000D01*
Y-0428000D01*
X0898000D01*
Y-0430000D01*
X0897000D01*
Y-0431000D01*
X0898000D01*
Y-0432000D01*
X0899000D01*
Y-0433000D01*
X0901000D01*
Y-0434000D01*
X0904000D01*
Y-0435000D01*
X0911000D01*
Y-0434000D01*
X0914000D01*
Y-0433000D01*
X0915000D01*
Y-0432000D01*
X0916000D01*
Y-0431000D01*
X0917000D01*
Y-0430000D01*
X0918000D01*
Y-0429000D01*
X0919000D01*
Y-0426000D01*
X0920000D01*
Y-0396000D01*
X0913000D01*
Y-0397000D01*
X0912000D01*
Y-0396000D01*
X0905000D01*
G37*
G36*
X1241000Y-0989000D02*
Y-0990000D01*
X1237000D01*
Y-0991000D01*
X1236000D01*
Y-0992000D01*
X1234000D01*
Y-0993000D01*
X1233000D01*
Y-0995000D01*
X1231999D01*
Y-0996000D01*
X1231000D01*
Y-1000000D01*
X1229999D01*
Y-1003000D01*
X1231000D01*
Y-1007000D01*
X1231999D01*
Y-1008000D01*
X1233000D01*
Y-1010000D01*
X1234000D01*
Y-1011000D01*
X1236000D01*
Y-1012000D01*
X1237000D01*
Y-1013000D01*
X1241000D01*
Y-1014000D01*
X1288999D01*
Y-1013000D01*
X1292999D01*
Y-1012000D01*
X1294000D01*
Y-1011000D01*
X1296000D01*
Y-1010000D01*
X1296999D01*
Y-1008000D01*
X1298000D01*
Y-1007000D01*
X1298999D01*
Y-1003000D01*
X1300000D01*
Y-1000000D01*
X1298999D01*
Y-0996000D01*
X1298000D01*
Y-0995000D01*
X1296999D01*
Y-0993000D01*
X1296000D01*
Y-0992000D01*
X1294000D01*
Y-0991000D01*
X1292999D01*
Y-0990000D01*
X1288999D01*
Y-0989000D01*
X1241000D01*
G37*
G36*
X1250000Y-0706000D02*
Y-0725000D01*
X1248000D01*
Y-0724000D01*
X1240000D01*
Y-0725000D01*
X1238000D01*
Y-0726000D01*
X1236000D01*
Y-0727000D01*
X1235000D01*
Y-0728000D01*
X1234000D01*
Y-0729000D01*
X1233000D01*
Y-0731000D01*
X1234000D01*
X1235000D01*
X1236000D01*
X1237000D01*
X1238000D01*
X1239000D01*
X1240000D01*
X1241000D01*
X1247000D01*
Y-0732000D01*
X1248000D01*
Y-0733000D01*
X1249000D01*
Y-0734000D01*
X1250000D01*
Y-0741000D01*
X1249000D01*
Y-0743000D01*
X1247000D01*
Y-0744000D01*
X1242000D01*
Y-0743000D01*
X1240000D01*
Y-0742000D01*
X1239000D01*
Y-0740000D01*
X1238000D01*
Y-0735000D01*
X1239000D01*
Y-0733000D01*
X1240000D01*
Y-0732000D01*
X1242000D01*
Y-0731000D01*
X1241000D01*
X1240000D01*
X1239000D01*
X1238000D01*
X1237000D01*
X1236000D01*
X1235000D01*
X1234000D01*
X1233000D01*
X1231999D01*
Y-0733000D01*
X1231000D01*
Y-0742000D01*
X1231999D01*
Y-0745000D01*
X1233000D01*
Y-0746000D01*
X1234000D01*
Y-0747000D01*
X1235000D01*
Y-0748000D01*
X1236000D01*
Y-0749000D01*
X1238000D01*
Y-0750000D01*
X1240000D01*
Y-0751000D01*
X1249000D01*
Y-0750000D01*
X1250000D01*
Y-0751000D01*
X1257000D01*
Y-0706000D01*
X1250000D01*
G37*
G36*
X1241000Y-0549000D02*
Y-0550000D01*
X1237000D01*
Y-0551000D01*
X1236000D01*
Y-0552000D01*
X1234000D01*
Y-0553000D01*
X1233000D01*
Y-0555000D01*
X1231999D01*
Y-0556000D01*
X1231000D01*
Y-0560000D01*
X1229999D01*
Y-0563000D01*
X1231000D01*
Y-0567000D01*
X1231999D01*
Y-0568000D01*
X1233000D01*
Y-0570000D01*
X1234000D01*
Y-0571000D01*
X1236000D01*
Y-0572000D01*
X1237000D01*
Y-0573000D01*
X1241000D01*
Y-0574000D01*
X1288999D01*
Y-0573000D01*
X1292999D01*
Y-0572000D01*
X1294000D01*
Y-0571000D01*
X1296000D01*
Y-0570000D01*
X1296999D01*
Y-0568000D01*
X1298000D01*
Y-0567000D01*
X1298999D01*
Y-0563000D01*
X1300000D01*
Y-0560000D01*
X1298999D01*
Y-0556000D01*
X1298000D01*
Y-0555000D01*
X1296999D01*
Y-0553000D01*
X1296000D01*
Y-0552000D01*
X1294000D01*
Y-0551000D01*
X1292999D01*
Y-0550000D01*
X1288999D01*
Y-0549000D01*
X1241000D01*
G37*
G36*
X0138000Y-0445000D02*
Y-0446000D01*
X0133000D01*
Y-0447000D01*
X0134000D01*
X0135000D01*
X0136000D01*
X0137000D01*
X1302000D01*
Y-0448000D01*
X1306999D01*
Y-0449000D01*
X1310000D01*
Y-0450000D01*
X1312999D01*
Y-0451000D01*
X1314999D01*
Y-0452000D01*
X1316999D01*
Y-0453000D01*
X1318999D01*
Y-0454000D01*
X1320999D01*
Y-0455000D01*
X1322000D01*
Y-0456000D01*
X1324000D01*
Y-0457000D01*
X1324999D01*
Y-0458000D01*
X1326000D01*
Y-0459000D01*
X1326999D01*
Y-0460000D01*
X1328000D01*
Y-0461000D01*
X1328999D01*
Y-0462000D01*
X1330000D01*
Y-0463000D01*
X1330999D01*
Y-0464000D01*
X1332000D01*
Y-0465000D01*
X1332999D01*
Y-0466000D01*
X1334000D01*
Y-0468000D01*
X1334999D01*
Y-0469000D01*
X1336000D01*
Y-0471000D01*
X1336999D01*
Y-0473000D01*
X1338000D01*
Y-0475000D01*
X1338999D01*
Y-0477000D01*
X1340000D01*
Y-0480000D01*
X1340999D01*
Y-0483000D01*
X1342000D01*
Y-0488000D01*
X1343000D01*
Y-0599000D01*
X1275000D01*
Y-0597000D01*
X1276000D01*
Y-0595000D01*
X1277000D01*
Y-0593000D01*
X1275000D01*
Y-0592000D01*
X1273000D01*
Y-0591000D01*
X1272000D01*
Y-0592000D01*
X1271000D01*
Y-0594000D01*
X1270000D01*
Y-0595000D01*
X1269000D01*
Y-0597000D01*
X1268000D01*
Y-0599000D01*
X1133000D01*
Y-0597000D01*
X1132000D01*
Y-0595000D01*
X1131000D01*
Y-0594000D01*
X1130000D01*
Y-0592000D01*
X1129000D01*
Y-0591000D01*
X1128000D01*
Y-0592000D01*
X1126000D01*
Y-0593000D01*
X1124000D01*
Y-0595000D01*
X1125000D01*
Y-0597000D01*
X1126000D01*
Y-0599000D01*
X1066000D01*
Y-0600000D01*
X1064000D01*
Y-0601000D01*
X1062000D01*
Y-0602000D01*
X1060000D01*
Y-0603000D01*
X1058999D01*
Y-0604000D01*
X1058000D01*
Y-0605000D01*
X1056999D01*
Y-0606000D01*
X1056000D01*
Y-0607000D01*
X1054999D01*
Y-0609000D01*
X1054000D01*
Y-0610000D01*
X1052999D01*
Y-0611000D01*
X1052000D01*
Y-0616000D01*
X1050999D01*
Y-0623000D01*
X1052000D01*
Y-0624000D01*
X1052999D01*
Y-0628000D01*
X1054000D01*
Y-0630000D01*
X1054999D01*
Y-0632000D01*
X1056000D01*
Y-0633000D01*
X1056999D01*
Y-0634000D01*
X1058000D01*
Y-0635000D01*
X1058999D01*
Y-0636000D01*
X1060999D01*
Y-0637000D01*
X1062000D01*
Y-0638000D01*
X1064000D01*
Y-0639000D01*
X1066999D01*
Y-0640000D01*
X1070000D01*
Y-0922000D01*
X1068999D01*
Y-0923000D01*
X1066999D01*
Y-0924000D01*
X1064999D01*
Y-0925000D01*
X1062999D01*
Y-0926000D01*
X1060999D01*
Y-0927000D01*
X1058999D01*
Y-0928000D01*
X1058000D01*
Y-0929000D01*
X1056999D01*
Y-0930000D01*
X1056000D01*
Y-0931000D01*
X1054999D01*
Y-0933000D01*
X1054000D01*
Y-0934000D01*
X1052999D01*
Y-0936000D01*
X1052000D01*
Y-0938000D01*
X1050999D01*
Y-0948000D01*
X1052000D01*
Y-0951000D01*
X1052999D01*
Y-0953000D01*
X1054000D01*
Y-0955000D01*
X1054999D01*
Y-0956000D01*
X1056000D01*
Y-0957000D01*
X1056999D01*
Y-0958000D01*
X1058000D01*
Y-0959000D01*
X1058999D01*
Y-0960000D01*
X1060000D01*
Y-0961000D01*
X1062000D01*
Y-0962000D01*
X1062999D01*
Y-0963000D01*
X1066000D01*
Y-0964000D01*
X1108000D01*
Y-0965000D01*
X1106999D01*
Y-0969000D01*
X1106000D01*
Y-0973000D01*
X1104999D01*
Y-0977000D01*
X1104000D01*
Y-0981000D01*
X1102999D01*
Y-0982000D01*
X1104999D01*
Y-0983000D01*
X1108999D01*
Y-0984000D01*
X1110999D01*
Y-0982000D01*
X1112000D01*
Y-0978000D01*
X1112999D01*
Y-0974000D01*
X1114000D01*
Y-0970000D01*
X1114999D01*
Y-0966000D01*
X1116000D01*
Y-0964000D01*
X1261000D01*
Y-0967000D01*
X1262000D01*
Y-0971000D01*
X1263000D01*
Y-0975000D01*
X1264000D01*
Y-0979000D01*
X1265000D01*
Y-0983000D01*
X1266000D01*
Y-0985000D01*
X1268000D01*
Y-0984000D01*
X1272000D01*
Y-0983000D01*
X1274000D01*
Y-0982000D01*
X1273000D01*
Y-0978000D01*
X1272000D01*
Y-0974000D01*
X1271000D01*
Y-0970000D01*
X1270000D01*
Y-0966000D01*
X1269000D01*
Y-0964000D01*
X1343000D01*
Y-1068000D01*
X1342000D01*
Y-1072999D01*
X1340999D01*
Y-1076000D01*
X1340000D01*
Y-1078999D01*
X1338999D01*
Y-1080999D01*
X1338000D01*
Y-1082999D01*
X1336999D01*
Y-1084999D01*
X1336000D01*
Y-1086999D01*
X1334999D01*
Y-1088000D01*
X1334000D01*
Y-1090000D01*
X1332999D01*
Y-1090999D01*
X1332000D01*
Y-1092000D01*
X1330999D01*
Y-1092999D01*
X1330000D01*
Y-1094000D01*
X1328999D01*
Y-1094999D01*
X1328000D01*
Y-1096000D01*
X1326999D01*
Y-1096999D01*
X1326000D01*
Y-1098000D01*
X1324999D01*
Y-1098999D01*
X1324000D01*
Y-1100000D01*
X1322000D01*
Y-1100999D01*
X1320999D01*
Y-1102000D01*
X1318999D01*
Y-1102999D01*
X1316999D01*
Y-1104000D01*
X1314999D01*
Y-1104999D01*
X1312999D01*
Y-1106000D01*
X1310000D01*
Y-1106999D01*
X1306999D01*
Y-1108000D01*
X1302000D01*
Y-1108999D01*
X0138000D01*
Y-1108000D01*
X0133000D01*
Y-1106999D01*
X0130000D01*
Y-1106000D01*
X0127000D01*
Y-1104999D01*
X0125000D01*
Y-1104000D01*
X0123000D01*
Y-1102999D01*
X0121000D01*
Y-1102000D01*
X0119000D01*
Y-1100999D01*
X0118000D01*
Y-1100000D01*
X0116000D01*
Y-1098999D01*
X0115000D01*
Y-1098000D01*
X0114000D01*
Y-1096999D01*
X0113000D01*
Y-1096000D01*
X0112000D01*
Y-1094999D01*
X0111000D01*
Y-1094000D01*
X0110000D01*
Y-1092999D01*
X0109000D01*
Y-1092000D01*
X0108000D01*
Y-1090999D01*
X0107000D01*
Y-1090000D01*
X0106000D01*
Y-1088000D01*
X0105000D01*
Y-1086999D01*
X0104000D01*
Y-1084999D01*
X0103000D01*
Y-1082999D01*
X0102000D01*
Y-1080999D01*
X0101000D01*
Y-1078999D01*
X0100000D01*
Y-1076000D01*
X0099000D01*
Y-1072999D01*
X0098000D01*
Y-1068000D01*
X0097000D01*
Y-0488000D01*
X0098000D01*
Y-0483000D01*
X0099000D01*
Y-0480000D01*
X0100000D01*
Y-0477000D01*
X0101000D01*
Y-0475000D01*
X0102000D01*
Y-0473000D01*
X0103000D01*
Y-0471000D01*
X0104000D01*
Y-0469000D01*
X0105000D01*
Y-0468000D01*
X0106000D01*
Y-0466000D01*
X0107000D01*
Y-0465000D01*
X0108000D01*
Y-0464000D01*
X0109000D01*
Y-0463000D01*
X0110000D01*
Y-0462000D01*
X0111000D01*
Y-0461000D01*
X0112000D01*
Y-0460000D01*
X0113000D01*
Y-0459000D01*
X0114000D01*
Y-0458000D01*
X0115000D01*
Y-0457000D01*
X0116000D01*
Y-0456000D01*
X0118000D01*
Y-0455000D01*
X0119000D01*
Y-0454000D01*
X0121000D01*
Y-0453000D01*
X0123000D01*
Y-0452000D01*
X0125000D01*
Y-0451000D01*
X0127000D01*
Y-0450000D01*
X0130000D01*
Y-0449000D01*
X0133000D01*
Y-0448000D01*
X0138000D01*
Y-0447000D01*
X0137000D01*
X0136000D01*
X0135000D01*
X0134000D01*
X0133000D01*
X0129000D01*
Y-0448000D01*
X0127000D01*
Y-0449000D01*
X0124000D01*
Y-0450000D01*
X0122000D01*
Y-0451000D01*
X0120000D01*
Y-0452000D01*
X0119000D01*
Y-0453000D01*
X0117000D01*
Y-0454000D01*
X0116000D01*
Y-0455000D01*
X0114000D01*
Y-0456000D01*
X0113000D01*
Y-0457000D01*
X0112000D01*
Y-0458000D01*
X0111000D01*
Y-0459000D01*
X0110000D01*
Y-0460000D01*
X0109000D01*
Y-0461000D01*
X0108000D01*
Y-0462000D01*
X0107000D01*
Y-0463000D01*
X0106000D01*
Y-0464000D01*
X0105000D01*
Y-0466000D01*
X0104000D01*
Y-0467000D01*
X0103000D01*
Y-0469000D01*
X0102000D01*
Y-0470000D01*
X0101000D01*
Y-0472000D01*
X0100000D01*
Y-0474000D01*
X0099000D01*
Y-0477000D01*
X0098000D01*
Y-0479000D01*
X0097000D01*
Y-0483000D01*
X0096000D01*
Y-0488000D01*
X0095000D01*
Y-1068000D01*
X0096000D01*
Y-1072999D01*
X0097000D01*
Y-1076999D01*
X0098000D01*
Y-1078999D01*
X0099000D01*
Y-1082000D01*
X0100000D01*
Y-1084000D01*
X0101000D01*
Y-1086000D01*
X0102000D01*
Y-1086999D01*
X0103000D01*
Y-1088999D01*
X0104000D01*
Y-1090000D01*
X0105000D01*
Y-1092000D01*
X0106000D01*
Y-1092999D01*
X0107000D01*
Y-1094000D01*
X0108000D01*
Y-1094999D01*
X0109000D01*
Y-1096000D01*
X0110000D01*
Y-1096999D01*
X0111000D01*
Y-1098000D01*
X0112000D01*
Y-1098999D01*
X0113000D01*
Y-1100000D01*
X0114000D01*
Y-1100999D01*
X0116000D01*
Y-1102000D01*
X0117000D01*
Y-1102999D01*
X0119000D01*
Y-1104000D01*
X0120000D01*
Y-1104999D01*
X0122000D01*
Y-1106000D01*
X0124000D01*
Y-1106999D01*
X0127000D01*
Y-1108000D01*
X0129000D01*
Y-1108999D01*
X0133000D01*
Y-1110000D01*
X0138000D01*
Y-1110999D01*
X1302000D01*
Y-1110000D01*
X1306999D01*
Y-1108999D01*
X1310999D01*
Y-1108000D01*
X1312999D01*
Y-1106999D01*
X1316000D01*
Y-1106000D01*
X1318000D01*
Y-1104999D01*
X1320000D01*
Y-1104000D01*
X1320999D01*
Y-1102999D01*
X1322999D01*
Y-1102000D01*
X1324000D01*
Y-1100999D01*
X1326000D01*
Y-1100000D01*
X1326999D01*
Y-1098999D01*
X1328000D01*
Y-1098000D01*
X1328999D01*
Y-1096999D01*
X1330000D01*
Y-1096000D01*
X1330999D01*
Y-1094999D01*
X1332000D01*
Y-1094000D01*
X1332999D01*
Y-1092999D01*
X1334000D01*
Y-1092000D01*
X1334999D01*
Y-1090000D01*
X1336000D01*
Y-1088999D01*
X1336999D01*
Y-1086999D01*
X1338000D01*
Y-1086000D01*
X1338999D01*
Y-1084000D01*
X1340000D01*
Y-1082000D01*
X1340999D01*
Y-1078999D01*
X1342000D01*
Y-1076999D01*
X1343000D01*
Y-1072999D01*
X1344000D01*
Y-1068000D01*
X1345000D01*
Y-0962000D01*
X1268000D01*
Y-0958000D01*
X1267000D01*
Y-0953000D01*
X1266000D01*
Y-0949000D01*
X1265000D01*
Y-0945000D01*
X1264000D01*
Y-0941000D01*
X1263000D01*
Y-0937000D01*
X1262000D01*
Y-0933000D01*
X1261000D01*
Y-0929000D01*
X1260000D01*
Y-0924000D01*
X1259000D01*
Y-0920000D01*
X1258000D01*
Y-0916000D01*
X1257000D01*
Y-0912000D01*
X1256000D01*
Y-0908000D01*
X1255000D01*
Y-0904000D01*
X1254000D01*
Y-0900000D01*
X1253000D01*
Y-0896000D01*
X1252000D01*
Y-0892000D01*
X1251000D01*
Y-0888000D01*
X1250000D01*
Y-0883000D01*
X1249000D01*
Y-0879000D01*
X1248000D01*
Y-0875000D01*
X1247000D01*
Y-0871000D01*
X1246000D01*
Y-0867000D01*
X1245000D01*
Y-0863000D01*
X1244000D01*
Y-0859000D01*
X1243000D01*
Y-0855000D01*
X1242000D01*
Y-0850000D01*
X1241000D01*
Y-0846000D01*
X1240000D01*
Y-0842000D01*
X1239000D01*
Y-0838000D01*
X1238000D01*
Y-0834000D01*
X1237000D01*
Y-0830000D01*
X1236000D01*
Y-0826000D01*
X1235000D01*
Y-0821000D01*
X1234000D01*
Y-0817000D01*
X1233000D01*
Y-0813000D01*
X1231999D01*
Y-0809000D01*
X1231000D01*
Y-0805000D01*
X1229999D01*
Y-0801000D01*
X1229000D01*
Y-0797000D01*
X1227999D01*
Y-0792000D01*
X1227000D01*
Y-0788000D01*
X1225999D01*
Y-0784000D01*
X1225000D01*
Y-0780000D01*
X1223999D01*
Y-0776000D01*
X1223000D01*
Y-0772000D01*
X1221999D01*
Y-0770000D01*
X1219999D01*
Y-0771000D01*
X1215999D01*
Y-0772000D01*
X1213999D01*
Y-0773000D01*
X1215000D01*
Y-0777000D01*
X1215999D01*
Y-0781000D01*
X1217000D01*
Y-0785000D01*
X1217999D01*
Y-0789000D01*
X1219000D01*
Y-0793000D01*
X1219999D01*
Y-0798000D01*
X1221000D01*
Y-0802000D01*
X1221999D01*
Y-0806000D01*
X1223000D01*
Y-0810000D01*
X1223999D01*
Y-0814000D01*
X1225000D01*
Y-0818000D01*
X1225999D01*
Y-0822000D01*
X1227000D01*
Y-0826000D01*
X1227999D01*
Y-0831000D01*
X1229000D01*
Y-0835000D01*
X1229999D01*
Y-0839000D01*
X1231000D01*
Y-0843000D01*
X1231999D01*
Y-0847000D01*
X1233000D01*
Y-0851000D01*
X1234000D01*
Y-0855000D01*
X1235000D01*
Y-0860000D01*
X1236000D01*
Y-0864000D01*
X1237000D01*
Y-0868000D01*
X1238000D01*
Y-0872000D01*
X1239000D01*
Y-0876000D01*
X1240000D01*
Y-0880000D01*
X1241000D01*
Y-0884000D01*
X1242000D01*
Y-0889000D01*
X1243000D01*
Y-0893000D01*
X1244000D01*
Y-0897000D01*
X1245000D01*
Y-0901000D01*
X1246000D01*
Y-0905000D01*
X1247000D01*
Y-0909000D01*
X1248000D01*
Y-0913000D01*
X1249000D01*
Y-0918000D01*
X1250000D01*
Y-0922000D01*
X1251000D01*
Y-0926000D01*
X1252000D01*
Y-0930000D01*
X1253000D01*
Y-0934000D01*
X1254000D01*
Y-0938000D01*
X1255000D01*
Y-0942000D01*
X1256000D01*
Y-0946000D01*
X1257000D01*
Y-0950000D01*
X1258000D01*
Y-0954000D01*
X1259000D01*
Y-0959000D01*
X1260000D01*
Y-0962000D01*
X1117000D01*
Y-0958000D01*
X1118000D01*
Y-0954000D01*
X1119000D01*
Y-0950000D01*
X1120000D01*
Y-0946000D01*
X1121000D01*
Y-0942000D01*
X1122000D01*
Y-0937000D01*
X1123000D01*
Y-0933000D01*
X1124000D01*
Y-0929000D01*
X1125000D01*
Y-0925000D01*
X1126000D01*
Y-0921000D01*
X1127000D01*
Y-0917000D01*
X1128000D01*
Y-0913000D01*
X1129000D01*
Y-0908000D01*
X1130000D01*
Y-0904000D01*
X1131000D01*
Y-0900000D01*
X1132000D01*
Y-0896000D01*
X1133000D01*
Y-0892000D01*
X1134000D01*
Y-0888000D01*
X1135000D01*
Y-0884000D01*
X1136000D01*
Y-0879000D01*
X1137000D01*
Y-0875000D01*
X1138000D01*
Y-0871000D01*
X1139000D01*
Y-0867000D01*
X1140000D01*
Y-0863000D01*
X1141000D01*
Y-0859000D01*
X1142000D01*
Y-0855000D01*
X1143000D01*
Y-0850000D01*
X1144000D01*
Y-0846000D01*
X1145000D01*
Y-0842000D01*
X1146000D01*
Y-0838000D01*
X1147000D01*
Y-0834000D01*
X1148000D01*
Y-0830000D01*
X1149000D01*
Y-0826000D01*
X1150000D01*
Y-0821000D01*
X1151000D01*
Y-0817000D01*
X1152000D01*
Y-0813000D01*
X1153000D01*
Y-0809000D01*
X1153999D01*
Y-0805000D01*
X1155000D01*
Y-0801000D01*
X1155999D01*
Y-0797000D01*
X1157000D01*
Y-0793000D01*
X1157999D01*
Y-0788000D01*
X1159000D01*
Y-0784000D01*
X1159999D01*
Y-0780000D01*
X1161000D01*
Y-0776000D01*
X1161999D01*
Y-0772000D01*
X1163000D01*
Y-0768000D01*
X1163999D01*
Y-0767000D01*
X1161999D01*
Y-0766000D01*
X1157999D01*
Y-0765000D01*
X1155999D01*
Y-0767000D01*
X1155000D01*
Y-0771000D01*
X1153999D01*
Y-0775000D01*
X1153000D01*
Y-0779000D01*
X1152000D01*
Y-0783000D01*
X1151000D01*
Y-0787000D01*
X1150000D01*
Y-0792000D01*
X1149000D01*
Y-0796000D01*
X1148000D01*
Y-0800000D01*
X1147000D01*
Y-0804000D01*
X1146000D01*
Y-0808000D01*
X1145000D01*
Y-0812000D01*
X1144000D01*
Y-0816000D01*
X1143000D01*
Y-0821000D01*
X1142000D01*
Y-0825000D01*
X1141000D01*
Y-0829000D01*
X1140000D01*
Y-0833000D01*
X1139000D01*
Y-0837000D01*
X1138000D01*
Y-0841000D01*
X1137000D01*
Y-0845000D01*
X1136000D01*
Y-0850000D01*
X1135000D01*
Y-0854000D01*
X1134000D01*
Y-0858000D01*
X1133000D01*
Y-0862000D01*
X1132000D01*
Y-0866000D01*
X1131000D01*
Y-0870000D01*
X1130000D01*
Y-0874000D01*
X1129000D01*
Y-0878000D01*
X1128000D01*
Y-0883000D01*
X1127000D01*
Y-0887000D01*
X1126000D01*
Y-0891000D01*
X1125000D01*
Y-0895000D01*
X1124000D01*
Y-0899000D01*
X1123000D01*
Y-0903000D01*
X1122000D01*
Y-0907000D01*
X1121000D01*
Y-0912000D01*
X1120000D01*
Y-0916000D01*
X1119000D01*
Y-0920000D01*
X1118000D01*
Y-0924000D01*
X1117000D01*
Y-0928000D01*
X1116000D01*
Y-0932000D01*
X1114999D01*
Y-0936000D01*
X1114000D01*
Y-0941000D01*
X1112999D01*
Y-0945000D01*
X1112000D01*
Y-0948000D01*
X1110999D01*
Y-0952000D01*
X1110000D01*
Y-0957000D01*
X1108999D01*
Y-0961000D01*
X1108000D01*
Y-0962000D01*
X1066000D01*
Y-0961000D01*
X1064999D01*
Y-0960000D01*
X1062999D01*
Y-0959000D01*
X1060999D01*
Y-0958000D01*
X1060000D01*
Y-0957000D01*
X1058999D01*
Y-0956000D01*
X1056999D01*
Y-0954000D01*
X1056000D01*
Y-0952000D01*
X1054999D01*
Y-0950000D01*
X1054000D01*
Y-0949000D01*
X1052999D01*
Y-0938000D01*
X1054000D01*
Y-0936000D01*
X1054999D01*
Y-0934000D01*
X1056000D01*
Y-0933000D01*
X1056999D01*
Y-0931000D01*
X1058000D01*
Y-0930000D01*
X1060000D01*
Y-0929000D01*
X1060999D01*
Y-0928000D01*
X1062999D01*
Y-0927000D01*
X1064000D01*
Y-0926000D01*
X1066999D01*
Y-0925000D01*
X1070000D01*
Y-0924000D01*
X1072000D01*
Y-0639000D01*
X1070000D01*
Y-0638000D01*
X1068000D01*
Y-0637000D01*
X1064999D01*
Y-0636000D01*
X1062999D01*
Y-0635000D01*
X1060999D01*
Y-0634000D01*
X1060000D01*
Y-0633000D01*
X1058999D01*
Y-0632000D01*
X1058000D01*
Y-0630000D01*
X1056999D01*
Y-0629000D01*
X1056000D01*
Y-0628000D01*
X1054999D01*
Y-0624000D01*
X1054000D01*
Y-0621000D01*
X1052999D01*
Y-0618000D01*
X1054000D01*
Y-0612000D01*
X1054999D01*
Y-0611000D01*
X1056000D01*
Y-0610000D01*
X1056999D01*
Y-0608000D01*
X1058000D01*
Y-0607000D01*
X1058999D01*
Y-0606000D01*
X1060000D01*
Y-0605000D01*
X1062000D01*
Y-0604000D01*
X1062999D01*
Y-0603000D01*
X1066000D01*
Y-0602000D01*
X1068999D01*
Y-0601000D01*
X1128000D01*
Y-0602000D01*
X1129000D01*
Y-0604000D01*
X1130000D01*
Y-0606000D01*
X1131000D01*
Y-0608000D01*
X1132000D01*
Y-0609000D01*
X1133000D01*
Y-0611000D01*
X1134000D01*
Y-0613000D01*
X1135000D01*
Y-0615000D01*
X1136000D01*
Y-0616000D01*
X1137000D01*
Y-0618000D01*
X1138000D01*
Y-0620000D01*
X1139000D01*
Y-0622000D01*
X1140000D01*
Y-0623000D01*
X1141000D01*
Y-0625000D01*
X1142000D01*
Y-0627000D01*
X1143000D01*
Y-0629000D01*
X1144000D01*
Y-0630000D01*
X1145000D01*
Y-0632000D01*
X1146000D01*
Y-0634000D01*
X1147000D01*
Y-0636000D01*
X1148000D01*
Y-0638000D01*
X1149000D01*
Y-0639000D01*
X1150000D01*
Y-0641000D01*
X1151000D01*
Y-0643000D01*
X1152000D01*
Y-0645000D01*
X1153000D01*
Y-0646000D01*
X1153999D01*
Y-0648000D01*
X1155000D01*
Y-0650000D01*
X1155999D01*
Y-0652000D01*
X1157000D01*
Y-0653000D01*
X1157999D01*
Y-0655000D01*
X1159000D01*
Y-0657000D01*
X1159999D01*
Y-0659000D01*
X1161000D01*
Y-0660000D01*
X1161999D01*
Y-0662000D01*
X1163000D01*
Y-0664000D01*
X1163999D01*
Y-0666000D01*
X1165000D01*
Y-0667000D01*
X1165999D01*
Y-0669000D01*
X1167000D01*
Y-0671000D01*
X1167999D01*
Y-0673000D01*
X1169000D01*
Y-0675000D01*
X1169999D01*
Y-0676000D01*
X1171000D01*
Y-0678000D01*
X1171999D01*
Y-0680000D01*
X1173000D01*
Y-0682000D01*
X1173999D01*
Y-0683000D01*
X1175000D01*
Y-0685000D01*
X1175999D01*
Y-0687000D01*
X1177000D01*
Y-0689000D01*
X1177999D01*
Y-0690000D01*
X1179000D01*
Y-0692000D01*
X1179999D01*
Y-0694000D01*
X1181000D01*
Y-0696000D01*
X1181999D01*
Y-0697000D01*
X1183000D01*
Y-0699000D01*
X1183999D01*
Y-0701000D01*
X1185000D01*
Y-0703000D01*
X1185999D01*
Y-0704000D01*
X1187000D01*
Y-0705000D01*
X1189000D01*
Y-0704000D01*
X1191000D01*
Y-0703000D01*
X1191999D01*
Y-0701000D01*
X1191000D01*
Y-0699000D01*
X1189999D01*
Y-0698000D01*
X1189000D01*
Y-0696000D01*
X1187999D01*
Y-0694000D01*
X1187000D01*
Y-0692000D01*
X1185999D01*
Y-0691000D01*
X1185000D01*
Y-0689000D01*
X1183999D01*
Y-0687000D01*
X1183000D01*
Y-0685000D01*
X1181999D01*
Y-0684000D01*
X1181000D01*
Y-0682000D01*
X1179999D01*
Y-0680000D01*
X1179000D01*
Y-0678000D01*
X1177999D01*
Y-0676000D01*
X1177000D01*
Y-0675000D01*
X1175999D01*
Y-0673000D01*
X1175000D01*
Y-0671000D01*
X1173999D01*
Y-0669000D01*
X1173000D01*
Y-0668000D01*
X1171999D01*
Y-0666000D01*
X1171000D01*
Y-0664000D01*
X1169999D01*
Y-0662000D01*
X1169000D01*
Y-0661000D01*
X1167999D01*
Y-0659000D01*
X1167000D01*
Y-0657000D01*
X1165999D01*
Y-0655000D01*
X1165000D01*
Y-0654000D01*
X1163999D01*
Y-0652000D01*
X1163000D01*
Y-0650000D01*
X1161999D01*
Y-0648000D01*
X1161000D01*
Y-0647000D01*
X1159999D01*
Y-0645000D01*
X1159000D01*
Y-0643000D01*
X1157999D01*
Y-0641000D01*
X1157000D01*
Y-0639000D01*
X1155999D01*
Y-0638000D01*
X1155000D01*
Y-0636000D01*
X1153999D01*
Y-0634000D01*
X1153000D01*
Y-0632000D01*
X1152000D01*
Y-0631000D01*
X1151000D01*
Y-0629000D01*
X1150000D01*
Y-0627000D01*
X1149000D01*
Y-0625000D01*
X1148000D01*
Y-0624000D01*
X1147000D01*
Y-0622000D01*
X1146000D01*
Y-0620000D01*
X1145000D01*
Y-0618000D01*
X1144000D01*
Y-0617000D01*
X1143000D01*
Y-0615000D01*
X1142000D01*
Y-0613000D01*
X1141000D01*
Y-0611000D01*
X1140000D01*
Y-0610000D01*
X1139000D01*
Y-0608000D01*
X1138000D01*
Y-0606000D01*
X1137000D01*
Y-0604000D01*
X1136000D01*
Y-0602000D01*
X1135000D01*
Y-0601000D01*
X1266000D01*
Y-0602000D01*
X1265000D01*
Y-0604000D01*
X1264000D01*
Y-0606000D01*
X1263000D01*
Y-0608000D01*
X1262000D01*
Y-0610000D01*
X1261000D01*
Y-0611000D01*
X1260000D01*
Y-0613000D01*
X1259000D01*
Y-0615000D01*
X1258000D01*
Y-0617000D01*
X1257000D01*
Y-0618000D01*
X1256000D01*
Y-0620000D01*
X1255000D01*
Y-0622000D01*
X1254000D01*
Y-0624000D01*
X1253000D01*
Y-0625000D01*
X1252000D01*
Y-0627000D01*
X1251000D01*
Y-0629000D01*
X1250000D01*
Y-0631000D01*
X1249000D01*
Y-0632000D01*
X1248000D01*
Y-0634000D01*
X1247000D01*
Y-0636000D01*
X1246000D01*
Y-0638000D01*
X1245000D01*
Y-0639000D01*
X1244000D01*
Y-0641000D01*
X1243000D01*
Y-0643000D01*
X1242000D01*
Y-0645000D01*
X1241000D01*
Y-0647000D01*
X1240000D01*
Y-0648000D01*
X1239000D01*
Y-0650000D01*
X1238000D01*
Y-0652000D01*
X1237000D01*
Y-0654000D01*
X1236000D01*
Y-0655000D01*
X1235000D01*
Y-0657000D01*
X1234000D01*
Y-0659000D01*
X1233000D01*
Y-0661000D01*
X1231999D01*
Y-0662000D01*
X1231000D01*
Y-0664000D01*
X1229999D01*
Y-0666000D01*
X1229000D01*
Y-0668000D01*
X1227999D01*
Y-0669000D01*
X1227000D01*
Y-0671000D01*
X1225999D01*
Y-0673000D01*
X1225000D01*
Y-0675000D01*
X1223999D01*
Y-0676000D01*
X1223000D01*
Y-0678000D01*
X1221999D01*
Y-0680000D01*
X1221000D01*
Y-0682000D01*
X1219999D01*
Y-0684000D01*
X1219000D01*
Y-0685000D01*
X1217999D01*
Y-0687000D01*
X1217000D01*
Y-0689000D01*
X1215999D01*
Y-0691000D01*
X1215000D01*
Y-0692000D01*
X1213999D01*
Y-0694000D01*
X1213000D01*
Y-0696000D01*
X1211999D01*
Y-0698000D01*
X1211000D01*
Y-0699000D01*
X1209999D01*
Y-0701000D01*
X1209000D01*
Y-0703000D01*
X1209999D01*
Y-0704000D01*
X1211999D01*
Y-0705000D01*
X1213999D01*
Y-0704000D01*
X1215000D01*
Y-0703000D01*
X1215999D01*
Y-0701000D01*
X1217000D01*
Y-0699000D01*
X1217999D01*
Y-0697000D01*
X1219000D01*
Y-0696000D01*
X1219999D01*
Y-0694000D01*
X1221000D01*
Y-0692000D01*
X1221999D01*
Y-0690000D01*
X1223000D01*
Y-0689000D01*
X1223999D01*
Y-0687000D01*
X1225000D01*
Y-0685000D01*
X1225999D01*
Y-0683000D01*
X1227000D01*
Y-0682000D01*
X1227999D01*
Y-0680000D01*
X1229000D01*
Y-0678000D01*
X1229999D01*
Y-0676000D01*
X1231000D01*
Y-0675000D01*
X1231999D01*
Y-0673000D01*
X1233000D01*
Y-0671000D01*
X1234000D01*
Y-0669000D01*
X1235000D01*
Y-0667000D01*
X1236000D01*
Y-0666000D01*
X1237000D01*
Y-0664000D01*
X1238000D01*
Y-0662000D01*
X1239000D01*
Y-0660000D01*
X1240000D01*
Y-0659000D01*
X1241000D01*
Y-0657000D01*
X1242000D01*
Y-0655000D01*
X1243000D01*
Y-0653000D01*
X1244000D01*
Y-0652000D01*
X1245000D01*
Y-0650000D01*
X1246000D01*
Y-0648000D01*
X1247000D01*
Y-0646000D01*
X1248000D01*
Y-0645000D01*
X1249000D01*
Y-0643000D01*
X1250000D01*
Y-0641000D01*
X1251000D01*
Y-0639000D01*
X1252000D01*
Y-0638000D01*
X1253000D01*
Y-0636000D01*
X1254000D01*
Y-0634000D01*
X1255000D01*
Y-0632000D01*
X1256000D01*
Y-0630000D01*
X1257000D01*
Y-0629000D01*
X1258000D01*
Y-0627000D01*
X1259000D01*
Y-0625000D01*
X1260000D01*
Y-0623000D01*
X1261000D01*
Y-0622000D01*
X1262000D01*
Y-0620000D01*
X1263000D01*
Y-0618000D01*
X1264000D01*
Y-0616000D01*
X1265000D01*
Y-0615000D01*
X1266000D01*
Y-0613000D01*
X1267000D01*
Y-0611000D01*
X1268000D01*
Y-0609000D01*
X1269000D01*
Y-0608000D01*
X1270000D01*
Y-0606000D01*
X1271000D01*
Y-0604000D01*
X1272000D01*
Y-0602000D01*
X1273000D01*
Y-0601000D01*
X1345000D01*
Y-0488000D01*
X1344000D01*
Y-0483000D01*
X1343000D01*
Y-0479000D01*
X1342000D01*
Y-0477000D01*
X1340999D01*
Y-0474000D01*
X1340000D01*
Y-0472000D01*
X1338999D01*
Y-0470000D01*
X1338000D01*
Y-0469000D01*
X1336999D01*
Y-0467000D01*
X1336000D01*
Y-0466000D01*
X1334999D01*
Y-0464000D01*
X1334000D01*
Y-0463000D01*
X1332999D01*
Y-0462000D01*
X1332000D01*
Y-0461000D01*
X1330999D01*
Y-0460000D01*
X1330000D01*
Y-0459000D01*
X1328999D01*
Y-0458000D01*
X1328000D01*
Y-0457000D01*
X1326999D01*
Y-0456000D01*
X1326000D01*
Y-0455000D01*
X1324000D01*
Y-0454000D01*
X1322999D01*
Y-0453000D01*
X1320999D01*
Y-0452000D01*
X1320000D01*
Y-0451000D01*
X1318000D01*
Y-0450000D01*
X1316000D01*
Y-0449000D01*
X1312999D01*
Y-0448000D01*
X1310999D01*
Y-0447000D01*
X1306999D01*
Y-0446000D01*
X1302000D01*
Y-0445000D01*
X0138000D01*
G37*
M02*
