G04 Output from Chad's Board Thing.*
%FSLAX26Y26*%
%MOIN*%
%LPC*%
%ADD10C,0.026*%
D10*
X1090999Y-0549000D02*
Y-0550000D01*
X1086999D01*
Y-0551000D01*
X1086000D01*
Y-0552000D01*
X1084000D01*
Y-0553000D01*
X1082999D01*
Y-0555000D01*
X1082000D01*
Y-0556000D01*
X1080999D01*
Y-0560000D01*
X1080000D01*
Y-0563000D01*
X1080999D01*
Y-0567000D01*
X1082000D01*
Y-0568000D01*
X1082999D01*
Y-0570000D01*
X1084000D01*
Y-0571000D01*
X1086000D01*
Y-0572000D01*
X1086999D01*
Y-0573000D01*
X1090999D01*
Y-0574000D01*
X1124000D01*
Y-0573000D01*
X1128000D01*
Y-0572000D01*
X1129000D01*
Y-0571000D01*
X1131000D01*
Y-0570000D01*
X1132000D01*
Y-0568000D01*
X1133000D01*
Y-0567000D01*
X1134000D01*
Y-0563000D01*
X1135000D01*
Y-0560000D01*
X1134000D01*
Y-0556000D01*
X1133000D01*
Y-0555000D01*
X1132000D01*
Y-0553000D01*
X1131000D01*
Y-0552000D01*
X1129000D01*
Y-0551000D01*
X1128000D01*
Y-0550000D01*
X1124000D01*
Y-0549000D01*
X1090999D01*
X1241000D02*
Y-0550000D01*
X1237000D01*
Y-0551000D01*
X1236000D01*
Y-0552000D01*
X1234000D01*
Y-0553000D01*
X1233000D01*
Y-0555000D01*
X1231999D01*
Y-0556000D01*
X1231000D01*
Y-0560000D01*
X1229999D01*
Y-0563000D01*
X1231000D01*
Y-0567000D01*
X1231999D01*
Y-0568000D01*
X1233000D01*
Y-0570000D01*
X1234000D01*
Y-0571000D01*
X1236000D01*
Y-0572000D01*
X1237000D01*
Y-0573000D01*
X1241000D01*
Y-0574000D01*
X1288999D01*
Y-0573000D01*
X1292999D01*
Y-0572000D01*
X1294000D01*
Y-0571000D01*
X1296000D01*
Y-0570000D01*
X1296999D01*
Y-0568000D01*
X1298000D01*
Y-0567000D01*
X1298999D01*
Y-0563000D01*
X1300000D01*
Y-0560000D01*
X1298999D01*
Y-0556000D01*
X1298000D01*
Y-0555000D01*
X1296999D01*
Y-0553000D01*
X1296000D01*
Y-0552000D01*
X1294000D01*
Y-0551000D01*
X1292999D01*
Y-0550000D01*
X1288999D01*
Y-0549000D01*
X1241000D01*
X1090999Y-0989000D02*
Y-0990000D01*
X1086999D01*
Y-0991000D01*
X1086000D01*
Y-0992000D01*
X1084000D01*
Y-0993000D01*
X1082999D01*
Y-0995000D01*
X1082000D01*
Y-0996000D01*
X1080999D01*
Y-1000000D01*
X1080000D01*
Y-1003000D01*
X1080999D01*
Y-1007000D01*
X1082000D01*
Y-1008000D01*
X1082999D01*
Y-1010000D01*
X1084000D01*
Y-1011000D01*
X1086000D01*
Y-1012000D01*
X1086999D01*
Y-1013000D01*
X1090999D01*
Y-1014000D01*
X1124000D01*
Y-1013000D01*
X1128000D01*
Y-1012000D01*
X1129000D01*
Y-1011000D01*
X1131000D01*
Y-1010000D01*
X1132000D01*
Y-1008000D01*
X1133000D01*
Y-1007000D01*
X1134000D01*
Y-1003000D01*
X1135000D01*
Y-1000000D01*
X1134000D01*
Y-0996000D01*
X1133000D01*
Y-0995000D01*
X1132000D01*
Y-0993000D01*
X1131000D01*
Y-0992000D01*
X1129000D01*
Y-0991000D01*
X1128000D01*
Y-0990000D01*
X1124000D01*
Y-0989000D01*
X1090999D01*
X1241000D02*
Y-0990000D01*
X1237000D01*
Y-0991000D01*
X1236000D01*
Y-0992000D01*
X1234000D01*
Y-0993000D01*
X1233000D01*
Y-0995000D01*
X1231999D01*
Y-0996000D01*
X1231000D01*
Y-1000000D01*
X1229999D01*
Y-1003000D01*
X1231000D01*
Y-1007000D01*
X1231999D01*
Y-1008000D01*
X1233000D01*
Y-1010000D01*
X1234000D01*
Y-1011000D01*
X1236000D01*
Y-1012000D01*
X1237000D01*
Y-1013000D01*
X1241000D01*
Y-1014000D01*
X1288999D01*
Y-1013000D01*
X1292999D01*
Y-1012000D01*
X1294000D01*
Y-1011000D01*
X1296000D01*
Y-1010000D01*
X1296999D01*
Y-1008000D01*
X1298000D01*
Y-1007000D01*
X1298999D01*
Y-1003000D01*
X1300000D01*
Y-1000000D01*
X1298999D01*
Y-0996000D01*
X1298000D01*
Y-0995000D01*
X1296999D01*
Y-0993000D01*
X1296000D01*
Y-0992000D01*
X1294000D01*
Y-0991000D01*
X1292999D01*
Y-0990000D01*
X1288999D01*
Y-0989000D01*
X1241000D01*
%LPD*%
%ADD11C,0.006*%
D11*
X1090999Y-0549000D02*
Y-0550000D01*
X1086999D01*
Y-0551000D01*
X1086000D01*
Y-0552000D01*
X1084000D01*
Y-0553000D01*
X1082999D01*
Y-0555000D01*
X1082000D01*
Y-0556000D01*
X1080999D01*
Y-0560000D01*
X1080000D01*
Y-0563000D01*
X1080999D01*
Y-0567000D01*
X1082000D01*
Y-0568000D01*
X1082999D01*
Y-0570000D01*
X1084000D01*
Y-0571000D01*
X1086000D01*
Y-0572000D01*
X1086999D01*
Y-0573000D01*
X1090999D01*
Y-0574000D01*
X1124000D01*
Y-0573000D01*
X1128000D01*
Y-0572000D01*
X1129000D01*
Y-0571000D01*
X1131000D01*
Y-0570000D01*
X1132000D01*
Y-0568000D01*
X1133000D01*
Y-0567000D01*
X1134000D01*
Y-0563000D01*
X1135000D01*
Y-0560000D01*
X1134000D01*
Y-0556000D01*
X1133000D01*
Y-0555000D01*
X1132000D01*
Y-0553000D01*
X1131000D01*
Y-0552000D01*
X1129000D01*
Y-0551000D01*
X1128000D01*
Y-0550000D01*
X1124000D01*
Y-0549000D01*
X1090999D01*
X1241000D02*
Y-0550000D01*
X1237000D01*
Y-0551000D01*
X1236000D01*
Y-0552000D01*
X1234000D01*
Y-0553000D01*
X1233000D01*
Y-0555000D01*
X1231999D01*
Y-0556000D01*
X1231000D01*
Y-0560000D01*
X1229999D01*
Y-0563000D01*
X1231000D01*
Y-0567000D01*
X1231999D01*
Y-0568000D01*
X1233000D01*
Y-0570000D01*
X1234000D01*
Y-0571000D01*
X1236000D01*
Y-0572000D01*
X1237000D01*
Y-0573000D01*
X1241000D01*
Y-0574000D01*
X1288999D01*
Y-0573000D01*
X1292999D01*
Y-0572000D01*
X1294000D01*
Y-0571000D01*
X1296000D01*
Y-0570000D01*
X1296999D01*
Y-0568000D01*
X1298000D01*
Y-0567000D01*
X1298999D01*
Y-0563000D01*
X1300000D01*
Y-0560000D01*
X1298999D01*
Y-0556000D01*
X1298000D01*
Y-0555000D01*
X1296999D01*
Y-0553000D01*
X1296000D01*
Y-0552000D01*
X1294000D01*
Y-0551000D01*
X1292999D01*
Y-0550000D01*
X1288999D01*
Y-0549000D01*
X1241000D01*
X1090999Y-0989000D02*
Y-0990000D01*
X1086999D01*
Y-0991000D01*
X1086000D01*
Y-0992000D01*
X1084000D01*
Y-0993000D01*
X1082999D01*
Y-0995000D01*
X1082000D01*
Y-0996000D01*
X1080999D01*
Y-1000000D01*
X1080000D01*
Y-1003000D01*
X1080999D01*
Y-1007000D01*
X1082000D01*
Y-1008000D01*
X1082999D01*
Y-1010000D01*
X1084000D01*
Y-1011000D01*
X1086000D01*
Y-1012000D01*
X1086999D01*
Y-1013000D01*
X1090999D01*
Y-1014000D01*
X1124000D01*
Y-1013000D01*
X1128000D01*
Y-1012000D01*
X1129000D01*
Y-1011000D01*
X1131000D01*
Y-1010000D01*
X1132000D01*
Y-1008000D01*
X1133000D01*
Y-1007000D01*
X1134000D01*
Y-1003000D01*
X1135000D01*
Y-1000000D01*
X1134000D01*
Y-0996000D01*
X1133000D01*
Y-0995000D01*
X1132000D01*
Y-0993000D01*
X1131000D01*
Y-0992000D01*
X1129000D01*
Y-0991000D01*
X1128000D01*
Y-0990000D01*
X1124000D01*
Y-0989000D01*
X1090999D01*
X1241000D02*
Y-0990000D01*
X1237000D01*
Y-0991000D01*
X1236000D01*
Y-0992000D01*
X1234000D01*
Y-0993000D01*
X1233000D01*
Y-0995000D01*
X1231999D01*
Y-0996000D01*
X1231000D01*
Y-1000000D01*
X1229999D01*
Y-1003000D01*
X1231000D01*
Y-1007000D01*
X1231999D01*
Y-1008000D01*
X1233000D01*
Y-1010000D01*
X1234000D01*
Y-1011000D01*
X1236000D01*
Y-1012000D01*
X1237000D01*
Y-1013000D01*
X1241000D01*
Y-1014000D01*
X1288999D01*
Y-1013000D01*
X1292999D01*
Y-1012000D01*
X1294000D01*
Y-1011000D01*
X1296000D01*
Y-1010000D01*
X1296999D01*
Y-1008000D01*
X1298000D01*
Y-1007000D01*
X1298999D01*
Y-1003000D01*
X1300000D01*
Y-1000000D01*
X1298999D01*
Y-0996000D01*
X1298000D01*
Y-0995000D01*
X1296999D01*
Y-0993000D01*
X1296000D01*
Y-0992000D01*
X1294000D01*
Y-0991000D01*
X1292999D01*
Y-0990000D01*
X1288999D01*
Y-0989000D01*
X1241000D01*
M02*
