G04 Output from Chad's Board Thing.*
%FSLAX26Y26*%
%MOIN*%
G36*
%ADD10C,0.01*%
D10*
X0496000Y-0628000D02*
Y-0642000D01*
X0497000D01*
X0498000D01*
X0499000D01*
X0500000D01*
X0501000D01*
X0502000D01*
X0503000D01*
X0504000D01*
X0505000D01*
X0506000D01*
X0507000D01*
X0508000D01*
X0509000D01*
X0510000D01*
X0511000D01*
X0512000D01*
X0513000D01*
X0514000D01*
X0515000D01*
X0516000D01*
X0517000D01*
X0518000D01*
X0519000D01*
X0520000D01*
X0521000D01*
X0522000D01*
X0728000D01*
Y-0840000D01*
X0722000D01*
Y-0833000D01*
X0715000D01*
Y-0826000D01*
X0708000D01*
Y-0819000D01*
X0701000D01*
Y-0806000D01*
X0694000D01*
Y-0805000D01*
X0696000D01*
Y-0802000D01*
X0694000D01*
Y-0799000D01*
X0686000D01*
Y-0797000D01*
X0685000D01*
Y-0796000D01*
X0683000D01*
Y-0799000D01*
X0681000D01*
Y-0806000D01*
X0674000D01*
Y-0818000D01*
X0673000D01*
Y-0817000D01*
X0671000D01*
Y-0818000D01*
X0670000D01*
Y-0819000D01*
X0671000D01*
Y-0820000D01*
X0673000D01*
Y-0819000D01*
X0681000D01*
Y-0826000D01*
X0687000D01*
Y-0833000D01*
X0694000D01*
Y-0840000D01*
X0701000D01*
Y-0847000D01*
X0708000D01*
Y-0853000D01*
X0715000D01*
Y-0860000D01*
X0510000D01*
Y-0662000D01*
X0517000D01*
Y-0669000D01*
X0523000D01*
Y-0676000D01*
X0530000D01*
Y-0683000D01*
X0537000D01*
Y-0696000D01*
X0544000D01*
Y-0689000D01*
X0551000D01*
Y-0683000D01*
X0558000D01*
Y-0676000D01*
X0551000D01*
Y-0669000D01*
X0544000D01*
Y-0662000D01*
X0537000D01*
Y-0655000D01*
X0530000D01*
Y-0648000D01*
X0523000D01*
Y-0642000D01*
X0522000D01*
X0521000D01*
X0520000D01*
X0519000D01*
X0518000D01*
X0517000D01*
X0516000D01*
X0515000D01*
X0514000D01*
X0513000D01*
X0512000D01*
X0511000D01*
X0510000D01*
X0509000D01*
X0508000D01*
X0507000D01*
X0506000D01*
X0505000D01*
X0504000D01*
X0503000D01*
X0502000D01*
X0501000D01*
X0500000D01*
X0499000D01*
X0498000D01*
X0497000D01*
X0496000D01*
Y-0874000D01*
X0742000D01*
Y-0628000D01*
X0496000D01*
G37*
G36*
X0580000Y-0673000D02*
Y-0674000D01*
X0579000D01*
Y-0676000D01*
X0580000D01*
Y-0677000D01*
X0581000D01*
Y-0676000D01*
X0582000D01*
Y-0674000D01*
X0581000D01*
Y-0673000D01*
X0580000D01*
G37*
G36*
X0660000Y-0669000D02*
Y-0676000D01*
X0667000D01*
Y-0669000D01*
X0660000D01*
G37*
G36*
X0667000Y-0662000D02*
Y-0669000D01*
X0674000D01*
Y-0662000D01*
X0667000D01*
G37*
G36*
X0558000Y-0669000D02*
Y-0676000D01*
X0564000D01*
Y-0669000D01*
X0558000D01*
G37*
G36*
X0573000Y-0684000D02*
Y-0687000D01*
X0576000D01*
Y-0684000D01*
X0573000D01*
G37*
G36*
X0571000Y-0676000D02*
Y-0678000D01*
X0572000D01*
Y-0679000D01*
X0573000D01*
Y-0678000D01*
X0574000D01*
Y-0676000D01*
X0571000D01*
G37*
G36*
X0558000Y-0688000D02*
Y-0689000D01*
X0556000D01*
Y-0690000D01*
X0557000D01*
Y-0691000D01*
X0558000D01*
Y-0692000D01*
X0559000D01*
Y-0691000D01*
X0560000D01*
Y-0689000D01*
X0559000D01*
Y-0688000D01*
X0558000D01*
G37*
G36*
X0653000Y-0676000D02*
Y-0683000D01*
X0660000D01*
Y-0676000D01*
X0653000D01*
G37*
G36*
X0694000Y-0669000D02*
Y-0676000D01*
X0701000D01*
Y-0669000D01*
X0694000D01*
G37*
G36*
X0553000Y-0707000D02*
Y-0708000D01*
X0552000D01*
Y-0709000D01*
X0553000D01*
Y-0710000D01*
X0556000D01*
Y-0708000D01*
X0555000D01*
Y-0707000D01*
X0553000D01*
G37*
G36*
X0577000Y-0701000D02*
Y-0702000D01*
X0578000D01*
Y-0704000D01*
X0580000D01*
Y-0703000D01*
X0581000D01*
Y-0701000D01*
X0577000D01*
G37*
G36*
X0568000Y-0694000D02*
Y-0695000D01*
X0567000D01*
Y-0697000D01*
X0568000D01*
Y-0698000D01*
X0569000D01*
Y-0697000D01*
X0570000D01*
Y-0695000D01*
X0569000D01*
Y-0694000D01*
X0568000D01*
G37*
G36*
X0667000Y-0689000D02*
Y-0696000D01*
X0674000D01*
Y-0689000D01*
X0667000D01*
G37*
G36*
X0551000Y-0699000D02*
Y-0700000D01*
X0550000D01*
Y-0701000D01*
X0551000D01*
Y-0702000D01*
X0553000D01*
Y-0701000D01*
X0554000D01*
Y-0700000D01*
X0553000D01*
Y-0699000D01*
X0551000D01*
G37*
G36*
X0701000Y-0689000D02*
Y-0696000D01*
X0708000D01*
Y-0689000D01*
X0701000D01*
G37*
G36*
X0559000Y-0697000D02*
Y-0700000D01*
X0561000D01*
Y-0699000D01*
X0562000D01*
Y-0697000D01*
X0559000D01*
G37*
G36*
X0588000Y-0671000D02*
Y-0672000D01*
X0587000D01*
Y-0674000D01*
X0588000D01*
Y-0675000D01*
X0590000D01*
Y-0671000D01*
X0588000D01*
G37*
G36*
X0592000Y-0669000D02*
Y-0676000D01*
X0599000D01*
Y-0669000D01*
X0592000D01*
G37*
G36*
X0599000Y-0676000D02*
Y-0678000D01*
X0598000D01*
Y-0680000D01*
X0599000D01*
Y-0696000D01*
X0605000D01*
Y-0676000D01*
X0599000D01*
G37*
G36*
X0564000Y-0662000D02*
Y-0669000D01*
X0569000D01*
Y-0671000D01*
X0571000D01*
Y-0670000D01*
X0572000D01*
Y-0669000D01*
X0592000D01*
Y-0662000D01*
X0564000D01*
G37*
G36*
X0581000Y-0682000D02*
Y-0684000D01*
X0582000D01*
Y-0685000D01*
X0584000D01*
Y-0682000D01*
X0581000D01*
G37*
G36*
X0566000Y-0686000D02*
Y-0687000D01*
X0565000D01*
Y-0689000D01*
X0568000D01*
Y-0687000D01*
X0567000D01*
Y-0686000D01*
X0566000D01*
G37*
G36*
X0681000Y-0676000D02*
Y-0683000D01*
X0694000D01*
Y-0676000D01*
X0681000D01*
G37*
G36*
X0592000Y-0688000D02*
Y-0691000D01*
X0594000D01*
Y-0690000D01*
X0595000D01*
Y-0688000D01*
X0592000D01*
G37*
G36*
X0547000Y-0718000D02*
Y-0719000D01*
X0546000D01*
Y-0720000D01*
X0547000D01*
Y-0721000D01*
X0549000D01*
Y-0720000D01*
X0550000D01*
Y-0718000D01*
X0547000D01*
G37*
G36*
X0674000Y-0683000D02*
Y-0689000D01*
X0681000D01*
Y-0683000D01*
X0674000D01*
G37*
G36*
X0549000Y-0690000D02*
Y-0691000D01*
X0548000D01*
Y-0693000D01*
X0549000D01*
Y-0694000D01*
X0551000D01*
Y-0693000D01*
X0552000D01*
Y-0692000D01*
X0551000D01*
Y-0691000D01*
X0550000D01*
Y-0690000D01*
X0549000D01*
G37*
G36*
X0592000Y-0696000D02*
Y-0703000D01*
X0599000D01*
Y-0696000D01*
X0592000D01*
G37*
G36*
X0543000Y-0701000D02*
Y-0702000D01*
X0542000D01*
Y-0704000D01*
X0545000D01*
Y-0703000D01*
X0546000D01*
Y-0702000D01*
X0545000D01*
Y-0701000D01*
X0543000D01*
G37*
G36*
X0569000Y-0703000D02*
Y-0705000D01*
X0570000D01*
Y-0706000D01*
X0572000D01*
Y-0703000D01*
X0569000D01*
G37*
G36*
X0660000Y-0696000D02*
Y-0703000D01*
X0667000D01*
Y-0696000D01*
X0660000D01*
G37*
G36*
X0586000Y-0698000D02*
Y-0701000D01*
X0589000D01*
Y-0699000D01*
X0588000D01*
Y-0698000D01*
X0586000D01*
G37*
G36*
X0640000Y-0676000D02*
Y-0703000D01*
X0646000D01*
Y-0676000D01*
X0640000D01*
G37*
G36*
X0575000Y-0692000D02*
Y-0695000D01*
X0578000D01*
Y-0692000D01*
X0575000D01*
G37*
G36*
X0584000Y-0690000D02*
Y-0693000D01*
X0586000D01*
Y-0692000D01*
X0587000D01*
Y-0691000D01*
X0586000D01*
Y-0690000D01*
X0584000D01*
G37*
G36*
X0590000Y-0680000D02*
Y-0683000D01*
X0592000D01*
Y-0682000D01*
X0593000D01*
Y-0680000D01*
X0590000D01*
G37*
G36*
X0563000Y-0678000D02*
Y-0681000D01*
X0566000D01*
Y-0678000D01*
X0563000D01*
G37*
G36*
X0588000Y-0707000D02*
Y-0710000D01*
X0590000D01*
Y-0709000D01*
X0591000D01*
Y-0707000D01*
X0588000D01*
G37*
G36*
X0572000Y-0711000D02*
Y-0712000D01*
X0571000D01*
Y-0713000D01*
X0572000D01*
Y-0714000D01*
X0574000D01*
Y-0713000D01*
X0575000D01*
Y-0712000D01*
X0574000D01*
Y-0711000D01*
X0572000D01*
G37*
G36*
X0599000Y-0703000D02*
Y-0704000D01*
X0596000D01*
Y-0707000D01*
X0599000D01*
Y-0710000D01*
X0605000D01*
Y-0703000D01*
X0599000D01*
G37*
G36*
X0561000Y-0705000D02*
Y-0708000D01*
X0563000D01*
Y-0707000D01*
X0564000D01*
Y-0705000D01*
X0561000D01*
G37*
G36*
X0687000Y-0696000D02*
Y-0703000D01*
X0701000D01*
Y-0696000D01*
X0687000D01*
G37*
G36*
X0563000Y-0713000D02*
Y-0716000D01*
X0566000D01*
Y-0713000D01*
X0563000D01*
G37*
G36*
X0620000Y-0760000D02*
Y-0763000D01*
X0623000D01*
Y-0760000D01*
X0620000D01*
G37*
G36*
X0605000Y-0737000D02*
Y-0740000D01*
X0608000D01*
Y-0738000D01*
X0607000D01*
Y-0737000D01*
X0605000D01*
G37*
G36*
X0660000Y-0776000D02*
Y-0779000D01*
X0662000D01*
Y-0778000D01*
X0663000D01*
Y-0776000D01*
X0660000D01*
G37*
G36*
X0556000Y-0715000D02*
Y-0716000D01*
X0555000D01*
Y-0718000D01*
X0556000D01*
Y-0719000D01*
X0557000D01*
Y-0718000D01*
X0558000D01*
Y-0716000D01*
X0557000D01*
Y-0715000D01*
X0556000D01*
G37*
G36*
X0653000Y-0703000D02*
Y-0717000D01*
X0660000D01*
Y-0703000D01*
X0653000D01*
G37*
G36*
X0574000Y-0719000D02*
Y-0720000D01*
X0573000D01*
Y-0721000D01*
X0574000D01*
Y-0722000D01*
X0577000D01*
Y-0720000D01*
X0576000D01*
Y-0719000D01*
X0574000D01*
G37*
G36*
X0545000Y-0709000D02*
Y-0710000D01*
X0544000D01*
Y-0712000D01*
X0545000D01*
Y-0713000D01*
X0547000D01*
Y-0711000D01*
X0548000D01*
Y-0710000D01*
X0547000D01*
Y-0709000D01*
X0545000D01*
G37*
G36*
X0580000D02*
Y-0712000D01*
X0582000D01*
Y-0711000D01*
X0583000D01*
Y-0709000D01*
X0580000D01*
G37*
G36*
X0681000Y-0710000D02*
Y-0717000D01*
X0687000D01*
Y-0710000D01*
X0681000D01*
G37*
G36*
X0633000Y-0703000D02*
Y-0717000D01*
X0640000D01*
Y-0703000D01*
X0633000D01*
G37*
G36*
X0667000Y-0744000D02*
Y-0751000D01*
X0674000D01*
Y-0744000D01*
X0667000D01*
G37*
G36*
X0599000Y-0713000D02*
Y-0716000D01*
X0601000D01*
Y-0713000D01*
X0599000D01*
G37*
G36*
X0530000Y-0696000D02*
Y-0724000D01*
X0537000D01*
Y-0715000D01*
X0539000D01*
Y-0712000D01*
X0538000D01*
Y-0711000D01*
X0537000D01*
Y-0696000D01*
X0530000D01*
G37*
G36*
X0577000Y-0921000D02*
Y-0931000D01*
X0597000D01*
Y-0921000D01*
X0577000D01*
G37*
G36*
X0687000Y-0901000D02*
Y-0951000D01*
X0697000D01*
Y-0901000D01*
X0687000D01*
G37*
G36*
X0607000D02*
Y-0911000D01*
X0617000D01*
Y-0901000D01*
X0607000D01*
G37*
G36*
X0656000Y-0830000D02*
Y-0832000D01*
X0657000D01*
Y-0833000D01*
X0651000D01*
Y-0832000D01*
X0648000D01*
Y-0833000D01*
X0646000D01*
Y-0840000D01*
X0674000D01*
Y-0833000D01*
X0659000D01*
Y-0832000D01*
X0660000D01*
Y-0831000D01*
X0659000D01*
Y-0830000D01*
X0656000D01*
G37*
G36*
X0538000Y-0931000D02*
Y-0941000D01*
X0547000D01*
Y-0931000D01*
X0538000D01*
G37*
G36*
X0577000Y-0891000D02*
Y-0901000D01*
X0607000D01*
Y-0891000D01*
X0577000D01*
G37*
G36*
X0637000D02*
Y-0901000D01*
X0667000D01*
Y-0891000D01*
X0637000D01*
G37*
G36*
X0697000D02*
Y-0901000D01*
X0727000D01*
Y-0891000D01*
X0697000D01*
G37*
G36*
X0520000Y-0921000D02*
Y-0931000D01*
X0538000D01*
Y-0921000D01*
X0520000D01*
G37*
G36*
X0577000Y-0951000D02*
Y-0961000D01*
X0607000D01*
Y-0951000D01*
X0577000D01*
G37*
G36*
X0640000Y-0724000D02*
Y-0730000D01*
X0646000D01*
Y-0724000D01*
X0640000D01*
G37*
G36*
X0539000Y-0720000D02*
Y-0721000D01*
X0538000D01*
Y-0722000D01*
X0539000D01*
Y-0723000D01*
X0541000D01*
Y-0722000D01*
X0542000D01*
Y-0721000D01*
X0541000D01*
Y-0720000D01*
X0539000D01*
G37*
G36*
X0646000Y-0717000D02*
Y-0724000D01*
X0653000D01*
Y-0717000D01*
X0646000D01*
G37*
G36*
X0599000Y-0748000D02*
Y-0751000D01*
X0602000D01*
Y-0748000D01*
X0599000D01*
G37*
G36*
X0642000Y-0807000D02*
Y-0808000D01*
X0641000D01*
Y-0810000D01*
X0645000D01*
Y-0808000D01*
X0644000D01*
Y-0807000D01*
X0642000D01*
G37*
G36*
X0640000Y-0799000D02*
Y-0806000D01*
X0646000D01*
Y-0799000D01*
X0640000D01*
G37*
G36*
X0627000Y-0901000D02*
Y-0951000D01*
X0637000D01*
Y-0901000D01*
X0627000D01*
G37*
G36*
X0643000Y-0780000D02*
Y-0783000D01*
X0646000D01*
Y-0780000D01*
X0643000D01*
G37*
G36*
X0670000Y-0782000D02*
Y-0785000D01*
X0673000D01*
Y-0782000D01*
X0670000D01*
G37*
G36*
X0698000Y-0783000D02*
Y-0784000D01*
X0697000D01*
Y-0786000D01*
X0700000D01*
Y-0784000D01*
X0699000D01*
Y-0783000D01*
X0698000D01*
G37*
G36*
X0674000Y-0737000D02*
Y-0744000D01*
X0694000D01*
Y-0737000D01*
X0674000D01*
G37*
G36*
X0654000Y-0786000D02*
Y-0787000D01*
X0653000D01*
Y-0788000D01*
X0654000D01*
Y-0789000D01*
X0657000D01*
Y-0787000D01*
X0656000D01*
Y-0786000D01*
X0654000D01*
G37*
G36*
X0681000Y-0788000D02*
Y-0791000D01*
X0683000D01*
Y-0788000D01*
X0681000D01*
G37*
G36*
X0672000Y-0790000D02*
Y-0793000D01*
X0675000D01*
Y-0790000D01*
X0672000D01*
G37*
G36*
X0648000Y-0797000D02*
Y-0798000D01*
X0647000D01*
Y-0799000D01*
X0648000D01*
Y-0800000D01*
X0650000D01*
Y-0799000D01*
X0651000D01*
Y-0798000D01*
X0650000D01*
Y-0797000D01*
X0648000D01*
G37*
G36*
X0537000Y-0724000D02*
Y-0730000D01*
X0564000D01*
Y-0724000D01*
X0537000D01*
G37*
G36*
X0646000Y-0788000D02*
Y-0789000D01*
X0645000D01*
Y-0791000D01*
X0646000D01*
Y-0792000D01*
X0648000D01*
Y-0789000D01*
X0647000D01*
Y-0788000D01*
X0646000D01*
G37*
G36*
X0567000Y-0931000D02*
Y-0951000D01*
X0577000D01*
Y-0931000D01*
X0567000D01*
G37*
G36*
X0511000Y-0901000D02*
Y-0921000D01*
X0520000D01*
Y-0901000D01*
X0511000D01*
G37*
G36*
X0646000Y-0824000D02*
Y-0826000D01*
X0640000D01*
Y-0833000D01*
X0646000D01*
Y-0827000D01*
X0648000D01*
Y-0826000D01*
X0649000D01*
Y-0824000D01*
X0646000D01*
G37*
G36*
X0727000Y-0901000D02*
Y-0951000D01*
X0737000D01*
Y-0901000D01*
X0727000D01*
G37*
G36*
X0665000Y-0827000D02*
Y-0828000D01*
X0664000D01*
Y-0830000D01*
X0668000D01*
Y-0828000D01*
X0667000D01*
Y-0827000D01*
X0665000D01*
G37*
G36*
X0697000Y-0951000D02*
Y-0961000D01*
X0727000D01*
Y-0951000D01*
X0697000D01*
G37*
G36*
X0637000D02*
Y-0961000D01*
X0667000D01*
Y-0951000D01*
X0637000D01*
G37*
G36*
X0667000Y-0901000D02*
Y-0951000D01*
X0677000D01*
Y-0901000D01*
X0667000D01*
G37*
G36*
X0607000Y-0941000D02*
Y-0951000D01*
X0617000D01*
Y-0941000D01*
X0607000D01*
G37*
G36*
X0520000Y-0891000D02*
Y-0901000D01*
X0547000D01*
Y-0891000D01*
X0520000D01*
G37*
G36*
X0678000Y-0780000D02*
Y-0782000D01*
X0679000D01*
Y-0783000D01*
X0681000D01*
Y-0780000D01*
X0678000D01*
G37*
G36*
X0636000Y-0782000D02*
Y-0783000D01*
X0635000D01*
Y-0785000D01*
X0636000D01*
Y-0786000D01*
X0637000D01*
Y-0785000D01*
X0638000D01*
Y-0783000D01*
X0637000D01*
Y-0782000D01*
X0636000D01*
G37*
G36*
X0660000Y-0765000D02*
Y-0768000D01*
X0657000D01*
Y-0770000D01*
X0658000D01*
Y-0771000D01*
X0667000D01*
Y-0778000D01*
X0686000D01*
Y-0780000D01*
X0689000D01*
Y-0778000D01*
X0701000D01*
Y-0771000D01*
X0674000D01*
Y-0765000D01*
X0660000D01*
G37*
G36*
X0663000Y-0819000D02*
Y-0820000D01*
X0662000D01*
Y-0821000D01*
X0663000D01*
Y-0822000D01*
X0665000D01*
Y-0821000D01*
X0666000D01*
Y-0820000D01*
X0665000D01*
Y-0819000D01*
X0663000D01*
G37*
G36*
X0644000Y-0815000D02*
Y-0816000D01*
X0643000D01*
Y-0818000D01*
X0647000D01*
Y-0816000D01*
X0646000D01*
Y-0815000D01*
X0644000D01*
G37*
G36*
X0664000Y-0792000D02*
Y-0795000D01*
X0667000D01*
Y-0793000D01*
X0666000D01*
Y-0792000D01*
X0664000D01*
G37*
G36*
X0691000Y-0794000D02*
Y-0797000D01*
X0694000D01*
Y-0794000D01*
X0691000D01*
G37*
G36*
X0656000Y-0795000D02*
Y-0798000D01*
X0658000D01*
Y-0797000D01*
X0659000D01*
Y-0795000D01*
X0656000D01*
G37*
G36*
X0666000Y-0801000D02*
Y-0803000D01*
X0667000D01*
Y-0804000D01*
X0669000D01*
Y-0801000D01*
X0666000D01*
G37*
G36*
X0637000Y-0791000D02*
Y-0792000D01*
X0626000D01*
Y-0799000D01*
X0640000D01*
Y-0791000D01*
X0637000D01*
G37*
G36*
X0567000Y-0901000D02*
Y-0921000D01*
X0577000D01*
Y-0901000D01*
X0567000D01*
G37*
G36*
X0547000Y-0941000D02*
Y-0951000D01*
X0511000D01*
Y-0961000D01*
X0556000D01*
Y-0941000D01*
X0547000D01*
G37*
G36*
Y-0901000D02*
Y-0911000D01*
X0557000D01*
Y-0901000D01*
X0547000D01*
G37*
G36*
X0673000Y-0825000D02*
Y-0828000D01*
X0674000D01*
Y-0833000D01*
X0681000D01*
Y-0826000D01*
X0675000D01*
Y-0825000D01*
X0673000D01*
G37*
G36*
X0669000Y-0809000D02*
Y-0810000D01*
X0668000D01*
Y-0811000D01*
X0669000D01*
Y-0812000D01*
X0671000D01*
Y-0811000D01*
X0672000D01*
Y-0810000D01*
X0671000D01*
Y-0809000D01*
X0669000D01*
G37*
G36*
X0633000Y-0806000D02*
Y-0826000D01*
X0640000D01*
Y-0806000D01*
X0633000D01*
G37*
G36*
X0662000Y-0784000D02*
Y-0787000D01*
X0664000D01*
Y-0786000D01*
X0665000D01*
Y-0784000D01*
X0662000D01*
G37*
G36*
X0701000Y-0778000D02*
Y-0792000D01*
X0699000D01*
Y-0795000D01*
X0701000D01*
Y-0806000D01*
X0708000D01*
Y-0778000D01*
X0701000D01*
G37*
G36*
X0675000Y-0798000D02*
Y-0801000D01*
X0678000D01*
Y-0799000D01*
X0677000D01*
Y-0798000D01*
X0675000D01*
G37*
G36*
X0660000Y-0811000D02*
Y-0814000D01*
X0663000D01*
Y-0811000D01*
X0660000D01*
G37*
G36*
X0652000Y-0813000D02*
Y-0816000D01*
X0655000D01*
Y-0814000D01*
X0654000D01*
Y-0813000D01*
X0652000D01*
G37*
G36*
X0658000Y-0803000D02*
Y-0806000D01*
X0660000D01*
Y-0805000D01*
X0661000D01*
Y-0803000D01*
X0658000D01*
G37*
G36*
X0650000Y-0805000D02*
Y-0806000D01*
X0649000D01*
Y-0807000D01*
X0650000D01*
Y-0808000D01*
X0652000D01*
Y-0807000D01*
X0653000D01*
Y-0806000D01*
X0652000D01*
Y-0805000D01*
X0650000D01*
G37*
G36*
X0582000Y-0717000D02*
Y-0720000D01*
X0584000D01*
Y-0719000D01*
X0585000D01*
Y-0717000D01*
X0582000D01*
G37*
G36*
X0605000Y-0710000D02*
Y-0717000D01*
X0593000D01*
Y-0715000D01*
X0590000D01*
Y-0718000D01*
X0592000D01*
Y-0724000D01*
X0585000D01*
Y-0725000D01*
X0584000D01*
Y-0728000D01*
X0585000D01*
Y-0737000D01*
X0581000D01*
Y-0736000D01*
X0578000D01*
Y-0730000D01*
X0579000D01*
Y-0728000D01*
X0576000D01*
Y-0730000D01*
X0564000D01*
Y-0737000D01*
X0578000D01*
Y-0744000D01*
X0585000D01*
Y-0751000D01*
X0592000D01*
Y-0758000D01*
X0599000D01*
Y-0751000D01*
X0593000D01*
Y-0750000D01*
X0592000D01*
Y-0737000D01*
X0599000D01*
Y-0730000D01*
X0603000D01*
Y-0732000D01*
X0606000D01*
Y-0730000D01*
X0612000D01*
Y-0744000D01*
X0605000D01*
Y-0758000D01*
X0604000D01*
Y-0756000D01*
X0601000D01*
Y-0758000D01*
X0599000D01*
Y-0765000D01*
X0605000D01*
Y-0778000D01*
X0612000D01*
Y-0785000D01*
X0619000D01*
X0620000D01*
X0621000D01*
X0622000D01*
X0623000D01*
X0624000D01*
X0625000D01*
X0627000D01*
Y-0786000D01*
X0626000D01*
Y-0785000D01*
X0625000D01*
X0624000D01*
X0623000D01*
X0622000D01*
X0621000D01*
X0620000D01*
X0619000D01*
Y-0792000D01*
X0626000D01*
Y-0787000D01*
X0627000D01*
Y-0788000D01*
X0629000D01*
Y-0787000D01*
X0630000D01*
Y-0785000D01*
X0633000D01*
Y-0778000D01*
X0640000D01*
Y-0771000D01*
X0649000D01*
Y-0772000D01*
X0650000D01*
Y-0773000D01*
X0651000D01*
Y-0772000D01*
X0652000D01*
Y-0771000D01*
X0653000D01*
Y-0765000D01*
X0660000D01*
Y-0744000D01*
X0653000D01*
Y-0751000D01*
X0633000D01*
Y-0765000D01*
X0626000D01*
Y-0771000D01*
X0625000D01*
Y-0768000D01*
X0623000D01*
Y-0769000D01*
X0622000D01*
Y-0771000D01*
X0616000D01*
Y-0770000D01*
X0615000D01*
Y-0771000D01*
X0612000D01*
Y-0765000D01*
X0615000D01*
Y-0763000D01*
X0614000D01*
Y-0762000D01*
X0612000D01*
Y-0758000D01*
X0619000D01*
Y-0755000D01*
X0620000D01*
Y-0754000D01*
X0621000D01*
Y-0752000D01*
X0620000D01*
Y-0751000D01*
X0626000D01*
Y-0744000D01*
X0619000D01*
Y-0724000D01*
X0626000D01*
Y-0717000D01*
X0619000D01*
Y-0710000D01*
X0605000D01*
G37*
G36*
X0654000Y-0821000D02*
Y-0824000D01*
X0657000D01*
Y-0821000D01*
X0654000D01*
G37*
G36*
X0646000Y-0730000D02*
Y-0737000D01*
X0660000D01*
Y-0730000D01*
X0646000D01*
G37*
G36*
X0641000Y-0772000D02*
Y-0775000D01*
X0643000D01*
Y-0774000D01*
X0644000D01*
Y-0772000D01*
X0641000D01*
G37*
G36*
X0566000Y-0721000D02*
Y-0722000D01*
X0565000D01*
Y-0724000D01*
X0566000D01*
Y-0725000D01*
X0568000D01*
Y-0724000D01*
X0569000D01*
Y-0722000D01*
X0567000D01*
Y-0721000D01*
X0566000D01*
G37*
G36*
X0667000Y-0717000D02*
Y-0724000D01*
X0681000D01*
Y-0717000D01*
X0667000D01*
G37*
G36*
X0626000Y-0751000D02*
Y-0752000D01*
X0627000D01*
Y-0753000D01*
X0628000D01*
Y-0752000D01*
X0629000D01*
Y-0751000D01*
X0626000D01*
G37*
G36*
X0660000Y-0724000D02*
Y-0730000D01*
X0667000D01*
Y-0724000D01*
X0660000D01*
G37*
G36*
X0629000Y-0757000D02*
Y-0758000D01*
X0628000D01*
Y-0760000D01*
X0629000D01*
Y-0761000D01*
X0631000D01*
Y-0758000D01*
X0630000D01*
Y-0757000D01*
X0629000D01*
G37*
G36*
X0633000Y-0730000D02*
Y-0737000D01*
X0640000D01*
Y-0730000D01*
X0633000D01*
G37*
G36*
X0651000Y-0778000D02*
Y-0781000D01*
X0654000D01*
Y-0778000D01*
X0651000D01*
G37*
G36*
X0689000Y-0786000D02*
Y-0789000D01*
X0691000D01*
Y-0788000D01*
X0692000D01*
Y-0786000D01*
X0689000D01*
G37*
G36*
X0597000Y-0739000D02*
Y-0742000D01*
X0598000D01*
Y-0743000D01*
X0599000D01*
Y-0742000D01*
X0600000D01*
Y-0740000D01*
X0599000D01*
Y-0739000D01*
X0597000D01*
G37*
G36*
X0694000Y-0730000D02*
Y-0737000D01*
X0715000D01*
Y-0730000D01*
X0694000D01*
G37*
M02*
